<?xml version="1.0" encoding="utf-8" standalone="no"?>
<!DOCTYPE svg PUBLIC "-//W3C//DTD SVG 1.1//EN"
  "http://www.w3.org/Graphics/SVG/1.1/DTD/svg11.dtd">
<svg xmlns:xlink="http://www.w3.org/1999/xlink" width="417.645pt" height="215.552772pt" viewBox="0 0 417.645 215.552772" xmlns="http://www.w3.org/2000/svg" version="1.1">
 <metadata>
  <rdf:RDF xmlns:dc="http://purl.org/dc/elements/1.1/" xmlns:cc="http://creativecommons.org/ns#" xmlns:rdf="http://www.w3.org/1999/02/22-rdf-syntax-ns#">
   <cc:Work>
    <dc:type rdf:resource="http://purl.org/dc/dcmitype/StillImage"/>
    <dc:date>2024-04-03T22:55:06.761387</dc:date>
    <dc:format>image/svg+xml</dc:format>
    <dc:creator>
     <cc:Agent>
      <dc:title>Matplotlib v3.8.3, https://matplotlib.org/</dc:title>
     </cc:Agent>
    </dc:creator>
   </cc:Work>
  </rdf:RDF>
 </metadata>
 <defs>
  <style type="text/css">*{stroke-linejoin: round; stroke-linecap: butt}</style>
 </defs>
 <g id="figure_1">
  <g id="patch_1">
   <path d="M 0 215.552772 
L 417.645 215.552772 
L 417.645 -0 
L 0 -0 
z
" style="fill: #ffffff"/>
  </g>
  <g id="axes_1">
   <g id="patch_2">
    <path d="M 43.78125 177.996522 
L 400.90125 177.996522 
L 400.90125 7.2 
L 43.78125 7.2 
z
" style="fill: #ffffff"/>
   </g>
   <g id="PolyCollection_1">
    <defs>
     <path id="me99958a974" d="M 43.78125 -45.319728 
L 43.78125 -47.35376 
L 44.81638 -47.276125 
L 45.851511 -47.245071 
L 46.886641 -47.229544 
L 47.921772 -47.214017 
L 48.956902 -47.19849 
L 49.992033 -47.182963 
L 51.027163 -47.167436 
L 52.062293 -47.19849 
L 53.097424 -47.245071 
L 54.132554 -47.245071 
L 55.167685 -47.260598 
L 56.202815 -47.307179 
L 57.237946 -47.322706 
L 58.273076 -47.291652 
L 59.308207 -47.338233 
L 60.343337 -47.431394 
L 61.378467 -47.509029 
L 62.413598 -47.524556 
L 63.448728 -47.571137 
L 64.483859 -47.602191 
L 65.518989 -47.617718 
L 66.55412 -47.679826 
L 67.58925 -47.788514 
L 68.62438 -47.928257 
L 69.659511 -48.021419 
L 70.694641 -48.068 
L 71.729772 -48.11458 
L 72.764902 -48.207742 
L 73.800033 -48.316431 
L 74.835163 -48.409593 
L 75.870293 -48.533808 
L 76.905424 -48.689078 
L 77.940554 -48.82882 
L 78.975685 -48.953036 
L 80.010815 -49.123833 
L 81.045946 -49.325683 
L 82.081076 -49.527533 
L 83.116207 -49.69833 
L 84.151337 -49.931234 
L 85.186467 -50.21072 
L 86.221598 -50.490205 
L 87.256728 -50.676528 
L 88.291859 -50.909433 
L 89.326989 -51.251026 
L 90.36212 -51.623673 
L 91.39725 -51.949739 
L 92.43238 -52.244751 
L 93.467511 -52.648452 
L 94.502641 -53.098733 
L 95.537772 -53.533488 
L 96.572902 -53.875081 
L 97.608033 -54.201147 
L 98.643163 -54.589321 
L 99.678293 -55.05513 
L 100.713424 -55.598573 
L 101.748554 -56.204125 
L 102.783685 -56.794149 
L 103.818815 -57.275485 
L 104.853946 -57.663659 
L 105.889076 -58.129467 
L 106.924207 -58.610803 
L 107.959337 -59.107666 
L 108.994467 -59.682163 
L 110.029598 -60.380876 
L 111.064728 -61.033008 
L 112.099859 -61.591979 
L 113.134989 -62.182003 
L 114.17012 -62.91177 
L 115.20525 -63.579429 
L 116.24038 -64.247088 
L 117.275511 -64.945801 
L 118.310641 -65.784257 
L 119.345772 -66.653767 
L 120.380902 -67.616438 
L 121.416033 -68.579109 
L 122.451163 -69.479673 
L 123.486293 -70.287074 
L 124.521424 -71.110003 
L 125.556554 -72.026093 
L 126.591685 -73.035346 
L 127.626815 -73.98249 
L 128.661946 -74.883053 
L 129.697076 -75.752563 
L 130.732207 -76.668653 
L 131.767337 -77.615798 
L 132.802467 -78.609523 
L 133.837598 -79.54114 
L 134.872728 -80.519339 
L 135.907859 -81.544118 
L 136.942989 -82.662059 
L 137.97812 -83.717892 
L 139.01325 -84.820306 
L 140.04838 -86.031408 
L 141.083511 -87.335673 
L 142.118641 -88.484667 
L 143.153772 -89.633662 
L 144.188902 -91.077669 
L 145.224033 -92.770107 
L 146.259163 -94.322803 
L 147.294293 -95.797864 
L 148.329424 -97.567937 
L 149.364554 -99.53986 
L 150.399685 -101.48073 
L 151.434815 -103.343965 
L 152.469946 -105.40905 
L 153.505076 -107.675986 
L 154.540207 -109.834233 
L 155.575337 -111.806156 
L 156.610467 -113.700445 
L 157.645598 -115.687895 
L 158.680728 -117.892723 
L 159.715859 -120.159659 
L 160.750989 -122.426594 
L 161.78612 -124.351937 
L 162.82125 -126.261753 
L 163.85638 -128.249203 
L 164.891511 -130.329815 
L 165.926641 -132.161996 
L 166.961772 -133.683638 
L 167.996902 -134.89474 
L 169.032033 -136.105843 
L 170.067163 -137.301419 
L 171.102293 -138.543575 
L 172.137424 -139.599408 
L 173.172554 -140.468918 
L 174.207685 -141.245266 
L 175.242815 -141.928452 
L 176.277946 -142.611638 
L 177.313076 -143.248243 
L 178.348207 -143.807213 
L 179.383337 -144.319603 
L 180.418467 -144.84752 
L 181.453598 -145.437544 
L 182.488728 -146.136257 
L 183.523859 -147.067874 
L 184.558989 -148.511881 
L 185.59412 -150.359589 
L 186.62925 -152.300459 
L 187.66438 -154.101586 
L 188.699511 -156.135617 
L 189.734641 -158.511241 
L 190.769772 -161.11977 
L 191.804902 -163.666191 
L 192.840033 -166.367881 
L 193.875163 -169.209314 
L 194.910293 -172.299179 
L 195.945424 -175.575367 
L 196.980554 -178.727339 
L 198.015685 -181.599826 
L 199.050815 -184.239408 
L 200.085946 -186.98768 
L 201.121076 -189.68937 
L 202.156207 -192.142629 
L 203.191337 -194.4872 
L 204.226467 -196.567812 
L 205.261598 -198.41552 
L 206.296728 -199.797419 
L 207.331859 -200.511659 
L 208.366989 -200.589293 
L 209.40212 -200.449551 
L 210.43725 -200.107958 
L 211.47238 -199.005544 
L 212.507511 -196.816243 
L 213.542641 -193.928229 
L 214.577772 -190.667568 
L 215.612902 -186.801356 
L 216.648033 -182.205377 
L 217.683163 -177.236751 
L 218.718293 -171.98864 
L 219.753424 -166.507624 
L 220.788554 -160.638434 
L 221.823685 -154.520813 
L 222.858815 -147.921857 
L 223.893946 -141.089996 
L 224.929076 -134.413405 
L 225.964207 -128.000772 
L 226.999337 -121.541558 
L 228.034467 -115.05129 
L 229.069598 -108.809453 
L 230.104728 -103.080007 
L 231.139859 -97.676626 
L 232.174989 -92.614838 
L 233.21012 -87.894643 
L 234.24525 -83.655784 
L 235.28038 -79.727464 
L 236.315511 -76.218372 
L 237.350641 -73.144034 
L 238.385772 -70.380236 
L 239.420902 -67.895923 
L 240.456033 -65.753203 
L 241.491163 -63.889968 
L 242.526293 -62.150949 
L 243.561424 -60.598253 
L 244.596554 -59.34057 
L 245.631685 -58.238156 
L 246.666815 -57.166796 
L 247.701946 -56.266233 
L 248.737076 -55.56752 
L 249.772207 -54.993022 
L 250.807337 -54.465106 
L 251.842467 -54.014824 
L 252.877598 -53.62665 
L 253.912728 -53.285057 
L 254.947859 -53.021099 
L 255.982989 -52.772667 
L 257.01812 -52.524236 
L 258.05325 -52.306859 
L 259.08838 -52.167116 
L 260.123511 -52.027373 
L 261.158641 -51.84105 
L 262.193772 -51.68578 
L 263.228902 -51.608146 
L 264.264033 -51.608146 
L 265.299163 -51.592619 
L 266.334293 -51.608146 
L 267.369424 -51.608146 
L 268.404554 -51.6392 
L 269.439685 -51.592619 
L 270.474815 -51.546038 
L 271.509946 -51.577092 
L 272.545076 -51.6392 
L 273.580207 -51.732361 
L 274.615337 -51.732361 
L 275.650467 -51.716834 
L 276.685598 -51.6392 
L 277.720728 -51.654727 
L 278.755859 -51.670253 
L 279.790989 -51.68578 
L 280.82612 -51.670253 
L 281.86125 -51.670253 
L 282.89638 -51.623673 
L 283.931511 -51.561565 
L 284.966641 -51.561565 
L 286.001772 -51.546038 
L 287.036902 -51.468403 
L 288.072033 -51.297607 
L 289.107163 -51.219972 
L 290.142293 -51.204445 
L 291.177424 -51.111283 
L 292.212554 -50.956013 
L 293.247685 -50.847325 
L 294.282815 -50.816271 
L 295.317946 -50.800744 
L 296.353076 -50.738636 
L 296.353076 -45.319728 
L 296.353076 -45.319728 
L 295.317946 -45.319728 
L 294.282815 -45.319728 
L 293.247685 -45.319728 
L 292.212554 -45.319728 
L 291.177424 -45.319728 
L 290.142293 -45.319728 
L 289.107163 -45.319728 
L 288.072033 -45.319728 
L 287.036902 -45.319728 
L 286.001772 -45.319728 
L 284.966641 -45.319728 
L 283.931511 -45.319728 
L 282.89638 -45.319728 
L 281.86125 -45.319728 
L 280.82612 -45.319728 
L 279.790989 -45.319728 
L 278.755859 -45.319728 
L 277.720728 -45.319728 
L 276.685598 -45.319728 
L 275.650467 -45.319728 
L 274.615337 -45.319728 
L 273.580207 -45.319728 
L 272.545076 -45.319728 
L 271.509946 -45.319728 
L 270.474815 -45.319728 
L 269.439685 -45.319728 
L 268.404554 -45.319728 
L 267.369424 -45.319728 
L 266.334293 -45.319728 
L 265.299163 -45.319728 
L 264.264033 -45.319728 
L 263.228902 -45.319728 
L 262.193772 -45.319728 
L 261.158641 -45.319728 
L 260.123511 -45.319728 
L 259.08838 -45.319728 
L 258.05325 -45.319728 
L 257.01812 -45.319728 
L 255.982989 -45.319728 
L 254.947859 -45.319728 
L 253.912728 -45.319728 
L 252.877598 -45.319728 
L 251.842467 -45.319728 
L 250.807337 -45.319728 
L 249.772207 -45.319728 
L 248.737076 -45.319728 
L 247.701946 -45.319728 
L 246.666815 -45.319728 
L 245.631685 -45.319728 
L 244.596554 -45.319728 
L 243.561424 -45.319728 
L 242.526293 -45.319728 
L 241.491163 -45.319728 
L 240.456033 -45.319728 
L 239.420902 -45.319728 
L 238.385772 -45.319728 
L 237.350641 -45.319728 
L 236.315511 -45.319728 
L 235.28038 -45.319728 
L 234.24525 -45.319728 
L 233.21012 -45.319728 
L 232.174989 -45.319728 
L 231.139859 -45.319728 
L 230.104728 -45.319728 
L 229.069598 -45.319728 
L 228.034467 -45.319728 
L 226.999337 -45.319728 
L 225.964207 -45.319728 
L 224.929076 -45.319728 
L 223.893946 -45.319728 
L 222.858815 -45.319728 
L 221.823685 -45.319728 
L 220.788554 -45.319728 
L 219.753424 -45.319728 
L 218.718293 -45.319728 
L 217.683163 -45.319728 
L 216.648033 -45.319728 
L 215.612902 -45.319728 
L 214.577772 -45.319728 
L 213.542641 -45.319728 
L 212.507511 -45.319728 
L 211.47238 -45.319728 
L 210.43725 -45.319728 
L 209.40212 -45.319728 
L 208.366989 -45.319728 
L 207.331859 -45.319728 
L 206.296728 -45.319728 
L 205.261598 -45.319728 
L 204.226467 -45.319728 
L 203.191337 -45.319728 
L 202.156207 -45.319728 
L 201.121076 -45.319728 
L 200.085946 -45.319728 
L 199.050815 -45.319728 
L 198.015685 -45.319728 
L 196.980554 -45.319728 
L 195.945424 -45.319728 
L 194.910293 -45.319728 
L 193.875163 -45.319728 
L 192.840033 -45.319728 
L 191.804902 -45.319728 
L 190.769772 -45.319728 
L 189.734641 -45.319728 
L 188.699511 -45.319728 
L 187.66438 -45.319728 
L 186.62925 -45.319728 
L 185.59412 -45.319728 
L 184.558989 -45.319728 
L 183.523859 -45.319728 
L 182.488728 -45.319728 
L 181.453598 -45.319728 
L 180.418467 -45.319728 
L 179.383337 -45.319728 
L 178.348207 -45.319728 
L 177.313076 -45.319728 
L 176.277946 -45.319728 
L 175.242815 -45.319728 
L 174.207685 -45.319728 
L 173.172554 -45.319728 
L 172.137424 -45.319728 
L 171.102293 -45.319728 
L 170.067163 -45.319728 
L 169.032033 -45.319728 
L 167.996902 -45.319728 
L 166.961772 -45.319728 
L 165.926641 -45.319728 
L 164.891511 -45.319728 
L 163.85638 -45.319728 
L 162.82125 -45.319728 
L 161.78612 -45.319728 
L 160.750989 -45.319728 
L 159.715859 -45.319728 
L 158.680728 -45.319728 
L 157.645598 -45.319728 
L 156.610467 -45.319728 
L 155.575337 -45.319728 
L 154.540207 -45.319728 
L 153.505076 -45.319728 
L 152.469946 -45.319728 
L 151.434815 -45.319728 
L 150.399685 -45.319728 
L 149.364554 -45.319728 
L 148.329424 -45.319728 
L 147.294293 -45.319728 
L 146.259163 -45.319728 
L 145.224033 -45.319728 
L 144.188902 -45.319728 
L 143.153772 -45.319728 
L 142.118641 -45.319728 
L 141.083511 -45.319728 
L 140.04838 -45.319728 
L 139.01325 -45.319728 
L 137.97812 -45.319728 
L 136.942989 -45.319728 
L 135.907859 -45.319728 
L 134.872728 -45.319728 
L 133.837598 -45.319728 
L 132.802467 -45.319728 
L 131.767337 -45.319728 
L 130.732207 -45.319728 
L 129.697076 -45.319728 
L 128.661946 -45.319728 
L 127.626815 -45.319728 
L 126.591685 -45.319728 
L 125.556554 -45.319728 
L 124.521424 -45.319728 
L 123.486293 -45.319728 
L 122.451163 -45.319728 
L 121.416033 -45.319728 
L 120.380902 -45.319728 
L 119.345772 -45.319728 
L 118.310641 -45.319728 
L 117.275511 -45.319728 
L 116.24038 -45.319728 
L 115.20525 -45.319728 
L 114.17012 -45.319728 
L 113.134989 -45.319728 
L 112.099859 -45.319728 
L 111.064728 -45.319728 
L 110.029598 -45.319728 
L 108.994467 -45.319728 
L 107.959337 -45.319728 
L 106.924207 -45.319728 
L 105.889076 -45.319728 
L 104.853946 -45.319728 
L 103.818815 -45.319728 
L 102.783685 -45.319728 
L 101.748554 -45.319728 
L 100.713424 -45.319728 
L 99.678293 -45.319728 
L 98.643163 -45.319728 
L 97.608033 -45.319728 
L 96.572902 -45.319728 
L 95.537772 -45.319728 
L 94.502641 -45.319728 
L 93.467511 -45.319728 
L 92.43238 -45.319728 
L 91.39725 -45.319728 
L 90.36212 -45.319728 
L 89.326989 -45.319728 
L 88.291859 -45.319728 
L 87.256728 -45.319728 
L 86.221598 -45.319728 
L 85.186467 -45.319728 
L 84.151337 -45.319728 
L 83.116207 -45.319728 
L 82.081076 -45.319728 
L 81.045946 -45.319728 
L 80.010815 -45.319728 
L 78.975685 -45.319728 
L 77.940554 -45.319728 
L 76.905424 -45.319728 
L 75.870293 -45.319728 
L 74.835163 -45.319728 
L 73.800033 -45.319728 
L 72.764902 -45.319728 
L 71.729772 -45.319728 
L 70.694641 -45.319728 
L 69.659511 -45.319728 
L 68.62438 -45.319728 
L 67.58925 -45.319728 
L 66.55412 -45.319728 
L 65.518989 -45.319728 
L 64.483859 -45.319728 
L 63.448728 -45.319728 
L 62.413598 -45.319728 
L 61.378467 -45.319728 
L 60.343337 -45.319728 
L 59.308207 -45.319728 
L 58.273076 -45.319728 
L 57.237946 -45.319728 
L 56.202815 -45.319728 
L 55.167685 -45.319728 
L 54.132554 -45.319728 
L 53.097424 -45.319728 
L 52.062293 -45.319728 
L 51.027163 -45.319728 
L 49.992033 -45.319728 
L 48.956902 -45.319728 
L 47.921772 -45.319728 
L 46.886641 -45.319728 
L 45.851511 -45.319728 
L 44.81638 -45.319728 
L 43.78125 -45.319728 
z
" style="stroke: #c9ff00; stroke-opacity: 0.5"/>
    </defs>
    <g clip-path="url(#p33cfdd9074)">
     <use xlink:href="#me99958a974" x="0" y="215.552772" style="fill: #c9ff00; fill-opacity: 0.5; stroke: #c9ff00; stroke-opacity: 0.5"/>
    </g>
   </g>
   <g id="PolyCollection_2">
    <defs>
     <path id="meac77ebaa1" d="M 183.523859 -45.319728 
L 183.523859 -46.406615 
L 184.558989 -46.468723 
L 185.59412 -46.608466 
L 186.62925 -46.794789 
L 187.66438 -47.012167 
L 188.699511 -47.245071 
L 189.734641 -47.55561 
L 190.769772 -47.91273 
L 191.804902 -48.316431 
L 192.840033 -48.78224 
L 193.875163 -49.372264 
L 194.910293 -50.039923 
L 195.945424 -50.847325 
L 196.980554 -51.825523 
L 198.015685 -52.943464 
L 199.050815 -54.170093 
L 200.085946 -55.598573 
L 201.121076 -57.306539 
L 202.156207 -59.325043 
L 203.191337 -61.514344 
L 204.226467 -63.889968 
L 205.261598 -66.545078 
L 206.296728 -69.526253 
L 207.331859 -72.942184 
L 208.366989 -76.917085 
L 209.40212 -81.32674 
L 210.43725 -85.984827 
L 211.47238 -90.844765 
L 212.507511 -96.12393 
L 213.542641 -101.822323 
L 214.577772 -108.141794 
L 215.612902 -114.942601 
L 216.648033 -122.147109 
L 217.683163 -129.522413 
L 218.718293 -136.773502 
L 219.753424 -143.760633 
L 220.788554 -150.56144 
L 221.823685 -157.34672 
L 222.858815 -163.883568 
L 223.893946 -170.032243 
L 224.929076 -175.808271 
L 225.964207 -181.009801 
L 226.999337 -185.745523 
L 228.034467 -189.704897 
L 229.069598 -192.90345 
L 230.104728 -195.263547 
L 231.139859 -197.39074 
L 232.174989 -199.269502 
L 233.21012 -200.418497 
L 234.24525 -200.589293 
L 235.28038 -200.263227 
L 236.315511 -199.719784 
L 237.350641 -198.881328 
L 238.385772 -197.809968 
L 239.420902 -196.598866 
L 240.456033 -195.108278 
L 241.491163 -193.012139 
L 242.526293 -190.652041 
L 243.561424 -188.276417 
L 244.596554 -185.9629 
L 245.631685 -183.074887 
L 246.666815 -180.217927 
L 247.701946 -177.205697 
L 248.737076 -174.022671 
L 249.772207 -171.212292 
L 250.807337 -168.914302 
L 251.842467 -166.973433 
L 252.877598 -164.923874 
L 253.912728 -162.719047 
L 254.947859 -160.529746 
L 255.982989 -158.371499 
L 257.01812 -156.47721 
L 258.05325 -154.582921 
L 259.08838 -152.626525 
L 260.123511 -150.716709 
L 261.158641 -149.008744 
L 262.193772 -147.39394 
L 263.228902 -145.530706 
L 264.264033 -143.745106 
L 265.299163 -142.176883 
L 266.334293 -140.794984 
L 267.369424 -139.350977 
L 268.404554 -138.046713 
L 269.439685 -136.68034 
L 270.474815 -135.298441 
L 271.509946 -133.668111 
L 272.545076 -132.115415 
L 273.580207 -130.702462 
L 274.615337 -129.444779 
L 275.650467 -128.249203 
L 276.685598 -127.022573 
L 277.720728 -125.56304 
L 278.755859 -124.025871 
L 279.790989 -122.721607 
L 280.82612 -121.603666 
L 281.86125 -120.283874 
L 282.89638 -118.808813 
L 283.931511 -117.520076 
L 284.966641 -116.169231 
L 286.001772 -114.69417 
L 287.036902 -113.172528 
L 288.072033 -111.806156 
L 289.107163 -110.470838 
L 290.142293 -109.088939 
L 291.177424 -107.567297 
L 292.212554 -106.030128 
L 293.247685 -104.632702 
L 294.282815 -103.281857 
L 295.317946 -101.775742 
L 296.353076 -100.191993 
L 297.388207 -98.732459 
L 298.423337 -97.319506 
L 299.458467 -95.953133 
L 300.493598 -94.555707 
L 301.528728 -93.313551 
L 302.563859 -92.055867 
L 303.598989 -90.720549 
L 304.63412 -89.369704 
L 305.66925 -88.080967 
L 306.70438 -86.869864 
L 307.739511 -85.782977 
L 308.774641 -84.69609 
L 309.809772 -83.78 
L 310.844902 -82.863909 
L 311.880033 -81.870184 
L 312.915163 -80.472758 
L 313.950293 -79.246128 
L 314.985424 -78.407673 
L 316.020554 -77.75554 
L 317.055685 -76.777342 
L 318.090815 -75.597293 
L 319.125946 -74.463826 
L 320.161076 -73.671951 
L 321.196207 -73.081927 
L 322.231337 -72.491902 
L 323.266467 -71.793189 
L 324.301598 -71.063422 
L 325.336728 -70.287074 
L 326.371859 -69.588361 
L 327.406989 -68.874121 
L 328.44212 -68.206462 
L 329.47725 -67.631965 
L 330.51238 -67.119575 
L 331.547511 -66.560605 
L 332.582641 -65.908473 
L 333.617772 -65.271867 
L 334.652902 -64.759478 
L 335.688033 -64.216034 
L 336.723163 -63.641537 
L 337.758293 -63.098093 
L 338.793424 -62.694393 
L 339.828554 -62.244111 
L 340.863685 -61.747248 
L 341.898815 -61.296967 
L 342.933946 -60.831158 
L 343.969076 -60.25666 
L 345.004207 -59.744271 
L 346.039337 -59.402678 
L 347.074467 -59.13872 
L 348.109598 -58.843707 
L 349.144728 -58.408953 
L 350.179859 -58.005252 
L 351.214989 -57.725767 
L 352.25012 -57.523916 
L 353.28525 -57.213377 
L 354.32038 -56.794149 
L 355.355511 -56.390448 
L 356.390641 -56.079909 
L 357.425772 -55.784897 
L 358.460902 -55.505412 
L 359.496033 -55.241453 
L 360.531163 -54.977495 
L 361.566293 -54.744591 
L 362.601424 -54.49616 
L 363.636554 -54.278782 
L 364.671685 -54.092459 
L 365.706815 -53.906135 
L 366.741946 -53.62665 
L 367.777076 -53.26953 
L 368.812207 -53.021099 
L 369.847337 -52.881356 
L 370.882467 -52.726087 
L 371.917598 -52.508709 
L 372.952728 -52.260278 
L 373.987859 -52.058427 
L 375.022989 -51.903158 
L 376.05812 -51.701307 
L 377.09325 -51.499457 
L 378.12838 -51.344187 
L 379.163511 -51.188918 
L 380.198641 -50.940487 
L 381.233772 -50.754163 
L 382.268902 -50.676528 
L 383.304033 -50.56784 
L 384.339163 -50.443624 
L 385.374293 -50.319408 
L 386.409424 -50.272827 
L 387.444554 -50.226247 
L 388.479685 -50.179666 
L 389.514815 -49.993342 
L 390.549946 -49.760438 
L 391.585076 -49.605168 
L 392.620207 -49.54306 
L 393.655337 -49.449899 
L 394.690467 -49.325683 
L 395.725598 -49.18594 
L 396.760728 -48.98409 
L 397.795859 -48.751186 
L 398.830989 -48.580389 
L 399.86612 -48.533808 
L 400.90125 -48.564862 
L 400.90125 -45.319728 
L 400.90125 -45.319728 
L 399.86612 -45.319728 
L 398.830989 -45.319728 
L 397.795859 -45.319728 
L 396.760728 -45.319728 
L 395.725598 -45.319728 
L 394.690467 -45.319728 
L 393.655337 -45.319728 
L 392.620207 -45.319728 
L 391.585076 -45.319728 
L 390.549946 -45.319728 
L 389.514815 -45.319728 
L 388.479685 -45.319728 
L 387.444554 -45.319728 
L 386.409424 -45.319728 
L 385.374293 -45.319728 
L 384.339163 -45.319728 
L 383.304033 -45.319728 
L 382.268902 -45.319728 
L 381.233772 -45.319728 
L 380.198641 -45.319728 
L 379.163511 -45.319728 
L 378.12838 -45.319728 
L 377.09325 -45.319728 
L 376.05812 -45.319728 
L 375.022989 -45.319728 
L 373.987859 -45.319728 
L 372.952728 -45.319728 
L 371.917598 -45.319728 
L 370.882467 -45.319728 
L 369.847337 -45.319728 
L 368.812207 -45.319728 
L 367.777076 -45.319728 
L 366.741946 -45.319728 
L 365.706815 -45.319728 
L 364.671685 -45.319728 
L 363.636554 -45.319728 
L 362.601424 -45.319728 
L 361.566293 -45.319728 
L 360.531163 -45.319728 
L 359.496033 -45.319728 
L 358.460902 -45.319728 
L 357.425772 -45.319728 
L 356.390641 -45.319728 
L 355.355511 -45.319728 
L 354.32038 -45.319728 
L 353.28525 -45.319728 
L 352.25012 -45.319728 
L 351.214989 -45.319728 
L 350.179859 -45.319728 
L 349.144728 -45.319728 
L 348.109598 -45.319728 
L 347.074467 -45.319728 
L 346.039337 -45.319728 
L 345.004207 -45.319728 
L 343.969076 -45.319728 
L 342.933946 -45.319728 
L 341.898815 -45.319728 
L 340.863685 -45.319728 
L 339.828554 -45.319728 
L 338.793424 -45.319728 
L 337.758293 -45.319728 
L 336.723163 -45.319728 
L 335.688033 -45.319728 
L 334.652902 -45.319728 
L 333.617772 -45.319728 
L 332.582641 -45.319728 
L 331.547511 -45.319728 
L 330.51238 -45.319728 
L 329.47725 -45.319728 
L 328.44212 -45.319728 
L 327.406989 -45.319728 
L 326.371859 -45.319728 
L 325.336728 -45.319728 
L 324.301598 -45.319728 
L 323.266467 -45.319728 
L 322.231337 -45.319728 
L 321.196207 -45.319728 
L 320.161076 -45.319728 
L 319.125946 -45.319728 
L 318.090815 -45.319728 
L 317.055685 -45.319728 
L 316.020554 -45.319728 
L 314.985424 -45.319728 
L 313.950293 -45.319728 
L 312.915163 -45.319728 
L 311.880033 -45.319728 
L 310.844902 -45.319728 
L 309.809772 -45.319728 
L 308.774641 -45.319728 
L 307.739511 -45.319728 
L 306.70438 -45.319728 
L 305.66925 -45.319728 
L 304.63412 -45.319728 
L 303.598989 -45.319728 
L 302.563859 -45.319728 
L 301.528728 -45.319728 
L 300.493598 -45.319728 
L 299.458467 -45.319728 
L 298.423337 -45.319728 
L 297.388207 -45.319728 
L 296.353076 -45.319728 
L 295.317946 -45.319728 
L 294.282815 -45.319728 
L 293.247685 -45.319728 
L 292.212554 -45.319728 
L 291.177424 -45.319728 
L 290.142293 -45.319728 
L 289.107163 -45.319728 
L 288.072033 -45.319728 
L 287.036902 -45.319728 
L 286.001772 -45.319728 
L 284.966641 -45.319728 
L 283.931511 -45.319728 
L 282.89638 -45.319728 
L 281.86125 -45.319728 
L 280.82612 -45.319728 
L 279.790989 -45.319728 
L 278.755859 -45.319728 
L 277.720728 -45.319728 
L 276.685598 -45.319728 
L 275.650467 -45.319728 
L 274.615337 -45.319728 
L 273.580207 -45.319728 
L 272.545076 -45.319728 
L 271.509946 -45.319728 
L 270.474815 -45.319728 
L 269.439685 -45.319728 
L 268.404554 -45.319728 
L 267.369424 -45.319728 
L 266.334293 -45.319728 
L 265.299163 -45.319728 
L 264.264033 -45.319728 
L 263.228902 -45.319728 
L 262.193772 -45.319728 
L 261.158641 -45.319728 
L 260.123511 -45.319728 
L 259.08838 -45.319728 
L 258.05325 -45.319728 
L 257.01812 -45.319728 
L 255.982989 -45.319728 
L 254.947859 -45.319728 
L 253.912728 -45.319728 
L 252.877598 -45.319728 
L 251.842467 -45.319728 
L 250.807337 -45.319728 
L 249.772207 -45.319728 
L 248.737076 -45.319728 
L 247.701946 -45.319728 
L 246.666815 -45.319728 
L 245.631685 -45.319728 
L 244.596554 -45.319728 
L 243.561424 -45.319728 
L 242.526293 -45.319728 
L 241.491163 -45.319728 
L 240.456033 -45.319728 
L 239.420902 -45.319728 
L 238.385772 -45.319728 
L 237.350641 -45.319728 
L 236.315511 -45.319728 
L 235.28038 -45.319728 
L 234.24525 -45.319728 
L 233.21012 -45.319728 
L 232.174989 -45.319728 
L 231.139859 -45.319728 
L 230.104728 -45.319728 
L 229.069598 -45.319728 
L 228.034467 -45.319728 
L 226.999337 -45.319728 
L 225.964207 -45.319728 
L 224.929076 -45.319728 
L 223.893946 -45.319728 
L 222.858815 -45.319728 
L 221.823685 -45.319728 
L 220.788554 -45.319728 
L 219.753424 -45.319728 
L 218.718293 -45.319728 
L 217.683163 -45.319728 
L 216.648033 -45.319728 
L 215.612902 -45.319728 
L 214.577772 -45.319728 
L 213.542641 -45.319728 
L 212.507511 -45.319728 
L 211.47238 -45.319728 
L 210.43725 -45.319728 
L 209.40212 -45.319728 
L 208.366989 -45.319728 
L 207.331859 -45.319728 
L 206.296728 -45.319728 
L 205.261598 -45.319728 
L 204.226467 -45.319728 
L 203.191337 -45.319728 
L 202.156207 -45.319728 
L 201.121076 -45.319728 
L 200.085946 -45.319728 
L 199.050815 -45.319728 
L 198.015685 -45.319728 
L 196.980554 -45.319728 
L 195.945424 -45.319728 
L 194.910293 -45.319728 
L 193.875163 -45.319728 
L 192.840033 -45.319728 
L 191.804902 -45.319728 
L 190.769772 -45.319728 
L 189.734641 -45.319728 
L 188.699511 -45.319728 
L 187.66438 -45.319728 
L 186.62925 -45.319728 
L 185.59412 -45.319728 
L 184.558989 -45.319728 
L 183.523859 -45.319728 
z
" style="stroke: #ffe600; stroke-opacity: 0.5"/>
    </defs>
    <g clip-path="url(#p33cfdd9074)">
     <use xlink:href="#meac77ebaa1" x="0" y="215.552772" style="fill: #ffe600; fill-opacity: 0.5; stroke: #ffe600; stroke-opacity: 0.5"/>
    </g>
   </g>
   <g id="matplotlib.axis_1">
    <g id="xtick_1">
     <g id="line2d_1">
      <path d="M 90.36212 177.996522 
L 90.36212 7.2 
" clip-path="url(#p33cfdd9074)" style="fill: none; stroke: #b0b0b0; stroke-width: 0.8; stroke-linecap: square"/>
     </g>
     <g id="line2d_2">
      <defs>
       <path id="m184c751107" d="M 0 0 
L 0 3.5 
" style="stroke: #000000; stroke-width: 0.8"/>
      </defs>
      <g>
       <use xlink:href="#m184c751107" x="90.36212" y="177.996522" style="stroke: #000000; stroke-width: 0.8"/>
      </g>
     </g>
     <g id="text_1">
      <!-- 450 -->
      <g transform="translate(80.81837 192.594959) scale(0.1 -0.1)">
       <defs>
        <path id="DejaVuSans-34" d="M 2419 4116 
L 825 1625 
L 2419 1625 
L 2419 4116 
z
M 2253 4666 
L 3047 4666 
L 3047 1625 
L 3713 1625 
L 3713 1100 
L 3047 1100 
L 3047 0 
L 2419 0 
L 2419 1100 
L 313 1100 
L 313 1709 
L 2253 4666 
z
" transform="scale(0.015625)"/>
        <path id="DejaVuSans-35" d="M 691 4666 
L 3169 4666 
L 3169 4134 
L 1269 4134 
L 1269 2991 
Q 1406 3038 1543 3061 
Q 1681 3084 1819 3084 
Q 2600 3084 3056 2656 
Q 3513 2228 3513 1497 
Q 3513 744 3044 326 
Q 2575 -91 1722 -91 
Q 1428 -91 1123 -41 
Q 819 9 494 109 
L 494 744 
Q 775 591 1075 516 
Q 1375 441 1709 441 
Q 2250 441 2565 725 
Q 2881 1009 2881 1497 
Q 2881 1984 2565 2268 
Q 2250 2553 1709 2553 
Q 1456 2553 1204 2497 
Q 953 2441 691 2322 
L 691 4666 
z
" transform="scale(0.015625)"/>
        <path id="DejaVuSans-30" d="M 2034 4250 
Q 1547 4250 1301 3770 
Q 1056 3291 1056 2328 
Q 1056 1369 1301 889 
Q 1547 409 2034 409 
Q 2525 409 2770 889 
Q 3016 1369 3016 2328 
Q 3016 3291 2770 3770 
Q 2525 4250 2034 4250 
z
M 2034 4750 
Q 2819 4750 3233 4129 
Q 3647 3509 3647 2328 
Q 3647 1150 3233 529 
Q 2819 -91 2034 -91 
Q 1250 -91 836 529 
Q 422 1150 422 2328 
Q 422 3509 836 4129 
Q 1250 4750 2034 4750 
z
" transform="scale(0.015625)"/>
       </defs>
       <use xlink:href="#DejaVuSans-34"/>
       <use xlink:href="#DejaVuSans-35" x="63.623047"/>
       <use xlink:href="#DejaVuSans-30" x="127.246094"/>
      </g>
     </g>
    </g>
    <g id="xtick_2">
     <g id="line2d_3">
      <path d="M 142.118641 177.996522 
L 142.118641 7.2 
" clip-path="url(#p33cfdd9074)" style="fill: none; stroke: #b0b0b0; stroke-width: 0.8; stroke-linecap: square"/>
     </g>
     <g id="line2d_4">
      <g>
       <use xlink:href="#m184c751107" x="142.118641" y="177.996522" style="stroke: #000000; stroke-width: 0.8"/>
      </g>
     </g>
     <g id="text_2">
      <!-- 500 -->
      <g transform="translate(132.574891 192.594959) scale(0.1 -0.1)">
       <use xlink:href="#DejaVuSans-35"/>
       <use xlink:href="#DejaVuSans-30" x="63.623047"/>
       <use xlink:href="#DejaVuSans-30" x="127.246094"/>
      </g>
     </g>
    </g>
    <g id="xtick_3">
     <g id="line2d_5">
      <path d="M 193.875163 177.996522 
L 193.875163 7.2 
" clip-path="url(#p33cfdd9074)" style="fill: none; stroke: #b0b0b0; stroke-width: 0.8; stroke-linecap: square"/>
     </g>
     <g id="line2d_6">
      <g>
       <use xlink:href="#m184c751107" x="193.875163" y="177.996522" style="stroke: #000000; stroke-width: 0.8"/>
      </g>
     </g>
     <g id="text_3">
      <!-- 550 -->
      <g transform="translate(184.331413 192.594959) scale(0.1 -0.1)">
       <use xlink:href="#DejaVuSans-35"/>
       <use xlink:href="#DejaVuSans-35" x="63.623047"/>
       <use xlink:href="#DejaVuSans-30" x="127.246094"/>
      </g>
     </g>
    </g>
    <g id="xtick_4">
     <g id="line2d_7">
      <path d="M 245.631685 177.996522 
L 245.631685 7.2 
" clip-path="url(#p33cfdd9074)" style="fill: none; stroke: #b0b0b0; stroke-width: 0.8; stroke-linecap: square"/>
     </g>
     <g id="line2d_8">
      <g>
       <use xlink:href="#m184c751107" x="245.631685" y="177.996522" style="stroke: #000000; stroke-width: 0.8"/>
      </g>
     </g>
     <g id="text_4">
      <!-- 600 -->
      <g transform="translate(236.087935 192.594959) scale(0.1 -0.1)">
       <defs>
        <path id="DejaVuSans-36" d="M 2113 2584 
Q 1688 2584 1439 2293 
Q 1191 2003 1191 1497 
Q 1191 994 1439 701 
Q 1688 409 2113 409 
Q 2538 409 2786 701 
Q 3034 994 3034 1497 
Q 3034 2003 2786 2293 
Q 2538 2584 2113 2584 
z
M 3366 4563 
L 3366 3988 
Q 3128 4100 2886 4159 
Q 2644 4219 2406 4219 
Q 1781 4219 1451 3797 
Q 1122 3375 1075 2522 
Q 1259 2794 1537 2939 
Q 1816 3084 2150 3084 
Q 2853 3084 3261 2657 
Q 3669 2231 3669 1497 
Q 3669 778 3244 343 
Q 2819 -91 2113 -91 
Q 1303 -91 875 529 
Q 447 1150 447 2328 
Q 447 3434 972 4092 
Q 1497 4750 2381 4750 
Q 2619 4750 2861 4703 
Q 3103 4656 3366 4563 
z
" transform="scale(0.015625)"/>
       </defs>
       <use xlink:href="#DejaVuSans-36"/>
       <use xlink:href="#DejaVuSans-30" x="63.623047"/>
       <use xlink:href="#DejaVuSans-30" x="127.246094"/>
      </g>
     </g>
    </g>
    <g id="xtick_5">
     <g id="line2d_9">
      <path d="M 297.388207 177.996522 
L 297.388207 7.2 
" clip-path="url(#p33cfdd9074)" style="fill: none; stroke: #b0b0b0; stroke-width: 0.8; stroke-linecap: square"/>
     </g>
     <g id="line2d_10">
      <g>
       <use xlink:href="#m184c751107" x="297.388207" y="177.996522" style="stroke: #000000; stroke-width: 0.8"/>
      </g>
     </g>
     <g id="text_5">
      <!-- 650 -->
      <g transform="translate(287.844457 192.594959) scale(0.1 -0.1)">
       <use xlink:href="#DejaVuSans-36"/>
       <use xlink:href="#DejaVuSans-35" x="63.623047"/>
       <use xlink:href="#DejaVuSans-30" x="127.246094"/>
      </g>
     </g>
    </g>
    <g id="xtick_6">
     <g id="line2d_11">
      <path d="M 349.144728 177.996522 
L 349.144728 7.2 
" clip-path="url(#p33cfdd9074)" style="fill: none; stroke: #b0b0b0; stroke-width: 0.8; stroke-linecap: square"/>
     </g>
     <g id="line2d_12">
      <g>
       <use xlink:href="#m184c751107" x="349.144728" y="177.996522" style="stroke: #000000; stroke-width: 0.8"/>
      </g>
     </g>
     <g id="text_6">
      <!-- 700 -->
      <g transform="translate(339.600978 192.594959) scale(0.1 -0.1)">
       <defs>
        <path id="DejaVuSans-37" d="M 525 4666 
L 3525 4666 
L 3525 4397 
L 1831 0 
L 1172 0 
L 2766 4134 
L 525 4134 
L 525 4666 
z
" transform="scale(0.015625)"/>
       </defs>
       <use xlink:href="#DejaVuSans-37"/>
       <use xlink:href="#DejaVuSans-30" x="63.623047"/>
       <use xlink:href="#DejaVuSans-30" x="127.246094"/>
      </g>
     </g>
    </g>
    <g id="xtick_7">
     <g id="line2d_13">
      <path d="M 400.90125 177.996522 
L 400.90125 7.2 
" clip-path="url(#p33cfdd9074)" style="fill: none; stroke: #b0b0b0; stroke-width: 0.8; stroke-linecap: square"/>
     </g>
     <g id="line2d_14">
      <g>
       <use xlink:href="#m184c751107" x="400.90125" y="177.996522" style="stroke: #000000; stroke-width: 0.8"/>
      </g>
     </g>
     <g id="text_7">
      <!-- 750 -->
      <g transform="translate(391.3575 192.594959) scale(0.1 -0.1)">
       <use xlink:href="#DejaVuSans-37"/>
       <use xlink:href="#DejaVuSans-35" x="63.623047"/>
       <use xlink:href="#DejaVuSans-30" x="127.246094"/>
      </g>
     </g>
    </g>
    <g id="text_8">
     <!-- wavelength -->
     <g transform="translate(193.214688 206.273084) scale(0.1 -0.1)">
      <defs>
       <path id="DejaVuSans-77" d="M 269 3500 
L 844 3500 
L 1563 769 
L 2278 3500 
L 2956 3500 
L 3675 769 
L 4391 3500 
L 4966 3500 
L 4050 0 
L 3372 0 
L 2619 2869 
L 1863 0 
L 1184 0 
L 269 3500 
z
" transform="scale(0.015625)"/>
       <path id="DejaVuSans-61" d="M 2194 1759 
Q 1497 1759 1228 1600 
Q 959 1441 959 1056 
Q 959 750 1161 570 
Q 1363 391 1709 391 
Q 2188 391 2477 730 
Q 2766 1069 2766 1631 
L 2766 1759 
L 2194 1759 
z
M 3341 1997 
L 3341 0 
L 2766 0 
L 2766 531 
Q 2569 213 2275 61 
Q 1981 -91 1556 -91 
Q 1019 -91 701 211 
Q 384 513 384 1019 
Q 384 1609 779 1909 
Q 1175 2209 1959 2209 
L 2766 2209 
L 2766 2266 
Q 2766 2663 2505 2880 
Q 2244 3097 1772 3097 
Q 1472 3097 1187 3025 
Q 903 2953 641 2809 
L 641 3341 
Q 956 3463 1253 3523 
Q 1550 3584 1831 3584 
Q 2591 3584 2966 3190 
Q 3341 2797 3341 1997 
z
" transform="scale(0.015625)"/>
       <path id="DejaVuSans-76" d="M 191 3500 
L 800 3500 
L 1894 563 
L 2988 3500 
L 3597 3500 
L 2284 0 
L 1503 0 
L 191 3500 
z
" transform="scale(0.015625)"/>
       <path id="DejaVuSans-65" d="M 3597 1894 
L 3597 1613 
L 953 1613 
Q 991 1019 1311 708 
Q 1631 397 2203 397 
Q 2534 397 2845 478 
Q 3156 559 3463 722 
L 3463 178 
Q 3153 47 2828 -22 
Q 2503 -91 2169 -91 
Q 1331 -91 842 396 
Q 353 884 353 1716 
Q 353 2575 817 3079 
Q 1281 3584 2069 3584 
Q 2775 3584 3186 3129 
Q 3597 2675 3597 1894 
z
M 3022 2063 
Q 3016 2534 2758 2815 
Q 2500 3097 2075 3097 
Q 1594 3097 1305 2825 
Q 1016 2553 972 2059 
L 3022 2063 
z
" transform="scale(0.015625)"/>
       <path id="DejaVuSans-6c" d="M 603 4863 
L 1178 4863 
L 1178 0 
L 603 0 
L 603 4863 
z
" transform="scale(0.015625)"/>
       <path id="DejaVuSans-6e" d="M 3513 2113 
L 3513 0 
L 2938 0 
L 2938 2094 
Q 2938 2591 2744 2837 
Q 2550 3084 2163 3084 
Q 1697 3084 1428 2787 
Q 1159 2491 1159 1978 
L 1159 0 
L 581 0 
L 581 3500 
L 1159 3500 
L 1159 2956 
Q 1366 3272 1645 3428 
Q 1925 3584 2291 3584 
Q 2894 3584 3203 3211 
Q 3513 2838 3513 2113 
z
" transform="scale(0.015625)"/>
       <path id="DejaVuSans-67" d="M 2906 1791 
Q 2906 2416 2648 2759 
Q 2391 3103 1925 3103 
Q 1463 3103 1205 2759 
Q 947 2416 947 1791 
Q 947 1169 1205 825 
Q 1463 481 1925 481 
Q 2391 481 2648 825 
Q 2906 1169 2906 1791 
z
M 3481 434 
Q 3481 -459 3084 -895 
Q 2688 -1331 1869 -1331 
Q 1566 -1331 1297 -1286 
Q 1028 -1241 775 -1147 
L 775 -588 
Q 1028 -725 1275 -790 
Q 1522 -856 1778 -856 
Q 2344 -856 2625 -561 
Q 2906 -266 2906 331 
L 2906 616 
Q 2728 306 2450 153 
Q 2172 0 1784 0 
Q 1141 0 747 490 
Q 353 981 353 1791 
Q 353 2603 747 3093 
Q 1141 3584 1784 3584 
Q 2172 3584 2450 3431 
Q 2728 3278 2906 2969 
L 2906 3500 
L 3481 3500 
L 3481 434 
z
" transform="scale(0.015625)"/>
       <path id="DejaVuSans-74" d="M 1172 4494 
L 1172 3500 
L 2356 3500 
L 2356 3053 
L 1172 3053 
L 1172 1153 
Q 1172 725 1289 603 
Q 1406 481 1766 481 
L 2356 481 
L 2356 0 
L 1766 0 
Q 1100 0 847 248 
Q 594 497 594 1153 
L 594 3053 
L 172 3053 
L 172 3500 
L 594 3500 
L 594 4494 
L 1172 4494 
z
" transform="scale(0.015625)"/>
       <path id="DejaVuSans-68" d="M 3513 2113 
L 3513 0 
L 2938 0 
L 2938 2094 
Q 2938 2591 2744 2837 
Q 2550 3084 2163 3084 
Q 1697 3084 1428 2787 
Q 1159 2491 1159 1978 
L 1159 0 
L 581 0 
L 581 4863 
L 1159 4863 
L 1159 2956 
Q 1366 3272 1645 3428 
Q 1925 3584 2291 3584 
Q 2894 3584 3203 3211 
Q 3513 2838 3513 2113 
z
" transform="scale(0.015625)"/>
      </defs>
      <use xlink:href="#DejaVuSans-77"/>
      <use xlink:href="#DejaVuSans-61" x="81.787109"/>
      <use xlink:href="#DejaVuSans-76" x="143.066406"/>
      <use xlink:href="#DejaVuSans-65" x="202.246094"/>
      <use xlink:href="#DejaVuSans-6c" x="263.769531"/>
      <use xlink:href="#DejaVuSans-65" x="291.552734"/>
      <use xlink:href="#DejaVuSans-6e" x="353.076172"/>
      <use xlink:href="#DejaVuSans-67" x="416.455078"/>
      <use xlink:href="#DejaVuSans-74" x="479.931641"/>
      <use xlink:href="#DejaVuSans-68" x="519.140625"/>
     </g>
    </g>
   </g>
   <g id="matplotlib.axis_2">
    <g id="ytick_1">
     <g id="line2d_15">
      <path d="M 43.78125 170.233043 
L 400.90125 170.233043 
" clip-path="url(#p33cfdd9074)" style="fill: none; stroke: #b0b0b0; stroke-width: 0.8; stroke-linecap: square"/>
     </g>
     <g id="line2d_16">
      <defs>
       <path id="me86e2a553a" d="M 0 0 
L -3.5 0 
" style="stroke: #000000; stroke-width: 0.8"/>
      </defs>
      <g>
       <use xlink:href="#me86e2a553a" x="43.78125" y="170.233043" style="stroke: #000000; stroke-width: 0.8"/>
      </g>
     </g>
     <g id="text_9">
      <!-- 0.0 -->
      <g transform="translate(20.878125 174.032262) scale(0.1 -0.1)">
       <defs>
        <path id="DejaVuSans-2e" d="M 684 794 
L 1344 794 
L 1344 0 
L 684 0 
L 684 794 
z
" transform="scale(0.015625)"/>
       </defs>
       <use xlink:href="#DejaVuSans-30"/>
       <use xlink:href="#DejaVuSans-2e" x="63.623047"/>
       <use xlink:href="#DejaVuSans-30" x="95.410156"/>
      </g>
     </g>
    </g>
    <g id="ytick_2">
     <g id="line2d_17">
      <path d="M 43.78125 139.17913 
L 400.90125 139.17913 
" clip-path="url(#p33cfdd9074)" style="fill: none; stroke: #b0b0b0; stroke-width: 0.8; stroke-linecap: square"/>
     </g>
     <g id="line2d_18">
      <g>
       <use xlink:href="#me86e2a553a" x="43.78125" y="139.17913" style="stroke: #000000; stroke-width: 0.8"/>
      </g>
     </g>
     <g id="text_10">
      <!-- 0.2 -->
      <g transform="translate(20.878125 142.978349) scale(0.1 -0.1)">
       <defs>
        <path id="DejaVuSans-32" d="M 1228 531 
L 3431 531 
L 3431 0 
L 469 0 
L 469 531 
Q 828 903 1448 1529 
Q 2069 2156 2228 2338 
Q 2531 2678 2651 2914 
Q 2772 3150 2772 3378 
Q 2772 3750 2511 3984 
Q 2250 4219 1831 4219 
Q 1534 4219 1204 4116 
Q 875 4013 500 3803 
L 500 4441 
Q 881 4594 1212 4672 
Q 1544 4750 1819 4750 
Q 2544 4750 2975 4387 
Q 3406 4025 3406 3419 
Q 3406 3131 3298 2873 
Q 3191 2616 2906 2266 
Q 2828 2175 2409 1742 
Q 1991 1309 1228 531 
z
" transform="scale(0.015625)"/>
       </defs>
       <use xlink:href="#DejaVuSans-30"/>
       <use xlink:href="#DejaVuSans-2e" x="63.623047"/>
       <use xlink:href="#DejaVuSans-32" x="95.410156"/>
      </g>
     </g>
    </g>
    <g id="ytick_3">
     <g id="line2d_19">
      <path d="M 43.78125 108.125217 
L 400.90125 108.125217 
" clip-path="url(#p33cfdd9074)" style="fill: none; stroke: #b0b0b0; stroke-width: 0.8; stroke-linecap: square"/>
     </g>
     <g id="line2d_20">
      <g>
       <use xlink:href="#me86e2a553a" x="43.78125" y="108.125217" style="stroke: #000000; stroke-width: 0.8"/>
      </g>
     </g>
     <g id="text_11">
      <!-- 0.4 -->
      <g transform="translate(20.878125 111.924436) scale(0.1 -0.1)">
       <use xlink:href="#DejaVuSans-30"/>
       <use xlink:href="#DejaVuSans-2e" x="63.623047"/>
       <use xlink:href="#DejaVuSans-34" x="95.410156"/>
      </g>
     </g>
    </g>
    <g id="ytick_4">
     <g id="line2d_21">
      <path d="M 43.78125 77.071304 
L 400.90125 77.071304 
" clip-path="url(#p33cfdd9074)" style="fill: none; stroke: #b0b0b0; stroke-width: 0.8; stroke-linecap: square"/>
     </g>
     <g id="line2d_22">
      <g>
       <use xlink:href="#me86e2a553a" x="43.78125" y="77.071304" style="stroke: #000000; stroke-width: 0.8"/>
      </g>
     </g>
     <g id="text_12">
      <!-- 0.6 -->
      <g transform="translate(20.878125 80.870523) scale(0.1 -0.1)">
       <use xlink:href="#DejaVuSans-30"/>
       <use xlink:href="#DejaVuSans-2e" x="63.623047"/>
       <use xlink:href="#DejaVuSans-36" x="95.410156"/>
      </g>
     </g>
    </g>
    <g id="ytick_5">
     <g id="line2d_23">
      <path d="M 43.78125 46.017391 
L 400.90125 46.017391 
" clip-path="url(#p33cfdd9074)" style="fill: none; stroke: #b0b0b0; stroke-width: 0.8; stroke-linecap: square"/>
     </g>
     <g id="line2d_24">
      <g>
       <use xlink:href="#me86e2a553a" x="43.78125" y="46.017391" style="stroke: #000000; stroke-width: 0.8"/>
      </g>
     </g>
     <g id="text_13">
      <!-- 0.8 -->
      <g transform="translate(20.878125 49.81661) scale(0.1 -0.1)">
       <defs>
        <path id="DejaVuSans-38" d="M 2034 2216 
Q 1584 2216 1326 1975 
Q 1069 1734 1069 1313 
Q 1069 891 1326 650 
Q 1584 409 2034 409 
Q 2484 409 2743 651 
Q 3003 894 3003 1313 
Q 3003 1734 2745 1975 
Q 2488 2216 2034 2216 
z
M 1403 2484 
Q 997 2584 770 2862 
Q 544 3141 544 3541 
Q 544 4100 942 4425 
Q 1341 4750 2034 4750 
Q 2731 4750 3128 4425 
Q 3525 4100 3525 3541 
Q 3525 3141 3298 2862 
Q 3072 2584 2669 2484 
Q 3125 2378 3379 2068 
Q 3634 1759 3634 1313 
Q 3634 634 3220 271 
Q 2806 -91 2034 -91 
Q 1263 -91 848 271 
Q 434 634 434 1313 
Q 434 1759 690 2068 
Q 947 2378 1403 2484 
z
M 1172 3481 
Q 1172 3119 1398 2916 
Q 1625 2713 2034 2713 
Q 2441 2713 2670 2916 
Q 2900 3119 2900 3481 
Q 2900 3844 2670 4047 
Q 2441 4250 2034 4250 
Q 1625 4250 1398 4047 
Q 1172 3844 1172 3481 
z
" transform="scale(0.015625)"/>
       </defs>
       <use xlink:href="#DejaVuSans-30"/>
       <use xlink:href="#DejaVuSans-2e" x="63.623047"/>
       <use xlink:href="#DejaVuSans-38" x="95.410156"/>
      </g>
     </g>
    </g>
    <g id="ytick_6">
     <g id="line2d_25">
      <path d="M 43.78125 14.963478 
L 400.90125 14.963478 
" clip-path="url(#p33cfdd9074)" style="fill: none; stroke: #b0b0b0; stroke-width: 0.8; stroke-linecap: square"/>
     </g>
     <g id="line2d_26">
      <g>
       <use xlink:href="#me86e2a553a" x="43.78125" y="14.963478" style="stroke: #000000; stroke-width: 0.8"/>
      </g>
     </g>
     <g id="text_14">
      <!-- 1.0 -->
      <g transform="translate(20.878125 18.762697) scale(0.1 -0.1)">
       <defs>
        <path id="DejaVuSans-31" d="M 794 531 
L 1825 531 
L 1825 4091 
L 703 3866 
L 703 4441 
L 1819 4666 
L 2450 4666 
L 2450 531 
L 3481 531 
L 3481 0 
L 794 0 
L 794 531 
z
" transform="scale(0.015625)"/>
       </defs>
       <use xlink:href="#DejaVuSans-31"/>
       <use xlink:href="#DejaVuSans-2e" x="63.623047"/>
       <use xlink:href="#DejaVuSans-30" x="95.410156"/>
      </g>
     </g>
    </g>
    <g id="text_15">
     <!-- normalized intensity -->
     <g transform="translate(14.798438 143.64748) rotate(-90) scale(0.1 -0.1)">
      <defs>
       <path id="DejaVuSans-6f" d="M 1959 3097 
Q 1497 3097 1228 2736 
Q 959 2375 959 1747 
Q 959 1119 1226 758 
Q 1494 397 1959 397 
Q 2419 397 2687 759 
Q 2956 1122 2956 1747 
Q 2956 2369 2687 2733 
Q 2419 3097 1959 3097 
z
M 1959 3584 
Q 2709 3584 3137 3096 
Q 3566 2609 3566 1747 
Q 3566 888 3137 398 
Q 2709 -91 1959 -91 
Q 1206 -91 779 398 
Q 353 888 353 1747 
Q 353 2609 779 3096 
Q 1206 3584 1959 3584 
z
" transform="scale(0.015625)"/>
       <path id="DejaVuSans-72" d="M 2631 2963 
Q 2534 3019 2420 3045 
Q 2306 3072 2169 3072 
Q 1681 3072 1420 2755 
Q 1159 2438 1159 1844 
L 1159 0 
L 581 0 
L 581 3500 
L 1159 3500 
L 1159 2956 
Q 1341 3275 1631 3429 
Q 1922 3584 2338 3584 
Q 2397 3584 2469 3576 
Q 2541 3569 2628 3553 
L 2631 2963 
z
" transform="scale(0.015625)"/>
       <path id="DejaVuSans-6d" d="M 3328 2828 
Q 3544 3216 3844 3400 
Q 4144 3584 4550 3584 
Q 5097 3584 5394 3201 
Q 5691 2819 5691 2113 
L 5691 0 
L 5113 0 
L 5113 2094 
Q 5113 2597 4934 2840 
Q 4756 3084 4391 3084 
Q 3944 3084 3684 2787 
Q 3425 2491 3425 1978 
L 3425 0 
L 2847 0 
L 2847 2094 
Q 2847 2600 2669 2842 
Q 2491 3084 2119 3084 
Q 1678 3084 1418 2786 
Q 1159 2488 1159 1978 
L 1159 0 
L 581 0 
L 581 3500 
L 1159 3500 
L 1159 2956 
Q 1356 3278 1631 3431 
Q 1906 3584 2284 3584 
Q 2666 3584 2933 3390 
Q 3200 3197 3328 2828 
z
" transform="scale(0.015625)"/>
       <path id="DejaVuSans-69" d="M 603 3500 
L 1178 3500 
L 1178 0 
L 603 0 
L 603 3500 
z
M 603 4863 
L 1178 4863 
L 1178 4134 
L 603 4134 
L 603 4863 
z
" transform="scale(0.015625)"/>
       <path id="DejaVuSans-7a" d="M 353 3500 
L 3084 3500 
L 3084 2975 
L 922 459 
L 3084 459 
L 3084 0 
L 275 0 
L 275 525 
L 2438 3041 
L 353 3041 
L 353 3500 
z
" transform="scale(0.015625)"/>
       <path id="DejaVuSans-64" d="M 2906 2969 
L 2906 4863 
L 3481 4863 
L 3481 0 
L 2906 0 
L 2906 525 
Q 2725 213 2448 61 
Q 2172 -91 1784 -91 
Q 1150 -91 751 415 
Q 353 922 353 1747 
Q 353 2572 751 3078 
Q 1150 3584 1784 3584 
Q 2172 3584 2448 3432 
Q 2725 3281 2906 2969 
z
M 947 1747 
Q 947 1113 1208 752 
Q 1469 391 1925 391 
Q 2381 391 2643 752 
Q 2906 1113 2906 1747 
Q 2906 2381 2643 2742 
Q 2381 3103 1925 3103 
Q 1469 3103 1208 2742 
Q 947 2381 947 1747 
z
" transform="scale(0.015625)"/>
       <path id="DejaVuSans-20" transform="scale(0.015625)"/>
       <path id="DejaVuSans-73" d="M 2834 3397 
L 2834 2853 
Q 2591 2978 2328 3040 
Q 2066 3103 1784 3103 
Q 1356 3103 1142 2972 
Q 928 2841 928 2578 
Q 928 2378 1081 2264 
Q 1234 2150 1697 2047 
L 1894 2003 
Q 2506 1872 2764 1633 
Q 3022 1394 3022 966 
Q 3022 478 2636 193 
Q 2250 -91 1575 -91 
Q 1294 -91 989 -36 
Q 684 19 347 128 
L 347 722 
Q 666 556 975 473 
Q 1284 391 1588 391 
Q 1994 391 2212 530 
Q 2431 669 2431 922 
Q 2431 1156 2273 1281 
Q 2116 1406 1581 1522 
L 1381 1569 
Q 847 1681 609 1914 
Q 372 2147 372 2553 
Q 372 3047 722 3315 
Q 1072 3584 1716 3584 
Q 2034 3584 2315 3537 
Q 2597 3491 2834 3397 
z
" transform="scale(0.015625)"/>
       <path id="DejaVuSans-79" d="M 2059 -325 
Q 1816 -950 1584 -1140 
Q 1353 -1331 966 -1331 
L 506 -1331 
L 506 -850 
L 844 -850 
Q 1081 -850 1212 -737 
Q 1344 -625 1503 -206 
L 1606 56 
L 191 3500 
L 800 3500 
L 1894 763 
L 2988 3500 
L 3597 3500 
L 2059 -325 
z
" transform="scale(0.015625)"/>
      </defs>
      <use xlink:href="#DejaVuSans-6e"/>
      <use xlink:href="#DejaVuSans-6f" x="63.378906"/>
      <use xlink:href="#DejaVuSans-72" x="124.560547"/>
      <use xlink:href="#DejaVuSans-6d" x="163.923828"/>
      <use xlink:href="#DejaVuSans-61" x="261.335938"/>
      <use xlink:href="#DejaVuSans-6c" x="322.615234"/>
      <use xlink:href="#DejaVuSans-69" x="350.398438"/>
      <use xlink:href="#DejaVuSans-7a" x="378.181641"/>
      <use xlink:href="#DejaVuSans-65" x="430.671875"/>
      <use xlink:href="#DejaVuSans-64" x="492.195312"/>
      <use xlink:href="#DejaVuSans-20" x="555.671875"/>
      <use xlink:href="#DejaVuSans-69" x="587.458984"/>
      <use xlink:href="#DejaVuSans-6e" x="615.242188"/>
      <use xlink:href="#DejaVuSans-74" x="678.621094"/>
      <use xlink:href="#DejaVuSans-65" x="717.830078"/>
      <use xlink:href="#DejaVuSans-6e" x="779.353516"/>
      <use xlink:href="#DejaVuSans-73" x="842.732422"/>
      <use xlink:href="#DejaVuSans-69" x="894.832031"/>
      <use xlink:href="#DejaVuSans-74" x="922.615234"/>
      <use xlink:href="#DejaVuSans-79" x="961.824219"/>
     </g>
    </g>
   </g>
   <g id="line2d_27">
    <path d="M 43.78125 168.199012 
L 46.886641 168.323228 
L 53.097424 168.307701 
L 59.308207 168.214539 
L 62.413598 168.028216 
L 67.58925 167.764257 
L 69.659511 167.531353 
L 73.800033 167.236341 
L 76.905424 166.863694 
L 81.045946 166.227089 
L 85.186467 165.342052 
L 87.256728 164.876243 
L 89.326989 164.301746 
L 91.39725 163.603033 
L 93.467511 162.90432 
L 95.537772 162.019283 
L 98.643163 160.96345 
L 100.713424 159.954198 
L 102.783685 158.758623 
L 108.994467 155.870609 
L 111.064728 154.519763 
L 113.134989 153.370769 
L 116.24038 151.305683 
L 117.275511 150.60697 
L 119.345772 148.899005 
L 122.451163 146.073099 
L 125.556554 143.526678 
L 127.626815 141.570282 
L 132.802467 136.943249 
L 135.907859 134.008654 
L 140.04838 129.521363 
L 142.118641 127.068104 
L 143.153772 125.91911 
L 144.188902 124.475103 
L 146.259163 121.229969 
L 147.294293 119.754908 
L 149.364554 116.012911 
L 152.469946 110.143722 
L 154.540207 105.718539 
L 158.680728 97.660049 
L 160.750989 93.126177 
L 165.926641 83.390776 
L 166.961772 81.869134 
L 172.137424 75.953363 
L 174.207685 74.307506 
L 177.313076 72.304529 
L 182.488728 69.416515 
L 183.523859 68.484897 
L 184.558989 67.04089 
L 187.66438 61.451186 
L 188.699511 59.417155 
L 190.769772 54.433002 
L 192.840033 49.18489 
L 194.910293 43.253593 
L 196.980554 36.825433 
L 199.050815 31.313363 
L 201.121076 25.863402 
L 203.191337 21.065572 
L 205.261598 17.137252 
L 206.296728 15.755353 
L 207.331859 15.041113 
L 208.366989 14.963478 
L 209.40212 15.103221 
L 210.43725 15.444814 
L 211.47238 16.547228 
L 212.507511 18.736529 
L 213.542641 21.624543 
L 214.577772 24.885203 
L 215.612902 28.751416 
L 217.683163 38.316021 
L 219.753424 49.045148 
L 221.823685 61.031958 
L 229.069598 106.743318 
L 231.139859 117.876146 
L 233.21012 127.658129 
L 235.28038 135.825308 
L 236.315511 139.3344 
L 238.385772 145.172536 
L 239.420902 147.656849 
L 240.456033 149.799569 
L 242.526293 153.401823 
L 243.561424 154.954518 
L 245.631685 157.314616 
L 246.666815 158.385976 
L 247.701946 159.286539 
L 249.772207 160.55975 
L 251.842467 161.537948 
L 253.912728 162.267715 
L 258.05325 163.245913 
L 263.228902 163.944626 
L 272.545076 163.913572 
L 274.615337 163.82041 
L 287.036902 164.084369 
L 289.107163 164.3328 
L 291.177424 164.441489 
L 293.247685 164.705447 
L 296.353076 164.814136 
L 296.353076 164.814136 
" clip-path="url(#p33cfdd9074)" style="fill: none; stroke: #c9ff00; stroke-opacity: 0.9; stroke-width: 1.5; stroke-linecap: square"/>
   </g>
   <g id="line2d_28">
    <path d="M 183.523859 169.146157 
L 185.59412 168.944306 
L 188.699511 168.307701 
L 190.769772 167.640042 
L 192.840033 166.770532 
L 194.910293 165.512849 
L 195.945424 164.705447 
L 198.015685 162.609308 
L 199.050815 161.382678 
L 200.085946 159.954198 
L 201.121076 158.246233 
L 203.191337 154.038428 
L 204.226467 151.662803 
L 205.261598 149.007694 
L 206.296728 146.026518 
L 207.331859 142.610588 
L 209.40212 134.226031 
L 211.47238 124.708007 
L 213.542641 113.730449 
L 215.612902 100.61017 
L 220.788554 64.991332 
L 222.858815 51.669203 
L 224.929076 39.744501 
L 226.999337 29.807249 
L 228.034467 25.847875 
L 229.069598 22.649322 
L 231.139859 18.162031 
L 232.174989 16.28327 
L 233.21012 15.134275 
L 234.24525 14.963478 
L 235.28038 15.289544 
L 236.315511 15.832988 
L 237.350641 16.671443 
L 239.420902 18.953906 
L 240.456033 20.444494 
L 241.491163 22.540633 
L 244.596554 29.589871 
L 247.701946 38.347075 
L 248.737076 41.530101 
L 249.772207 44.34048 
L 250.807337 46.63847 
L 252.877598 50.628897 
L 255.982989 57.181273 
L 261.158641 66.544028 
L 262.193772 68.158831 
L 264.264033 71.807666 
L 266.334293 74.757788 
L 268.404554 77.506059 
L 270.474815 80.25433 
L 272.545076 83.437357 
L 274.615337 86.107993 
L 276.685598 88.530198 
L 279.790989 92.831165 
L 280.82612 93.949106 
L 284.966641 99.383541 
L 288.072033 103.746616 
L 290.142293 106.463833 
L 293.247685 110.92007 
L 295.317946 113.77703 
L 297.388207 116.820313 
L 300.493598 120.997064 
L 303.598989 124.832223 
L 305.66925 127.471805 
L 307.739511 129.769795 
L 308.774641 130.856682 
L 311.880033 133.682588 
L 313.950293 136.306643 
L 314.985424 137.145099 
L 316.020554 137.797231 
L 317.055685 138.77543 
L 319.125946 141.088946 
L 320.161076 141.880821 
L 323.266467 143.759583 
L 328.44212 147.34631 
L 337.758293 152.454678 
L 339.828554 153.308661 
L 345.004207 155.808501 
L 347.074467 156.414052 
L 348.109598 156.709064 
L 350.179859 157.54752 
L 354.32038 158.758623 
L 356.390641 159.472863 
L 360.531163 160.575277 
L 373.987859 163.494344 
L 379.163511 164.363854 
L 381.233772 164.798609 
L 384.339163 165.109148 
L 386.409424 165.279944 
L 388.479685 165.373106 
L 392.620207 166.009711 
L 395.725598 166.366831 
L 398.830989 166.972383 
L 400.90125 166.98791 
L 400.90125 166.98791 
" clip-path="url(#p33cfdd9074)" style="fill: none; stroke: #ffe600; stroke-opacity: 0.9; stroke-width: 1.5; stroke-linecap: square"/>
   </g>
   <g id="patch_3">
    <path d="M 43.78125 177.996522 
L 43.78125 7.2 
" style="fill: none; stroke: #000000; stroke-width: 0.8; stroke-linejoin: miter; stroke-linecap: square"/>
   </g>
   <g id="patch_4">
    <path d="M 400.90125 177.996522 
L 400.90125 7.2 
" style="fill: none; stroke: #000000; stroke-width: 0.8; stroke-linejoin: miter; stroke-linecap: square"/>
   </g>
   <g id="patch_5">
    <path d="M 43.78125 177.996522 
L 400.90125 177.996522 
" style="fill: none; stroke: #000000; stroke-width: 0.8; stroke-linejoin: miter; stroke-linecap: square"/>
   </g>
   <g id="patch_6">
    <path d="M 43.78125 7.2 
L 400.90125 7.2 
" style="fill: none; stroke: #000000; stroke-width: 0.8; stroke-linejoin: miter; stroke-linecap: square"/>
   </g>
   <g id="legend_1">
    <g id="patch_7">
     <path d="M 291.690313 44.55625 
L 393.90125 44.55625 
Q 395.90125 44.55625 395.90125 42.55625 
L 395.90125 14.2 
Q 395.90125 12.2 393.90125 12.2 
L 291.690313 12.2 
Q 289.690313 12.2 289.690313 14.2 
L 289.690313 42.55625 
Q 289.690313 44.55625 291.690313 44.55625 
z
" style="fill: #ffffff; opacity: 0.8; stroke: #cccccc; stroke-linejoin: miter"/>
    </g>
    <g id="line2d_29">
     <path d="M 293.690313 20.298437 
L 303.690313 20.298437 
L 313.690313 20.298437 
" style="fill: none; stroke: #c9ff00; stroke-opacity: 0.9; stroke-width: 1.5; stroke-linecap: square"/>
    </g>
    <g id="text_16">
     <!-- jRGECO1a ex -->
     <g transform="translate(321.690313 23.798437) scale(0.1 -0.1)">
      <defs>
       <path id="DejaVuSans-6a" d="M 603 3500 
L 1178 3500 
L 1178 -63 
Q 1178 -731 923 -1031 
Q 669 -1331 103 -1331 
L -116 -1331 
L -116 -844 
L 38 -844 
Q 366 -844 484 -692 
Q 603 -541 603 -63 
L 603 3500 
z
M 603 4863 
L 1178 4863 
L 1178 4134 
L 603 4134 
L 603 4863 
z
" transform="scale(0.015625)"/>
       <path id="DejaVuSans-52" d="M 2841 2188 
Q 3044 2119 3236 1894 
Q 3428 1669 3622 1275 
L 4263 0 
L 3584 0 
L 2988 1197 
Q 2756 1666 2539 1819 
Q 2322 1972 1947 1972 
L 1259 1972 
L 1259 0 
L 628 0 
L 628 4666 
L 2053 4666 
Q 2853 4666 3247 4331 
Q 3641 3997 3641 3322 
Q 3641 2881 3436 2590 
Q 3231 2300 2841 2188 
z
M 1259 4147 
L 1259 2491 
L 2053 2491 
Q 2509 2491 2742 2702 
Q 2975 2913 2975 3322 
Q 2975 3731 2742 3939 
Q 2509 4147 2053 4147 
L 1259 4147 
z
" transform="scale(0.015625)"/>
       <path id="DejaVuSans-47" d="M 3809 666 
L 3809 1919 
L 2778 1919 
L 2778 2438 
L 4434 2438 
L 4434 434 
Q 4069 175 3628 42 
Q 3188 -91 2688 -91 
Q 1594 -91 976 548 
Q 359 1188 359 2328 
Q 359 3472 976 4111 
Q 1594 4750 2688 4750 
Q 3144 4750 3555 4637 
Q 3966 4525 4313 4306 
L 4313 3634 
Q 3963 3931 3569 4081 
Q 3175 4231 2741 4231 
Q 1884 4231 1454 3753 
Q 1025 3275 1025 2328 
Q 1025 1384 1454 906 
Q 1884 428 2741 428 
Q 3075 428 3337 486 
Q 3600 544 3809 666 
z
" transform="scale(0.015625)"/>
       <path id="DejaVuSans-45" d="M 628 4666 
L 3578 4666 
L 3578 4134 
L 1259 4134 
L 1259 2753 
L 3481 2753 
L 3481 2222 
L 1259 2222 
L 1259 531 
L 3634 531 
L 3634 0 
L 628 0 
L 628 4666 
z
" transform="scale(0.015625)"/>
       <path id="DejaVuSans-43" d="M 4122 4306 
L 4122 3641 
Q 3803 3938 3442 4084 
Q 3081 4231 2675 4231 
Q 1875 4231 1450 3742 
Q 1025 3253 1025 2328 
Q 1025 1406 1450 917 
Q 1875 428 2675 428 
Q 3081 428 3442 575 
Q 3803 722 4122 1019 
L 4122 359 
Q 3791 134 3420 21 
Q 3050 -91 2638 -91 
Q 1578 -91 968 557 
Q 359 1206 359 2328 
Q 359 3453 968 4101 
Q 1578 4750 2638 4750 
Q 3056 4750 3426 4639 
Q 3797 4528 4122 4306 
z
" transform="scale(0.015625)"/>
       <path id="DejaVuSans-4f" d="M 2522 4238 
Q 1834 4238 1429 3725 
Q 1025 3213 1025 2328 
Q 1025 1447 1429 934 
Q 1834 422 2522 422 
Q 3209 422 3611 934 
Q 4013 1447 4013 2328 
Q 4013 3213 3611 3725 
Q 3209 4238 2522 4238 
z
M 2522 4750 
Q 3503 4750 4090 4092 
Q 4678 3434 4678 2328 
Q 4678 1225 4090 567 
Q 3503 -91 2522 -91 
Q 1538 -91 948 565 
Q 359 1222 359 2328 
Q 359 3434 948 4092 
Q 1538 4750 2522 4750 
z
" transform="scale(0.015625)"/>
       <path id="DejaVuSans-78" d="M 3513 3500 
L 2247 1797 
L 3578 0 
L 2900 0 
L 1881 1375 
L 863 0 
L 184 0 
L 1544 1831 
L 300 3500 
L 978 3500 
L 1906 2253 
L 2834 3500 
L 3513 3500 
z
" transform="scale(0.015625)"/>
      </defs>
      <use xlink:href="#DejaVuSans-6a"/>
      <use xlink:href="#DejaVuSans-52" x="27.783203"/>
      <use xlink:href="#DejaVuSans-47" x="97.265625"/>
      <use xlink:href="#DejaVuSans-45" x="174.755859"/>
      <use xlink:href="#DejaVuSans-43" x="237.939453"/>
      <use xlink:href="#DejaVuSans-4f" x="307.763672"/>
      <use xlink:href="#DejaVuSans-31" x="386.474609"/>
      <use xlink:href="#DejaVuSans-61" x="450.097656"/>
      <use xlink:href="#DejaVuSans-20" x="511.376953"/>
      <use xlink:href="#DejaVuSans-65" x="543.164062"/>
      <use xlink:href="#DejaVuSans-78" x="602.9375"/>
     </g>
    </g>
    <g id="line2d_30">
     <path d="M 293.690313 34.976562 
L 303.690313 34.976562 
L 313.690313 34.976562 
" style="fill: none; stroke: #ffe600; stroke-opacity: 0.9; stroke-width: 1.5; stroke-linecap: square"/>
    </g>
    <g id="text_17">
     <!-- jRGECO1a em -->
     <g transform="translate(321.690313 38.476562) scale(0.1 -0.1)">
      <use xlink:href="#DejaVuSans-6a"/>
      <use xlink:href="#DejaVuSans-52" x="27.783203"/>
      <use xlink:href="#DejaVuSans-47" x="97.265625"/>
      <use xlink:href="#DejaVuSans-45" x="174.755859"/>
      <use xlink:href="#DejaVuSans-43" x="237.939453"/>
      <use xlink:href="#DejaVuSans-4f" x="307.763672"/>
      <use xlink:href="#DejaVuSans-31" x="386.474609"/>
      <use xlink:href="#DejaVuSans-61" x="450.097656"/>
      <use xlink:href="#DejaVuSans-20" x="511.376953"/>
      <use xlink:href="#DejaVuSans-65" x="543.164062"/>
      <use xlink:href="#DejaVuSans-6d" x="604.6875"/>
     </g>
    </g>
   </g>
  </g>
 </g>
 <defs>
  <clipPath id="p33cfdd9074">
   <rect x="43.78125" y="7.2" width="357.12" height="170.796522"/>
  </clipPath>
 </defs>
</svg>
