<?xml version="1.0" encoding="UTF-8" standalone="no"?>
<!-- Created with Inkscape (http://www.inkscape.org/) -->

<svg
   version="1.1"
   id="svg1"
   width="224.444"
   height="213.77733"
   viewBox="0 0 224.444 213.77733"
   sodipodi:docname="oe-logo-a_mono_no-text_white.svg"
   inkscape:version="1.4 (86a8ad7, 2024-10-11)"
   inkscape:export-filename="oe-logo-a_mono_no-text_white.png"
   inkscape:export-xdpi="96"
   inkscape:export-ydpi="96"
   xmlns:inkscape="http://www.inkscape.org/namespaces/inkscape"
   xmlns:sodipodi="http://sodipodi.sourceforge.net/DTD/sodipodi-0.dtd"
   xmlns="http://www.w3.org/2000/svg"
   xmlns:svg="http://www.w3.org/2000/svg">
  <sodipodi:namedview
     id="namedview1"
     pagecolor="#000000"
     bordercolor="#000000"
     borderopacity="0.25"
     inkscape:showpageshadow="2"
     inkscape:pageopacity="0.0"
     inkscape:pagecheckerboard="0"
     inkscape:deskcolor="#d1d1d1"
     inkscape:zoom="1.9997443"
     inkscape:cx="93.761986"
     inkscape:cy="82.76058"
     inkscape:window-width="1920"
     inkscape:window-height="1057"
     inkscape:window-x="1912"
     inkscape:window-y="-8"
     inkscape:window-maximized="1"
     inkscape:current-layer="g75" />
  <defs
     id="defs1">
    <clipPath
       clipPathUnits="userSpaceOnUse"
       id="clipPath2">
      <path
         d="M 0,160.333 H 168.333 V 0 H 0 Z"
         transform="matrix(1,0,0,-1,91.334005,-69.156299)"
         id="path2" />
    </clipPath>
    <clipPath
       clipPathUnits="userSpaceOnUse"
       id="clipPath3">
      <path
         d="m 114.126,158.845 h 54 V 44.5112 h -54 z"
         transform="translate(-120.6265,-152.3447)"
         id="path3" />
    </clipPath>
    <clipPath
       clipPathUnits="userSpaceOnUse"
       id="clipPath5">
      <path
         d="M 0,160.333 H 168.333 V 0 H 0 Z"
         transform="matrix(1.3333333,0,0,-1.3333333,0,213.77733)"
         id="path5" />
    </clipPath>
    <clipPath
       clipPathUnits="userSpaceOnUse"
       id="clipPath6">
      <path
         d="M 60.1274,127.345 H 168.126 V 44.5112 H 60.1274 Z"
         transform="translate(-161.6265,-51.011201)"
         id="path6" />
    </clipPath>
    <clipPath
       clipPathUnits="userSpaceOnUse"
       id="clipPath8">
      <path
         d="M 0,160.333 H 168.333 V 0 H 0 Z"
         transform="matrix(1.3333333,0,0,-1.3333333,0,213.77733)"
         id="path8" />
    </clipPath>
    <clipPath
       clipPathUnits="userSpaceOnUse"
       id="clipPath9">
      <path
         d="M 60.1274,127.345 H 155.21 V 0.344727 H 60.1274 Z"
         transform="translate(-66.627401,-120.8447)"
         id="path9" />
    </clipPath>
    <clipPath
       clipPathUnits="userSpaceOnUse"
       id="clipPath11">
      <path
         d="M 0,160.333 H 168.333 V 0 H 0 Z"
         transform="matrix(1.3333333,0,0,-1.3333333,0,213.77733)"
         id="path11" />
    </clipPath>
    <clipPath
       clipPathUnits="userSpaceOnUse"
       id="clipPath12">
      <path
         d="M 0.459473,72.0952 H 155.21 V 0.344727 H 0.459473 Z"
         transform="translate(-148.7104,-6.8446977)"
         id="path12" />
    </clipPath>
    <clipPath
       clipPathUnits="userSpaceOnUse"
       id="clipPath14">
      <path
         d="M 0,160.333 H 168.333 V 0 H 0 Z"
         transform="matrix(1.3333333,0,0,-1.3333333,0,213.77733)"
         id="path14" />
    </clipPath>
    <clipPath
       clipPathUnits="userSpaceOnUse"
       id="clipPath15">
      <path
         d="M 0.459473,127.345 H 73.1274 V 59.0952 H 0.459473 Z"
         transform="translate(-6.9595001,-65.595199)"
         id="path15" />
    </clipPath>
    <clipPath
       clipPathUnits="userSpaceOnUse"
       id="clipPath17">
      <path
         d="M 0,160.333 H 168.333 V 0 H 0 Z"
         transform="matrix(1.3333333,0,0,-1.3333333,0,213.77733)"
         id="path17" />
    </clipPath>
    <clipPath
       clipPathUnits="userSpaceOnUse"
       id="clipPath18">
      <path
         d="M 114.126,158.845 H 155.21 V 0.344727 h -41.084 z"
         transform="translate(-148.7104,-6.8446977)"
         id="path18" />
    </clipPath>
    <clipPath
       clipPathUnits="userSpaceOnUse"
       id="clipPath20">
      <path
         d="M 0,160.333 H 168.333 V 0 H 0 Z"
         transform="matrix(1.3333333,0,0,-1.3333333,0,213.77733)"
         id="path20" />
    </clipPath>
    <clipPath
       clipPathUnits="userSpaceOnUse"
       id="clipPath21">
      <path
         d="m 142.21,57.5112 h 25.916 V 0.344727 H 142.21 Z"
         transform="translate(-161.6265,-51.011201)"
         id="path21" />
    </clipPath>
    <clipPath
       clipPathUnits="userSpaceOnUse"
       id="clipPath23">
      <path
         d="M 0,160.333 H 168.333 V 0 H 0 Z"
         transform="matrix(1.3333333,0,0,-1.3333333,0,213.77733)"
         id="path23" />
    </clipPath>
    <clipPath
       clipPathUnits="userSpaceOnUse"
       id="clipPath24">
      <path
         d="M 0.459473,72.0952 H 168.126 V 44.5112 H 0.459473 Z"
         transform="translate(-161.6265,-51.011201)"
         id="path24" />
    </clipPath>
    <clipPath
       clipPathUnits="userSpaceOnUse"
       id="clipPath26">
      <path
         d="M 0,160.333 H 168.333 V 0 H 0 Z"
         transform="matrix(1.3333333,0,0,-1.3333333,0,213.77733)"
         id="path26" />
    </clipPath>
    <clipPath
       clipPathUnits="userSpaceOnUse"
       id="clipPath28">
      <path
         d="M 0,160.333 H 168.333 V 0 H 0 Z"
         transform="translate(-6.9595001,-65.595199)"
         id="path28" />
    </clipPath>
    <clipPath
       clipPathUnits="userSpaceOnUse"
       id="clipPath30">
      <path
         d="M 0,160.333 H 168.333 V 0 H 0 Z"
         transform="translate(-66.627401,-120.8447)"
         id="path30" />
    </clipPath>
    <clipPath
       clipPathUnits="userSpaceOnUse"
       id="clipPath32">
      <path
         d="M 0,160.333 H 168.333 V 0 H 0 Z"
         transform="translate(-161.6265,-51.011201)"
         id="path32" />
    </clipPath>
    <clipPath
       clipPathUnits="userSpaceOnUse"
       id="clipPath34">
      <path
         d="M 0,160.333 H 168.333 V 0 H 0 Z"
         transform="translate(-120.6265,-152.3447)"
         id="path34" />
    </clipPath>
    <clipPath
       clipPathUnits="userSpaceOnUse"
       id="clipPath36">
      <path
         d="M 0,160.333 H 168.333 V 0 H 0 Z"
         transform="translate(-148.7104,-6.8446977)"
         id="path36" />
    </clipPath>
    <clipPath
       clipPathUnits="userSpaceOnUse"
       id="clipPath38">
      <path
         d="M 0,160.333 H 168.333 V 0 H 0 Z"
         transform="translate(-6.9595001,-65.595199)"
         id="path38" />
    </clipPath>
    <clipPath
       clipPathUnits="userSpaceOnUse"
       id="clipPath40">
      <path
         d="M 0,160.333 H 168.333 V 0 H 0 Z"
         transform="translate(-6.9595001,-65.595199)"
         id="path40" />
    </clipPath>
    <clipPath
       clipPathUnits="userSpaceOnUse"
       id="clipPath42">
      <path
         d="M 0,160.333 H 168.333 V 0 H 0 Z"
         transform="translate(-148.7104,-6.8446977)"
         id="path42" />
    </clipPath>
    <clipPath
       clipPathUnits="userSpaceOnUse"
       id="clipPath43">
      <path
         d="m 114.126,158.844 h 54 V 44.5107 h -54 z"
         transform="translate(-120.6265,-152.3442)"
         id="path43" />
    </clipPath>
    <clipPath
       clipPathUnits="userSpaceOnUse"
       id="clipPath45">
      <path
         d="M 0,160.333 H 168.333 V 0 H 0 Z"
         transform="matrix(1.3333333,0,0,-1.3333333,0,213.77733)"
         id="path45" />
    </clipPath>
    <clipPath
       clipPathUnits="userSpaceOnUse"
       id="clipPath46">
      <path
         d="M 60.127,127.344 H 168.126 V 44.5107 H 60.127 Z"
         transform="translate(-161.6265,-51.010699)"
         id="path46" />
    </clipPath>
    <clipPath
       clipPathUnits="userSpaceOnUse"
       id="clipPath48">
      <path
         d="M 0,160.333 H 168.333 V 0 H 0 Z"
         transform="matrix(1.3333333,0,0,-1.3333333,0,213.77733)"
         id="path48" />
    </clipPath>
    <clipPath
       clipPathUnits="userSpaceOnUse"
       id="clipPath49">
      <path
         d="M 60.127,127.344 H 155.21 V 0.344727 H 60.127 Z"
         transform="translate(-66.627002,-120.8442)"
         id="path49" />
    </clipPath>
    <clipPath
       clipPathUnits="userSpaceOnUse"
       id="clipPath51">
      <path
         d="M 0,160.333 H 168.333 V 0 H 0 Z"
         transform="matrix(1.3333333,0,0,-1.3333333,0,213.77733)"
         id="path51" />
    </clipPath>
    <clipPath
       clipPathUnits="userSpaceOnUse"
       id="clipPath52">
      <path
         d="M 6.95996,65.5947 H 148.71 V 6.84473 H 6.95996 Z"
         transform="translate(-148.7104,-6.8446977)"
         id="path52" />
    </clipPath>
    <clipPath
       clipPathUnits="userSpaceOnUse"
       id="clipPath53">
      <path
         d="M 0.459961,72.0947 H 155.21 V 0.344727 H 0.459961 Z"
         transform="matrix(1.3333333,0,0,-1.3333333,0,213.77733)"
         id="path53" />
    </clipPath>
    <clipPath
       clipPathUnits="userSpaceOnUse"
       id="clipPath54">
      <path
         d="M 0.459961,72.0947 H 155.21 V 0.344727 H 0.459961 Z"
         transform="translate(-148.7104,-6.8446977)"
         id="path54" />
    </clipPath>
    <clipPath
       clipPathUnits="userSpaceOnUse"
       id="clipPath57">
      <path
         d="M 0,160.333 H 168.333 V 0 H 0 Z"
         transform="matrix(1.3333333,0,0,-1.3333333,0,213.77733)"
         id="path57" />
    </clipPath>
    <clipPath
       clipPathUnits="userSpaceOnUse"
       id="clipPath58">
      <path
         d="M 0.459961,127.344 H 73.127 V 59.0947 H 0.459961 Z"
         transform="translate(-6.9600002,-65.594704)"
         id="path58" />
    </clipPath>
    <clipPath
       clipPathUnits="userSpaceOnUse"
       id="clipPath60">
      <path
         d="M 0,160.333 H 168.333 V 0 H 0 Z"
         transform="matrix(1.3333333,0,0,-1.3333333,0,213.77733)"
         id="path60" />
    </clipPath>
    <clipPath
       clipPathUnits="userSpaceOnUse"
       id="clipPath61">
      <path
         d="M 114.126,158.844 H 155.21 V 0.344727 h -41.084 z"
         transform="translate(-148.7104,-6.8446977)"
         id="path61" />
    </clipPath>
    <clipPath
       clipPathUnits="userSpaceOnUse"
       id="clipPath63">
      <path
         d="M 0,160.333 H 168.333 V 0 H 0 Z"
         transform="matrix(1.3333333,0,0,-1.3333333,0,213.77733)"
         id="path63" />
    </clipPath>
    <clipPath
       clipPathUnits="userSpaceOnUse"
       id="clipPath64">
      <path
         d="m 142.21,57.5107 h 25.916 V 0.344727 H 142.21 Z"
         transform="translate(-161.6265,-51.010699)"
         id="path64" />
    </clipPath>
    <clipPath
       clipPathUnits="userSpaceOnUse"
       id="clipPath66">
      <path
         d="M 0,160.333 H 168.333 V 0 H 0 Z"
         transform="matrix(1.3333333,0,0,-1.3333333,0,213.77733)"
         id="path66" />
    </clipPath>
    <clipPath
       clipPathUnits="userSpaceOnUse"
       id="clipPath67">
      <path
         d="M 6.95996,65.5947 H 161.626 V 51.0107 H 6.95996 Z"
         transform="translate(-161.6265,-51.010699)"
         id="path67" />
    </clipPath>
    <clipPath
       clipPathUnits="userSpaceOnUse"
       id="clipPath68">
      <path
         d="M 0.459961,72.0947 H 168.126 V 44.5107 H 0.459961 Z"
         transform="matrix(1.3333333,0,0,-1.3333333,0,213.77733)"
         id="path68" />
    </clipPath>
    <clipPath
       clipPathUnits="userSpaceOnUse"
       id="clipPath69">
      <path
         d="M 0.459961,72.0947 H 168.126 V 44.5107 H 0.459961 Z"
         transform="translate(-161.6265,-51.010699)"
         id="path69" />
    </clipPath>
    <clipPath
       clipPathUnits="userSpaceOnUse"
       id="clipPath72">
      <path
         d="M 0,160.333 H 168.333 V 0 H 0 Z"
         transform="matrix(1.3333333,0,0,-1.3333333,0,213.77733)"
         id="path72" />
    </clipPath>
  </defs>
  <g
     id="layer-MC1"
     style="display:none">
    <path
       id="path1"
       d="m 24.036148,2.16695 c -2.554687,0 -4.96289,-0.4892578 -7.21875,-1.46484375 C 14.558609,-0.27347969 12.598648,-1.5947687 10.934586,-3.2588312 9.2705234,-4.9228937 7.9463047,-6.8828547 6.9619297,-9.1416437 5.9834141,-11.397503 5.4970859,-13.805706 5.4970859,-16.360394 v -25.570312 c 0,-2.560547 0.4863282,-4.97168 1.4648438,-7.230469 0.984375,-2.255859 2.3085937,-4.21875 3.9726563,-5.882812 1.664062,-1.664063 3.624023,-2.982422 5.882812,-3.960938 2.25586,-0.975586 4.664063,-1.464844 7.21875,-1.464844 2.554688,0 4.959961,0.489258 7.21875,1.464844 2.264649,0.978516 4.22461,2.296875 5.882813,3.960938 1.664062,1.664062 2.982422,3.626953 3.960937,5.882812 0.984375,2.258789 1.476563,4.669922 1.476563,7.230469 v 25.570312 c 0,2.554688 -0.492188,4.962891 -1.476563,7.2187503 -0.978515,2.258789 -2.296875,4.21875 -3.960937,5.8828125 -1.658203,1.6640625 -3.618164,2.98535151 -5.882813,3.96093745 C 28.996109,1.6776922 26.590836,2.16695 24.036148,2.16695 Z m 0,-51.140625 c -1.96289,0 -3.626953,0.685547 -4.992187,2.050781 -1.359375,1.368164 -2.039063,3.032227 -2.039063,4.992188 v 25.570312 c 0,1.954102 0.679688,3.615235 2.039063,4.980469 1.365234,1.368164 3.029297,2.0507813 4.992187,2.0507813 1.959961,0 3.621094,-0.6826173 4.980469,-2.0507813 1.365235,-1.365234 2.050781,-3.026367 2.050781,-4.980469 v -25.570312 c 0,-1.959961 -0.685546,-3.624024 -2.050781,-4.992188 -1.359375,-1.365234 -3.020508,-2.050781 -4.980469,-2.050781 z m 31.324219,76.710938 c -1.617187,0 -2.982422,-0.556641 -4.089844,-1.664063 -1.110351,-1.101562 -1.664062,-2.460937 -1.664062,-4.078125 v -76.207031 c 0,-1.617188 0.553711,-2.979492 1.664062,-4.089844 1.107422,-1.107422 2.472657,-1.664062 4.089844,-1.664062 h 12.785156 c 2.554688,0 4.959961,0.492187 7.21875,1.476562 2.264649,0.978516 4.22461,2.296875 5.882813,3.960938 1.664062,1.664062 2.982422,3.626953 3.960937,5.882812 0.984375,2.258789 1.476563,4.664063 1.476563,7.21875 v 24.550781 c 0,2.554688 -0.492188,4.962891 -1.476563,7.2187503 -0.978515,2.258789 -2.296875,4.21875 -3.960937,5.8828125 -1.658203,1.6640625 -3.618164,2.98535151 -5.882813,3.96093745 -2.258789,0.98437505 -4.664062,1.47656255 -7.21875,1.47656255 h -7.03125 V 21.995075 c 0,1.617188 -0.55664,2.976563 -1.664062,4.078125 -1.110352,1.107422 -2.472656,1.664063 -4.089844,1.664063 z M 75.176773,-41.4268 c 0,-1.959961 -0.685546,-3.621094 -2.050781,-4.980469 -1.359375,-1.365234 -3.020508,-2.050781 -4.980469,-2.050781 h -7.03125 v 38.6132813 h 7.03125 c 1.959961,0 3.621094,-0.6796873 4.980469,-2.0390623 1.365235,-1.365235 2.050781,-3.029297 2.050781,-4.992188 z M 103.68849,0.7607 C 100.10841,-0.68363594 97.295914,-2.942425 95.250992,-6.0127375 93.203141,-9.08305 92.18068,-12.531292 92.18068,-16.360394 v -25.570312 c 0,-2.560547 0.486328,-4.97168 1.464843,-7.230469 0.984375,-2.255859 2.308594,-4.21875 3.972657,-5.882812 1.664062,-1.664063 3.62402,-2.982422 5.88281,-3.960938 2.25586,-0.975586 4.66406,-1.464844 7.21875,-1.464844 2.55469,0 4.95996,0.489258 7.21875,1.464844 2.26465,0.978516 4.22461,2.296875 5.88281,3.960938 1.66407,1.664062 2.98243,3.626953 3.96094,5.882812 0.98438,2.258789 1.47656,4.669922 1.47656,7.230469 v 12.785156 c 0,1.617188 -0.55664,2.982422 -1.66406,4.089844 -1.11035,1.101562 -2.47265,1.652344 -4.08984,1.652344 h -19.81641 v 7.042968 c 0,1.447266 0.38086,2.748047 1.14844,3.902344 0.76465,1.148438 1.83105,2.021484 3.19922,2.6132813 1.36523,0.5097656 2.73047,0.6386718 4.08984,0.3867187 1.36524,-0.2578125 2.56055,-0.896484 3.58594,-1.921875 1.10156,-1.195312 2.44043,-1.792969 4.01953,-1.792969 1.57617,0 2.96484,0.597657 4.16016,1.792969 1.10742,1.195313 1.66406,2.5634766 1.66406,4.1015625 0,1.5322266 -0.55664,2.8916016 -1.66406,4.078125 -2.72754,2.64257813 -5.90332,4.3242188 -9.52735,5.0507813 C 110.73732,2.5771063 107.18068,2.213825 103.68849,0.7607 Z m 7.03125,-49.734375 c -1.96289,0 -3.62695,0.685547 -4.99219,2.050781 -1.35937,1.368164 -2.03906,3.032227 -2.03906,4.992188 v 7.03125 h 14.0625 v -7.03125 c 0,-1.959961 -0.68554,-3.624024 -2.05078,-4.992188 -1.35937,-1.365234 -3.02051,-2.050781 -4.98047,-2.050781 z M 141.02443,2.16695 c -1.61719,0 -2.98242,-0.5566406 -4.08984,-1.6640625 -1.11036,-1.1015625 -1.66407,-2.4609375 -1.66407,-4.078125 V -54.211956 c 0,-1.617188 0.55371,-2.979492 1.66407,-4.089844 1.10742,-1.107422 2.47265,-1.664062 4.08984,-1.664062 h 12.78516 c 2.55468,0 4.95996,0.492187 7.21875,1.476562 2.26464,0.978516 4.22461,2.296875 5.88281,3.960938 1.66406,1.664062 2.98242,3.626953 3.96094,5.882812 0.98437,2.258789 1.47656,4.664063 1.47656,7.21875 v 37.8515625 c 0,1.6171875 -0.58008,2.9765625 -1.73438,4.078125 -1.14843,1.1074219 -2.49023,1.6640625 -4.01953,1.6640625 -1.61719,0 -2.98242,-0.5566406 -4.08984,-1.6640625 -1.11035,-1.1015625 -1.66406,-2.4609375 -1.66406,-4.078125 V -41.4268 c 0,-1.959961 -0.68555,-3.621094 -2.05079,-4.980469 -1.35937,-1.365234 -3.0205,-2.050781 -4.98046,-2.050781 h -7.03125 v 44.8828125 c 0,1.6171875 -0.58008,2.9765625 -1.73438,4.078125 -1.14844,1.1074219 -2.49023,1.6640625 -4.01953,1.6640625 z M 208.91408,0.7607 c -3.58008,-1.44433594 -6.39258,-3.703125 -8.4375,-6.7734375 -2.04785,-3.0703125 -3.07031,-6.5185545 -3.07031,-10.3476565 v -25.570312 c 0,-2.560547 0.48632,-4.97168 1.46484,-7.230469 0.98437,-2.255859 2.30859,-4.21875 3.97266,-5.882812 1.66406,-1.664063 3.62402,-2.982422 5.88281,-3.960938 2.25586,-0.975586 4.66406,-1.464844 7.21875,-1.464844 2.55469,0 4.95996,0.489258 7.21875,1.464844 2.26465,0.978516 4.22461,2.296875 5.88281,3.960938 1.66406,1.664062 2.98242,3.626953 3.96094,5.882812 0.98437,2.258789 1.47656,4.669922 1.47656,7.230469 v 12.785156 c 0,1.617188 -0.55664,2.982422 -1.66406,4.089844 -1.11035,1.101562 -2.47266,1.652344 -4.08985,1.652344 h -19.8164 v 7.042968 c 0,1.447266 0.38086,2.748047 1.14844,3.902344 0.76464,1.148438 1.83105,2.021484 3.19921,2.6132813 1.36524,0.5097656 2.73047,0.6386718 4.08985,0.3867187 1.36523,-0.2578125 2.56054,-0.896484 3.58594,-1.921875 1.10156,-1.195312 2.44043,-1.792969 4.01953,-1.792969 1.57617,0 2.96484,0.597657 4.16015,1.792969 1.10742,1.195313 1.66407,2.5634766 1.66407,4.1015625 0,1.5322266 -0.55665,2.8916016 -1.66407,4.078125 -2.72754,2.64257813 -5.90332,4.3242188 -9.52734,5.0507813 C 215.96291,2.5771063 212.40627,2.213825 208.91408,0.7607 Z m 7.03125,-49.734375 c -1.96289,0 -3.62696,0.685547 -4.99219,2.050781 -1.35937,1.368164 -2.03906,3.032227 -2.03906,4.992188 v 7.03125 h 14.0625 v -7.03125 c 0,-1.959961 -0.68555,-3.624024 -2.05078,-4.992188 -1.35938,-1.365234 -3.02051,-2.050781 -4.98047,-2.050781 z m 30.30176,76.710938 c -1.61719,0 -2.98243,-0.556641 -4.08985,-1.664063 -1.11035,-1.101562 -1.66406,-2.460937 -1.66406,-4.078125 v -76.207031 c 0,-1.617188 0.55371,-2.979492 1.66406,-4.089844 1.10742,-1.107422 2.47266,-1.664062 4.08985,-1.664062 h 12.78515 c 2.55469,0 4.95996,0.492187 7.21875,1.476562 2.26465,0.978516 4.22461,2.296875 5.88281,3.960938 1.66407,1.664062 2.98243,3.626953 3.96094,5.882812 0.98438,2.258789 1.47656,4.664063 1.47656,7.21875 v 24.550781 c 0,2.554688 -0.49218,4.962891 -1.47656,7.2187503 -0.97851,2.258789 -2.29687,4.21875 -3.96094,5.8828125 -1.6582,1.6640625 -3.61816,2.98535151 -5.88281,3.96093745 -2.25879,0.98437505 -4.66406,1.47656255 -7.21875,1.47656255 h -7.03125 V 21.995075 c 0,1.617188 -0.55664,2.976563 -1.66406,4.078125 -1.11035,1.107422 -2.47266,1.664063 -4.08984,1.664063 z m 19.8164,-69.164063 c 0,-1.959961 -0.68554,-3.621094 -2.05078,-4.980469 -1.35937,-1.365234 -3.02051,-2.050781 -4.98047,-2.050781 h -7.03125 v 38.6132813 h 7.03125 c 1.95996,0 3.6211,-0.6796873 4.98047,-2.0390623 1.36524,-1.365235 2.05078,-3.029297 2.05078,-4.992188 z m 24.2959,43.59375 c -1.61719,0 -2.98242,-0.5566406 -4.08984,-1.6640625 -1.11035,-1.1015625 -1.66407,-2.4609375 -1.66407,-4.078125 V -80.286175 c 0,-1.623047 0.55372,-2.988281 1.66407,-4.089844 1.10742,-1.107422 2.47265,-1.664062 4.08984,-1.664062 1.61719,0 2.97949,0.55664 4.08984,1.664062 1.10743,1.101563 1.66407,2.466797 1.66407,4.089844 v 20.320313 h 7.03125 c 2.55468,0 4.95996,0.492187 7.21875,1.476562 2.26465,0.978516 4.22461,2.296875 5.88281,3.960938 1.66406,1.664062 2.98242,3.626953 3.96094,5.882812 0.98437,2.258789 1.47656,4.664063 1.47656,7.21875 v 37.8515625 c 0,1.6171875 -0.55664,2.9765625 -1.66406,4.078125 -1.11035,1.1074219 -2.47266,1.6640625 -4.08985,1.6640625 -1.61718,0 -2.98242,-0.5566406 -4.08984,-1.6640625 -1.11035,-1.1015625 -1.66406,-2.4609375 -1.66406,-4.078125 V -41.4268 c 0,-1.959961 -0.68555,-3.621094 -2.05078,-4.980469 -1.35938,-1.365234 -3.02051,-2.050781 -4.98047,-2.050781 h -7.03125 v 44.8828125 c 0,1.6171875 -0.55664,2.9765625 -1.66407,4.078125 -1.11035,1.1074219 -2.47265,1.6640625 -4.08984,1.6640625 z m 38.23242,25.570313 c -1.62597,0 -2.99414,-0.556641 -4.10156,-1.664063 -1.10156,-1.101562 -1.65234,-2.460937 -1.65234,-4.078125 0,-1.625977 0.55078,-2.994141 1.65234,-4.101562 1.10742,-1.101563 2.47559,-1.652344 4.10156,-1.652344 1.61719,0 3.04102,-0.46875 4.27735,-1.40625 1.23339,-0.9375 2.06543,-2.132813 2.49609,-3.585938 l 4.34766,-14.8242185 -14.83594,-49.4882815 c -0.42188,-1.529297 -0.25195,-3 0.51562,-4.40625 0.76465,-1.40625 1.91309,-2.323242 3.44532,-2.753906 1.45312,-0.421875 2.88281,-0.269531 4.28906,0.457031 1.40625,0.720703 2.36133,1.848633 2.87109,3.386719 l 9.71485,32.730469 9.85546,-32.730469 c 0.42188,-1.538086 1.35352,-2.666016 2.80079,-3.386719 1.45312,-0.726562 2.90039,-0.878906 4.34765,-0.457031 1.53809,0.430664 2.68946,1.347656 3.45703,2.753906 0.76465,1.40625 0.9375,2.876953 0.51563,4.40625 l -15.46875,51.1406253 -4.86328,16.4999997 c -1.19532,4.007813 -3.41016,7.160157 -6.64453,9.457032 -3.41602,2.466796 -7.12207,3.703125 -11.1211,3.703125 z m 59.7041,-38.730469 c 1.5293,-1.280274 2.20899,-2.944336 2.03907,-4.992188 -0.16407,-2.132812 -1.01661,-3.706054 -2.55469,-4.722656 l -12.01172,-8.320312 c -2.13281,-1.529297 -3.84082,-3.424805 -5.12109,-5.683594 -1.27442,-2.25586 -1.99805,-4.705078 -2.16797,-7.347656 -0.17285,-2.648438 0.22851,-5.182618 1.20703,-7.605469 0.98437,-2.428711 2.45508,-4.541016 4.41797,-6.339844 1.95996,-1.702148 4.1748,-2.935547 6.64453,-3.703125 2.47558,-0.764648 5.0332,-0.9375 7.67578,-0.515625 2.55469,0.430664 4.89844,1.371094 7.03125,2.824219 2.13281,1.447265 3.87891,3.316406 5.23828,5.613281 0.76465,1.368164 0.95508,2.821289 0.57422,4.359375 -0.38379,1.532227 -1.29785,2.680664 -2.74219,3.445313 -1.36816,0.767578 -2.82129,0.958007 -4.35937,0.574218 -1.53223,-0.380859 -2.68067,-1.256836 -3.44531,-2.625 -0.9375,-1.617187 -2.30274,-2.554687 -4.08985,-2.8125 -1.70508,-0.333984 -3.28125,0.134766 -4.73437,1.40625 -1.44727,1.195313 -2.08301,2.730469 -1.91016,4.605469 0.16406,1.790039 0.97266,3.240234 2.42578,4.347656 l 11.89453,8.308594 c 2.20899,1.625977 3.97559,3.591797 5.29688,5.894531 1.31836,2.296875 2.06543,4.810547 2.23828,7.535157 0.16992,2.727539 -0.23438,5.329101 -1.21875,7.804687 -0.97852,2.4697266 -2.49024,4.640625 -4.53516,6.515625 -1.96289,1.79003906 -4.21875,3.06445313 -6.77343,3.8320313 -2.55469,0.7646484 -5.19727,0.9375 -7.92188,0.515625 -2.72754,-0.4306641 -5.17969,-1.39160161 -7.35937,-2.88281255 -2.17383,-1.49121095 -3.9375,-3.42773435 -5.29688,-5.81249995 -0.77344,-1.3652344 -0.96973,-2.8154297 -0.58594,-4.3476558 0.38965,-1.538086 1.26563,-2.689454 2.625,-3.457032 1.45313,-0.764648 2.94434,-0.955078 4.47657,-0.574218 1.52929,0.383789 2.68359,1.259765 3.45703,2.625 0.9375,1.790039 2.42578,2.8124995 4.46484,3.070312 1.875,0.3369141 3.58008,-0.1757812 5.12109,-1.535156 z m 0,0"
       style="fill:#000000;fill-opacity:1;fill-rule:nonzero;stroke:none"
       aria-label="open ephys"
       transform="matrix(1.3333333,0,0,1.3333333,-121.77867,305.98573)"
       clip-path="url(#clipPath2)" />
  </g>
  <g
     id="g75"
     transform="matrix(1.0772646,0,0,1.0772646,-8.5279452,-4.0465009)">
    <g
       id="layer-MC5"
       transform="matrix(0.61812025,0,0,0.61812025,9.0126814,6.6733413)">
      <g
         id="g44"
         clip-path="url(#clipPath45)"
         style="fill:#ffffff;stroke:#ffffff">
        <path
           d="M 0,0 41,-101.333"
           style="fill:#ffffff;fill-opacity:1;fill-rule:nonzero;stroke:#ffffff;stroke-width:13;stroke-linecap:round;stroke-linejoin:miter;stroke-miterlimit:10;stroke-dasharray:none;stroke-opacity:1"
           transform="matrix(1.3333333,0,0,-1.3333333,160.83533,10.651733)"
           clip-path="url(#clipPath43)"
           id="path44" />
      </g>
      <g
         id="g47"
         clip-path="url(#clipPath48)"
         style="fill:#ffffff;stroke:#ffffff">
        <path
           d="M 0,0 -95,69.833"
           style="fill:#ffffff;fill-opacity:1;fill-rule:nonzero;stroke:#ffffff;stroke-width:13;stroke-linecap:round;stroke-linejoin:miter;stroke-miterlimit:10;stroke-dasharray:none;stroke-opacity:1"
           transform="matrix(1.3333333,0,0,-1.3333333,215.502,145.76307)"
           clip-path="url(#clipPath46)"
           id="path47" />
      </g>
      <g
         id="g50"
         clip-path="url(#clipPath51)"
         style="fill:#ffffff;stroke:#ffffff">
        <path
           d="M 0,0 82.083,-114"
           style="fill:#ffffff;fill-opacity:1;fill-rule:nonzero;stroke:#ffffff;stroke-width:13;stroke-linecap:round;stroke-linejoin:miter;stroke-miterlimit:10;stroke-dasharray:none;stroke-opacity:1"
           transform="matrix(1.3333333,0,0,-1.3333333,88.836,52.651733)"
           clip-path="url(#clipPath49)"
           id="path50" />
      </g>
      <g
         id="g56"
         clip-path="url(#clipPath57)"
         style="fill:#ffffff;stroke:#ffffff">
        <g
           opacity="0.992157"
           clip-path="url(#clipPath53)"
           id="g55"
           style="fill:#ffffff;stroke:#ffffff">
          <path
             d="M 0,0 -141.75,58.75"
             style="fill:#ffffff;fill-opacity:1;fill-rule:nonzero;stroke:#ffffff"
             transform="matrix(1.3333333,0,0,-1.3333333,198.28053,204.65107)"
             clip-path="url(#clipPath52)"
             id="path55" />
        </g>
        <path
           d="M 0,0 -141.75,58.75"
           style="fill:#ffffff;stroke:#ffffff;stroke-width:13;stroke-linecap:round;stroke-linejoin:miter;stroke-miterlimit:10;stroke-dasharray:none;stroke-opacity:1"
           transform="matrix(1.3333333,0,0,-1.3333333,198.28053,204.65107)"
           clip-path="url(#clipPath54)"
           id="path56" />
      </g>
      <g
         id="g59"
         clip-path="url(#clipPath60)"
         style="fill:#ffffff;stroke:#ffffff">
        <path
           d="M 0,0 59.667,55.25"
           style="fill:#ffffff;fill-opacity:1;fill-rule:nonzero;stroke:#ffffff;stroke-width:13;stroke-linecap:round;stroke-linejoin:miter;stroke-miterlimit:10;stroke-dasharray:none;stroke-opacity:1"
           transform="matrix(1.3333333,0,0,-1.3333333,9.28,126.31773)"
           clip-path="url(#clipPath58)"
           id="path59" />
      </g>
      <g
         id="g62"
         clip-path="url(#clipPath63)"
         style="fill:#ffffff;stroke:#ffffff">
        <path
           d="M 0,0 -28.084,145.5"
           style="fill:#ffffff;fill-opacity:1;fill-rule:nonzero;stroke:#ffffff;stroke-width:13;stroke-linecap:round;stroke-linejoin:miter;stroke-miterlimit:10;stroke-dasharray:none;stroke-opacity:1"
           transform="matrix(1.3333333,0,0,-1.3333333,198.28053,204.65107)"
           clip-path="url(#clipPath61)"
           id="path62" />
      </g>
      <g
         id="g65"
         clip-path="url(#clipPath66)"
         style="fill:#ffffff;stroke:#ffffff">
        <path
           d="M 0,0 -12.916,-44.166"
           style="fill:#ffffff;fill-opacity:1;fill-rule:nonzero;stroke:#ffffff;stroke-width:13;stroke-linecap:round;stroke-linejoin:miter;stroke-miterlimit:10;stroke-dasharray:none;stroke-opacity:1"
           transform="matrix(1.3333333,0,0,-1.3333333,215.502,145.76307)"
           clip-path="url(#clipPath64)"
           id="path65" />
      </g>
      <g
         id="g71"
         clip-path="url(#clipPath72)"
         style="fill:#ffffff;stroke:#ffffff">
        <g
           opacity="0.992157"
           clip-path="url(#clipPath68)"
           id="g70"
           style="fill:#ffffff;stroke:#ffffff">
          <path
             d="M 0,0 -154.667,14.584"
             style="fill:#ffffff;fill-opacity:1;fill-rule:nonzero;stroke:#ffffff"
             transform="matrix(1.3333333,0,0,-1.3333333,215.502,145.76307)"
             clip-path="url(#clipPath67)"
             id="path70" />
        </g>
        <path
           d="M 0,0 -154.667,14.584"
           style="fill:#ffffff;stroke:#ffffff;stroke-width:13;stroke-linecap:round;stroke-linejoin:miter;stroke-miterlimit:10;stroke-dasharray:none;stroke-opacity:1"
           transform="matrix(1.3333333,0,0,-1.3333333,215.502,145.76307)"
           clip-path="url(#clipPath69)"
           id="path71" />
      </g>
    </g>
    <path
       style="fill:none;fill-opacity:0.5;stroke:#ffffff;stroke-width:8.65;stroke-linecap:round;stroke-dasharray:none"
       d="m 26.282577,159.07009 c 60.74825,-10.32724 85.599093,-8.28023 122.931783,12.98181"
       id="path73"
       sodipodi:nodetypes="cc" />
    <path
       style="fill:none;fill-opacity:0.5;stroke:#ffffff;stroke-width:11.1393;stroke-linecap:round;stroke-dasharray:none"
       d="m 19.35909,175.8273 130.16788,0.2648"
       id="path74"
       sodipodi:nodetypes="cc" />
    <g
       id="g76"
       transform="translate(0,-0.34474)">
      <path
         style="fill:none;fill-opacity:0.5;stroke:#ffffff;stroke-width:8.65;stroke-linecap:round;stroke-dasharray:none"
         d="M 193.95049,73.424664 C 156.24629,113.02259 144.22391,157.28755 148.8553,169.93129"
         id="path73-8"
         sodipodi:nodetypes="cc" />
      <path
         style="fill:none;fill-opacity:0.5;stroke:#ffffff;stroke-width:11.1393;stroke-linecap:round;stroke-dasharray:none"
         d="M 209.70693,74.708428 150.10575,176.43684"
         id="path75"
         sodipodi:nodetypes="cc" />
    </g>
  </g>
</svg>
