<?xml version="1.0" encoding="UTF-8" standalone="no"?>
<svg
   viewBox="0 0 225.57973 76.549364"
   version="1.1"
   id="svg19"
   sodipodi:docname="oe_logo_name.svg"
   inkscape:version="1.4 (86a8ad7, 2024-10-11)"
   inkscape:export-filename="oe_logo_name.svg"
   inkscape:export-xdpi="96"
   inkscape:export-ydpi="96"
   width="225.57973"
   height="76.549362"
   xmlns:inkscape="http://www.inkscape.org/namespaces/inkscape"
   xmlns:sodipodi="http://sodipodi.sourceforge.net/DTD/sodipodi-0.dtd"
   xmlns="http://www.w3.org/2000/svg"
   xmlns:svg="http://www.w3.org/2000/svg">
  <sodipodi:namedview
     id="namedview19"
     pagecolor="#ffffff"
     bordercolor="#000000"
     borderopacity="0.25"
     inkscape:showpageshadow="2"
     inkscape:pageopacity="0.0"
     inkscape:pagecheckerboard="0"
     inkscape:deskcolor="#d1d1d1"
     inkscape:zoom="2.2253773"
     inkscape:cx="50.777906"
     inkscape:cy="99.084322"
     inkscape:window-width="1920"
     inkscape:window-height="1057"
     inkscape:window-x="-8"
     inkscape:window-y="-8"
     inkscape:window-maximized="1"
     inkscape:current-layer="g19"
     inkscape:export-bgcolor="#ffffff00" />
  <defs
     id="defs1">
    <style
       id="style1">
      .cls-1 {
        stroke: #ea6a3f;
      }

      .cls-1, .cls-2, .cls-3, .cls-4, .cls-5 {
        fill: none;
        mix-blend-mode: multiply;
        stroke-linecap: round;
        stroke-miterlimit: 10;
        stroke-width: 3.59px;
      }

      .cls-2 {
        stroke: #2fb6df;
      }

      .cls-6 {
        isolation: isolate;
      }

      .cls-3 {
        stroke: #fbd026;
      }

      .cls-4 {
        stroke: #d6aacd;
      }

      .cls-7 {
        fill: #fff;
        stroke-width: 0px;
      }

      .cls-5 {
        stroke: #b5b5b6;
      }
    </style>
  </defs>
  <g
     class="cls-6"
     id="g19"
     transform="translate(-77.290264)">
    <g
       id="Miniscope">
      <g
         id="g12">
        <path
           class="cls-7"
           d="m 92.4,51.66 c -0.18,0 -0.27,-0.13 -0.27,-0.41 l 0.36,-28.66 c 0,-0.27 0.12,-0.41 0.36,-0.41 h 3.51 c 0.24,0 0.38,0.11 0.41,0.31 l 4.27,17.59 4.32,-17.59 c 0.03,-0.21 0.17,-0.31 0.41,-0.31 h 3.51 c 0.21,0 0.32,0.14 0.32,0.41 l 0.4,28.66 c 0,0.27 -0.11,0.41 -0.31,0.41 h -2.25 c -0.24,0 -0.36,-0.13 -0.36,-0.41 l -0.18,-18.9 v -2.88 c 0,-1.05 0.01,-2.05 0.04,-3.02 h -0.04 c -0.18,0.93 -0.39,1.86 -0.63,2.79 -0.24,0.93 -0.48,1.85 -0.72,2.75 l -4,15.21 c -0.03,0.21 -0.17,0.32 -0.4,0.32 h -0.18 c -0.21,0 -0.33,-0.11 -0.36,-0.32 l -4.1,-15.25 c -0.24,-0.9 -0.46,-1.81 -0.67,-2.72 -0.21,-0.91 -0.41,-1.84 -0.58,-2.77 h -0.09 c 0.06,0.96 0.09,1.96 0.09,2.99 v 2.86 l -0.22,18.94 c 0,0.27 -0.11,0.41 -0.32,0.41 h -2.29 z"
           id="path1" />
        <path
           class="cls-7"
           d="m 115.53,25.78 c -0.66,0 -1.16,-0.16 -1.48,-0.5 -0.33,-0.33 -0.5,-0.81 -0.5,-1.44 v -0.4 c 0,-0.63 0.16,-1.12 0.5,-1.46 0.33,-0.34 0.82,-0.52 1.48,-0.52 0.66,0 1.15,0.17 1.46,0.52 0.31,0.35 0.47,0.83 0.47,1.46 v 0.4 c 0,0.63 -0.16,1.11 -0.47,1.44 -0.32,0.33 -0.8,0.5 -1.46,0.5 z m -1.17,25.88 c -0.21,0 -0.31,-0.13 -0.31,-0.41 V 30.19 c 0,-0.27 0.1,-0.41 0.31,-0.41 h 2.29 c 0.21,0 0.32,0.14 0.32,0.41 v 21.06 c 0,0.27 -0.11,0.41 -0.32,0.41 z"
           id="path2" />
        <path
           class="cls-7"
           d="m 121.43,51.66 c -0.21,0 -0.31,-0.13 -0.31,-0.41 V 35.19 c 0,-1.26 0,-2.29 -0.02,-3.08 -0.02,-0.79 -0.05,-1.4 -0.11,-1.82 -0.03,-0.33 0.06,-0.5 0.27,-0.5 h 1.93 c 0.24,0 0.38,0.14 0.41,0.41 0.09,0.57 0.16,1.29 0.2,2.16 0.05,0.87 0.07,1.53 0.07,1.98 l 0.18,0.27 v 16.65 c 0,0.27 -0.11,0.41 -0.32,0.41 h -2.29 z m 8.55,0 c -0.21,0 -0.31,-0.13 -0.31,-0.41 V 35.19 c 0,-0.99 -0.15,-1.72 -0.45,-2.18 -0.3,-0.46 -0.78,-0.7 -1.44,-0.7 -0.6,0 -1.24,0.25 -1.91,0.74 -0.67,0.49 -1.39,1.22 -2.14,2.18 l -0.22,-2.43 c 0.87,-1.08 1.73,-1.9 2.59,-2.45 0.85,-0.55 1.78,-0.83 2.77,-0.83 1.23,0 2.16,0.45 2.79,1.35 0.63,0.9 0.95,2.28 0.95,4.14 v 16.24 c 0,0.27 -0.11,0.41 -0.31,0.41 H 130 Z"
           id="path3" />
        <path
           class="cls-7"
           d="m 138.21,25.78 c -0.66,0 -1.16,-0.16 -1.48,-0.5 -0.33,-0.33 -0.5,-0.81 -0.5,-1.44 v -0.4 c 0,-0.63 0.16,-1.12 0.5,-1.46 0.33,-0.34 0.82,-0.52 1.48,-0.52 0.66,0 1.15,0.17 1.46,0.52 0.31,0.35 0.47,0.83 0.47,1.46 v 0.4 c 0,0.63 -0.16,1.11 -0.47,1.44 -0.32,0.33 -0.8,0.5 -1.46,0.5 z m -1.17,25.88 c -0.21,0 -0.31,-0.13 -0.31,-0.41 V 30.19 c 0,-0.27 0.1,-0.41 0.31,-0.41 h 2.29 c 0.21,0 0.32,0.14 0.32,0.41 v 21.06 c 0,0.27 -0.11,0.41 -0.32,0.41 z"
           id="path4" />
        <path
           class="cls-7"
           d="m 148.34,51.93 c -1.83,0 -3.17,-0.57 -4,-1.71 -0.84,-1.14 -1.19,-2.8 -1.04,-4.99 0,-0.24 0.1,-0.36 0.31,-0.36 h 2.29 c 0.18,0 0.27,0.11 0.27,0.31 -0.03,1.44 0.11,2.46 0.43,3.06 0.31,0.6 0.92,0.9 1.82,0.9 1.53,0 2.29,-0.99 2.29,-2.97 0,-0.78 -0.13,-1.43 -0.38,-1.96 -0.25,-0.52 -0.68,-1.03 -1.28,-1.51 l -2.97,-2.34 c -0.93,-0.72 -1.61,-1.54 -2.03,-2.45 -0.42,-0.91 -0.63,-2.02 -0.63,-3.31 0,-1.62 0.43,-2.87 1.28,-3.76 0.86,-0.88 2.09,-1.33 3.71,-1.33 1.62,0 2.95,0.51 3.8,1.53 0.85,1.02 1.19,2.42 1.01,4.19 0,0.24 -0.11,0.36 -0.31,0.36 h -2.25 c -0.06,0 -0.13,-0.01 -0.2,-0.04 -0.08,-0.03 -0.1,-0.16 -0.07,-0.41 0.06,-0.9 -0.08,-1.6 -0.4,-2.11 -0.33,-0.51 -0.89,-0.77 -1.67,-0.77 -1.38,0 -2.07,0.78 -2.07,2.34 0,0.75 0.14,1.38 0.43,1.89 0.28,0.51 0.71,1.02 1.28,1.53 l 2.92,2.34 c 1.02,0.84 1.72,1.67 2.09,2.47 0.38,0.81 0.56,1.88 0.56,3.2 0,1.92 -0.44,3.38 -1.33,4.39 -0.89,1 -2.18,1.51 -3.89,1.51 z"
           id="path5" />
        <path
           class="cls-7"
           d="m 221.50378,51.94 c -1.83,0 -3.17,-0.57 -4,-1.71 -0.84,-1.14 -1.19,-2.8 -1.04,-4.99 0,-0.24 0.1,-0.36 0.31,-0.36 h 2.29 c 0.18,0 0.27,0.11 0.27,0.31 -0.03,1.44 0.11,2.46 0.43,3.06 0.31,0.6 0.92,0.9 1.82,0.9 1.53,0 2.29,-0.99 2.29,-2.97 0,-0.78 -0.13,-1.43 -0.38,-1.96 -0.25,-0.52 -0.68,-1.03 -1.28,-1.51 l -2.97,-2.34 c -0.93,-0.72 -1.61,-1.54 -2.03,-2.45 -0.42,-0.91 -0.63,-2.02 -0.63,-3.31 0,-1.62 0.43,-2.87 1.28,-3.76 0.86,-0.88 2.09,-1.33 3.71,-1.33 1.62,0 2.95,0.51 3.8,1.53 0.85,1.02 1.19,2.42 1.01,4.19 0,0.24 -0.11,0.36 -0.31,0.36 h -2.25 c -0.06,0 -0.13,-0.01 -0.2,-0.04 -0.08,-0.03 -0.1,-0.16 -0.07,-0.41 0.06,-0.9 -0.08,-1.6 -0.4,-2.11 -0.33,-0.51 -0.89,-0.77 -1.67,-0.77 -1.38,0 -2.07,0.78 -2.07,2.34 0,0.75 0.14,1.38 0.43,1.89 0.28,0.51 0.71,1.02 1.28,1.53 l 2.92,2.34 c 1.02,0.84 1.72,1.67 2.09,2.47 0.38,0.81 0.56,1.88 0.56,3.2 0,1.92 -0.44,3.38 -1.33,4.39 -0.89,1 -2.18,1.51 -3.89,1.51 z"
           id="path5-8"
           style="fill:#ffffff;stroke-width:0px" />
        <path
           class="cls-7"
           d="m 162.51,51.93 c -2.01,0 -3.5,-0.61 -4.46,-1.82 -0.96,-1.21 -1.44,-3.08 -1.44,-5.6 v -7.6 c 0,-2.49 0.48,-4.34 1.44,-5.56 0.96,-1.22 2.44,-1.82 4.46,-1.82 1.23,0 2.26,0.26 3.1,0.77 0.84,0.51 1.46,1.25 1.84,2.21 0.39,0.96 0.54,2.11 0.45,3.46 0,0.36 -0.12,0.54 -0.36,0.54 h -2.11 c -0.12,0 -0.2,-0.04 -0.25,-0.11 -0.04,-0.07 -0.05,-0.17 -0.02,-0.29 0.06,-1.17 -0.13,-2.09 -0.58,-2.77 -0.45,-0.68 -1.14,-1.01 -2.07,-1.01 -1.05,0 -1.81,0.35 -2.27,1.06 -0.46,0.71 -0.7,1.91 -0.7,3.62 v 7.47 c 0,1.65 0.23,2.83 0.7,3.56 0.46,0.72 1.22,1.08 2.27,1.08 0.93,0 1.6,-0.3 2.02,-0.9 0.42,-0.6 0.6,-1.53 0.54,-2.79 0,-0.33 0.12,-0.5 0.36,-0.5 h 2.11 c 0.24,0 0.36,0.13 0.36,0.41 0,2.19 -0.44,3.84 -1.33,4.95 -0.89,1.11 -2.24,1.66 -4.07,1.66 z"
           id="path6" />
        <path
           class="cls-7"
           d="m 177.05,51.93 c -2.01,0 -3.5,-0.59 -4.46,-1.78 -0.96,-1.18 -1.44,-3.01 -1.44,-5.47 V 36.8 c 0,-2.49 0.48,-4.33 1.44,-5.51 0.96,-1.19 2.44,-1.78 4.46,-1.78 2.02,0 3.49,0.59 4.45,1.78 0.96,1.19 1.44,3.02 1.44,5.51 v 7.88 c 0,2.46 -0.48,4.28 -1.44,5.47 -0.96,1.19 -2.45,1.78 -4.45,1.78 z m 0,-2.84 c 1.05,0 1.81,-0.34 2.27,-1.03 0.46,-0.69 0.7,-1.83 0.7,-3.42 V 36.9 c 0,-1.62 -0.23,-2.79 -0.7,-3.51 -0.47,-0.72 -1.22,-1.08 -2.27,-1.08 -1.05,0 -1.81,0.36 -2.27,1.08 -0.46,0.72 -0.7,1.89 -0.7,3.51 v 7.74 c 0,1.59 0.24,2.73 0.72,3.42 0.48,0.69 1.23,1.03 2.25,1.03 z"
           id="path7" />
        <path
           class="cls-7"
           d="m 187.04,59.98 c -0.21,0 -0.31,-0.13 -0.31,-0.41 V 34.82 c 0,-1.08 0,-1.99 -0.02,-2.72 -0.02,-0.73 -0.05,-1.36 -0.11,-1.87 -0.03,-0.3 0.06,-0.45 0.27,-0.45 h 1.93 c 0.24,0 0.38,0.14 0.41,0.41 0.06,0.3 0.1,0.73 0.13,1.28 0.03,0.56 0.06,1.12 0.09,1.69 l 0.23,1.08 v 25.33 c 0,0.27 -0.11,0.41 -0.32,0.41 h -2.29 z m 6.43,-8.05 c -0.75,0 -1.5,-0.12 -2.25,-0.36 -0.75,-0.24 -1.41,-0.52 -1.98,-0.86 l -0.04,-2.75 c 0.51,0.27 1.06,0.53 1.64,0.77 0.58,0.24 1.21,0.36 1.87,0.36 0.78,0 1.37,-0.35 1.75,-1.06 0.38,-0.71 0.58,-1.85 0.58,-3.44 v -9.4 c 0,-1.05 -0.14,-1.79 -0.43,-2.23 -0.29,-0.43 -0.73,-0.65 -1.33,-0.65 -0.72,0 -1.43,0.3 -2.14,0.9 -0.71,0.6 -1.4,1.38 -2.09,2.34 l -0.23,-2.61 c 0.84,-1.08 1.69,-1.92 2.54,-2.52 0.85,-0.6 1.79,-0.9 2.81,-0.9 1.26,0 2.21,0.43 2.83,1.28 0.62,0.85 0.95,2.23 0.95,4.12 v 9.77 c 0,2.43 -0.38,4.25 -1.15,5.44 -0.77,1.2 -1.88,1.8 -3.35,1.8 z"
           id="path8" />
        <path
           class="cls-7"
           d="m 207.38,51.93 c -2.01,0 -3.5,-0.63 -4.46,-1.89 -0.96,-1.26 -1.44,-3.21 -1.44,-5.85 v -7.51 c 0,-2.49 0.48,-4.3 1.44,-5.45 0.96,-1.14 2.38,-1.71 4.27,-1.71 1.89,0 3.28,0.59 4.25,1.78 0.97,1.19 1.46,2.95 1.46,5.29 v 4.45 c 0,0.24 -0.11,0.36 -0.31,0.36 h -8.19 v 2.75 c 0,1.74 0.23,3 0.7,3.78 0.46,0.78 1.22,1.17 2.27,1.17 0.9,0 1.56,-0.25 1.98,-0.74 0.42,-0.5 0.6,-1.24 0.54,-2.23 -0.06,-0.3 0.03,-0.45 0.27,-0.45 h 2.16 c 0.21,0 0.32,0.12 0.32,0.36 0.06,1.89 -0.37,3.35 -1.28,4.37 -0.92,1.02 -2.24,1.53 -3.98,1.53 z m -2.97,-13.28 h 5.58 v -2.02 c 0,-1.53 -0.22,-2.63 -0.65,-3.31 -0.44,-0.68 -1.15,-1.01 -2.14,-1.01 -0.99,0 -1.67,0.35 -2.12,1.04 -0.45,0.69 -0.67,1.79 -0.67,3.29 v 2.02 z"
           id="path9" />
      </g>
    </g>
  </g>
</svg>
