<?xml version="1.0" encoding="UTF-8"?>
<svg xmlns="http://www.w3.org/2000/svg" viewBox="0 0 302.87 76.1">
  <defs>
    <style>
      .cls-1 {
        stroke: #ea6a3f;
      }

      .cls-1, .cls-2, .cls-3, .cls-4, .cls-5 {
        fill: none;
        mix-blend-mode: multiply;
        stroke-linecap: round;
        stroke-miterlimit: 10;
        stroke-width: 3.59px;
      }

      .cls-2 {
        stroke: #2fb6df;
      }

      .cls-6 {
        isolation: isolate;
      }

      .cls-3 {
        stroke: #fbd026;
      }

      .cls-4 {
        stroke: #d6aacd;
      }

      .cls-7 {
        fill: #fff;
        stroke-width: 0px;
      }

      .cls-5 {
        stroke: #b5b5b6;
      }
    </style>
  </defs>
  <g class="cls-6">
    <g id="Miniscope">
      <g>
        <path class="cls-7" d="M92.4,51.66c-.18,0-.27-.13-.27-.41l.36-28.66c0-.27.12-.41.36-.41h3.51c.24,0,.38.11.41.31l4.27,17.59,4.32-17.59c.03-.21.17-.31.41-.31h3.51c.21,0,.32.14.32.41l.4,28.66c0,.27-.11.41-.31.41h-2.25c-.24,0-.36-.13-.36-.41l-.18-18.9v-2.88c0-1.05.01-2.05.04-3.02h-.04c-.18.93-.39,1.86-.63,2.79-.24.93-.48,1.85-.72,2.75l-4,15.21c-.03.21-.17.32-.4.32h-.18c-.21,0-.33-.11-.36-.32l-4.1-15.25c-.24-.9-.46-1.81-.67-2.72-.21-.91-.41-1.84-.58-2.77h-.09c.06.96.09,1.96.09,2.99v2.86l-.22,18.94c0,.27-.11.41-.32.41h-2.29Z"/>
        <path class="cls-7" d="M115.53,25.78c-.66,0-1.16-.16-1.48-.5-.33-.33-.5-.81-.5-1.44v-.4c0-.63.16-1.12.5-1.46.33-.34.82-.52,1.48-.52s1.15.17,1.46.52c.31.35.47.83.47,1.46v.4c0,.63-.16,1.11-.47,1.44-.32.33-.8.5-1.46.5ZM114.36,51.66c-.21,0-.31-.13-.31-.41v-21.06c0-.27.1-.41.31-.41h2.29c.21,0,.32.14.32.41v21.06c0,.27-.11.41-.32.41h-2.29Z"/>
        <path class="cls-7" d="M121.43,51.66c-.21,0-.31-.13-.31-.41v-16.06c0-1.26,0-2.29-.02-3.08-.02-.79-.05-1.4-.11-1.82-.03-.33.06-.5.27-.5h1.93c.24,0,.38.14.41.41.09.57.16,1.29.2,2.16.05.87.07,1.53.07,1.98l.18.27v16.65c0,.27-.11.41-.32.41h-2.29ZM129.98,51.66c-.21,0-.31-.13-.31-.41v-16.06c0-.99-.15-1.72-.45-2.18-.3-.46-.78-.7-1.44-.7-.6,0-1.24.25-1.91.74s-1.39,1.22-2.14,2.18l-.22-2.43c.87-1.08,1.73-1.9,2.59-2.45.85-.55,1.78-.83,2.77-.83,1.23,0,2.16.45,2.79,1.35.63.9.95,2.28.95,4.14v16.24c0,.27-.11.41-.31.41h-2.3Z"/>
        <path class="cls-7" d="M138.21,25.78c-.66,0-1.16-.16-1.48-.5-.33-.33-.5-.81-.5-1.44v-.4c0-.63.16-1.12.5-1.46.33-.34.82-.52,1.48-.52s1.15.17,1.46.52c.31.35.47.83.47,1.46v.4c0,.63-.16,1.11-.47,1.44-.32.33-.8.5-1.46.5ZM137.04,51.66c-.21,0-.31-.13-.31-.41v-21.06c0-.27.1-.41.31-.41h2.29c.21,0,.32.14.32.41v21.06c0,.27-.11.41-.32.41h-2.29Z"/>
        <path class="cls-7" d="M148.34,51.93c-1.83,0-3.17-.57-4-1.71-.84-1.14-1.19-2.8-1.04-4.99,0-.24.1-.36.31-.36h2.29c.18,0,.27.11.27.31-.03,1.44.11,2.46.43,3.06.31.6.92.9,1.82.9,1.53,0,2.29-.99,2.29-2.97,0-.78-.13-1.43-.38-1.96-.25-.52-.68-1.03-1.28-1.51l-2.97-2.34c-.93-.72-1.61-1.54-2.03-2.45s-.63-2.02-.63-3.31c0-1.62.43-2.87,1.28-3.76.86-.88,2.09-1.33,3.71-1.33s2.95.51,3.8,1.53c.85,1.02,1.19,2.42,1.01,4.19,0,.24-.11.36-.31.36h-2.25c-.06,0-.13-.01-.2-.04-.08-.03-.1-.16-.07-.41.06-.9-.08-1.6-.4-2.11-.33-.51-.89-.77-1.67-.77-1.38,0-2.07.78-2.07,2.34,0,.75.14,1.38.43,1.89.28.51.71,1.02,1.28,1.53l2.92,2.34c1.02.84,1.72,1.67,2.09,2.47.38.81.56,1.88.56,3.2,0,1.92-.44,3.38-1.33,4.39-.89,1-2.18,1.51-3.89,1.51Z"/>
        <path class="cls-7" d="M162.51,51.93c-2.01,0-3.5-.61-4.46-1.82-.96-1.21-1.44-3.08-1.44-5.6v-7.6c0-2.49.48-4.34,1.44-5.56.96-1.22,2.44-1.82,4.46-1.82,1.23,0,2.26.26,3.1.77.84.51,1.46,1.25,1.84,2.21.39.96.54,2.11.45,3.46,0,.36-.12.54-.36.54h-2.11c-.12,0-.2-.04-.25-.11-.04-.07-.05-.17-.02-.29.06-1.17-.13-2.09-.58-2.77-.45-.68-1.14-1.01-2.07-1.01-1.05,0-1.81.35-2.27,1.06-.46.71-.7,1.91-.7,3.62v7.47c0,1.65.23,2.83.7,3.56.46.72,1.22,1.08,2.27,1.08.93,0,1.6-.3,2.02-.9.42-.6.6-1.53.54-2.79,0-.33.12-.5.36-.5h2.11c.24,0,.36.13.36.41,0,2.19-.44,3.84-1.33,4.95-.89,1.11-2.24,1.66-4.07,1.66Z"/>
        <path class="cls-7" d="M177.05,51.93c-2.01,0-3.5-.59-4.46-1.78-.96-1.18-1.44-3.01-1.44-5.47v-7.88c0-2.49.48-4.33,1.44-5.51.96-1.19,2.44-1.78,4.46-1.78s3.49.59,4.45,1.78,1.44,3.02,1.44,5.51v7.88c0,2.46-.48,4.28-1.44,5.47-.96,1.19-2.45,1.78-4.45,1.78ZM177.05,49.09c1.05,0,1.81-.34,2.27-1.03.46-.69.7-1.83.7-3.42v-7.74c0-1.62-.23-2.79-.7-3.51-.47-.72-1.22-1.08-2.27-1.08s-1.81.36-2.27,1.08-.7,1.89-.7,3.51v7.74c0,1.59.24,2.73.72,3.42.48.69,1.23,1.03,2.25,1.03Z"/>
        <path class="cls-7" d="M187.04,59.98c-.21,0-.31-.13-.31-.41v-24.75c0-1.08,0-1.99-.02-2.72-.02-.73-.05-1.36-.11-1.87-.03-.3.06-.45.27-.45h1.93c.24,0,.38.14.41.41.06.3.1.73.13,1.28.03.56.06,1.12.09,1.69l.23,1.08v25.33c0,.27-.11.41-.32.41h-2.29ZM193.47,51.93c-.75,0-1.5-.12-2.25-.36-.75-.24-1.41-.52-1.98-.86l-.04-2.75c.51.27,1.06.53,1.64.77s1.21.36,1.87.36c.78,0,1.37-.35,1.75-1.06s.58-1.85.58-3.44v-9.4c0-1.05-.14-1.79-.43-2.23-.29-.43-.73-.65-1.33-.65-.72,0-1.43.3-2.14.9-.71.6-1.4,1.38-2.09,2.34l-.23-2.61c.84-1.08,1.69-1.92,2.54-2.52.85-.6,1.79-.9,2.81-.9,1.26,0,2.21.43,2.83,1.28s.95,2.23.95,4.12v9.77c0,2.43-.38,4.25-1.15,5.44-.77,1.2-1.88,1.8-3.35,1.8Z"/>
        <path class="cls-7" d="M207.38,51.93c-2.01,0-3.5-.63-4.46-1.89-.96-1.26-1.44-3.21-1.44-5.85v-7.51c0-2.49.48-4.3,1.44-5.45.96-1.14,2.38-1.71,4.27-1.71s3.28.59,4.25,1.78c.97,1.19,1.46,2.95,1.46,5.29v4.45c0,.24-.11.36-.31.36h-8.19v2.75c0,1.74.23,3,.7,3.78.46.78,1.22,1.17,2.27,1.17.9,0,1.56-.25,1.98-.74.42-.5.6-1.24.54-2.23-.06-.3.03-.45.27-.45h2.16c.21,0,.32.12.32.36.06,1.89-.37,3.35-1.28,4.37-.92,1.02-2.24,1.53-3.98,1.53ZM204.41,38.65h5.58v-2.02c0-1.53-.22-2.63-.65-3.31-.44-.68-1.15-1.01-2.14-1.01s-1.67.35-2.12,1.04c-.45.69-.67,1.79-.67,3.29v2.02Z"/>
        <path class="cls-7" d="M222.86,51.66c-.27,0-.41-.13-.41-.41v-28.66c0-.27.12-.41.36-.41h4.41c3.09,0,5.38.97,6.86,2.9,1.48,1.93,2.23,4.91,2.23,8.93v4.46c0,4.47-.72,7.78-2.16,9.94s-3.67,3.24-6.71,3.24h-4.59ZM225.38,48.82h1.85c2.22,0,3.8-.8,4.75-2.41s1.42-4.18,1.42-7.72v-4.77c0-3.09-.5-5.35-1.49-6.77-.99-1.42-2.6-2.14-4.82-2.14h-1.71v23.8Z"/>
        <path class="cls-7" d="M237.79,51.66c-.21,0-.3-.15-.27-.45l5.85-28.71c.03-.21.17-.31.41-.31h3.15c.24,0,.37.11.4.31l5.9,28.71c.03.3-.06.45-.27.45h-2.47c-.18,0-.3-.09-.36-.27l-3.64-19.48c-.21-1.05-.41-2.09-.61-3.13-.2-1.04-.37-2.08-.52-3.13h-.09c-.15,1.05-.31,2.09-.47,3.13-.17,1.03-.35,2.09-.56,3.17l-3.65,19.44c-.03.18-.13.27-.31.27h-2.48ZM241.4,44.41l.54-2.83h6.75l.63,2.83h-7.92Z"/>
        <path class="cls-7" d="M261.92,51.93c-2.25,0-3.98-.69-5.2-2.07s-1.82-3.46-1.82-6.25v-13.27c0-2.85.61-4.96,1.82-6.34s2.95-2.07,5.2-2.07,3.99.69,5.22,2.07c1.23,1.38,1.84,3.5,1.84,6.34v13.27c0,2.79-.62,4.88-1.84,6.25-1.23,1.38-2.97,2.07-5.22,2.07ZM261.92,49.09c1.35,0,2.38-.46,3.08-1.37s1.06-2.36,1.06-4.34v-12.87c0-2.01-.35-3.47-1.06-4.39-.71-.91-1.73-1.37-3.08-1.37s-2.33.46-3.04,1.37c-.71.92-1.06,2.38-1.06,4.39v12.87c0,1.98.35,3.43,1.06,4.34.7.92,1.72,1.37,3.04,1.37ZM265.29,59.76c-.84,0-1.58-.27-2.21-.81s-1.11-1.47-1.44-2.79c-.33-1.32-.48-3.13-.45-5.45,0-.12.05-.21.16-.27.1-.06.19-.09.25-.09l2.29-.14c.15,0,.23.14.23.41-.03,1.68.02,2.98.16,3.89s.34,1.54.61,1.89c.27.34.58.52.95.52.18,0,.34-.02.5-.07.15-.04.3-.08.45-.11.18-.06.27.04.27.32v1.93c0,.27-.11.43-.32.5-.15.06-.34.12-.58.18-.24.06-.52.09-.85.09Z"/>
      </g>
    </g>
    <g id="Circle">
      <circle class="cls-7" cx="38" cy="38" r="33.8"/>
    </g>
    <g id="Logo">
      <line class="cls-2" x1="48.8" y1="10" x2="57.1" y2="59.7"/>
      <line class="cls-2" x1="28.2" y1="21" x2="57.1" y2="59.7"/>
      <line class="cls-4" x1="9.1" y1="40.5" x2="28.2" y2="21"/>
      <line class="cls-5" x1="9.1" y1="40.5" x2="57.1" y2="59.7"/>
      <line class="cls-2" x1="57.1" y1="59.7" x2="62.4" y2="44.9"/>
      <line class="cls-1" x1="28.2" y1="21" x2="62.4" y2="44.9"/>
      <line class="cls-5" x1="9.1" y1="40.5" x2="62.4" y2="44.9"/>
      <line class="cls-3" x1="48.8" y1="10" x2="62.4" y2="44.9"/>
    </g>
  </g>
</svg>