<?xml version="1.0" encoding="UTF-8" standalone="no"?>
<!-- Generator: Adobe Illustrator 24.1.2, SVG Export Plug-In . SVG Version: 6.00 Build 0)  -->

<svg
   xmlns:dc="http://purl.org/dc/elements/1.1/"
   xmlns:cc="http://creativecommons.org/ns#"
   xmlns:rdf="http://www.w3.org/1999/02/22-rdf-syntax-ns#"
   xmlns:svg="http://www.w3.org/2000/svg"
   xmlns="http://www.w3.org/2000/svg"
   xmlns:sodipodi="http://sodipodi.sourceforge.net/DTD/sodipodi-0.dtd"
   xmlns:inkscape="http://www.inkscape.org/namespaces/inkscape"
   version="1.1"
   x="0px"
   y="0px"
   viewBox="0 0 97.684288 94.305923"
   xml:space="preserve"
   id="svg974"
   sodipodi:docname="running.svg"
   width="97.684288"
   height="94.305923"
   inkscape:version="0.92.3 (2405546, 2018-03-11)"><metadata
   id="metadata980"><rdf:RDF><cc:Work
       rdf:about=""><dc:format>image/svg+xml</dc:format><dc:type
         rdf:resource="http://purl.org/dc/dcmitype/StillImage" /><dc:title></dc:title></cc:Work></rdf:RDF></metadata><defs
   id="defs978">
	
	
	
	
	
	
	
	
</defs><sodipodi:namedview
   pagecolor="#ffffff"
   bordercolor="#666666"
   borderopacity="1"
   objecttolerance="10"
   gridtolerance="10"
   guidetolerance="10"
   inkscape:pageopacity="0"
   inkscape:pageshadow="2"
   inkscape:window-width="2556"
   inkscape:window-height="1412"
   id="namedview976"
   showgrid="false"
   inkscape:zoom="3.337544"
   inkscape:cx="-119.56719"
   inkscape:cy="6.9796356"
   inkscape:window-x="0"
   inkscape:window-y="24"
   inkscape:window-maximized="0"
   inkscape:current-layer="svg974"
   fit-margin-top="0"
   fit-margin-left="0"
   fit-margin-right="0"
   fit-margin-bottom="0" />
<style
   type="text/css"
   id="style945">
	.st0{display:none;}
	.st1{display:inline;fill-rule:evenodd;clip-rule:evenodd;fill:#B5B5B6;stroke:#000000;stroke-miterlimit:10;}
	.st2{display:inline;fill:none;stroke:#FFFFFF;stroke-miterlimit:10;}
	.st3{display:inline;}
	.st4{fill-rule:evenodd;clip-rule:evenodd;fill:none;stroke:#AF61B5;stroke-miterlimit:10;}
	
		.st5{fill-rule:evenodd;clip-rule:evenodd;fill:#CEACCA;stroke:#000000;stroke-width:0.957;stroke-linejoin:round;stroke-miterlimit:10;}
	.st6{fill-rule:evenodd;clip-rule:evenodd;fill:#FFFFFF;stroke:#000000;stroke-width:0.957;stroke-miterlimit:10;}
	
		.st7{fill-rule:evenodd;clip-rule:evenodd;fill:#DA714A;stroke:#000000;stroke-width:0.957;stroke-linejoin:round;stroke-miterlimit:10;}
	
		.st8{fill-rule:evenodd;clip-rule:evenodd;fill:#0E99C9;stroke:#000000;stroke-width:0.957;stroke-linejoin:round;stroke-miterlimit:10;}
	
		.st9{fill-rule:evenodd;clip-rule:evenodd;fill:#F4D050;stroke:#000000;stroke-width:0.957;stroke-linejoin:round;stroke-miterlimit:10;}
</style>
<g
   id="Layer_2"
   class="st0"
   style="display:none"
   transform="translate(-140.56134,1.4106933)">
	<polygon
   class="st1"
   points="53.9,37.3 73.8,21.2 63.9,11.9 48.2,6.8 37.3,18.2 "
   id="polygon947"
   style="clip-rule:evenodd;display:inline;fill:#b5b5b6;fill-rule:evenodd;stroke:#000000;stroke-miterlimit:10" />
</g>
<g
   id="Layer_1"
   class="st0"
   style="display:none"
   transform="translate(-140.56134,1.4106933)">
	<line
   class="st2"
   x1="-0.30000001"
   y1="50"
   x2="99.699997"
   y2="50"
   id="line950"
   style="display:inline;fill:none;stroke:#ffffff;stroke-miterlimit:10" />
	<g
   class="st3"
   id="g954"
   style="display:inline">
		<path
   class="st4"
   d="M 50.8,0 88.5,24 V 39.6 L 87.2,40.4 96,46 V 61.6 L 85.2,67.8 V 77 L 45.3,100 10.2,77.3 C 3.3,72.9 1.4,63.9 8.5,59.9 l 7.2,-4.1 C 13.9,51.7 14.8,47.1 19.3,44.5 L 19.9,44.1 13.5,40 C 6.6,35.6 4.7,26.6 11.8,22.6 Z M 53.7,10.4 68.2,20.3 59.1,26 44.6,16.1 Z M 81.6,69.8 56,84.5 51.7,81.8 45.4,85.2 11.4,64.7 C 7.4,62.3 7.1,71 11,73.5 l 34.4,22 36.1,-20.7 z M 56.3,71.1 92.4,50.6 v 8.6 L 56.2,80 21.8,58 C 17.9,55.5 18.2,46.8 22.2,49.2 Z M 50.7,49.7 84.9,29 v 8.4 L 50.7,58.4 14.3,36.1 c -3.9,-2.4 -3.6,-11.2 0.4,-8.8 z"
   id="path952"
   inkscape:connector-curvature="0"
   style="clip-rule:evenodd;fill:none;fill-rule:evenodd;stroke:#af61b5;stroke-miterlimit:10" />
	</g>
</g>

<g
   id="g1675"
   transform="matrix(0.79142743,0,0,0.79142743,-101.05697,10.951276)"><path
     inkscape:connector-curvature="0"
     id="path1599"
     d="m 195.94817,92.181333 c -2.19822,-0.641479 -3.79433,-2.197915 -4.54502,-4.432029 -0.155,-0.461316 -0.20976,-0.962077 -0.21067,-1.926643 -6.8e-4,-1.127145 0.21005,-2.633704 1.56184,-11.145498 0.85969,-5.413195 1.5475,-9.908654 1.52847,-9.989909 -0.0439,-0.187273 -9.98173,-10.603124 -10.08244,-10.567372 -0.0411,0.01458 -2.82791,2.96435 -6.19301,6.555077 -3.55942,3.798073 -6.23001,6.558473 -6.38529,6.600043 -0.1468,0.03927 -5.82584,0.07154 -12.6201,0.07165 -13.4644,1.93e-4 -12.82314,0.02978 -14.25357,-0.656518 -1.04123,-0.499543 -1.90463,-1.248188 -2.54676,-2.20825 -0.74182,-1.109121 -1.05475,-2.027228 -1.12778,-3.308927 -0.11185,-1.962636 0.4897,-3.532316 1.88973,-4.93107 0.91558,-0.914731 1.71171,-1.398272 3.0052,-1.825239 l 0.79333,-0.261865 8.46472,-0.03968 8.46471,-0.03968 12.61347,-14.098031 c 6.93741,-7.753918 12.63117,-14.15114 12.65281,-14.216049 0.0263,-0.07881 -0.61325,-0.117475 -1.92508,-0.116409 l -1.96442,0.0014 -4.92994,5.224801 c -6.53028,6.920848 -6.61636,7.006951 -7.4338,7.43658 -2.2392,1.176856 -4.70955,0.838605 -6.5673,-0.899238 -1.32925,-1.243437 -1.94945,-3.064591 -1.65365,-4.855701 0.16379,-0.99184 0.72876,-2.247214 1.32916,-2.953437 0.68723,-0.808382 15.77262,-15.094342 16.17489,-15.317736 0.33235,-0.184569 1.02569,-0.198215 9.99211,-0.196657 10.6955,0.0019 10.39906,-0.01696 11.86477,0.753248 0.42891,0.225386 1.12266,0.72396 1.54167,1.107941 1.07606,0.986114 11.06612,10.190652 11.77658,10.850594 0.5313,0.493513 0.64095,0.546732 1.13332,0.549998 l 0.54511,0.0034 4.81661,-4.863273 c 3.61294,-3.647943 4.97238,-4.948989 5.43993,-5.206297 1.69892,-0.934949 3.7141,-0.954639 5.49325,-0.05367 0.6752,0.341919 1.85725,1.449796 2.31709,2.171678 1.07789,1.692138 1.11591,3.955813 0.0973,5.791017 -0.26119,0.470558 -2.2378,2.513933 -8.06508,8.337481 -8.3597,8.354349 -8.20505,8.218982 -9.82628,8.60114 -0.91717,0.216189 -1.77681,0.217352 -2.68327,0.0034 -1.4482,-0.341448 -1.60766,-0.470909 -6.11855,-4.967516 l -4.22241,-4.209038 -5.55209,5.551217 -5.55208,5.551217 7.13193,7.14073 c 6.08531,6.092819 7.14245,7.19899 7.20356,7.537736 0.0505,0.280156 -0.69893,4.533163 -2.54636,14.449829 -1.43989,7.729052 -2.69893,14.30782 -2.79785,14.619479 -0.67886,2.138789 -2.48411,3.852777 -4.64513,4.410298 -0.91759,0.23673 -2.50897,0.220302 -3.3836,-0.03493 z"
     style="opacity:1;fill:#0e99c9;fill-opacity:1;stroke:#000000;stroke-width:1;stroke-linejoin:round;stroke-miterlimit:10;stroke-dasharray:none;stroke-dashoffset:0;stroke-opacity:1" /><path
     inkscape:connector-curvature="0"
     id="path1601"
     d="m 215.78304,18.768724 c -6.01429,-1.288583 -9.49926,-7.615766 -7.31271,-13.2766732 0.49933,-1.2927467 1.08651,-2.2154957 2.08039,-3.2693166 1.98264,-2.10221246 4.35673,-3.13342753 7.21386,-3.13342753 2.78534,0 5.143,0.99438282 7.11534,3.00100933 4.61338,4.6935813 3.43587,12.474612 -2.37079,15.666353 -1.97232,1.084121 -4.56732,1.474582 -6.72609,1.012055 z"
     style="opacity:1;fill:#0e99c9;fill-opacity:1;stroke:#000000;stroke-width:1;stroke-linejoin:round;stroke-miterlimit:4;stroke-dasharray:none;stroke-dashoffset:0;stroke-opacity:1" /></g></svg>