<?xml version="1.0" standalone="yes"?><!DOCTYPE svg PUBLIC "-//W3C//DTD SVG 1.1//EN" "http://www.w3.org/Graphics/SVG/1.1/DTD/svg11.dtd"[
<!ENTITY E3 'stroke:none;opacity:1;fill:rgb(68,154,223);'><!ENTITY E17 'matrix(1.00 0.00 0.00 1.00 164.00 84.00 ) '><!ENTITY E14 'matrix(1.00 0.00 0.00 1.00 244.00 84.00 ) '><!ENTITY E10 'matrix(1.00 0.00 0.00 1.00 0.00 0.00 ) '><!ENTITY E5 'stroke:none;fill-rule:evenodd;opacity:1;fill:rgb(255,255,255);'><!ENTITY E13 'stroke:rgb(169,169,169);fill:none;stroke-linecap:butt;stroke-miterlimit:9;opacity:1;stroke-width:2;stroke-linejoin:miter;'><!ENTITY E7 'M 5.5001 19.484 10.6493 19.484 16.2743 10.2485 19.3728 10.2485 M 14.6769 17.1481 16.3089 19.4828 19.2202 19.4828 M 5.500199 10.2437 10.7586 10.2437 12.1652 12.8707 '><!ENTITY E4 'M 19.156 13.888 19.156 10.3647 19.156 6.841399 25.2585 10.3647 22.2072 12.1264 z '><!ENTITY E6 'M 19.156 22.97 19.156 19.4467 19.156 15.9234 25.2585 19.4467 22.2072 21.2084 z '><!ENTITY E8 'stroke:rgb(255,255,255);fill:none;stroke-linecap:butt;stroke-miterlimit:9;opacity:1;stroke-width:2;stroke-linejoin:miter;'><!ENTITY E20 'matrix(1.00 0.00 0.00 1.00 84.00 4.00 ) '><!ENTITY E26 'matrix(1.00 0.00 0.00 1.00 4.00 4.00 ) '><!ENTITY E15 'stroke:none;opacity:1;fill:rgb(255,255,255);'><!ENTITY E2 'matrix(1.00 0.00 0.00 1.00 244.00 4.00 ) '><!ENTITY E29 'stroke:rgb(255,255,255);fill:none;stroke-linecap:butt;stroke-miterlimit:9;opacity:1;stroke-width:0.878745;stroke-linejoin:miter;'><!ENTITY E31 'stroke:rgb(255,255,255);fill:none;stroke-linecap:butt;stroke-miterlimit:9;opacity:1;stroke-width:0.866585;stroke-linejoin:miter;'><!ENTITY E1 'stroke:rgb(169,169,169);fill:none;stroke-linecap:butt;stroke-miterlimit:9;opacity:1;stroke-width:1;stroke-linejoin:miter;'>
]><svg width="310,9875" height="132,8252" id="SvgGdi_output" xmlns="http://www.w3.org/2000/svg" xmlns:xlink="http://www.w3.org/1999/xlink"><rect id="background" height="100.00%" style="fill:rgb(255,255,255);" width="100.00%" y="0.00" x="0.00" /><g style="shape-rendering:auto;" id="root_group"><line y1="19.00" style="&E1;" id="233" x2="240.00" y2="19.00" x1="198.00" /><line y1="99.00" style="&E1;" id="234" x2="240.00" y2="99.00" x1="198.00" /><line y1="19.00" style="&E1;" id="235" x2="160.00" y2="19.00" x1="118.00" /><line y1="19.00" style="&E1;" id="236" x2="160.00" y2="99.00" x1="118.00" /><line y1="19.00" style="&E1;" id="237" x2="80.00" y2="19.00" x1="38.00" /><ellipse id="238" cy="15.00" cx="15.00" transform="&E2;" rx="15.00" ry="15.00" style="&E3;" /><path d="&E4;" style="&E5;" transform="&E2;" id="239" /><path d="&E6;" style="&E5;" transform="&E2;" id="240" /><path d="&E7;" style="&E8;" transform="&E2;" id="241" /><text id="242" transform="&E10;" x="244.00px" y="39.00px" style="stroke:none;clip-path:url(#244_text_clipper);font-family:Microsoft Sans Serif;fill:rgb(0,0,0);font-size:8.25pt;opacity:1;"><tspan dy="8.25pt" id="246">Image</tspan></text><ellipse id="248" cy="99.00" cx="259.00" rx="15.00" ry="15.00" style="stroke:none;opacity:1;fill:rgb(169,169,169);" /><path style="&E13;" transform="&E14;" id="249" d="M 1.5363 7.8 C 1.99103 6.9385 2.52798 6.1205 3.1403 5.3587 3.7527 4.5967 4.4403 3.8909 5.1968 3.254 5.95315 2.617 6.7782 2.049 7.665299 1.5627 M 0.4537992 19.4997 C 0.1435492 18.4956 -0.05714077 17.4835 -0.1564507 16.4769 -0.2551987 15.4701 -0.2516447 14.4684 -0.1525816 13.4844 -0.05334165 12.5007 0.1414284 11.5347 0.4251484 10.5993 M 7.892348 28.3993 C 7.030958 27.9447 6.212848 27.4077 5.450948 26.7954 4.689008 26.1831 3.983248 25.4954 3.346348 24.739 2.709558 23.9826 2.141548 23.1575 1.655148 22.2704 M 19.49415 29.4993 C 18.48995 29.8096 17.47785 30.0103 16.47125 30.1096 15.46445 30.2084 14.46285 30.2049 13.47895 30.1018 12.49507 30.0028 11.52915 29.8079 10.59365 29.5242 M 28.46365 22.0993 C 28.00892 22.9606 27.472 23.7788 26.85965 24.5407 26.24738 25.3026 25.55945 26.0084 24.80315 26.6453 24.0468 27.2822 23.22175 27.8502 22.33465 28.3365 M 29.54565 10.4995 C 29.85594 11.5037 30.05659 12.5157 30.15594 13.5224 30.25481 14.5292 30.25114 15.531 30.15199 16.5147 30.05279 17.4986 29.85802 18.4646 29.5743 19.4 M 22.10769 1.499998 C 22.96908 1.954698 23.7872 2.491698 24.5491 3.103898 25.31104 3.716298 26.0168 4.404098 26.65369 5.160398 27.29052 5.916898 27.85859 6.741898 28.34499 7.629098 M 10.50499 0.3999977 C 11.50919 0.08969772 12.52109 -0.1109023 13.52779 -0.2103023 14.53469 -0.3090023 15.53619 -0.3055023 16.52009 -0.2103023 17.50401 -0.1111023 18.46999 0.08369771 19.40549 0.3673977 " /><ellipse id="250" cy="9.06" cx="15.01" transform="&E14;" rx="3.50" ry="3.50" style="&E15;" /><ellipse id="251" cy="18.49" cx="9.12" transform="&E14;" rx="3.50" ry="3.50" style="&E15;" /><ellipse id="252" cy="18.46" cx="20.88" transform="&E14;" rx="3.50" ry="3.50" style="&E15;" /><ellipse id="253" cy="99.00" cx="259.00" rx="15.00" ry="15.00" style="fill:url(#254_HatchBrush);" /><text id="257" transform="&E10;" x="244.00px" y="119.00px" style="stroke:none;clip-path:url(#259_text_clipper);font-family:Microsoft Sans Serif;fill:rgb(0,0,0);font-size:8.25pt;opacity:1;"><tspan dy="8.25pt" id="261">Commutator</tspan></text><line y1="19.00" style="&E1;" id="263" x2="198.00" y2="19.00" x1="160.00" /><ellipse id="264" cy="15.00" cx="15.00" transform="&E17;" rx="15.00" ry="15.00" style="&E3;" /><path d="&E4;" style="&E5;" transform="&E17;" id="265" /><path d="&E6;" style="&E5;" transform="&E17;" id="266" /><path d="&E7;" style="&E8;" transform="&E17;" id="267" /><text id="268" transform="&E10;" x="164.00px" y="119.00px" style="stroke:none;clip-path:url(#270_text_clipper);font-family:Microsoft Sans Serif;fill:rgb(0,0,0);font-size:8.25pt;opacity:1;"><tspan dy="8.25pt" id="272">Quaternion</tspan></text><path style="&E13;" transform="&E20;" id="274" d="M 10.158 33.2 C 3.4054 31.7591 -1.861 26.4692 -3.271 19.71 " /><ellipse id="275" cy="15.00" cx="15.00" transform="&E20;" rx="15.00" ry="15.00" style="stroke:none;opacity:1;fill:rgb(155,91,179);" /><path style="&E5;" transform="&E20;" id="276" d="M 11.656 8.2 11.99975 8.7 16.31225 14.7937 11.65605 21.4187 11.28105 21.9187 14.74985 21.9187 14.8436 21.7624 17.9998 17.0124 18.46855 17.7 21.15605 21.7624 21.2498 21.9187 24.7498 21.9187 24.40605 21.4187 19.65605 14.6687 24.06225 8.699997 24.406 8.199997 20.9998 8.199997 20.90605 8.324997 18.68725 11.4187 C 18.46251 11.7285 18.22333 12.1062 17.9685 12.4812 17.77046 12.1547 17.58677 11.8424 17.31225 11.4187 L 15.28105 8.356197 15.1873 8.199997 11.6561 8.199997 z " /><ellipse id="277" cy="12.78" cx="8.79" transform="&E20;" rx="3.00" ry="3.00" style="&E15;" /><text id="278" transform="&E10;" x="84.00px" y="39.00px" style="stroke:none;clip-path:url(#280_text_clipper);font-family:Microsoft Sans Serif;fill:rgb(0,0,0);font-size:8.25pt;opacity:1;"><tspan dy="8.25pt" id="282">Miniscope</tspan></text><text id="284" transform="&E10;" x="84.00px" y="51.45px" style="stroke:none;clip-path:url(#286_text_clipper);font-family:Microsoft Sans Serif;fill:rgb(0,0,0);font-size:8.25pt;opacity:1;"><tspan dy="8.25pt" id="288">DataFrame</tspan></text><path style="&E13;" transform="&E26;" id="290" d="M 31.179 5.2 C 34.9985 11.0918 34.9814 18.682 31.13552 24.557 " /><ellipse id="291" cy="15.00" cx="15.00" transform="&E26;" rx="15.00" ry="15.00" style="stroke:none;opacity:1;fill:rgb(91,178,126);" /><rect id="292" height="13.14" style="&E15;" transform="&E26;" width="10.75" y="4.57" x="9.66" /><rect id="293" height="3.64" style="&E15;" transform="&E26;" width="6.62" y="16.68" x="11.72" /><path style="&E29;" transform="&E26;" id="294" d="M 12.54858 21.20126 10.19729 25.84716 " /><path style="&E31;" transform="&E26;" id="295" d="M 14.15625 21.12463 13.13978 25.92379 " /><path style="&E29;" transform="&E26;" id="296" d="M 17.40598 21.20126 19.75727 25.84716 " /><path style="&E31;" transform="&E26;" id="297" d="M 15.79831 21.07344 16.48332 25.97498 " /><text id="298" transform="&E10;" x="4.00px" y="39.00px" style="stroke:none;clip-path:url(#300_text_clipper);font-family:Microsoft Sans Serif;fill:rgb(0,0,0);font-size:8.25pt;opacity:1;"><tspan dy="8.25pt" id="302">Ucla</tspan></text><text id="304" transform="&E10;" x="4.00px" y="51.45px" style="stroke:none;clip-path:url(#306_text_clipper);font-family:Microsoft Sans Serif;fill:rgb(0,0,0);font-size:8.25pt;opacity:1;"><tspan dy="8.25pt" id="308">MiniscopeV4</tspan></text></g><defs id="clips_hatches_and_gradients"><clipPath id="244_text_clipper"><rect x="244.00" y="39.00" width="35.15" height="13.83" id="245" /></clipPath><pattern id="254_HatchBrush" patternContentUnits="userSpaceOnUse" height="8.00" patternUnits="userSpaceOnUse" width="8.00" y="0.00" x="0.00" style="stroke-linecap:butt;shape-rendering:crispEdges;"><rect id="255" height="8.00" style="fill:rgb(255,255,255);" width="8.00" y="0.00" x="0.00" /><line y1="0.00" id="256" x2="0.00" y2="8.00" x1="8.00" style="stroke:rgb(0,0,0);fill:rgb(0,0,0);" /></pattern><clipPath id="259_text_clipper"><rect x="244.00" y="119.00" width="65.99" height="13.83" id="260" /></clipPath><clipPath id="270_text_clipper"><rect x="164.00" y="119.00" width="59.78" height="13.83" id="271" /></clipPath><clipPath id="280_text_clipper"><rect x="84.00" y="39.00" width="60.33" height="27.65" id="281" /></clipPath><clipPath id="286_text_clipper"><rect x="84.00" y="51.45" width="60.33" height="27.65" id="287" /></clipPath><clipPath id="300_text_clipper"><rect x="4.00" y="39.00" width="68.66" height="27.65" id="301" /></clipPath><clipPath id="306_text_clipper"><rect x="4.00" y="51.45" width="68.66" height="27.65" id="307" /></clipPath></defs></svg>