<?xml version="1.0" encoding="UTF-8" standalone="no"?>
<svg
   width="320"
   height="240"
   id="SvgGdi_output"
   version="1.1"
   sodipodi:docname="uclaminiscopev4-miniscopedaq-savedata_video-data.svg"
   inkscape:version="1.3.2 (091e20e, 2023-11-25, custom)"
   xml:space="preserve"
   inkscape:export-filename="uclaminiscopev4-miniscopedaq-savedata_video-data.webp"
   inkscape:export-xdpi="96"
   inkscape:export-ydpi="96"
   xmlns:inkscape="http://www.inkscape.org/namespaces/inkscape"
   xmlns:sodipodi="http://sodipodi.sourceforge.net/DTD/sodipodi-0.dtd"
   xmlns="http://www.w3.org/2000/svg"
   xmlns:svg="http://www.w3.org/2000/svg"><sodipodi:namedview
     id="namedview145"
     pagecolor="#ffffff"
     bordercolor="#999999"
     borderopacity="1"
     inkscape:showpageshadow="0"
     inkscape:pageopacity="0"
     inkscape:pagecheckerboard="0"
     inkscape:deskcolor="#d1d1d1"
     showgrid="false"
     showguides="true"
     inkscape:zoom="2.3940678"
     inkscape:cx="90.223007"
     inkscape:cy="97.950441"
     inkscape:window-width="1920"
     inkscape:window-height="1009"
     inkscape:window-x="-8"
     inkscape:window-y="-8"
     inkscape:window-maximized="1"
     inkscape:current-layer="SvgGdi_output"><sodipodi:guide
       position="80.500008,159.5"
       orientation="-1,0"
       id="guide2388"
       inkscape:locked="false"
       inkscape:label=""
       inkscape:color="rgb(0,134,229)" /><sodipodi:guide
       position="0,80"
       orientation="0,1"
       id="guide3170"
       inkscape:locked="false"
       inkscape:label=""
       inkscape:color="rgb(0,134,229)" /><sodipodi:guide
       position="80.000008,80.000001"
       orientation="0,-1"
       id="guide1"
       inkscape:locked="false" /></sodipodi:namedview><defs
     id="clips_hatches_and_gradients"><clipPath
       id="158_text_clipper"><rect
         x="244"
         y="39"
         width="35.150002"
         height="13.83"
         id="159" /></clipPath><clipPath
       id="169_text_clipper"><rect
         x="244"
         y="119"
         width="53.450001"
         height="13.83"
         id="170" /></clipPath><clipPath
       id="178_text_clipper"><rect
         x="164"
         y="119"
         width="59.759998"
         height="13.83"
         id="179" /></clipPath><clipPath
       id="189_text_clipper"><rect
         x="84"
         y="119"
         width="59.779999"
         height="41.48"
         id="190" /></clipPath><clipPath
       id="195_text_clipper"><rect
         x="84"
         y="131.45"
         width="59.779999"
         height="41.48"
         id="196" /></clipPath><clipPath
       id="201_text_clipper"><rect
         x="84"
         y="143.89999"
         width="59.779999"
         height="41.48"
         id="202" /></clipPath><clipPath
       id="215_text_clipper"><rect
         x="4"
         y="39"
         width="68.660004"
         height="27.65"
         id="216" /></clipPath><clipPath
       id="221_text_clipper"><rect
         x="4"
         y="51.450001"
         width="68.660004"
         height="27.65"
         id="222" /></clipPath><clipPath
       id="84_text_clipper"><rect
         x="244"
         y="39"
         width="62.970001"
         height="13.83"
         id="85" /></clipPath><clipPath
       id="95_text_clipper"><rect
         x="244"
         y="119"
         width="53.450001"
         height="13.83"
         id="96" /></clipPath><clipPath
       id="105_text_clipper"><rect
         x="164"
         y="39"
         width="35.150002"
         height="13.83"
         id="106" /></clipPath><clipPath
       id="113_text_clipper"><rect
         x="164"
         y="119"
         width="59.759998"
         height="13.83"
         id="114" /></clipPath><clipPath
       id="124_text_clipper"><rect
         x="84"
         y="119"
         width="59.779999"
         height="41.48"
         id="125" /></clipPath><clipPath
       id="130_text_clipper"><rect
         x="84"
         y="131.45"
         width="59.779999"
         height="41.48"
         id="131" /></clipPath><clipPath
       id="136_text_clipper"><rect
         x="84"
         y="143.89999"
         width="59.779999"
         height="41.48"
         id="137" /></clipPath><clipPath
       id="150_text_clipper"><rect
         x="4"
         y="39"
         width="68.660004"
         height="27.65"
         id="151" /></clipPath><clipPath
       id="156_text_clipper"><rect
         x="4"
         y="51.450001"
         width="68.660004"
         height="27.65"
         id="157" /></clipPath><pattern
       id="114_HatchBrush"
       patternContentUnits="userSpaceOnUse"
       height="8.00"
       patternUnits="userSpaceOnUse"
       width="8.00"
       y="0.00"
       x="0.00"
       style="stroke-linecap:butt;shape-rendering:crispEdges"><rect
         id="115-0"
         height="8.00"
         style="fill:rgb(255,255,255);"
         width="8.00"
         y="0.00"
         x="0.00" /><line
         y1="0.00"
         id="116"
         x2="0.00"
         y2="8.00"
         x1="8.00"
         style="stroke:rgb(0,0,0);fill:rgb(0,0,0);" /></pattern><clipPath
       id="119_text_clipper"><rect
         x="244"
         y="39"
         width="62.970001"
         height="13.83"
         id="120-0" /></clipPath><clipPath
       id="130_text_clipper-0"><rect
         x="244"
         y="199"
         width="53.450001"
         height="13.83"
         id="131-0" /></clipPath><clipPath
       id="140_text_clipper"><rect
         x="164"
         y="39"
         width="62.970001"
         height="13.83"
         id="141-8" /></clipPath><clipPath
       id="148_text_clipper"><rect
         x="164"
         y="119"
         width="62.220001"
         height="41.48"
         id="149" /></clipPath><clipPath
       id="154_text_clipper"><rect
         x="164"
         y="131.45"
         width="62.220001"
         height="41.48"
         id="155" /></clipPath><clipPath
       id="160_text_clipper"><rect
         x="164"
         y="143.89999"
         width="62.220001"
         height="41.48"
         id="161" /></clipPath><clipPath
       id="168_text_clipper"><rect
         x="164"
         y="199"
         width="59.759998"
         height="13.83"
         id="169" /></clipPath><clipPath
       id="178_text_clipper-9"><rect
         x="84"
         y="39"
         width="35.150002"
         height="13.83"
         id="179-7" /></clipPath><clipPath
       id="186_text_clipper"><rect
         x="84"
         y="119"
         width="79.849998"
         height="27.65"
         id="187" /></clipPath><clipPath
       id="192_text_clipper"><rect
         x="84"
         y="131.45"
         width="79.849998"
         height="27.65"
         id="193" /></clipPath><clipPath
       id="202_text_clipper"><rect
         x="84"
         y="199"
         width="59.779999"
         height="41.48"
         id="203" /></clipPath><clipPath
       id="208_text_clipper"><rect
         x="84"
         y="211.45"
         width="59.779999"
         height="41.48"
         id="209" /></clipPath><clipPath
       id="214_text_clipper"><rect
         x="84"
         y="223.89999"
         width="59.779999"
         height="41.48"
         id="215" /></clipPath><clipPath
       id="228_text_clipper"><rect
         x="4"
         y="39"
         width="68.660004"
         height="27.65"
         id="229" /></clipPath><clipPath
       id="234_text_clipper"><rect
         x="4"
         y="51.450001"
         width="68.660004"
         height="27.65"
         id="235" /></clipPath></defs><rect
     style="fill:none;stroke:#ff0000;stroke-width:0.999999;stroke-miterlimit:10;stroke-dasharray:none;stroke-opacity:1"
     id="rect303"
     width="239"
     height="159"
     x="80.500008"
     y="0.49999949" /><g
     style="shape-rendering:auto"
     id="root_group-2"
     transform="translate(0.03054155,0.05817438)"><line
       y1="19"
       style="opacity:1;fill:none;stroke:#a9a9a9;stroke-width:1;stroke-linecap:butt;stroke-linejoin:miter;stroke-miterlimit:9"
       id="102-1"
       x2="240"
       y2="19"
       x1="198" /><line
       y1="99"
       style="opacity:1;fill:none;stroke:#a9a9a9;stroke-width:1;stroke-linecap:butt;stroke-linejoin:miter;stroke-miterlimit:9;stroke-dasharray:4, 2"
       id="103-5"
       x2="240"
       y2="19"
       x1="198" /><line
       y1="179"
       style="opacity:1;fill:none;stroke:#a9a9a9;stroke-width:1;stroke-linecap:butt;stroke-linejoin:miter;stroke-miterlimit:9"
       id="104"
       x2="240"
       y2="179"
       x1="198" /><line
       y1="19"
       style="opacity:1;fill:none;stroke:#a9a9a9;stroke-width:1;stroke-linecap:butt;stroke-linejoin:miter;stroke-miterlimit:9"
       id="105"
       x2="160"
       y2="19"
       x1="118" /><line
       y1="99"
       style="opacity:1;fill:none;stroke:#a9a9a9;stroke-width:1;stroke-linecap:butt;stroke-linejoin:miter;stroke-miterlimit:9;stroke-dasharray:4, 2"
       id="106-5"
       x2="160"
       y2="19"
       x1="118" /><line
       y1="179"
       style="opacity:1;fill:none;stroke:#a9a9a9;stroke-width:1;stroke-linecap:butt;stroke-linejoin:miter;stroke-miterlimit:9"
       id="107-5"
       x2="160"
       y2="179"
       x1="118" /><line
       y1="19"
       style="opacity:1;fill:none;stroke:#a9a9a9;stroke-width:1;stroke-linecap:butt;stroke-linejoin:miter;stroke-miterlimit:9"
       id="108"
       x2="80"
       y2="19"
       x1="38" /><line
       y1="19"
       style="opacity:1;fill:none;stroke:#a9a9a9;stroke-width:1;stroke-linecap:butt;stroke-linejoin:miter;stroke-miterlimit:9"
       id="109-3"
       x2="80"
       y2="179"
       x1="38" /><circle
       id="110-4"
       cy="19"
       cx="259"
       style="opacity:1;fill:#a9a9a9;stroke:none"
       r="15" /><path
       d="m 23.75,9.1 -4.1913,2.4211 v 6.8726 l 4.1913,2.421 z"
       style="opacity:1;fill:#ffffff;fill-rule:evenodd;stroke:none"
       transform="translate(244,4)"
       id="111-3" /><path
       d="m 8.6927,9.2 h 7.0267 c 1.4706,0 2.6545,1.2337 2.6545,2.7661 v 5.8573 c 0,1.5324 -1.1839,2.7659 -2.6545,2.7659 H 8.692701 c -1.4706,0 -2.6545,-1.2335 -2.6545,-2.7659 v -5.8573 c 0,-1.5324 1.1839,-2.766101 2.6545,-2.766101 z"
       style="opacity:1;fill:#ffffff;fill-rule:evenodd;stroke:none"
       transform="translate(244,4)"
       id="112" /><circle
       id="113"
       cy="19"
       cx="259"
       style="fill:url(#114_HatchBrush)"
       r="15" /><text
       id="117-8"
       x="244"
       y="39"
       style="font-size:11px;font-family:'Microsoft Sans Serif';opacity:1;fill:#000000;stroke:none"
       clip-path="url(#119_text_clipper)"><tspan
         dy="8.25pt"
         id="121-9">VideoWriter</tspan></text><path
       d="M 10.158,33.2 C 3.4054,31.7591 -1.861,26.4692 -3.271,19.71"
       style="opacity:1;fill:none;stroke:#a9a9a9;stroke-width:2;stroke-linecap:butt;stroke-linejoin:miter;stroke-miterlimit:9"
       transform="translate(244,164)"
       id="123" /><circle
       id="124"
       cy="15"
       cx="15"
       transform="translate(244,164)"
       style="opacity:1;fill:#9b5bb3;stroke:none"
       r="15" /><path
       style="opacity:1;fill:none;stroke:#ffffff;stroke-width:2;stroke-linecap:butt;stroke-linejoin:miter;stroke-miterlimit:9"
       transform="translate(244,164)"
       id="125-1"
       d="M 7.3965,19.566 V 10.8433" /><path
       style="opacity:1;fill:none;stroke:#ffffff;stroke-width:2;stroke-linecap:butt;stroke-linejoin:miter;stroke-miterlimit:9"
       transform="translate(244,164)"
       id="126-9"
       d="M 11.085,22.137 14.2178,8.273999" /><circle
       id="127"
       cy="15.15"
       cx="20.49"
       transform="translate(244,164)"
       style="opacity:1;fill:none;stroke:#ffffff;stroke-width:2;stroke-linecap:butt;stroke-linejoin:miter;stroke-miterlimit:9"
       r="4.1799998" /><text
       id="128-0"
       x="244"
       y="199"
       style="font-size:11px;font-family:'Microsoft Sans Serif';opacity:1;fill:#000000;stroke:none"
       clip-path="url(#130_text_clipper-0)"><tspan
         dy="8.25pt"
         id="132-5">CsvWriter</tspan></text><path
       d="M 10.158,33.2 C 3.4054,31.7591 -1.861,26.4692 -3.271,19.71"
       style="opacity:1;fill:none;stroke:#a9a9a9;stroke-width:2;stroke-linecap:butt;stroke-linejoin:miter;stroke-miterlimit:9"
       transform="translate(164,4)"
       id="134-2" /><circle
       id="135"
       cy="15"
       cx="15"
       transform="translate(164,4)"
       style="opacity:1;fill:#9b5bb3;stroke:none"
       r="15" /><path
       d="m 23.75,9.1 -4.1913,2.4211 v 6.8726 l 4.1913,2.421 z"
       style="opacity:1;fill:#ffffff;fill-rule:evenodd;stroke:none"
       transform="translate(164,4)"
       id="136" /><path
       d="m 8.6927,9.2 h 7.0267 c 1.4706,0 2.6545,1.2337 2.6545,2.7661 v 5.8573 c 0,1.5324 -1.1839,2.7659 -2.6545,2.7659 H 8.692701 c -1.4706,0 -2.6545,-1.2335 -2.6545,-2.7659 v -5.8573 c 0,-1.5324 1.1839,-2.766101 2.6545,-2.766101 z"
       style="opacity:1;fill:#ffffff;fill-rule:evenodd;stroke:none"
       transform="translate(164,4)"
       id="137-6" /><text
       id="138-9"
       x="164"
       y="39"
       style="font-size:11px;font-family:'Microsoft Sans Serif';opacity:1;fill:#000000;stroke:none"
       clip-path="url(#140_text_clipper)"><tspan
         dy="8.25pt"
         id="142-3">VideoWriter</tspan></text><path
       d="m 15,0 c 0.40124,0 0.79355,0 1.1868,0.032679 l 1.2896,1.6386 c 0.71861,0.13268 1.4016,0.3056 2.0757,0.54645 l 1.8765,-0.73431 c 0.71108,0.33986 1.4003,0.74348 2.044,1.1868 l 0.3767,1.951 c 0.54531,0.46538 1.064,0.98425 1.5295,1.5295 l 1.951,0.34366 c 0.44282,0.6433 0.84727,1.3664 1.1868,2.076901 l -0.77076,1.8766 c 0.2409,0.67416 0.45017,1.3572 0.58268,2.0756 l 1.6386,1.2896 c 0.03095,0.39312 0.03297,0.7858 0.03297,1.1868 0,0.39236 -0.0034,0.7692 -0.03297,1.154 l -1.6386,1.2861 c -0.1302,0.70635 -0.31131,1.4125 -0.54626,2.0756 l 0.73431,1.9131 c -0.34064,0.71423 -0.74196,1.3978 -1.1868,2.044 l -1.951,0.34034 c -0.46556,0.54527 -0.98422,1.0638 -1.5295,1.5294 l -0.3767,1.9875 c -0.6441,0.44379 -1.3325,0.84677 -2.044,1.1867 l -1.9129,-0.77065 c -0.66446,0.23565 -1.3319,0.45212 -2.0394,0.58279 l -1.2895,1.6056 c -0.39329,0.03064 -0.7856,0.06546 -1.1868,0.06546 -0.40124,0 -0.82652,-0.03375 -1.2198,-0.06546 l -1.2202,-1.6056 c -0.69825,-0.12877 -1.4193,-0.35176 -2.0757,-0.58279 l -1.912898,0.77065 c -0.71513,-0.34104 -1.3969,-0.74112 -2.044,-1.1867 l -0.37671,-2.0237 c -0.53343,-0.45828 -1.0365,-0.95833 -1.4931,-1.4932 l -1.9874,-0.34034 c -0.44488,-0.64619 -0.8462,-1.3298 -1.1868,-2.044 l 0.77076,-1.9131 c -0.23121,-0.6564 -0.45393,-1.3772 -0.58268,-2.0756 L 0.06584227,16.18678 C 0.03489427,15.79366 -9.272993e-5,15.4013 -9.272993e-5,14.99998 c 0,-0.40104 0.03498799993,-0.79373 0.06593499993,-1.1868 L 1.671442,12.52358 c 0.13045,-0.70742 0.3471,-1.3747 0.58268,-2.0392 L 1.483362,8.571277 c 0.33956,-0.71048 0.74403,-1.4336 1.1868,-2.0769 l 1.9874,-0.34366 c 0.45663,-0.53497 0.95968,-1.0349 1.4931,-1.4932 l 0.37671,-1.9874 c 0.64673,-0.4454 1.3293,-0.84591 2.044,-1.1868 l 1.912898,0.73431 c 0.6633,-0.23494 1.3696,-0.41602 2.0757,-0.54645 l 1.2861,-1.6386002 c 0.38475,-0.029572 0.76154,-0.0326789996 1.1538,-0.0326789996 z"
       style="opacity:1;fill:#808080;fill-rule:evenodd;stroke:none"
       transform="translate(164,84)"
       id="144-0" /><path
       d="m 21.674,13.548 h -2.8596 l -0.70586,2.8144 h 2.5519 v 2.1719 h -3.0949 l -0.8235,3.2035 h -2.1809 l 0.8054,-3.2035 h -2.3891 l -0.8054,3.2035 H 9.954938 L 10.76939,18.5343 H 8.325989 V 16.3624 H 11.31229 L 12.0091,13.548 H 9.357598 V 11.3852 H 12.5521 l 0.77825,-3.122099 h 2.2171 L 14.7692,11.3852 h 2.38 l 0.7873,-3.122099 h 2.2171 L 19.3663,11.3852 h 2.3076 z m -5.0315,-0.0181 h -2.4253 l -0.72396,2.8596 h 2.4343 z"
       style="opacity:1;fill:#ffffff;fill-rule:evenodd;stroke:none"
       transform="translate(164,84)"
       id="145-5" /><text
       id="146-4"
       x="164"
       y="119"
       style="font-size:11px;font-family:'Microsoft Sans Serif';opacity:1;fill:#000000;stroke:none"
       clip-path="url(#148_text_clipper)"><tspan
         dy="8.25pt"
         id="150">Losslessly </tspan></text><text
       id="152-2"
       x="164"
       y="131.45"
       style="font-size:11px;font-family:'Microsoft Sans Serif';opacity:1;fill:#000000;stroke:none"
       clip-path="url(#154_text_clipper)"><tspan
         dy="8.25pt"
         id="156">Compresed </tspan></text><text
       id="158-2"
       x="164"
       y="143.89999"
       style="font-size:11px;font-family:'Microsoft Sans Serif';opacity:1;fill:#000000;stroke:none"
       clip-path="url(#160_text_clipper)"><tspan
         dy="8.25pt"
         id="162">Video</tspan></text><circle
       id="164"
       cy="15"
       cx="15"
       transform="translate(164,164)"
       style="opacity:1;fill:#eec04b;stroke:none"
       r="15" /><path
       style="opacity:1;fill:#ffffff;fill-rule:evenodd;stroke:none"
       transform="translate(164,164)"
       id="165"
       d="m 12.246,6.0137 v 0.00586 c -0.18794,7e-4 -0.35129,0.020875 -0.47852,0.046875 -0.89879,0.286301 -0.87117,0.86794 -1.8906,1.6191 -1.013501,0.578801 -1.5235,0.13438 -2.2617,0.73438 -0.73673,0.5956 -0.22226,1.962596 -0.53125,2.228496 -0.30671,0.5316 -1.2584,1.0063 -1.4316,1.6777 -0.14317,0.8587 0.38958,1.4709 0.36914,2.207 0.0614,0.6133 -0.6102,0.96178 -0.51367,1.459 0.28922,0.8121 0.84658,1.3001 1.1094,1.5254 0.046151,0.032 0.082828,0.08099 0.097656,0.08399 0.075857,0.1905 0.14373,0.38495 0.24023,0.56445 -0.00548,-0.026 -0.00651,-0.05213 -0.011719,-0.07813 0.054861,0.2176 0.11171,0.43619 0.189449,0.65039 1.5503,3.3608 5.681304,5.9479 10.209004,5.3789 2.1992,-0.2694 5.4826,-1.7854 6.8242,-5.3789 -0.94558,0.8485 -2.6345,1.586 -3.3887,1.6426 2.5527,-1.2757 3.9298,-3.4434 3.54299,-6.4062 -0.52877,1.2588 -1.2269,2.2267 -2.0996,2.8906 1.8538,-2.8897 1.5362,-4.3839 0.16407,-6.0254 0.98137,2.699 -0.28759,5.6945 -3.0527,7.8242 1.1203,0.1214 2.18449,-0.14787 3.1699,-0.95117 -1.4888,1.6607 -3.3523,2.4955 -5.4883,2.7227 1.0199,0.867 2.0045,1.259 2.9453,1.0918 -2.6144,0.7215 -4.8042,-0.07306 -7.4688,-2.7266 -0.13948,0.7143 0.61496,1.8268 1.3926,2.5371 -4.509502,-1.955 -4.906603,-8.042 0.58594,-9.5449 0.0033,0 0.0065,9e-4 0.0098,0 3.2713,1.9138 7.3868,1.7879 7.5723,0.55078 0.45807,-1.4829 -2.0857,-4.538497 -5.8887,-5.335897 -0.70028,-0.1367 -1.3698,-0.190479 -2.0078,-0.17188 0.01278,0 0.0243,2.39e-4 0.03711,-0.00977 -0.6074,-0.6489 -1.3815,-0.8145 -1.9453,-0.8125 z m 4.93169,3.033178 c 0.54604,0 1.0449,0.49697 1.0449,1.043002 0,0.5461 -0.49888,1.043 -1.0449,1.043 -0.54604,0 -1.043,-0.49687 -1.043,-1.043 5e-5,-0.546001 0.49693,-1.043102 1.043,-1.043002 z" /><text
       id="166"
       x="164"
       y="199"
       style="font-size:11px;font-family:'Microsoft Sans Serif';opacity:1;fill:#000000;stroke:none"
       clip-path="url(#168_text_clipper)"><tspan
         dy="8.25pt"
         id="170-3">Timestamp</tspan></text><circle
       id="172"
       cy="15"
       cx="15"
       transform="translate(84,4)"
       style="opacity:1;fill:#449adf;stroke:none"
       r="15" /><path
       d="M 19.156,13.888 V 10.3647 6.841399 l 6.1025,3.523301 -3.0513,1.7617 z"
       style="opacity:1;fill:#ffffff;fill-rule:evenodd;stroke:none"
       transform="translate(84,4)"
       id="173" /><path
       d="m 19.156,22.97 v -3.5233 -3.5233 l 6.1025,3.5233 -3.0513,1.7617 z"
       style="opacity:1;fill:#ffffff;fill-rule:evenodd;stroke:none"
       transform="translate(84,4)"
       id="174" /><path
       d="m 5.5001,19.484 h 5.1492 l 5.625,-9.2355 h 3.0985 m -4.6959,6.8996 1.632,2.3347 h 2.9113 M 5.500199,10.2437 H 10.7586 l 1.4066,2.627"
       style="opacity:1;fill:none;stroke:#ffffff;stroke-width:2;stroke-linecap:butt;stroke-linejoin:miter;stroke-miterlimit:9"
       transform="translate(84,4)"
       id="175" /><text
       id="176"
       x="84"
       y="39"
       style="font-size:11px;font-family:'Microsoft Sans Serif';opacity:1;fill:#000000;stroke:none"
       clip-path="url(#178_text_clipper-9)"><tspan
         dy="8.25pt"
         id="180">Image</tspan></text><path
       d="m 15,0 c 0.40124,0 0.79355,0 1.1868,0.032679 l 1.2896,1.6386 c 0.71861,0.13268 1.4016,0.3056 2.0757,0.54645 l 1.8765,-0.73431 c 0.71108,0.33986 1.4003,0.74348 2.044,1.1868 l 0.3767,1.951 c 0.54531,0.46538 1.064,0.98425 1.5295,1.5295 l 1.951,0.34366 c 0.44282,0.6433 0.84727,1.3664 1.1868,2.076901 l -0.77076,1.8766 c 0.2409,0.67416 0.45017,1.3572 0.58268,2.0756 l 1.6386,1.2896 c 0.03095,0.39312 0.03297,0.7858 0.03297,1.1868 0,0.39236 -0.0034,0.7692 -0.03297,1.154 l -1.6386,1.2861 c -0.1302,0.70635 -0.31131,1.4125 -0.54626,2.0756 l 0.73431,1.9131 c -0.34064,0.71423 -0.74196,1.3978 -1.1868,2.044 l -1.951,0.34034 c -0.46556,0.54527 -0.98422,1.0638 -1.5295,1.5294 l -0.3767,1.9875 c -0.6441,0.44379 -1.3325,0.84677 -2.044,1.1867 l -1.9129,-0.77065 c -0.66446,0.23565 -1.3319,0.45212 -2.0394,0.58279 l -1.2895,1.6056 c -0.39329,0.03064 -0.7856,0.06546 -1.1868,0.06546 -0.40124,0 -0.82652,-0.03375 -1.2198,-0.06546 l -1.2202,-1.6056 c -0.69825,-0.12877 -1.4193,-0.35176 -2.0757,-0.58279 l -1.912898,0.77065 c -0.71513,-0.34104 -1.3969,-0.74112 -2.044,-1.1867 l -0.37671,-2.0237 c -0.53343,-0.45828 -1.0365,-0.95833 -1.4931,-1.4932 l -1.9874,-0.34034 c -0.44488,-0.64619 -0.8462,-1.3298 -1.1868,-2.044 l 0.77076,-1.9131 c -0.23121,-0.6564 -0.45393,-1.3772 -0.58268,-2.0756 L 0.06584227,16.18678 C 0.03489427,15.79366 -9.272993e-5,15.4013 -9.272993e-5,14.99998 c 0,-0.40104 0.03498799993,-0.79373 0.06593499993,-1.1868 L 1.671442,12.52358 c 0.13045,-0.70742 0.3471,-1.3747 0.58268,-2.0392 L 1.483362,8.571277 c 0.33956,-0.71048 0.74403,-1.4336 1.1868,-2.0769 l 1.9874,-0.34366 c 0.45663,-0.53497 0.95968,-1.0349 1.4931,-1.4932 l 0.37671,-1.9874 c 0.64673,-0.4454 1.3293,-0.84591 2.044,-1.1868 l 1.912898,0.73431 c 0.6633,-0.23494 1.3696,-0.41602 2.0757,-0.54645 l 1.2861,-1.6386002 c 0.38475,-0.029572 0.76154,-0.0326789996 1.1538,-0.0326789996 z"
       style="opacity:1;fill:#808080;fill-rule:evenodd;stroke:none"
       transform="translate(84,84)"
       id="182" /><path
       d="m 21.674,13.548 h -2.8596 l -0.70586,2.8144 h 2.5519 v 2.1719 h -3.0949 l -0.8235,3.2035 h -2.1809 l 0.8054,-3.2035 h -2.3891 l -0.8054,3.2035 H 9.954938 L 10.76939,18.5343 H 8.325989 V 16.3624 H 11.31229 L 12.0091,13.548 H 9.357598 V 11.3852 H 12.5521 l 0.77825,-3.122099 h 2.2171 L 14.7692,11.3852 h 2.38 l 0.7873,-3.122099 h 2.2171 L 19.3663,11.3852 h 2.3076 z m -5.0315,-0.0181 h -2.4253 l -0.72396,2.8596 h 2.4343 z"
       style="opacity:1;fill:#ffffff;fill-rule:evenodd;stroke:none"
       transform="translate(84,84)"
       id="183" /><text
       id="184"
       x="84"
       y="119"
       style="font-size:11px;font-family:'Microsoft Sans Serif';opacity:1;fill:#000000;stroke:none"
       clip-path="url(#186_text_clipper)"><tspan
         dy="8.25pt"
         id="188">Uncompressed </tspan></text><text
       id="190-2"
       x="84"
       y="131.45"
       style="font-size:11px;font-family:'Microsoft Sans Serif';opacity:1;fill:#000000;stroke:none"
       clip-path="url(#192_text_clipper)"><tspan
         dy="8.25pt"
         id="194">Video</tspan></text><circle
       id="196-8"
       cy="15"
       cx="15"
       transform="translate(84,164)"
       style="opacity:1;fill:#449adf;stroke:none"
       r="15" /><path
       d="M 19.156,13.888 V 10.3647 6.841399 l 6.1025,3.523301 -3.0513,1.7617 z"
       style="opacity:1;fill:#ffffff;fill-rule:evenodd;stroke:none"
       transform="translate(84,164)"
       id="197" /><path
       d="m 19.156,22.97 v -3.5233 -3.5233 l 6.1025,3.5233 -3.0513,1.7617 z"
       style="opacity:1;fill:#ffffff;fill-rule:evenodd;stroke:none"
       transform="translate(84,164)"
       id="198" /><path
       d="m 5.5001,19.484 h 5.1492 l 5.625,-9.2355 h 3.0985 m -4.6959,6.8996 1.632,2.3347 h 2.9113 M 5.500199,10.2437 H 10.7586 l 1.4066,2.627"
       style="opacity:1;fill:none;stroke:#ffffff;stroke-width:2;stroke-linecap:butt;stroke-linejoin:miter;stroke-miterlimit:9"
       transform="translate(84,164)"
       id="199" /><text
       id="200"
       x="84"
       y="199"
       style="font-size:11px;font-family:'Microsoft Sans Serif';opacity:1;fill:#000000;stroke:none"
       clip-path="url(#202_text_clipper)"><tspan
         dy="8.25pt"
         id="204">Frame</tspan></text><text
       id="206"
       x="84"
       y="211.45"
       style="font-size:11px;font-family:'Microsoft Sans Serif';opacity:1;fill:#000000;stroke:none"
       clip-path="url(#208_text_clipper)"><tspan
         dy="8.25pt"
         id="210">Number,</tspan></text><text
       id="212"
       x="84"
       y="223.89999"
       style="font-size:11px;font-family:'Microsoft Sans Serif';opacity:1;fill:#000000;stroke:none"
       clip-path="url(#214_text_clipper)"><tspan
         dy="8.25pt"
         id="216-4">Quaternion</tspan></text><path
       style="opacity:1;fill:none;stroke:#a9a9a9;stroke-width:2;stroke-linecap:butt;stroke-linejoin:miter;stroke-miterlimit:9"
       transform="translate(4,4)"
       id="218"
       d="m 31.179,5.2 c 3.8195,5.8918 3.8024,13.482 -0.04348,19.357" /><circle
       id="219"
       cy="15"
       cx="15"
       transform="translate(4,4)"
       style="opacity:1;fill:#5bb27e;stroke:none"
       r="15" /><rect
       id="220"
       height="13.14"
       style="opacity:1;fill:#ffffff;stroke:none"
       transform="translate(4,4)"
       width="10.75"
       y="4.5700002"
       x="9.6599998" /><rect
       id="221"
       height="3.6400001"
       style="opacity:1;fill:#ffffff;stroke:none"
       transform="translate(4,4)"
       width="6.6199999"
       y="16.68"
       x="11.72" /><path
       style="opacity:1;fill:none;stroke:#ffffff;stroke-width:0.878745;stroke-linecap:butt;stroke-linejoin:miter;stroke-miterlimit:9"
       transform="translate(4,4)"
       id="222-1"
       d="m 12.54858,21.20126 -2.35129,4.6459" /><path
       style="opacity:1;fill:none;stroke:#ffffff;stroke-width:0.866585;stroke-linecap:butt;stroke-linejoin:miter;stroke-miterlimit:9"
       transform="translate(4,4)"
       id="223"
       d="m 14.15625,21.12463 -1.01647,4.79916" /><path
       style="opacity:1;fill:none;stroke:#ffffff;stroke-width:0.878745;stroke-linecap:butt;stroke-linejoin:miter;stroke-miterlimit:9"
       transform="translate(4,4)"
       id="224"
       d="m 17.40598,21.20126 2.35129,4.6459" /><path
       style="opacity:1;fill:none;stroke:#ffffff;stroke-width:0.866585;stroke-linecap:butt;stroke-linejoin:miter;stroke-miterlimit:9"
       transform="translate(4,4)"
       id="225"
       d="m 15.79831,21.07344 0.68501,4.90154" /><text
       id="226"
       x="4"
       y="39"
       style="font-size:11px;font-family:'Microsoft Sans Serif';opacity:1;fill:#000000;stroke:none"
       clip-path="url(#228_text_clipper)"><tspan
         dy="8.25pt"
         id="230">Ucla</tspan></text><text
       id="232"
       x="4"
       y="51.450001"
       style="font-size:11px;font-family:'Microsoft Sans Serif';opacity:1;fill:#000000;stroke:none"
       clip-path="url(#234_text_clipper)"><tspan
         dy="8.25pt"
         id="236">MiniscopeV4</tspan></text></g></svg>
