<?xml version="1.0" standalone="yes"?><!DOCTYPE svg PUBLIC "-//W3C//DTD SVG 1.1//EN" "http://www.w3.org/Graphics/SVG/1.1/DTD/svg11.dtd"[
<!ENTITY E10 'matrix(1.00 0.00 0.00 1.00 84.00 4.00 ) '><!ENTITY E6 'stroke:none;opacity:1;fill:rgb(255,255,255);'><!ENTITY E3 'stroke:rgb(169,169,169);fill:none;stroke-linecap:butt;stroke-miterlimit:9;opacity:1;stroke-width:2;stroke-linejoin:miter;'><!ENTITY E1 'stroke:rgb(169,169,169);fill:none;stroke-linecap:butt;stroke-miterlimit:9;opacity:1;stroke-width:1;stroke-linejoin:miter;'><!ENTITY E4 'matrix(1.00 0.00 0.00 1.00 164.00 4.00 ) '><!ENTITY E13 'stroke:none;fill-rule:evenodd;opacity:1;fill:rgb(255,255,255);'><!ENTITY E19 'matrix(1.00 0.00 0.00 1.00 4.00 4.00 ) '><!ENTITY E8 'matrix(1.00 0.00 0.00 1.00 0.00 0.00 ) '>
]><svg width="215.3092" height="66.65038" id="SvgGdi_output" xmlns="http://www.w3.org/2000/svg" xmlns:xlink="http://www.w3.org/1999/xlink"><rect id="background" height="100.00%" style="fill:rgb(255,255,255);" width="100.00%" y="0.00" x="0.00" /><g style="shape-rendering:auto;" id="root_group"><line y1="19.00" style="&E1;" id="226" x2="160.00" y2="19.00" x1="118.00" /><line y1="19.00" style="&E1;" id="227" x2="80.00" y2="19.00" x1="38.00" /><path style="&E3;" transform="&E4;" id="228" d="M 10.158 33.2 C 3.4054 31.7591 -1.861 26.4692 -3.271 19.71 " /><ellipse id="229" cy="15.00" cx="15.00" transform="&E4;" rx="15.00" ry="15.00" style="stroke:none;opacity:1;fill:rgb(155,91,179);" /><ellipse id="230" cy="9.06" cx="15.01" transform="&E4;" rx="3.50" ry="3.50" style="&E6;" /><ellipse id="231" cy="18.49" cx="9.12" transform="&E4;" rx="3.50" ry="3.50" style="&E6;" /><ellipse id="232" cy="18.46" cx="20.88" transform="&E4;" rx="3.50" ry="3.50" style="&E6;" /><text id="233" transform="&E8;" x="164.00px" y="39.00px" style="stroke:none;clip-path:url(#235_text_clipper);font-family:Microsoft Sans Serif;fill:rgb(0,0,0);font-size:8.25pt;opacity:1;"><tspan dy="8.25pt" id="237">Workflow</tspan></text><text id="239" transform="&E8;" x="164.00px" y="51.45px" style="stroke:none;clip-path:url(#241_text_clipper);font-family:Microsoft Sans Serif;fill:rgb(0,0,0);font-size:8.25pt;opacity:1;"><tspan dy="8.25pt" id="243">Output</tspan></text><ellipse id="245" cy="15.00" cx="15.00" transform="&E10;" rx="15.00" ry="15.00" style="stroke:none;opacity:1;fill:rgb(68,154,223);" /><path style="&E13;" transform="&E10;" id="246" d="M 19.156 13.888 19.156 10.3647 19.156 6.841399 25.2585 10.3647 22.2072 12.1264 z " /><path style="&E13;" transform="&E10;" id="247" d="M 19.156 22.97 19.156 19.4467 19.156 15.9234 25.2585 19.4467 22.2072 21.2084 z " /><path transform="&E10;" id="248" style="stroke:rgb(255,255,255);fill:none;stroke-linecap:butt;stroke-miterlimit:9;opacity:1;stroke-width:2;stroke-linejoin:miter;" d="M 5.5001 19.484 10.6493 19.484 16.2743 10.2485 19.3728 10.2485 M 14.6769 17.1481 16.3089 19.4828 19.2202 19.4828 M 5.500199 10.2437 10.7586 10.2437 12.1652 12.8707 " /><text id="249" transform="&E8;" x="84.00px" y="39.00px" style="stroke:none;clip-path:url(#251_text_clipper);font-family:Microsoft Sans Serif;fill:rgb(0,0,0);font-size:8.25pt;opacity:1;"><tspan dy="8.25pt" id="253">Trigger</tspan></text><path style="&E3;" transform="&E19;" id="255" d="M 31.179 5.2 C 34.9985 11.0918 34.9814 18.682 31.13552 24.557 " /><ellipse id="256" cy="15.00" cx="15.00" transform="&E19;" rx="15.00" ry="15.00" style="stroke:none;opacity:1;fill:rgb(91,178,126);" /><ellipse id="257" cy="9.06" cx="15.01" transform="&E19;" rx="3.50" ry="3.50" style="&E6;" /><ellipse id="258" cy="18.49" cx="9.12" transform="&E19;" rx="3.50" ry="3.50" style="&E6;" /><ellipse id="259" cy="18.46" cx="20.88" transform="&E19;" rx="3.50" ry="3.50" style="&E6;" /><text id="260" transform="&E8;" x="4.00px" y="39.00px" style="stroke:none;clip-path:url(#262_text_clipper);font-family:Microsoft Sans Serif;fill:rgb(0,0,0);font-size:8.25pt;opacity:1;"><tspan dy="8.25pt" id="264">Source1</tspan></text></g><defs id="clips_hatches_and_gradients"><clipPath id="235_text_clipper"><rect x="164.00" y="39.00" width="50.31" height="27.65" id="236" /></clipPath><clipPath id="241_text_clipper"><rect x="164.00" y="51.45" width="50.31" height="27.65" id="242" /></clipPath><clipPath id="251_text_clipper"><rect x="84.00" y="39.00" width="39.62" height="13.83" id="252" /></clipPath><clipPath id="262_text_clipper"><rect x="4.00" y="39.00" width="45.86" height="13.83" id="263" /></clipPath></defs></svg>