<?xml version="1.0" standalone="yes"?><!DOCTYPE svg PUBLIC "-//W3C//DTD SVG 1.1//EN" "http://www.w3.org/Graphics/SVG/1.1/DTD/svg11.dtd"[
<!ENTITY E14 'matrix(1.00 0.00 0.00 1.00 84.00 4.00 ) '><!ENTITY E12 'stroke:none;opacity:1;fill:rgb(255,255,255);'><!ENTITY E9 'stroke:rgb(169,169,169);fill:none;stroke-linecap:butt;stroke-miterlimit:9;opacity:1;stroke-width:2;stroke-linejoin:miter;'><!ENTITY E1 'stroke:rgb(169,169,169);fill:none;stroke-linecap:butt;stroke-miterlimit:9;opacity:1;stroke-width:1;stroke-linejoin:miter;'><!ENTITY E2 'matrix(1.00 0.00 0.00 1.00 244.00 4.00 ) '><!ENTITY E8 'matrix(1.00 0.00 0.00 1.00 164.00 4.00 ) '><!ENTITY E5 'stroke:none;fill-rule:evenodd;opacity:1;fill:rgb(255,255,255);'><!ENTITY E20 'matrix(1.00 0.00 0.00 1.00 4.00 4.00 ) '><!ENTITY E3 'stroke:none;opacity:1;fill:rgb(238,192,75);'><!ENTITY E7 'matrix(1.00 0.00 0.00 1.00 0.00 0.00 ) '>
]><svg width="285,1955" height="66,65038" id="SvgGdi_output" xmlns="http://www.w3.org/2000/svg" xmlns:xlink="http://www.w3.org/1999/xlink"><rect id="background" height="100.00%" style="fill:rgb(255,255,255);" width="100.00%" y="0.00" x="0.00" /><g style="shape-rendering:auto;" id="root_group"><line y1="19.00" style="&E1;" id="312" x2="240.00" y2="19.00" x1="198.00" /><line y1="19.00" style="&E1;" id="313" x2="160.00" y2="19.00" x1="118.00" /><line y1="19.00" style="&E1;" id="314" x2="80.00" y2="19.00" x1="38.00" /><ellipse id="315" cy="15.00" cx="15.00" transform="&E2;" rx="15.00" ry="15.00" style="&E3;" /><path style="&E5;" transform="&E2;" id="316" d="M 12.246 6.0137 12.246 6.019559 C 12.05806 6.020259 11.89471 6.040434 11.76748 6.066434 10.86869 6.352735 10.89631 6.934374 9.87688 7.685534 8.863379 8.264335 8.35338 7.819914 7.61518 8.419914 6.87845 9.015514 7.39292 10.38251 7.08393 10.64841 6.77722 11.18001 5.82553 11.65471 5.65233 12.32611 5.50916 13.18481 6.04191 13.79701 6.02147 14.53311 6.08287 15.14641 5.41127 15.49489 5.5078 15.99211 5.79702 16.80421 6.35438 17.29221 6.6172 17.51751 6.663351 17.54951 6.700028 17.5985 6.714856 17.6015 6.790713 17.792 6.858586 17.98645 6.955086 18.16595 6.949606 18.13995 6.948576 18.11382 6.943367 18.08782 6.998228 18.30542 7.055077 18.52401 7.132816 18.73821 8.683116 22.09901 12.81412 24.68611 17.34182 24.11711 19.54102 23.84771 22.82442 22.33171 24.16602 18.73821 23.22044 19.58671 21.53152 20.32421 20.77732 20.38081 23.33002 19.10511 24.70712 16.93741 24.32031 13.97461 23.79154 15.23341 23.09341 16.20131 22.22071 16.86521 24.07451 13.97551 23.75691 12.48131 22.38478 10.83981 23.36615 13.53881 22.09719 16.53431 19.33208 18.66401 20.45238 18.78541 21.51657 18.51614 22.50198 17.71284 21.01318 19.37354 19.14968 20.20834 17.01368 20.43554 18.03358 21.30254 19.01818 21.69454 19.95898 21.52734 17.34458 22.24884 15.15478 21.45428 12.49018 18.80074 12.3507 19.51504 13.10514 20.62754 13.88278 21.33784 9.373278 19.38284 8.976177 13.29584 14.46872 11.79294 14.47202 11.79294 14.47518 11.79384 14.47848 11.79294 17.74978 13.70674 21.86528 13.58084 22.05078 12.34372 22.50885 10.86082 19.96508 7.805223 16.16208 7.007823 15.4618 6.871123 14.79228 6.817344 14.15428 6.835943 14.16706 6.835943 14.17858 6.836182 14.19139 6.826178 13.58399 6.177278 12.80989 6.011678 12.24609 6.013678 z M 17.17769 9.046878 C 17.72373 9.046878 18.22259 9.543848 18.22259 10.08988 18.22259 10.63598 17.72371 11.13288 17.17769 11.13288 16.63165 11.13288 16.13469 10.63601 16.13469 10.08988 16.13474 9.543879 16.63162 9.046778 17.17769 9.046878 z " /><text id="317" transform="&E7;" x="244.00px" y="39.00px" style="stroke:none;clip-path:url(#319_text_clipper);font-family:Microsoft Sans Serif;fill:rgb(0,0,0);font-size:8.25pt;opacity:1;"><tspan dy="8.25pt" id="321">Repeat</tspan></text><ellipse id="323" cy="15.00" cx="15.00" transform="&E8;" rx="15.00" ry="15.00" style="&E3;" /><ellipse id="324" cy="15.00" cx="15.00" transform="&E8;" rx="15.00" ry="15.00" style="&E9;" /><path transform="&E8;" id="325" style="stroke:rgb(255,255,255);fill:none;stroke-linecap:butt;stroke-miterlimit:9;opacity:1;stroke-width:2;stroke-linejoin:miter;" d="M 14.876 5.6408 14.876 24.0228 " /><ellipse id="326" cy="10.20" cx="8.47" transform="&E8;" rx="3.40" ry="3.40" style="&E12;" /><ellipse id="327" cy="10.20" cx="21.33" transform="&E8;" rx="3.40" ry="3.40" style="&E12;" /><ellipse id="328" cy="19.20" cx="21.33" transform="&E8;" rx="3.40" ry="3.40" style="&E12;" /><text id="329" transform="&E7;" x="164.00px" y="39.00px" style="stroke:none;clip-path:url(#331_text_clipper);font-family:Microsoft Sans Serif;fill:rgb(0,0,0);font-size:8.25pt;opacity:1;"><tspan dy="8.25pt" id="333">ChunkData</tspan></text><ellipse id="335" cy="15.00" cx="15.00" transform="&E14;" rx="15.00" ry="15.00" style="&E3;" /><ellipse id="336" cy="15.00" cx="15.00" transform="&E14;" rx="15.00" ry="15.00" style="&E9;" /><path transform="&E14;" id="337" style="stroke:rgb(255,255,255);fill:none;stroke-linecap:butt;stroke-miterlimit:9;opacity:1;stroke-width:2.5;stroke-linejoin:miter;" d="M 11.061 10.763 C 11.061 9.349799 12.2452 7.7226 13.7798 7.4008 15.4144 6.98898 17.2874 7.88198 17.9084 9.4683 18.47393 10.8026 17.97233 12.4332 16.8453 13.3125 16.16579 13.95364 15.1393 14.28144 14.7641 15.2029 14.48171 16.1142 14.56073 17.1532 14.56319 18.0326 " /><ellipse id="338" cy="21.60" cx="14.68" transform="&E14;" rx="1.81" ry="1.81" style="&E12;" /><text id="339" transform="&E7;" x="84.00px" y="39.00px" style="stroke:none;clip-path:url(#341_text_clipper);font-family:Microsoft Sans Serif;fill:rgb(0,0,0);font-size:8.25pt;opacity:1;"><tspan dy="8.25pt" id="343">Trigger</tspan></text><text id="345" transform="&E7;" x="84.00px" y="51.45px" style="stroke:none;clip-path:url(#347_text_clipper);font-family:Microsoft Sans Serif;fill:rgb(0,0,0);font-size:8.25pt;opacity:1;"><tspan dy="8.25pt" id="349">Asserted</tspan></text><path style="&E9;" transform="&E20;" id="351" d="M 31.179 5.2 C 34.9985 11.0918 34.9814 18.682 31.13552 24.557 " /><ellipse id="352" cy="15.00" cx="15.00" transform="&E20;" rx="15.00" ry="15.00" style="stroke:none;opacity:1;fill:rgb(91,178,126);" /><path style="&E5;" transform="&E20;" id="353" d="M 4.4028 13 4.93347 11.3266 C 6.15637 11.7667 7.04467 12.1477 7.598371 12.4698 7.45224 11.0476 7.37533 10.0696 7.36764 9.5352 L 9.040441 9.5352 C 9.017365 10.3131 8.92891 11.2873 8.775101 12.4581 9.567261 12.0495 10.4748 11.6723 11.4977 11.3266 L 12.02837 13 C 11.05162 13.3302 10.09407 13.5502 9.155771 13.6601 9.624911 14.0766 10.28637 14.819 11.14007 15.8877 L 9.755671 16.8894 C 9.30959 16.2687 8.782761 15.4241 8.175171 14.3554 7.606041 15.4633 7.106171 16.308 6.675471 16.8894 L 5.314171 15.8877 C 6.206311 14.7642 6.844671 14.0216 7.229171 13.6601 6.237041 13.4637 5.294871 13.2437 4.402771 13 z " /><path style="&E5;" transform="&E20;" id="354" d="M 11.656 8.2 11.99975 8.7 16.31225 14.7937 11.65605 21.4187 11.28105 21.9187 14.74985 21.9187 14.8436 21.7624 17.9998 17.0124 18.46855 17.7 21.15605 21.7624 21.2498 21.9187 24.7498 21.9187 24.40605 21.4187 19.65605 14.6687 24.06225 8.699997 24.406 8.199997 20.9998 8.199997 20.90605 8.324997 18.68725 11.4187 C 18.46251 11.7285 18.22333 12.1062 17.9685 12.4812 17.77046 12.1547 17.58677 11.8424 17.31225 11.4187 L 15.28105 8.356197 15.1873 8.199997 11.6561 8.199997 z " /><text id="355" transform="&E7;" x="4.00px" y="39.00px" style="stroke:none;clip-path:url(#357_text_clipper);font-family:Microsoft Sans Serif;fill:rgb(0,0,0);font-size:8.25pt;opacity:1;"><tspan dy="8.25pt" id="359">Miniscope</tspan></text><text id="361" transform="&E7;" x="4.00px" y="51.45px" style="stroke:none;clip-path:url(#363_text_clipper);font-family:Microsoft Sans Serif;fill:rgb(0,0,0);font-size:8.25pt;opacity:1;"><tspan dy="8.25pt" id="365">DataFrame</tspan></text></g><defs id="clips_hatches_and_gradients"><clipPath id="319_text_clipper"><rect x="244.00" y="39.00" width="40.20" height="13.83" id="320" /></clipPath><clipPath id="331_text_clipper"><rect x="164.00" y="39.00" width="60.34" height="13.83" id="332" /></clipPath><clipPath id="341_text_clipper"><rect x="84.00" y="39.00" width="48.38" height="27.65" id="342" /></clipPath><clipPath id="347_text_clipper"><rect x="84.00" y="51.45" width="48.38" height="27.65" id="348" /></clipPath><clipPath id="357_text_clipper"><rect x="4.00" y="39.00" width="60.33" height="27.65" id="358" /></clipPath><clipPath id="363_text_clipper"><rect x="4.00" y="51.45" width="60.33" height="27.65" id="364" /></clipPath></defs></svg>