<?xml version="1.0" encoding="UTF-8" standalone="no"?>
<svg
   width="390.9875"
   height="132.8252"
   id="SvgGdi_output"
   version="1.1"
   sodipodi:docname="uclaminiscopev4-miniscopedaq-commutate.svg"
   inkscape:version="1.2.2 (732a01da63, 2022-12-09)"
   xmlns:inkscape="http://www.inkscape.org/namespaces/inkscape"
   xmlns:sodipodi="http://sodipodi.sourceforge.net/DTD/sodipodi-0.dtd"
   xmlns="http://www.w3.org/2000/svg"
   xmlns:svg="http://www.w3.org/2000/svg"
   xmlns:rdf="http://www.w3.org/1999/02/22-rdf-syntax-ns#"
   xmlns:cc="http://creativecommons.org/ns#"
   xmlns:dc="http://purl.org/dc/elements/1.1/">
  <metadata
     id="metadata981">
    <rdf:RDF>
      <cc:Work
         rdf:about="">
        <dc:format>image/svg+xml</dc:format>
        <dc:type
           rdf:resource="http://purl.org/dc/dcmitype/StillImage" />
      </cc:Work>
    </rdf:RDF>
  </metadata>
  <sodipodi:namedview
     pagecolor="#ffffff"
     bordercolor="#666666"
     borderopacity="1"
     objecttolerance="10"
     gridtolerance="10"
     guidetolerance="10"
     inkscape:pageopacity="0"
     inkscape:pageshadow="2"
     inkscape:window-width="1920"
     inkscape:window-height="1009"
     id="namedview979"
     showgrid="false"
     inkscape:zoom="4"
     inkscape:cx="13.625"
     inkscape:cy="98"
     inkscape:window-x="-8"
     inkscape:window-y="-8"
     inkscape:window-maximized="1"
     inkscape:current-layer="layer1"
     inkscape:snap-page="true"
     inkscape:showpageshadow="0"
     inkscape:pagecheckerboard="0"
     inkscape:deskcolor="#d1d1d1" />
  <rect
     id="background"
     height="100.00%"
     style="fill:rgb(255,255,255);"
     width="100.00%"
     y="0.00"
     x="0.00" />
  <g
     style="shape-rendering:auto;"
     id="root_group">
    <line
       y1="19.00"
       style="stroke:rgb(169,169,169);fill:none;stroke-linecap:butt;stroke-miterlimit:9;opacity:1;stroke-width:1;stroke-linejoin:miter;"
       id="103"
       x2="320.00"
       y2="19.00"
       x1="278.00" />
    <line
       y1="99.00"
       style="stroke:rgb(169,169,169);fill:none;stroke-linecap:butt;stroke-miterlimit:9;opacity:1;stroke-width:1;stroke-linejoin:miter;"
       id="104"
       x2="320.00"
       y2="99.00"
       x1="278.00" />
    <line
       y1="19.00"
       style="stroke:rgb(169,169,169);fill:none;stroke-linecap:butt;stroke-miterlimit:9;opacity:1;stroke-width:1;stroke-linejoin:miter;"
       id="105"
       x2="240.00"
       y2="19.00"
       x1="198.00" />
    <line
       y1="99.00"
       style="stroke:rgb(169,169,169);fill:none;stroke-linecap:butt;stroke-miterlimit:9;opacity:1;stroke-width:1;stroke-linejoin:miter;"
       id="106"
       x2="240.00"
       y2="99.00"
       x1="198.00" />
    <line
       y1="19.00"
       style="stroke:rgb(169,169,169);fill:none;stroke-linecap:butt;stroke-miterlimit:9;opacity:1;stroke-width:1;stroke-linejoin:miter;"
       id="107"
       x2="160.00"
       y2="19.00"
       x1="118.00" />
    <line
       y1="99.00"
       style="stroke:rgb(169,169,169);fill:none;stroke-linecap:butt;stroke-miterlimit:9;opacity:1;stroke-width:1;stroke-linejoin:miter;"
       id="108"
       x2="160.00"
       y2="99.00"
       x1="118.00" />
    <line
       y1="19.00"
       style="stroke:rgb(169,169,169);fill:none;stroke-linecap:butt;stroke-miterlimit:9;opacity:1;stroke-width:1;stroke-linejoin:miter;"
       id="109"
       x2="80.00"
       y2="19.00"
       x1="38.00" />
    <line
       y1="19.00"
       style="stroke:rgb(169,169,169);fill:none;stroke-linecap:butt;stroke-miterlimit:9;opacity:1;stroke-width:1;stroke-linejoin:miter;"
       id="110"
       x2="80.00"
       y2="99.00"
       x1="38.00" />
    <path
       d="M 10.158 33.2 C 3.4054 31.7591 -1.861 26.4692 -3.271 19.71 "
       style="stroke:rgb(169,169,169);fill:none;stroke-linecap:butt;stroke-miterlimit:9;opacity:1;stroke-width:2;stroke-linejoin:miter;"
       transform="matrix(1.00 0.00 0.00 1.00 324.00 4.00 ) "
       id="111" />
    <ellipse
       id="112"
       cy="15.00"
       cx="15.00"
       transform="matrix(1.00 0.00 0.00 1.00 324.00 4.00 ) "
       rx="15.00"
       ry="15.00"
       style="stroke:none;opacity:1;fill:rgb(155,91,179);" />
    <path
       style="stroke:none;fill-rule:evenodd;opacity:1;fill:rgb(255,255,255);"
       transform="matrix(1.00 0.00 0.00 1.00 324.00 4.00 ) "
       id="113"
       d="M 23.75 9.1 19.5587 11.5211 19.5587 18.3937 23.75 20.8147 z " />
    <path
       style="stroke:none;fill-rule:evenodd;opacity:1;fill:rgb(255,255,255);"
       transform="matrix(1.00 0.00 0.00 1.00 324.00 4.00 ) "
       id="114"
       d="M 8.6927 9.2 15.7194 9.2 C 17.19 9.2 18.3739 10.4337 18.3739 11.9661 L 18.3739 17.8234 C 18.3739 19.3558 17.19 20.5893 15.7194 20.5893 L 8.692701 20.5893 C 7.222101 20.5893 6.038201 19.3558 6.038201 17.8234 L 6.038201 11.9661 C 6.038201 10.4337 7.222101 9.199999 8.692701 9.199999 z " />
    <text
       id="115"
       x="324"
       y="39"
       style="font-size:11px;font-family:'Microsoft Sans Serif';opacity:1;fill:#000000;stroke:none"
       clip-path="url(#117_text_clipper)"><tspan
         dy="8.25pt"
         id="119">VideoWriter</tspan></text>
    <ellipse
       id="121"
       cy="15.00"
       cx="15.00"
       transform="matrix(1.00 0.00 0.00 1.00 324.00 84.00 ) "
       rx="15.00"
       ry="15.00"
       style="stroke:none;opacity:1;fill:rgb(238,192,75);" />
    <path
       style="stroke:rgb(169,169,169);fill:none;stroke-linecap:butt;stroke-miterlimit:9;opacity:1;stroke-width:2;stroke-linejoin:miter;"
       transform="matrix(1.00 0.00 0.00 1.00 324.00 84.00 ) "
       id="122"
       d="M 1.5363 7.8 C 1.99103 6.9385 2.52798 6.1205 3.1403 5.3587 3.7527 4.5967 4.4403 3.8909 5.1968 3.254 5.95315 2.617 6.7782 2.049 7.665299 1.5627 M 0.4537992 19.4997 C 0.1435492 18.4956 -0.05714077 17.4835 -0.1564507 16.4769 -0.2551987 15.4701 -0.2516447 14.4684 -0.1525816 13.4844 -0.05334165 12.5007 0.1414284 11.5347 0.4251484 10.5993 M 7.892348 28.3993 C 7.030958 27.9447 6.212848 27.4077 5.450948 26.7954 4.689008 26.1831 3.983248 25.4954 3.346348 24.739 2.709558 23.9826 2.141548 23.1575 1.655148 22.2704 M 19.49415 29.4993 C 18.48995 29.8096 17.47785 30.0103 16.47125 30.1096 15.46445 30.2084 14.46285 30.2049 13.47895 30.1018 12.49507 30.0028 11.52915 29.8079 10.59365 29.5242 M 28.46365 22.0993 C 28.00892 22.9606 27.472 23.7788 26.85965 24.5407 26.24738 25.3026 25.55945 26.0084 24.80315 26.6453 24.0468 27.2822 23.22175 27.8502 22.33465 28.3365 M 29.54565 10.4995 C 29.85594 11.5037 30.05659 12.5157 30.15594 13.5224 30.25481 14.5292 30.25114 15.531 30.15199 16.5147 30.05279 17.4986 29.85802 18.4646 29.5743 19.4 M 22.10769 1.499998 C 22.96908 1.954698 23.7872 2.491698 24.5491 3.103898 25.31104 3.716298 26.0168 4.404098 26.65369 5.160398 27.29052 5.916898 27.85859 6.741898 28.34499 7.629098 M 10.50499 0.3999977 C 11.50919 0.08969772 12.52109 -0.1109023 13.52779 -0.2103023 14.53469 -0.3090023 15.53619 -0.3055023 16.52009 -0.2103023 17.50401 -0.1111023 18.46999 0.08369771 19.40549 0.3673977 " />
    <ellipse
       id="123"
       cy="9.06"
       cx="15.01"
       transform="matrix(1.00 0.00 0.00 1.00 324.00 84.00 ) "
       rx="3.50"
       ry="3.50"
       style="stroke:none;opacity:1;fill:rgb(255,255,255);" />
    <ellipse
       id="124"
       cy="18.49"
       cx="9.12"
       transform="matrix(1.00 0.00 0.00 1.00 324.00 84.00 ) "
       rx="3.50"
       ry="3.50"
       style="stroke:none;opacity:1;fill:rgb(255,255,255);" />
    <ellipse
       id="125"
       cy="18.46"
       cx="20.88"
       transform="matrix(1.00 0.00 0.00 1.00 324.00 84.00 ) "
       rx="3.50"
       ry="3.50"
       style="stroke:none;opacity:1;fill:rgb(255,255,255);" />
    <text
       id="126"
       x="324"
       y="119"
       style="font-size:11px;font-family:'Microsoft Sans Serif';opacity:1;fill:#000000;stroke:none"
       clip-path="url(#128_text_clipper)"><tspan
         dy="8.25pt"
         id="130">Commutator</tspan></text>
    <ellipse
       id="132"
       cy="15.00"
       cx="15.00"
       transform="matrix(1.00 0.00 0.00 1.00 244.00 4.00 ) "
       rx="15.00"
       ry="15.00"
       style="stroke:none;opacity:1;fill:rgb(68,154,223);" />
    <path
       d="M 19.156 13.888 19.156 10.3647 19.156 6.841399 25.2585 10.3647 22.2072 12.1264 z "
       style="stroke:none;fill-rule:evenodd;opacity:1;fill:rgb(255,255,255);"
       transform="matrix(1.00 0.00 0.00 1.00 244.00 4.00 ) "
       id="133" />
    <path
       d="M 19.156 22.97 19.156 19.4467 19.156 15.9234 25.2585 19.4467 22.2072 21.2084 z "
       style="stroke:none;fill-rule:evenodd;opacity:1;fill:rgb(255,255,255);"
       transform="matrix(1.00 0.00 0.00 1.00 244.00 4.00 ) "
       id="134" />
    <path
       d="M 5.5001 19.484 10.6493 19.484 16.2743 10.2485 19.3728 10.2485 M 14.6769 17.1481 16.3089 19.4828 19.2202 19.4828 M 5.500199 10.2437 10.7586 10.2437 12.1652 12.8707 "
       style="stroke:rgb(255,255,255);fill:none;stroke-linecap:butt;stroke-miterlimit:9;opacity:1;stroke-width:2;stroke-linejoin:miter;"
       transform="matrix(1.00 0.00 0.00 1.00 244.00 4.00 ) "
       id="135" />
    <text
       id="136"
       x="244"
       y="39"
       style="font-size:11px;font-family:'Microsoft Sans Serif';opacity:1;fill:#000000;stroke:none"
       clip-path="url(#138_text_clipper)"><tspan
         dy="8.25pt"
         id="140">Image</tspan></text>
    <path
       d="M 10.158 33.2 C 3.4054 31.7591 -1.861 26.4692 -3.271 19.71 "
       style="stroke:rgb(169,169,169);fill:none;stroke-linecap:butt;stroke-miterlimit:9;opacity:1;stroke-width:2;stroke-linejoin:miter;"
       transform="matrix(1.00 0.00 0.00 1.00 244.00 84.00 ) "
       id="142" />
    <ellipse
       id="143"
       cy="15.00"
       cx="15.00"
       transform="matrix(1.00 0.00 0.00 1.00 244.00 84.00 ) "
       rx="15.00"
       ry="15.00"
       style="stroke:none;opacity:1;fill:rgb(155,91,179);" />
    <path
       style="stroke:rgb(255,255,255);fill:none;stroke-linecap:butt;stroke-miterlimit:9;opacity:1;stroke-width:2;stroke-linejoin:miter;"
       transform="matrix(1.00 0.00 0.00 1.00 244.00 84.00 ) "
       id="144"
       d="M 7.3965 19.566 7.3965 10.8433 " />
    <path
       style="stroke:rgb(255,255,255);fill:none;stroke-linecap:butt;stroke-miterlimit:9;opacity:1;stroke-width:2;stroke-linejoin:miter;"
       transform="matrix(1.00 0.00 0.00 1.00 244.00 84.00 ) "
       id="145"
       d="M 11.085 22.137 14.2178 8.273999 " />
    <ellipse
       id="146"
       cy="15.15"
       cx="20.49"
       transform="matrix(1.00 0.00 0.00 1.00 244.00 84.00 ) "
       rx="4.18"
       ry="4.18"
       style="stroke:rgb(255,255,255);fill:none;stroke-linecap:butt;stroke-miterlimit:9;opacity:1;stroke-width:2;stroke-linejoin:miter;" />
    <text
       id="147"
       x="244"
       y="119"
       style="font-size:11px;font-family:'Microsoft Sans Serif';opacity:1;fill:#000000;stroke:none"
       clip-path="url(#149_text_clipper)"><tspan
         dy="8.25pt"
         id="151">CsvWriter</tspan></text>
    <line
       y1="19.00"
       style="stroke:rgb(169,169,169);fill:none;stroke-linecap:butt;stroke-miterlimit:9;opacity:1;stroke-width:1;stroke-linejoin:miter;"
       id="153"
       x2="198.00"
       y2="19.00"
       x1="160.00" />
    <ellipse
       id="154"
       cy="15.00"
       cx="15.00"
       transform="matrix(1.00 0.00 0.00 1.00 164.00 84.00 ) "
       rx="15.00"
       ry="15.00"
       style="stroke:none;opacity:1;fill:rgb(68,154,223);" />
    <path
       style="stroke:none;fill-rule:evenodd;opacity:1;fill:rgb(255,255,255);"
       transform="matrix(1.00 0.00 0.00 1.00 164.00 84.00 ) "
       id="155"
       d="M 10.824 9.4752 3.5613 15.0588 10.824 20.6107 10.81521 18.3247 6.519011 15.0267 10.82391 11.7422 z " />
    <path
       style="stroke:none;fill-rule:evenodd;opacity:1;fill:rgb(255,255,255);"
       transform="matrix(1.00 0.00 0.00 1.00 164.00 84.00 ) "
       id="156"
       d="M 15.365 7.2336 C 15.34647 7.33547 15.32125 7.4371 15.31422 7.5375 14.41077 12.6441 13.49692 17.7495 12.59942 22.8575 12.59508 22.88635 12.6018 22.91223 12.59942 22.94062 L 14.62872 22.94062 C 14.70348 22.53324 14.73679 22.1026 14.8377 21.71462 15.68204 16.94102 16.5365 12.17012 17.3748 7.394619 17.38163 7.340435 17.37866 7.287239 17.3787 7.233579 z " />
    <path
       style="stroke:none;fill-rule:evenodd;opacity:1;fill:rgb(255,255,255);"
       transform="matrix(1.00 0.00 0.00 1.00 164.00 84.00 ) "
       id="157"
       d="M 19.044 9.4746 26.3067 15.0582 19.044 20.6101 19.05279 18.3241 23.34899 15.0261 19.04409 11.7416 z " />
    <text
       id="158"
       x="164"
       y="119"
       style="font-size:11px;font-family:'Microsoft Sans Serif';opacity:1;fill:#000000;stroke:none"
       clip-path="url(#160_text_clipper)"><tspan
         dy="8.25pt"
         id="162">Heading</tspan></text>
    <line
       y1="19.00"
       style="stroke:rgb(169,169,169);fill:none;stroke-linecap:butt;stroke-miterlimit:9;opacity:1;stroke-width:1;stroke-linejoin:miter;"
       id="164"
       x2="118.00"
       y2="19.00"
       x1="80.00" />
    <ellipse
       id="165"
       cy="15.00"
       cx="15.00"
       transform="matrix(1.00 0.00 0.00 1.00 84.00 84.00 ) "
       rx="15.00"
       ry="15.00"
       style="stroke:none;opacity:1;fill:rgb(68,154,223);" />
    <path
       d="M 19.156 13.888 19.156 10.3647 19.156 6.841399 25.2585 10.3647 22.2072 12.1264 z "
       style="stroke:none;fill-rule:evenodd;opacity:1;fill:rgb(255,255,255);"
       transform="matrix(1.00 0.00 0.00 1.00 84.00 84.00 ) "
       id="166" />
    <path
       d="M 19.156 22.97 19.156 19.4467 19.156 15.9234 25.2585 19.4467 22.2072 21.2084 z "
       style="stroke:none;fill-rule:evenodd;opacity:1;fill:rgb(255,255,255);"
       transform="matrix(1.00 0.00 0.00 1.00 84.00 84.00 ) "
       id="167" />
    <path
       d="M 5.5001 19.484 10.6493 19.484 16.2743 10.2485 19.3728 10.2485 M 14.6769 17.1481 16.3089 19.4828 19.2202 19.4828 M 5.500199 10.2437 10.7586 10.2437 12.1652 12.8707 "
       style="stroke:rgb(255,255,255);fill:none;stroke-linecap:butt;stroke-miterlimit:9;opacity:1;stroke-width:2;stroke-linejoin:miter;"
       transform="matrix(1.00 0.00 0.00 1.00 84.00 84.00 ) "
       id="168" />
    <text
       id="169"
       x="84"
       y="119"
       style="font-size:11px;font-family:'Microsoft Sans Serif';opacity:1;fill:#000000;stroke:none"
       clip-path="url(#171_text_clipper)"><tspan
         dy="8.25pt"
         id="173">Quaternion</tspan></text>
    <path
       style="stroke:rgb(169,169,169);fill:none;stroke-linecap:butt;stroke-miterlimit:9;opacity:1;stroke-width:2;stroke-linejoin:miter;"
       transform="matrix(1.00 0.00 0.00 1.00 4.00 4.00 ) "
       id="175"
       d="M 31.179 5.2 C 34.9985 11.0918 34.9814 18.682 31.13552 24.557 " />
    <ellipse
       id="176"
       cy="15.00"
       cx="15.00"
       transform="matrix(1.00 0.00 0.00 1.00 4.00 4.00 ) "
       rx="15.00"
       ry="15.00"
       style="stroke:none;opacity:1;fill:rgb(91,178,126);" />
    <rect
       id="177"
       height="13.14"
       style="stroke:none;opacity:1;fill:rgb(255,255,255);"
       transform="matrix(1.00 0.00 0.00 1.00 4.00 4.00 ) "
       width="10.75"
       y="4.57"
       x="9.66" />
    <rect
       id="178"
       height="3.64"
       style="stroke:none;opacity:1;fill:rgb(255,255,255);"
       transform="matrix(1.00 0.00 0.00 1.00 4.00 4.00 ) "
       width="6.62"
       y="16.68"
       x="11.72" />
    <path
       style="stroke:rgb(255,255,255);fill:none;stroke-linecap:butt;stroke-miterlimit:9;opacity:1;stroke-width:0.878745;stroke-linejoin:miter;"
       transform="matrix(1.00 0.00 0.00 1.00 4.00 4.00 ) "
       id="179"
       d="M 12.54858 21.20126 10.19729 25.84716 " />
    <path
       style="stroke:rgb(255,255,255);fill:none;stroke-linecap:butt;stroke-miterlimit:9;opacity:1;stroke-width:0.866585;stroke-linejoin:miter;"
       transform="matrix(1.00 0.00 0.00 1.00 4.00 4.00 ) "
       id="180"
       d="M 14.15625 21.12463 13.13978 25.92379 " />
    <path
       style="stroke:rgb(255,255,255);fill:none;stroke-linecap:butt;stroke-miterlimit:9;opacity:1;stroke-width:0.878745;stroke-linejoin:miter;"
       transform="matrix(1.00 0.00 0.00 1.00 4.00 4.00 ) "
       id="181"
       d="M 17.40598 21.20126 19.75727 25.84716 " />
    <path
       style="stroke:rgb(255,255,255);fill:none;stroke-linecap:butt;stroke-miterlimit:9;opacity:1;stroke-width:0.866585;stroke-linejoin:miter;"
       transform="matrix(1.00 0.00 0.00 1.00 4.00 4.00 ) "
       id="182"
       d="M 15.79831 21.07344 16.48332 25.97498 " />
    <text
       id="183"
       x="4"
       y="39"
       style="font-size:11px;font-family:'Microsoft Sans Serif';opacity:1;fill:#000000;stroke:none"
       clip-path="url(#185_text_clipper)"><tspan
         dy="8.25pt"
         id="187">UCLA</tspan></text>
    <text
       id="189"
       x="4"
       y="51.450001"
       style="font-size:11px;font-family:'Microsoft Sans Serif';opacity:1;fill:#000000;stroke:none"
       clip-path="url(#191_text_clipper)"><tspan
         dy="8.25pt"
         id="193">MiniscopeV4</tspan></text>
  </g>
  <defs
     id="clips_hatches_and_gradients">
    <clipPath
       id="117_text_clipper">
      <rect
         x="324.00"
         y="39.00"
         width="62.97"
         height="13.83"
         id="118" />
    </clipPath>
    <clipPath
       id="128_text_clipper">
      <rect
         x="324.00"
         y="119.00"
         width="65.99"
         height="13.83"
         id="129" />
    </clipPath>
    <clipPath
       id="138_text_clipper">
      <rect
         x="244.00"
         y="39.00"
         width="35.15"
         height="13.83"
         id="139" />
    </clipPath>
    <clipPath
       id="149_text_clipper">
      <rect
         x="244.00"
         y="119.00"
         width="53.45"
         height="13.83"
         id="150" />
    </clipPath>
    <clipPath
       id="160_text_clipper">
      <rect
         x="164.00"
         y="119.00"
         width="45.93"
         height="13.83"
         id="161" />
    </clipPath>
    <clipPath
       id="171_text_clipper">
      <rect
         x="84.00"
         y="119.00"
         width="59.78"
         height="13.83"
         id="172" />
    </clipPath>
    <clipPath
       id="185_text_clipper">
      <rect
         x="4.00"
         y="39.00"
         width="68.66"
         height="27.65"
         id="186" />
    </clipPath>
    <clipPath
       id="191_text_clipper">
      <rect
         x="4.00"
         y="51.45"
         width="68.66"
         height="27.65"
         id="192" />
    </clipPath>
  </defs>
  <g
     inkscape:groupmode="layer"
     id="layer1"
     inkscape:label="1">
    <rect
       style="opacity:1;fill:none;fill-opacity:1;stroke:#ff0000;stroke-width:1.0414;stroke-miterlimit:10;stroke-dasharray:none;stroke-opacity:1"
       id="rect4687"
       width="73.958603"
       height="73.958595"
       x="0.52069998"
       y="0.52069998" />
  </g>
</svg>
