<?xml version="1.0" encoding="UTF-8" standalone="no"?>
<svg
   width="320"
   height="160"
   id="SvgGdi_output"
   version="1.1"
   sodipodi:docname="uclaminiscopev4-miniscopedaq-savedata_quart-data.svg"
   inkscape:version="1.2.2 (732a01da63, 2022-12-09)"
   xml:space="preserve"
   xmlns:inkscape="http://www.inkscape.org/namespaces/inkscape"
   xmlns:sodipodi="http://sodipodi.sourceforge.net/DTD/sodipodi-0.dtd"
   xmlns="http://www.w3.org/2000/svg"
   xmlns:svg="http://www.w3.org/2000/svg"><sodipodi:namedview
     id="namedview145"
     pagecolor="#ffffff"
     bordercolor="#999999"
     borderopacity="1"
     inkscape:showpageshadow="0"
     inkscape:pageopacity="0"
     inkscape:pagecheckerboard="0"
     inkscape:deskcolor="#d1d1d1"
     showgrid="false"
     showguides="true"
     inkscape:zoom="3.3857232"
     inkscape:cx="139.40892"
     inkscape:cy="72.658037"
     inkscape:window-width="1920"
     inkscape:window-height="1057"
     inkscape:window-x="-8"
     inkscape:window-y="-8"
     inkscape:window-maximized="1"
     inkscape:current-layer="SvgGdi_output"><sodipodi:guide
       position="80,160"
       orientation="-1,0"
       id="guide2388"
       inkscape:locked="false"
       inkscape:label=""
       inkscape:color="rgb(0,134,229)" /><sodipodi:guide
       position="0,80"
       orientation="0,1"
       id="guide3170"
       inkscape:locked="false"
       inkscape:label=""
       inkscape:color="rgb(0,134,229)" /></sodipodi:namedview><defs
     id="clips_hatches_and_gradients"><clipPath
       id="158_text_clipper"><rect
         x="244"
         y="39"
         width="35.150002"
         height="13.83"
         id="159" /></clipPath><clipPath
       id="169_text_clipper"><rect
         x="244"
         y="119"
         width="53.450001"
         height="13.83"
         id="170" /></clipPath><clipPath
       id="178_text_clipper"><rect
         x="164"
         y="119"
         width="59.759998"
         height="13.83"
         id="179" /></clipPath><clipPath
       id="189_text_clipper"><rect
         x="84"
         y="119"
         width="59.779999"
         height="41.48"
         id="190" /></clipPath><clipPath
       id="195_text_clipper"><rect
         x="84"
         y="131.45"
         width="59.779999"
         height="41.48"
         id="196" /></clipPath><clipPath
       id="201_text_clipper"><rect
         x="84"
         y="143.89999"
         width="59.779999"
         height="41.48"
         id="202" /></clipPath><clipPath
       id="215_text_clipper"><rect
         x="4"
         y="39"
         width="68.660004"
         height="27.65"
         id="216" /></clipPath><clipPath
       id="221_text_clipper"><rect
         x="4"
         y="51.450001"
         width="68.660004"
         height="27.65"
         id="222" /></clipPath><clipPath
       id="84_text_clipper"><rect
         x="244.00"
         y="39.00"
         width="62.97"
         height="13.83"
         id="85" /></clipPath><clipPath
       id="95_text_clipper"><rect
         x="244.00"
         y="119.00"
         width="53.45"
         height="13.83"
         id="96" /></clipPath><clipPath
       id="105_text_clipper"><rect
         x="164.00"
         y="39.00"
         width="35.15"
         height="13.83"
         id="106" /></clipPath><clipPath
       id="113_text_clipper"><rect
         x="164.00"
         y="119.00"
         width="59.76"
         height="13.83"
         id="114" /></clipPath><clipPath
       id="124_text_clipper"><rect
         x="84.00"
         y="119.00"
         width="59.78"
         height="41.48"
         id="125" /></clipPath><clipPath
       id="130_text_clipper"><rect
         x="84.00"
         y="131.45"
         width="59.78"
         height="41.48"
         id="131" /></clipPath><clipPath
       id="136_text_clipper"><rect
         x="84.00"
         y="143.90"
         width="59.78"
         height="41.48"
         id="137" /></clipPath><clipPath
       id="150_text_clipper"><rect
         x="4.00"
         y="39.00"
         width="68.66"
         height="27.65"
         id="151" /></clipPath><clipPath
       id="156_text_clipper"><rect
         x="4.00"
         y="51.45"
         width="68.66"
         height="27.65"
         id="157" /></clipPath></defs><g
     id="g12995"><rect
       id="background"
       height="100%"
       style="fill:#ffffff"
       width="100%"
       y="0"
       x="0" /><g
       style="shape-rendering:auto"
       id="root_group"><line
         y1="19"
         style="opacity:1;fill:none;stroke:#a9a9a9;stroke-width:1;stroke-linecap:butt;stroke-linejoin:miter;stroke-miterlimit:9"
         id="72"
         x2="240"
         y2="19"
         x1="198" /><line
         y1="99"
         style="opacity:1;fill:none;stroke:#a9a9a9;stroke-width:1;stroke-linecap:butt;stroke-linejoin:miter;stroke-miterlimit:9"
         id="73"
         x2="240"
         y2="99"
         x1="198" /><line
         y1="19"
         style="opacity:1;fill:none;stroke:#a9a9a9;stroke-width:1;stroke-linecap:butt;stroke-linejoin:miter;stroke-miterlimit:9"
         id="74"
         x2="160"
         y2="19"
         x1="118" /><line
         y1="99"
         style="opacity:1;fill:none;stroke:#a9a9a9;stroke-width:1;stroke-linecap:butt;stroke-linejoin:miter;stroke-miterlimit:9"
         id="75"
         x2="160"
         y2="99"
         x1="118" /><line
         y1="19"
         style="opacity:1;fill:none;stroke:#a9a9a9;stroke-width:1;stroke-linecap:butt;stroke-linejoin:miter;stroke-miterlimit:9"
         id="76"
         x2="80"
         y2="19"
         x1="38" /><line
         y1="19"
         style="opacity:1;fill:none;stroke:#a9a9a9;stroke-width:1;stroke-linecap:butt;stroke-linejoin:miter;stroke-miterlimit:9"
         id="77"
         x2="80"
         y2="99"
         x1="38" /><path
         d="M 10.158,33.2 C 3.4054,31.7591 -1.861,26.4692 -3.271,19.71"
         style="opacity:1;fill:none;stroke:#a9a9a9;stroke-width:2;stroke-linecap:butt;stroke-linejoin:miter;stroke-miterlimit:9"
         transform="translate(244,4)"
         id="78" /><circle
         id="79"
         cy="15"
         cx="15"
         transform="translate(244,4)"
         style="opacity:1;fill:#9b5bb3;stroke:none"
         r="15" /><path
         style="opacity:1;fill:#ffffff;fill-rule:evenodd;stroke:none"
         transform="translate(244,4)"
         id="80"
         d="m 23.75,9.1 -4.1913,2.4211 v 6.8726 l 4.1913,2.421 z" /><path
         style="opacity:1;fill:#ffffff;fill-rule:evenodd;stroke:none"
         transform="translate(244,4)"
         id="81"
         d="m 8.6927,9.2 h 7.0267 c 1.4706,0 2.6545,1.2337 2.6545,2.7661 v 5.8573 c 0,1.5324 -1.1839,2.7659 -2.6545,2.7659 H 8.692701 c -1.4706,0 -2.6545,-1.2335 -2.6545,-2.7659 v -5.8573 c 0,-1.5324 1.1839,-2.766101 2.6545,-2.766101 z" /><text
         id="82"
         x="244"
         y="39"
         style="font-size:11px;font-family:'Microsoft Sans Serif';opacity:1;fill:#000000;stroke:none"
         clip-path="url(#84_text_clipper)"><tspan
           dy="8.25pt"
           id="86">VideoWriter</tspan></text><path
         d="M 10.158,33.2 C 3.4054,31.7591 -1.861,26.4692 -3.271,19.71"
         style="opacity:1;fill:none;stroke:#a9a9a9;stroke-width:2;stroke-linecap:butt;stroke-linejoin:miter;stroke-miterlimit:9"
         transform="translate(244,84)"
         id="88" /><circle
         id="89"
         cy="15"
         cx="15"
         transform="translate(244,84)"
         style="opacity:1;fill:#9b5bb3;stroke:none"
         r="15" /><path
         style="opacity:1;fill:none;stroke:#ffffff;stroke-width:2;stroke-linecap:butt;stroke-linejoin:miter;stroke-miterlimit:9"
         transform="translate(244,84)"
         id="90"
         d="M 7.3965,19.566 V 10.8433" /><path
         style="opacity:1;fill:none;stroke:#ffffff;stroke-width:2;stroke-linecap:butt;stroke-linejoin:miter;stroke-miterlimit:9"
         transform="translate(244,84)"
         id="91"
         d="M 11.085,22.137 14.2178,8.273999" /><circle
         id="92"
         cy="15.15"
         cx="20.49"
         transform="translate(244,84)"
         style="opacity:1;fill:none;stroke:#ffffff;stroke-width:2;stroke-linecap:butt;stroke-linejoin:miter;stroke-miterlimit:9"
         r="4.1799998" /><text
         id="93"
         x="244"
         y="119"
         style="font-size:11px;font-family:'Microsoft Sans Serif';opacity:1;fill:#000000;stroke:none"
         clip-path="url(#95_text_clipper)"><tspan
           dy="8.25pt"
           id="97">CsvWriter</tspan></text><circle
         id="99"
         cy="15"
         cx="15"
         transform="translate(164,4)"
         style="opacity:1;fill:#449adf;stroke:none"
         r="15" /><path
         d="M 19.156,13.888 V 10.3647 6.841399 l 6.1025,3.523301 -3.0513,1.7617 z"
         style="opacity:1;fill:#ffffff;fill-rule:evenodd;stroke:none"
         transform="translate(164,4)"
         id="100" /><path
         d="m 19.156,22.97 v -3.5233 -3.5233 l 6.1025,3.5233 -3.0513,1.7617 z"
         style="opacity:1;fill:#ffffff;fill-rule:evenodd;stroke:none"
         transform="translate(164,4)"
         id="101" /><path
         d="m 5.5001,19.484 h 5.1492 l 5.625,-9.2355 h 3.0985 m -4.6959,6.8996 1.632,2.3347 h 2.9113 M 5.500199,10.2437 H 10.7586 l 1.4066,2.627"
         style="opacity:1;fill:none;stroke:#ffffff;stroke-width:2;stroke-linecap:butt;stroke-linejoin:miter;stroke-miterlimit:9"
         transform="translate(164,4)"
         id="102" /><text
         id="103"
         x="164"
         y="39"
         style="font-size:11px;font-family:'Microsoft Sans Serif';opacity:1;fill:#000000;stroke:none"
         clip-path="url(#105_text_clipper)"><tspan
           dy="8.25pt"
           id="107">Image</tspan></text><circle
         id="109"
         cy="15"
         cx="15"
         transform="translate(164,84)"
         style="opacity:1;fill:#eec04b;stroke:none"
         r="15" /><path
         style="opacity:1;fill:#ffffff;fill-rule:evenodd;stroke:none"
         transform="translate(164,84)"
         id="110"
         d="m 12.246,6.0137 v 0.00586 c -0.18794,7e-4 -0.35129,0.020875 -0.47852,0.046875 -0.89879,0.286301 -0.87117,0.86794 -1.8906,1.6191 -1.013501,0.578801 -1.5235,0.13438 -2.2617,0.73438 -0.73673,0.5956 -0.22226,1.962596 -0.53125,2.228496 -0.30671,0.5316 -1.2584,1.0063 -1.4316,1.6777 -0.14317,0.8587 0.38958,1.4709 0.36914,2.207 0.0614,0.6133 -0.6102,0.96178 -0.51367,1.459 0.28922,0.8121 0.84658,1.3001 1.1094,1.5254 0.046151,0.032 0.082828,0.08099 0.097656,0.08399 0.075857,0.1905 0.14373,0.38495 0.24023,0.56445 -0.00548,-0.026 -0.00651,-0.05213 -0.011719,-0.07813 0.054861,0.2176 0.11171,0.43619 0.189449,0.65039 1.5503,3.3608 5.681304,5.9479 10.209004,5.3789 2.1992,-0.2694 5.4826,-1.7854 6.8242,-5.3789 -0.94558,0.8485 -2.6345,1.586 -3.3887,1.6426 2.5527,-1.2757 3.9298,-3.4434 3.54299,-6.4062 -0.52877,1.2588 -1.2269,2.2267 -2.0996,2.8906 1.8538,-2.8897 1.5362,-4.3839 0.16407,-6.0254 0.98137,2.699 -0.28759,5.6945 -3.0527,7.8242 1.1203,0.1214 2.18449,-0.14787 3.1699,-0.95117 -1.4888,1.6607 -3.3523,2.4955 -5.4883,2.7227 1.0199,0.867 2.0045,1.259 2.9453,1.0918 -2.6144,0.7215 -4.8042,-0.07306 -7.4688,-2.7266 -0.13948,0.7143 0.61496,1.8268 1.3926,2.5371 -4.509502,-1.955 -4.906603,-8.042 0.58594,-9.5449 0.0033,0 0.0065,9e-4 0.0098,0 3.2713,1.9138 7.3868,1.7879 7.5723,0.55078 0.45807,-1.4829 -2.0857,-4.538497 -5.8887,-5.335897 -0.70028,-0.1367 -1.3698,-0.190479 -2.0078,-0.17188 0.01278,0 0.0243,2.39e-4 0.03711,-0.00977 -0.6074,-0.6489 -1.3815,-0.8145 -1.9453,-0.8125 z m 4.93169,3.033178 c 0.54604,0 1.0449,0.49697 1.0449,1.043002 0,0.5461 -0.49888,1.043 -1.0449,1.043 -0.54604,0 -1.043,-0.49687 -1.043,-1.043 5e-5,-0.546001 0.49693,-1.043102 1.043,-1.043002 z" /><text
         id="111"
         x="164"
         y="119"
         style="font-size:11px;font-family:'Microsoft Sans Serif';opacity:1;fill:#000000;stroke:none"
         clip-path="url(#113_text_clipper)"><tspan
           dy="8.25pt"
           id="115">Timestamp</tspan></text><line
         y1="19"
         style="opacity:1;fill:none;stroke:#a9a9a9;stroke-width:1;stroke-linecap:butt;stroke-linejoin:miter;stroke-miterlimit:9"
         id="117"
         x2="118"
         y2="19"
         x1="80" /><circle
         id="118"
         cy="15"
         cx="15"
         transform="translate(84,84)"
         style="opacity:1;fill:#449adf;stroke:none"
         r="15" /><path
         d="M 19.156,13.888 V 10.3647 6.841399 l 6.1025,3.523301 -3.0513,1.7617 z"
         style="opacity:1;fill:#ffffff;fill-rule:evenodd;stroke:none"
         transform="translate(84,84)"
         id="119" /><path
         d="m 19.156,22.97 v -3.5233 -3.5233 l 6.1025,3.5233 -3.0513,1.7617 z"
         style="opacity:1;fill:#ffffff;fill-rule:evenodd;stroke:none"
         transform="translate(84,84)"
         id="120" /><path
         d="m 5.5001,19.484 h 5.1492 l 5.625,-9.2355 h 3.0985 m -4.6959,6.8996 1.632,2.3347 h 2.9113 M 5.500199,10.2437 H 10.7586 l 1.4066,2.627"
         style="opacity:1;fill:none;stroke:#ffffff;stroke-width:2;stroke-linecap:butt;stroke-linejoin:miter;stroke-miterlimit:9"
         transform="translate(84,84)"
         id="121" /><text
         id="122"
         x="84"
         y="119"
         style="font-size:11px;font-family:'Microsoft Sans Serif';opacity:1;fill:#000000;stroke:none"
         clip-path="url(#124_text_clipper)"><tspan
           dy="8.25pt"
           id="126">Frame</tspan></text><text
         id="128"
         x="84"
         y="131.45"
         style="font-size:11px;font-family:'Microsoft Sans Serif';opacity:1;fill:#000000;stroke:none"
         clip-path="url(#130_text_clipper)"><tspan
           dy="8.25pt"
           id="132">Number,</tspan></text><text
         id="134"
         x="84"
         y="143.89999"
         style="font-size:11px;font-family:'Microsoft Sans Serif';opacity:1;fill:#000000;stroke:none"
         clip-path="url(#136_text_clipper)"><tspan
           dy="8.25pt"
           id="138">Quaternion</tspan></text><path
         style="opacity:1;fill:none;stroke:#a9a9a9;stroke-width:2;stroke-linecap:butt;stroke-linejoin:miter;stroke-miterlimit:9"
         transform="translate(4,4)"
         id="140"
         d="m 31.179,5.2 c 3.8195,5.8918 3.8024,13.482 -0.04348,19.357" /><circle
         id="141"
         cy="15"
         cx="15"
         transform="translate(4,4)"
         style="opacity:1;fill:#5bb27e;stroke:none"
         r="15" /><rect
         id="142"
         height="13.14"
         style="opacity:1;fill:#ffffff;stroke:none"
         transform="translate(4,4)"
         width="10.75"
         y="4.5700002"
         x="9.6599998" /><rect
         id="143"
         height="3.6400001"
         style="opacity:1;fill:#ffffff;stroke:none"
         transform="translate(4,4)"
         width="6.6199999"
         y="16.68"
         x="11.72" /><path
         style="opacity:1;fill:none;stroke:#ffffff;stroke-width:0.878745;stroke-linecap:butt;stroke-linejoin:miter;stroke-miterlimit:9"
         transform="translate(4,4)"
         id="144"
         d="m 12.54858,21.20126 -2.35129,4.6459" /><path
         style="opacity:1;fill:none;stroke:#ffffff;stroke-width:0.866585;stroke-linecap:butt;stroke-linejoin:miter;stroke-miterlimit:9"
         transform="translate(4,4)"
         id="145"
         d="m 14.15625,21.12463 -1.01647,4.79916" /><path
         style="opacity:1;fill:none;stroke:#ffffff;stroke-width:0.878745;stroke-linecap:butt;stroke-linejoin:miter;stroke-miterlimit:9"
         transform="translate(4,4)"
         id="146"
         d="m 17.40598,21.20126 2.35129,4.6459" /><path
         style="opacity:1;fill:none;stroke:#ffffff;stroke-width:0.866585;stroke-linecap:butt;stroke-linejoin:miter;stroke-miterlimit:9"
         transform="translate(4,4)"
         id="147"
         d="m 15.79831,21.07344 0.68501,4.90154" /><text
         id="148"
         x="4"
         y="39"
         style="font-size:11px;font-family:'Microsoft Sans Serif';opacity:1;fill:#000000;stroke:none"
         clip-path="url(#150_text_clipper)"><tspan
           dy="8.25pt"
           id="152">Ucla</tspan></text><text
         id="154"
         x="4"
         y="51.450001"
         style="font-size:11px;font-family:'Microsoft Sans Serif';opacity:1;fill:#000000;stroke:none"
         clip-path="url(#156_text_clipper)"><tspan
           dy="8.25pt"
           id="158">MiniscopeV4</tspan></text></g></g><rect
     style="fill:none;stroke:#ff0000;stroke-width:0.999999;stroke-miterlimit:10;stroke-dasharray:none;stroke-opacity:1"
     id="rect303"
     width="239"
     height="79"
     x="80.500008"
     y="80.5" /></svg>
