<?xml version="1.0" standalone="yes"?><!DOCTYPE svg PUBLIC "-//W3C//DTD SVG 1.1//EN" "http://www.w3.org/Graphics/SVG/1.1/DTD/svg11.dtd"[
<!ENTITY E35 'stroke:none;opacity:1;fill:rgb(68,154,223);'><!ENTITY E28 'stroke:none;fill-rule:evenodd;opacity:1;fill:rgb(128,128,128);'><!ENTITY E44 'matrix(1.00 0.00 0.00 1.00 164.00 84.00 ) '><!ENTITY E34 'matrix(1.00 0.00 0.00 1.00 244.00 164.00 ) '><!ENTITY E29 'matrix(1.00 0.00 0.00 1.00 244.00 84.00 ) '><!ENTITY E9 'matrix(1.00 0.00 0.00 1.00 0.00 0.00 ) '><!ENTITY E6 'stroke:none;opacity:1;fill:rgb(155,91,179);'><!ENTITY E38 'M 5.5001 19.484 10.6493 19.484 16.2743 10.2485 19.3728 10.2485 M 14.6769 17.1481 16.3089 19.4828 19.2202 19.4828 M 5.500199 10.2437 10.7586 10.2437 12.1652 12.8707 '><!ENTITY E4 'stroke:rgb(169,169,169);fill:none;stroke-linecap:butt;stroke-miterlimit:9;opacity:1;stroke-width:2;stroke-linejoin:miter;'><!ENTITY E2 'stroke-dasharray:4.00 2.00 ;stroke:rgb(169,169,169);fill:none;stroke-linecap:butt;stroke-miterlimit:9;opacity:1;stroke-width:1;stroke-linejoin:miter;'><!ENTITY E18 'matrix(1.00 0.00 0.00 1.00 324.00 164.00 ) '><!ENTITY E36 'M 19.156 13.888 19.156 10.3647 19.156 6.841399 25.2585 10.3647 22.2072 12.1264 z '><!ENTITY E30 'M 21.674 13.548 18.8144 13.548 18.10854 16.3624 20.66044 16.3624 20.66044 18.5343 17.56554 18.5343 16.74204 21.7378 14.56114 21.7378 15.36654 18.5343 12.97744 18.5343 12.17204 21.7378 9.954938 21.7378 10.76939 18.5343 8.325989 18.5343 8.325989 16.3624 11.31229 16.3624 12.0091 13.548 9.357598 13.548 9.357598 11.3852 12.5521 11.3852 13.33035 8.263101 15.54745 8.263101 14.7692 11.3852 17.1492 11.3852 17.9365 8.263101 20.1536 8.263101 19.3663 11.3852 21.6739 11.3852 z M 16.6425 13.5299 14.2172 13.5299 13.49324 16.3895 15.92754 16.3895 z '><!ENTITY E37 'M 19.156 22.97 19.156 19.4467 19.156 15.9234 25.2585 19.4467 22.2072 21.2084 z '><!ENTITY E27 'M 15 0 C 15.40124 0 15.79355 0 16.1868 0.032679 L 17.4764 1.671279 C 18.19501 1.803959 18.878 1.976879 19.5521 2.217729 L 21.4286 1.483419 C 22.13968 1.823279 22.8289 2.226899 23.4726 2.670219 L 23.8493 4.621219 C 24.39461 5.086599 24.9133 5.605469 25.3788 6.150719 L 27.3298 6.494379 C 27.77262 7.137679 28.17707 7.860779 28.5166 8.57128 L 27.74584 10.44788 C 27.98674 11.12204 28.19601 11.80508 28.32852 12.52348 L 29.96712 13.81308 C 29.99807 14.2062 30.00009 14.59888 30.00009 14.99988 30.00009 15.39224 29.99671 15.76908 29.96712 16.15388 L 28.32852 17.43998 C 28.19832 18.14633 28.01721 18.85248 27.78226 19.51558 L 28.51657 21.42868 C 28.17593 22.14291 27.77461 22.82648 27.32977 23.47268 L 25.37877 23.81302 C 24.91321 24.35829 24.39455 24.87682 23.84927 25.34242 L 23.47257 27.32992 C 22.82847 27.77371 22.14007 28.17669 21.42857 28.51662 L 19.51567 27.74597 C 18.85121 27.98162 18.18377 28.19809 17.47627 28.32876 L 16.18677 29.93436 C 15.79348 29.965 15.40117 29.99982 14.99997 29.99982 14.59873 29.99982 14.17345 29.96607 13.78017 29.93436 L 12.55997 28.32876 C 11.86172 28.19999 11.14067 27.977 10.48427 27.74597 L 8.571372 28.51662 C 7.856242 28.17558 7.174472 27.7755 6.527372 27.32992 L 6.150662 25.30622 C 5.617232 24.84794 5.114162 24.34789 4.657562 23.81302 L 2.670162 23.47268 C 2.225282 22.82649 1.823962 22.14288 1.483362 21.42868 L 2.254122 19.51558 C 2.022912 18.85918 1.800192 18.13838 1.671442 17.43998 L 0.06584227 16.18678 C 0.03489427 15.79366 -9.272993E-05 15.4013 -9.272993E-05 14.99998 -9.272993E-05 14.59894 0.03489527 14.20625 0.06584227 13.81318 L 1.671442 12.52358 C 1.801892 11.81616 2.018542 11.14888 2.254122 10.48438 L 1.483362 8.571277 C 1.822922 7.860797 2.227392 7.137677 2.670162 6.494377 L 4.657562 6.150717 C 5.114192 5.615747 5.617242 5.115817 6.150662 4.657517 L 6.527372 2.670117 C 7.174102 2.224717 7.856672 1.824207 8.571372 1.483317 L 10.48427 2.217627 C 11.14757 1.982687 11.85387 1.801607 12.55997 1.671177 L 13.84607 0.0325768 C 14.23082 0.003004799 14.60761 -0.0001021996 14.99987 -0.0001021996 z '><!ENTITY E13 'stroke:rgb(255,255,255);fill:none;stroke-linecap:butt;stroke-miterlimit:9;opacity:1;stroke-width:2;stroke-linejoin:miter;'><!ENTITY E1 'stroke:rgb(169,169,169);fill:none;stroke-linecap:butt;stroke-miterlimit:9;opacity:1;stroke-width:1;stroke-linejoin:miter;'><!ENTITY E7 'stroke:none;opacity:1;fill:rgb(255,255,255);'><!ENTITY E42 'matrix(1.00 0.00 0.00 1.00 164.00 4.00 ) '><!ENTITY E52 'matrix(1.00 0.00 0.00 1.00 4.00 4.00 ) '><!ENTITY E47 'matrix(1.00 0.00 0.00 1.00 84.00 4.00 ) '><!ENTITY E23 'matrix(1.00 0.00 0.00 1.00 244.00 4.00 ) '><!ENTITY E59 'stroke:rgb(0,0,0);fill:rgb(0,0,0);'><!ENTITY E3 'M 10.158 33.2 C 3.4054 31.7591 -1.861 26.4692 -3.271 19.71 '><!ENTITY E5 'matrix(1.00 0.00 0.00 1.00 404.00 4.00 ) '><!ENTITY E19 'stroke:none;opacity:1;fill:rgb(238,192,75);'><!ENTITY E21 'stroke:none;fill-rule:evenodd;opacity:1;fill:rgb(255,255,255);'><!ENTITY E11 'matrix(1.00 0.00 0.00 1.00 404.00 164.00 ) '>
]><svg width="458.446" height="240.4756" id="SvgGdi_output" xmlns="http://www.w3.org/2000/svg" xmlns:xlink="http://www.w3.org/1999/xlink"><rect id="background" height="100.00%" style="fill:rgb(255,255,255);" width="100.00%" y="0.00" x="0.00" /><g style="shape-rendering:auto;" id="root_group"><line y1="19.00" style="&E1;" id="245" x2="400.00" y2="19.00" x1="358.00" /><line y1="179.00" style="&E1;" id="246" x2="400.00" y2="179.00" x1="358.00" /><line y1="19.00" style="&E1;" id="247" x2="320.00" y2="19.00" x1="278.00" /><line y1="99.00" style="&E2;" id="248" x2="320.00" y2="19.00" x1="278.00" /><line y1="179.00" style="&E1;" id="249" x2="320.00" y2="179.00" x1="278.00" /><line y1="19.00" style="&E1;" id="250" x2="240.00" y2="19.00" x1="198.00" /><line y1="99.00" style="&E2;" id="251" x2="240.00" y2="19.00" x1="198.00" /><line y1="179.00" style="&E1;" id="252" x2="240.00" y2="179.00" x1="198.00" /><line y1="19.00" style="&E1;" id="253" x2="160.00" y2="19.00" x1="118.00" /><line y1="19.00" style="&E1;" id="254" x2="160.00" y2="179.00" x1="118.00" /><line y1="19.00" style="&E1;" id="255" x2="80.00" y2="19.00" x1="38.00" /><path d="&E3;" style="&E4;" transform="&E5;" id="256" /><ellipse id="257" cy="15.00" cx="15.00" transform="&E5;" rx="15.00" ry="15.00" style="&E6;" /><ellipse id="258" cy="9.06" cx="15.01" transform="&E5;" rx="3.50" ry="3.50" style="&E7;" /><ellipse id="259" cy="18.49" cx="9.12" transform="&E5;" rx="3.50" ry="3.50" style="&E7;" /><ellipse id="260" cy="18.46" cx="20.88" transform="&E5;" rx="3.50" ry="3.50" style="&E7;" /><text id="261" transform="&E9;" x="404.00px" y="39.00px" style="stroke:none;clip-path:url(#263_text_clipper);font-family:Microsoft Sans Serif;fill:rgb(0,0,0);font-size:8.25pt;opacity:1;"><tspan dy="8.25pt" id="265">Workflow</tspan></text><text id="267" transform="&E9;" x="404.00px" y="51.45px" style="stroke:none;clip-path:url(#269_text_clipper);font-family:Microsoft Sans Serif;fill:rgb(0,0,0);font-size:8.25pt;opacity:1;"><tspan dy="8.25pt" id="271">Output</tspan></text><path d="&E3;" style="&E4;" transform="&E11;" id="273" /><ellipse id="274" cy="15.00" cx="15.00" transform="&E11;" rx="15.00" ry="15.00" style="&E6;" /><path style="&E13;" transform="&E11;" id="275" d="M 7.3965 19.566 7.3965 10.8433 " /><path style="&E13;" transform="&E11;" id="276" d="M 11.085 22.137 14.2178 8.273999 " /><ellipse id="277" cy="15.15" cx="20.49" transform="&E11;" rx="4.18" ry="4.18" style="&E13;" /><text id="278" transform="&E9;" x="404.00px" y="199.00px" style="stroke:none;clip-path:url(#280_text_clipper);font-family:Microsoft Sans Serif;fill:rgb(0,0,0);font-size:8.25pt;opacity:1;"><tspan dy="8.25pt" id="282">CsvWriter</tspan></text><ellipse id="284" cy="19.00" cx="339.00" rx="15.00" ry="15.00" style="stroke:none;opacity:1;fill:rgb(169,169,169);" /><ellipse id="285" cy="19.00" cx="339.00" rx="15.00" ry="15.00" style="fill:url(#286_HatchBrush);" /><text id="290" transform="&E9;" x="324.00px" y="39.00px" style="stroke:none;clip-path:url(#292_text_clipper);font-family:Microsoft Sans Serif;fill:rgb(0,0,0);font-size:8.25pt;opacity:1;"><tspan dy="8.25pt" id="294">VideoWriter</tspan></text><ellipse id="296" cy="15.00" cx="15.00" transform="&E18;" rx="15.00" ry="15.00" style="&E19;" /><path style="&E21;" transform="&E18;" id="297" d="M 12.246 6.0137 12.246 6.019559 C 12.05806 6.020259 11.89471 6.040434 11.76748 6.066434 10.86869 6.352735 10.89631 6.934374 9.87688 7.685534 8.863379 8.264335 8.35338 7.819914 7.61518 8.419914 6.87845 9.015514 7.39292 10.38251 7.08393 10.64841 6.77722 11.18001 5.82553 11.65471 5.65233 12.32611 5.50916 13.18481 6.04191 13.79701 6.02147 14.53311 6.08287 15.14641 5.41127 15.49489 5.5078 15.99211 5.79702 16.80421 6.35438 17.29221 6.6172 17.51751 6.663351 17.54951 6.700028 17.5985 6.714856 17.6015 6.790713 17.792 6.858586 17.98645 6.955086 18.16595 6.949606 18.13995 6.948576 18.11382 6.943367 18.08782 6.998228 18.30542 7.055077 18.52401 7.132816 18.73821 8.683116 22.09901 12.81412 24.68611 17.34182 24.11711 19.54102 23.84771 22.82442 22.33171 24.16602 18.73821 23.22044 19.58671 21.53152 20.32421 20.77732 20.38081 23.33002 19.10511 24.70712 16.93741 24.32031 13.97461 23.79154 15.23341 23.09341 16.20131 22.22071 16.86521 24.07451 13.97551 23.75691 12.48131 22.38478 10.83981 23.36615 13.53881 22.09719 16.53431 19.33208 18.66401 20.45238 18.78541 21.51657 18.51614 22.50198 17.71284 21.01318 19.37354 19.14968 20.20834 17.01368 20.43554 18.03358 21.30254 19.01818 21.69454 19.95898 21.52734 17.34458 22.24884 15.15478 21.45428 12.49018 18.80074 12.3507 19.51504 13.10514 20.62754 13.88278 21.33784 9.373278 19.38284 8.976177 13.29584 14.46872 11.79294 14.47202 11.79294 14.47518 11.79384 14.47848 11.79294 17.74978 13.70674 21.86528 13.58084 22.05078 12.34372 22.50885 10.86082 19.96508 7.805223 16.16208 7.007823 15.4618 6.871123 14.79228 6.817344 14.15428 6.835943 14.16706 6.835943 14.17858 6.836182 14.19139 6.826178 13.58399 6.177278 12.80989 6.011678 12.24609 6.013678 z M 17.17769 9.046878 C 17.72373 9.046878 18.22259 9.543848 18.22259 10.08988 18.22259 10.63598 17.72371 11.13288 17.17769 11.13288 16.63165 11.13288 16.13469 10.63601 16.13469 10.08988 16.13474 9.543879 16.63162 9.046778 17.17769 9.046878 z " /><text id="298" transform="&E9;" x="324.00px" y="199.00px" style="stroke:none;clip-path:url(#300_text_clipper);font-family:Microsoft Sans Serif;fill:rgb(0,0,0);font-size:8.25pt;opacity:1;"><tspan dy="8.25pt" id="302">Timestamp</tspan></text><path d="&E3;" style="&E4;" transform="&E23;" id="304" /><ellipse id="305" cy="15.00" cx="15.00" transform="&E23;" rx="15.00" ry="15.00" style="&E6;" /><path style="&E21;" transform="&E23;" id="306" d="M 23.75 9.1 19.5587 11.5211 19.5587 18.3937 23.75 20.8147 z " /><path style="&E21;" transform="&E23;" id="307" d="M 8.6927 9.2 15.7194 9.2 C 17.19 9.2 18.3739 10.4337 18.3739 11.9661 L 18.3739 17.8234 C 18.3739 19.3558 17.19 20.5893 15.7194 20.5893 L 8.692701 20.5893 C 7.222101 20.5893 6.038201 19.3558 6.038201 17.8234 L 6.038201 11.9661 C 6.038201 10.4337 7.222101 9.199999 8.692701 9.199999 z " /><text id="308" transform="&E9;" x="244.00px" y="39.00px" style="stroke:none;clip-path:url(#310_text_clipper);font-family:Microsoft Sans Serif;fill:rgb(0,0,0);font-size:8.25pt;opacity:1;"><tspan dy="8.25pt" id="312">VideoWriter</tspan></text><path d="&E27;" style="&E28;" transform="&E29;" id="314" /><path d="&E30;" style="&E21;" transform="&E29;" id="315" /><text id="316" transform="&E9;" x="244.00px" y="119.00px" style="stroke:none;clip-path:url(#318_text_clipper);font-family:Microsoft Sans Serif;fill:rgb(0,0,0);font-size:8.25pt;opacity:1;"><tspan dy="8.25pt" id="320">Losslessly </tspan></text><text id="322" transform="&E9;" x="244.00px" y="131.45px" style="stroke:none;clip-path:url(#324_text_clipper);font-family:Microsoft Sans Serif;fill:rgb(0,0,0);font-size:8.25pt;opacity:1;"><tspan dy="8.25pt" id="326">Compresed </tspan></text><text id="328" transform="&E9;" x="244.00px" y="143.90px" style="stroke:none;clip-path:url(#330_text_clipper);font-family:Microsoft Sans Serif;fill:rgb(0,0,0);font-size:8.25pt;opacity:1;"><tspan dy="8.25pt" id="332">Video</tspan></text><ellipse id="334" cy="15.00" cx="15.00" transform="&E34;" rx="15.00" ry="15.00" style="&E35;" /><path d="&E36;" style="&E21;" transform="&E34;" id="335" /><path d="&E37;" style="&E21;" transform="&E34;" id="336" /><path d="&E38;" style="&E13;" transform="&E34;" id="337" /><text id="338" transform="&E9;" x="244.00px" y="199.00px" style="stroke:none;clip-path:url(#340_text_clipper);font-family:Microsoft Sans Serif;fill:rgb(0,0,0);font-size:8.25pt;opacity:1;"><tspan dy="8.25pt" id="342">Frame</tspan></text><text id="344" transform="&E9;" x="244.00px" y="211.45px" style="stroke:none;clip-path:url(#346_text_clipper);font-family:Microsoft Sans Serif;fill:rgb(0,0,0);font-size:8.25pt;opacity:1;"><tspan dy="8.25pt" id="348">Number,</tspan></text><text id="350" transform="&E9;" x="244.00px" y="223.90px" style="stroke:none;clip-path:url(#352_text_clipper);font-family:Microsoft Sans Serif;fill:rgb(0,0,0);font-size:8.25pt;opacity:1;"><tspan dy="8.25pt" id="354">Quaternion</tspan></text><ellipse id="356" cy="15.00" cx="15.00" transform="&E42;" rx="15.00" ry="15.00" style="&E35;" /><path d="&E36;" style="&E21;" transform="&E42;" id="357" /><path d="&E37;" style="&E21;" transform="&E42;" id="358" /><path d="&E38;" style="&E13;" transform="&E42;" id="359" /><text id="360" transform="&E9;" x="164.00px" y="39.00px" style="stroke:none;clip-path:url(#362_text_clipper);font-family:Microsoft Sans Serif;fill:rgb(0,0,0);font-size:8.25pt;opacity:1;"><tspan dy="8.25pt" id="364">Image</tspan></text><path d="&E27;" style="&E28;" transform="&E44;" id="366" /><path d="&E30;" style="&E21;" transform="&E44;" id="367" /><text id="368" transform="&E9;" x="164.00px" y="119.00px" style="stroke:none;clip-path:url(#370_text_clipper);font-family:Microsoft Sans Serif;fill:rgb(0,0,0);font-size:8.25pt;opacity:1;"><tspan dy="8.25pt" id="372">Uncompressed </tspan></text><text id="374" transform="&E9;" x="164.00px" y="131.45px" style="stroke:none;clip-path:url(#376_text_clipper);font-family:Microsoft Sans Serif;fill:rgb(0,0,0);font-size:8.25pt;opacity:1;"><tspan dy="8.25pt" id="378">Video</tspan></text><line y1="179.00" style="&E1;" id="380" x2="198.00" y2="179.00" x1="160.00" /><ellipse id="381" cy="15.00" cx="15.00" transform="&E47;" rx="15.00" ry="15.00" style="&E19;" /><ellipse id="382" cy="15.00" cx="15.00" transform="&E47;" rx="15.00" ry="15.00" style="&E4;" /><path transform="&E47;" id="383" d="M 15.713 11 C 15.713 9.5868 16.8972 7.9596 18.4318 7.6378 20.0664 7.22598 21.9394 8.11898 22.5604 9.7053 23.12593 11.0396 22.62433 12.6702 21.4973 13.5495 20.81779 14.19064 19.7913 14.51844 19.4161 15.4399 19.13371 16.3512 19.21273 17.3902 19.21519 18.2696 " style="stroke:rgb(255,255,255);fill:none;stroke-linecap:butt;stroke-miterlimit:9;opacity:1;stroke-width:2.5;stroke-linejoin:miter;" /><ellipse id="384" cy="21.60" cx="19.36" transform="&E47;" rx="1.81" ry="1.81" style="&E7;" /><ellipse id="385" cy="14.98" cx="9.44" transform="&E47;" rx="3.40" ry="3.40" style="&E7;" /><text id="386" transform="&E9;" x="84.00px" y="39.00px" style="stroke:none;clip-path:url(#388_text_clipper);font-family:Microsoft Sans Serif;fill:rgb(0,0,0);font-size:8.25pt;opacity:1;"><tspan dy="8.25pt" id="390">TakeWhile</tspan></text><path style="&E4;" transform="&E52;" id="392" d="M 31.179 5.2 C 34.9985 11.0918 34.9814 18.682 31.13552 24.557 " /><ellipse id="393" cy="15.00" cx="15.00" transform="&E52;" rx="15.00" ry="15.00" style="stroke:none;opacity:1;fill:rgb(91,178,126);" /><path style="&E21;" transform="&E52;" id="394" d="M 4.4028 13 4.93347 11.3266 C 6.15637 11.7667 7.04467 12.1477 7.598371 12.4698 7.45224 11.0476 7.37533 10.0696 7.36764 9.5352 L 9.040441 9.5352 C 9.017365 10.3131 8.92891 11.2873 8.775101 12.4581 9.567261 12.0495 10.4748 11.6723 11.4977 11.3266 L 12.02837 13 C 11.05162 13.3302 10.09407 13.5502 9.155771 13.6601 9.624911 14.0766 10.28637 14.819 11.14007 15.8877 L 9.755671 16.8894 C 9.30959 16.2687 8.782761 15.4241 8.175171 14.3554 7.606041 15.4633 7.106171 16.308 6.675471 16.8894 L 5.314171 15.8877 C 6.206311 14.7642 6.844671 14.0216 7.229171 13.6601 6.237041 13.4637 5.294871 13.2437 4.402771 13 z " /><path style="&E21;" transform="&E52;" id="395" d="M 11.656 8.2 11.99975 8.7 16.31225 14.7937 11.65605 21.4187 11.28105 21.9187 14.74985 21.9187 14.8436 21.7624 17.9998 17.0124 18.46855 17.7 21.15605 21.7624 21.2498 21.9187 24.7498 21.9187 24.40605 21.4187 19.65605 14.6687 24.06225 8.699997 24.406 8.199997 20.9998 8.199997 20.90605 8.324997 18.68725 11.4187 C 18.46251 11.7285 18.22333 12.1062 17.9685 12.4812 17.77046 12.1547 17.58677 11.8424 17.31225 11.4187 L 15.28105 8.356197 15.1873 8.199997 11.6561 8.199997 z " /><text id="396" transform="&E9;" x="4.00px" y="39.00px" style="stroke:none;clip-path:url(#398_text_clipper);font-family:Microsoft Sans Serif;fill:rgb(0,0,0);font-size:8.25pt;opacity:1;"><tspan dy="8.25pt" id="400">Miniscope</tspan></text><text id="402" transform="&E9;" x="4.00px" y="51.45px" style="stroke:none;clip-path:url(#404_text_clipper);font-family:Microsoft Sans Serif;fill:rgb(0,0,0);font-size:8.25pt;opacity:1;"><tspan dy="8.25pt" id="406">DataFrame</tspan></text></g><defs id="clips_hatches_and_gradients"><clipPath id="263_text_clipper"><rect x="404.00" y="39.00" width="50.31" height="27.65" id="264" /></clipPath><clipPath id="269_text_clipper"><rect x="404.00" y="51.45" width="50.31" height="27.65" id="270" /></clipPath><clipPath id="280_text_clipper"><rect x="404.00" y="199.00" width="53.45" height="13.83" id="281" /></clipPath><pattern id="286_HatchBrush" patternContentUnits="userSpaceOnUse" height="8.00" patternUnits="userSpaceOnUse" width="8.00" y="0.00" x="0.00" style="stroke-linecap:butt;shape-rendering:crispEdges;"><rect id="287" height="8.00" style="fill:rgb(255,255,255);" width="8.00" y="0.00" x="0.00" /><line y1="0.00" style="&E59;" id="288" x2="8.00" y2="8.00" x1="0.00" /><line y1="0.00" style="&E59;" id="289" x2="0.00" y2="8.00" x1="8.00" /></pattern><clipPath id="292_text_clipper"><rect x="324.00" y="39.00" width="62.97" height="13.83" id="293" /></clipPath><clipPath id="300_text_clipper"><rect x="324.00" y="199.00" width="59.76" height="13.83" id="301" /></clipPath><clipPath id="310_text_clipper"><rect x="244.00" y="39.00" width="62.97" height="13.83" id="311" /></clipPath><clipPath id="318_text_clipper"><rect x="244.00" y="119.00" width="62.22" height="41.48" id="319" /></clipPath><clipPath id="324_text_clipper"><rect x="244.00" y="131.45" width="62.22" height="41.48" id="325" /></clipPath><clipPath id="330_text_clipper"><rect x="244.00" y="143.90" width="62.22" height="41.48" id="331" /></clipPath><clipPath id="340_text_clipper"><rect x="244.00" y="199.00" width="59.78" height="41.48" id="341" /></clipPath><clipPath id="346_text_clipper"><rect x="244.00" y="211.45" width="59.78" height="41.48" id="347" /></clipPath><clipPath id="352_text_clipper"><rect x="244.00" y="223.90" width="59.78" height="41.48" id="353" /></clipPath><clipPath id="362_text_clipper"><rect x="164.00" y="39.00" width="35.15" height="13.83" id="363" /></clipPath><clipPath id="370_text_clipper"><rect x="164.00" y="119.00" width="79.85" height="27.65" id="371" /></clipPath><clipPath id="376_text_clipper"><rect x="164.00" y="131.45" width="79.85" height="27.65" id="377" /></clipPath><clipPath id="388_text_clipper"><rect x="84.00" y="39.00" width="57.32" height="13.83" id="389" /></clipPath><clipPath id="398_text_clipper"><rect x="4.00" y="39.00" width="60.33" height="27.65" id="399" /></clipPath><clipPath id="404_text_clipper"><rect x="4.00" y="51.45" width="60.33" height="27.65" id="405" /></clipPath></defs></svg>