<?xml version="1.0" encoding="UTF-8" standalone="no"?>
<svg
   width="400"
   height="160"
   id="SvgGdi_output"
   version="1.1"
   sodipodi:docname="uclaminiscopev4-node-quat.svg"
   inkscape:version="1.2.2 (732a01da63, 2022-12-09)"
   xmlns:inkscape="http://www.inkscape.org/namespaces/inkscape"
   xmlns:sodipodi="http://sodipodi.sourceforge.net/DTD/sodipodi-0.dtd"
   xmlns="http://www.w3.org/2000/svg"
   xmlns:svg="http://www.w3.org/2000/svg"
   xmlns:rdf="http://www.w3.org/1999/02/22-rdf-syntax-ns#"
   xmlns:cc="http://creativecommons.org/ns#"
   xmlns:dc="http://purl.org/dc/elements/1.1/">
  <metadata
     id="metadata981">
    <rdf:RDF>
      <cc:Work
         rdf:about="">
        <dc:format>image/svg+xml</dc:format>
        <dc:type
           rdf:resource="http://purl.org/dc/dcmitype/StillImage" />
      </cc:Work>
    </rdf:RDF>
  </metadata>
  <sodipodi:namedview
     pagecolor="#ffffff"
     bordercolor="#666666"
     borderopacity="1"
     objecttolerance="10"
     gridtolerance="10"
     guidetolerance="10"
     inkscape:pageopacity="0"
     inkscape:pageshadow="2"
     inkscape:window-width="1920"
     inkscape:window-height="1009"
     id="namedview979"
     showgrid="false"
     inkscape:zoom="2.8284271"
     inkscape:cx="229.80971"
     inkscape:cy="90.509669"
     inkscape:window-x="-8"
     inkscape:window-y="-8"
     inkscape:window-maximized="1"
     inkscape:current-layer="layer1"
     inkscape:snap-page="true"
     inkscape:showpageshadow="0"
     inkscape:pagecheckerboard="0"
     inkscape:deskcolor="#d1d1d1"
     showguides="true" />
  <rect
     id="background"
     height="100%"
     style="fill:#ffffff"
     width="100%"
     y="1.711286e-09"
     x="-0.0050139003" />
  <g
     style="shape-rendering:auto"
     id="root_group">
    <line
       y1="19"
       style="opacity:1;fill:none;stroke:#a9a9a9;stroke-width:1;stroke-linecap:butt;stroke-linejoin:miter;stroke-miterlimit:9"
       id="103"
       x2="320"
       y2="19"
       x1="278" />
    <line
       y1="99"
       style="opacity:1;fill:none;stroke:#a9a9a9;stroke-width:1;stroke-linecap:butt;stroke-linejoin:miter;stroke-miterlimit:9"
       id="104"
       x2="320"
       y2="99"
       x1="278" />
    <line
       y1="19"
       style="opacity:1;fill:none;stroke:#a9a9a9;stroke-width:1;stroke-linecap:butt;stroke-linejoin:miter;stroke-miterlimit:9"
       id="105"
       x2="240"
       y2="19"
       x1="198" />
    <line
       y1="99"
       style="opacity:1;fill:none;stroke:#a9a9a9;stroke-width:1;stroke-linecap:butt;stroke-linejoin:miter;stroke-miterlimit:9"
       id="106"
       x2="240"
       y2="99"
       x1="198" />
    <line
       y1="19"
       style="opacity:1;fill:none;stroke:#a9a9a9;stroke-width:1;stroke-linecap:butt;stroke-linejoin:miter;stroke-miterlimit:9"
       id="107"
       x2="160"
       y2="19"
       x1="118" />
    <line
       y1="99"
       style="opacity:1;fill:none;stroke:#a9a9a9;stroke-width:1;stroke-linecap:butt;stroke-linejoin:miter;stroke-miterlimit:9"
       id="108"
       x2="160"
       y2="99"
       x1="118" />
    <line
       y1="19"
       style="opacity:1;fill:none;stroke:#a9a9a9;stroke-width:1;stroke-linecap:butt;stroke-linejoin:miter;stroke-miterlimit:9"
       id="109"
       x2="80"
       y2="19"
       x1="38" />
    <line
       y1="19"
       style="opacity:1;fill:none;stroke:#a9a9a9;stroke-width:1;stroke-linecap:butt;stroke-linejoin:miter;stroke-miterlimit:9"
       id="110"
       x2="80"
       y2="99"
       x1="38" />
    <path
       d="M 10.158,33.2 C 3.4054,31.7591 -1.861,26.4692 -3.271,19.71"
       style="opacity:1;fill:none;stroke:#a9a9a9;stroke-width:2;stroke-linecap:butt;stroke-linejoin:miter;stroke-miterlimit:9"
       transform="translate(324,4)"
       id="111" />
    <circle
       id="112"
       cy="15"
       cx="15"
       transform="translate(324,4)"
       style="opacity:1;fill:#9b5bb3;stroke:none"
       r="15" />
    <path
       style="opacity:1;fill:#ffffff;fill-rule:evenodd;stroke:none"
       transform="translate(324,4)"
       id="113"
       d="m 23.75,9.1 -4.1913,2.4211 v 6.8726 l 4.1913,2.421 z" />
    <path
       style="opacity:1;fill:#ffffff;fill-rule:evenodd;stroke:none"
       transform="translate(324,4)"
       id="114"
       d="m 8.6927,9.2 h 7.0267 c 1.4706,0 2.6545,1.2337 2.6545,2.7661 v 5.8573 c 0,1.5324 -1.1839,2.7659 -2.6545,2.7659 H 8.692701 c -1.4706,0 -2.6545,-1.2335 -2.6545,-2.7659 v -5.8573 c 0,-1.5324 1.1839,-2.766101 2.6545,-2.766101 z" />
    <text
       id="115"
       x="324"
       y="39"
       style="font-size:11px;font-family:'Microsoft Sans Serif';opacity:1;fill:#000000;stroke:none"
       clip-path="url(#117_text_clipper)"><tspan
         dy="8.25pt"
         id="119">VideoWriter</tspan></text>
    <circle
       id="121"
       cy="15"
       cx="15"
       transform="translate(324,84)"
       style="opacity:1;fill:#eec04b;stroke:none"
       r="15" />
    <path
       style="opacity:1;fill:none;stroke:#a9a9a9;stroke-width:2;stroke-linecap:butt;stroke-linejoin:miter;stroke-miterlimit:9"
       transform="translate(324,84)"
       id="122"
       d="M 1.5363,7.8 C 1.99103,6.9385 2.52798,6.1205 3.1403,5.3587 3.7527,4.5967 4.4403,3.8909 5.1968,3.254 5.95315,2.617 6.7782,2.049 7.665299,1.5627 m -7.2114998,17.937 c -0.31025,-1.0041 -0.51093997,-2.0162 -0.6102499,-3.0228 -0.098748,-1.0068 -0.095194,-2.0085 0.003869,-2.9925 0.09923995,-0.9837 0.29401,-1.9497 0.57773,-2.8851 m 7.4671996,17.8 c -0.86139,-0.4546 -1.6795,-0.9916 -2.4414,-1.6039 -0.76194,-0.6123 -1.4677,-1.3 -2.1046,-2.0564 -0.63679,-0.7564 -1.2048,-1.5815 -1.6912,-2.4686 M 19.49415,29.4993 c -1.0042,0.3103 -2.0163,0.511 -3.0229,0.6103 -1.0068,0.0988 -2.0084,0.0953 -2.9923,-0.0078 -0.98388,-0.099 -1.9498,-0.2939 -2.8853,-0.5776 m 17.87,-7.4249 c -0.45473,0.8613 -0.99165,1.6795 -1.604,2.4414 -0.61227,0.7619 -1.3002,1.4677 -2.0565,2.1046 -0.75635,0.6369 -1.5814,1.2049 -2.4685,1.6912 m 7.211,-17.837 c 0.31029,1.0042 0.51094,2.0162 0.61029,3.0229 0.09887,1.0068 0.0952,2.0086 -0.0039,2.9923 -0.0992,0.9839 -0.29397,1.9499 -0.57769,2.8853 M 22.10769,1.499998 c 0.86139,0.4547 1.67951,0.9917 2.44141,1.6039 0.76194,0.6124 1.4677,1.3002 2.10459,2.0565 0.63683,0.7565 1.2049,1.5815 1.6913,2.4687 m -17.84,-7.2291003 c 1.0042,-0.31029998 2.0161,-0.5109 3.0228,-0.6103 1.0069,-0.0987 2.0084,-0.0952 2.9923,0 0.98392,0.0992 1.9499,0.29400001 2.8854,0.5777" />
    <circle
       id="123"
       cy="9.0600004"
       cx="15.01"
       transform="translate(324,84)"
       style="opacity:1;fill:#ffffff;stroke:none"
       r="3.5" />
    <circle
       id="124"
       cy="18.49"
       cx="9.1199999"
       transform="translate(324,84)"
       style="opacity:1;fill:#ffffff;stroke:none"
       r="3.5" />
    <circle
       id="125"
       cy="18.459999"
       cx="20.879999"
       transform="translate(324,84)"
       style="opacity:1;fill:#ffffff;stroke:none"
       r="3.5" />
    <text
       id="126"
       x="324"
       y="119"
       style="font-size:11px;font-family:'Microsoft Sans Serif';opacity:1;fill:#000000;stroke:none"
       clip-path="url(#128_text_clipper)"><tspan
         dy="8.25pt"
         id="130">Commutator</tspan></text>
    <circle
       id="132"
       cy="15"
       cx="15"
       transform="translate(244,4)"
       style="opacity:1;fill:#449adf;stroke:none"
       r="15" />
    <path
       d="M 19.156,13.888 V 10.3647 6.841399 l 6.1025,3.523301 -3.0513,1.7617 z"
       style="opacity:1;fill:#ffffff;fill-rule:evenodd;stroke:none"
       transform="translate(244,4)"
       id="133" />
    <path
       d="m 19.156,22.97 v -3.5233 -3.5233 l 6.1025,3.5233 -3.0513,1.7617 z"
       style="opacity:1;fill:#ffffff;fill-rule:evenodd;stroke:none"
       transform="translate(244,4)"
       id="134" />
    <path
       d="m 5.5001,19.484 h 5.1492 l 5.625,-9.2355 h 3.0985 m -4.6959,6.8996 1.632,2.3347 h 2.9113 M 5.500199,10.2437 H 10.7586 l 1.4066,2.627"
       style="opacity:1;fill:none;stroke:#ffffff;stroke-width:2;stroke-linecap:butt;stroke-linejoin:miter;stroke-miterlimit:9"
       transform="translate(244,4)"
       id="135" />
    <text
       id="136"
       x="244"
       y="39"
       style="font-size:11px;font-family:'Microsoft Sans Serif';opacity:1;fill:#000000;stroke:none"
       clip-path="url(#138_text_clipper)"><tspan
         dy="8.25pt"
         id="140">Image</tspan></text>
    <path
       d="M 10.158,33.2 C 3.4054,31.7591 -1.861,26.4692 -3.271,19.71"
       style="opacity:1;fill:none;stroke:#a9a9a9;stroke-width:2;stroke-linecap:butt;stroke-linejoin:miter;stroke-miterlimit:9"
       transform="translate(244,84)"
       id="142" />
    <circle
       id="143"
       cy="15"
       cx="15"
       transform="translate(244,84)"
       style="opacity:1;fill:#9b5bb3;stroke:none"
       r="15" />
    <path
       style="opacity:1;fill:none;stroke:#ffffff;stroke-width:2;stroke-linecap:butt;stroke-linejoin:miter;stroke-miterlimit:9"
       transform="translate(244,84)"
       id="144"
       d="M 7.3965,19.566 V 10.8433" />
    <path
       style="opacity:1;fill:none;stroke:#ffffff;stroke-width:2;stroke-linecap:butt;stroke-linejoin:miter;stroke-miterlimit:9"
       transform="translate(244,84)"
       id="145"
       d="M 11.085,22.137 14.2178,8.273999" />
    <circle
       id="146"
       cy="15.15"
       cx="20.49"
       transform="translate(244,84)"
       style="opacity:1;fill:none;stroke:#ffffff;stroke-width:2;stroke-linecap:butt;stroke-linejoin:miter;stroke-miterlimit:9"
       r="4.1799998" />
    <text
       id="147"
       x="244"
       y="119"
       style="font-size:11px;font-family:'Microsoft Sans Serif';opacity:1;fill:#000000;stroke:none"
       clip-path="url(#149_text_clipper)"><tspan
         dy="8.25pt"
         id="151">CsvWriter</tspan></text>
    <line
       y1="19"
       style="opacity:1;fill:none;stroke:#a9a9a9;stroke-width:1;stroke-linecap:butt;stroke-linejoin:miter;stroke-miterlimit:9"
       id="153"
       x2="198"
       y2="19"
       x1="160" />
    <circle
       id="154"
       cy="15"
       cx="15"
       transform="translate(164,84)"
       style="opacity:1;fill:#449adf;stroke:none"
       r="15" />
    <path
       style="opacity:1;fill:#ffffff;fill-rule:evenodd;stroke:none"
       transform="translate(164,84)"
       id="155"
       d="m 10.824,9.4752 -7.2627,5.5836 7.2627,5.5519 -0.0088,-2.286 -4.296199,-3.298 4.304899,-3.2845 z" />
    <path
       style="opacity:1;fill:#ffffff;fill-rule:evenodd;stroke:none"
       transform="translate(164,84)"
       id="156"
       d="m 15.365,7.2336 c -0.01853,0.10187 -0.04375,0.2035 -0.05078,0.3039 -0.90345,5.1066 -1.8173,10.212 -2.7148,15.32 -0.0043,0.02885 0.0024,0.05473 0,0.08312 h 2.0293 c 0.07476,-0.40738 0.10807,-0.83802 0.20898,-1.226 0.84434,-4.7736 1.6988,-9.5445 2.5371,-14.320001 0.0068,-0.054184 0.0039,-0.10738 0.0039,-0.16104 z" />
    <path
       style="opacity:1;fill:#ffffff;fill-rule:evenodd;stroke:none"
       transform="translate(164,84)"
       id="157"
       d="m 19.044,9.4746 7.2627,5.5836 -7.2627,5.5519 0.0088,-2.286 4.2962,-3.298 -4.3049,-3.2845 z" />
    <text
       id="158"
       x="164"
       y="119"
       style="font-size:11px;font-family:'Microsoft Sans Serif';opacity:1;fill:#000000;stroke:none"
       clip-path="url(#160_text_clipper)"><tspan
         dy="8.25pt"
         id="162">Heading</tspan></text>
    <line
       y1="19"
       style="opacity:1;fill:none;stroke:#a9a9a9;stroke-width:1;stroke-linecap:butt;stroke-linejoin:miter;stroke-miterlimit:9"
       id="164"
       x2="118"
       y2="19"
       x1="80" />
    <circle
       id="165"
       cy="15"
       cx="15"
       transform="translate(84,84)"
       style="opacity:1;fill:#449adf;stroke:none"
       r="15" />
    <path
       d="M 19.156,13.888 V 10.3647 6.841399 l 6.1025,3.523301 -3.0513,1.7617 z"
       style="opacity:1;fill:#ffffff;fill-rule:evenodd;stroke:none"
       transform="translate(84,84)"
       id="166" />
    <path
       d="m 19.156,22.97 v -3.5233 -3.5233 l 6.1025,3.5233 -3.0513,1.7617 z"
       style="opacity:1;fill:#ffffff;fill-rule:evenodd;stroke:none"
       transform="translate(84,84)"
       id="167" />
    <path
       d="m 5.5001,19.484 h 5.1492 l 5.625,-9.2355 h 3.0985 m -4.6959,6.8996 1.632,2.3347 h 2.9113 M 5.500199,10.2437 H 10.7586 l 1.4066,2.627"
       style="opacity:1;fill:none;stroke:#ffffff;stroke-width:2;stroke-linecap:butt;stroke-linejoin:miter;stroke-miterlimit:9"
       transform="translate(84,84)"
       id="168" />
    <text
       id="169"
       x="84"
       y="119"
       style="font-size:11px;font-family:'Microsoft Sans Serif';opacity:1;fill:#000000;stroke:none"
       clip-path="url(#171_text_clipper)"><tspan
         dy="8.25pt"
         id="173">Quaternion</tspan></text>
    <path
       style="opacity:1;fill:none;stroke:#a9a9a9;stroke-width:2;stroke-linecap:butt;stroke-linejoin:miter;stroke-miterlimit:9"
       transform="translate(4,4)"
       id="175"
       d="m 31.179,5.2 c 3.8195,5.8918 3.8024,13.482 -0.04348,19.357" />
    <circle
       id="176"
       cy="15"
       cx="15"
       transform="translate(4,4)"
       style="opacity:1;fill:#5bb27e;stroke:none"
       r="15" />
    <rect
       id="177"
       height="13.14"
       style="opacity:1;fill:#ffffff;stroke:none"
       transform="translate(4,4)"
       width="10.75"
       y="4.5700002"
       x="9.6599998" />
    <rect
       id="178"
       height="3.6400001"
       style="opacity:1;fill:#ffffff;stroke:none"
       transform="translate(4,4)"
       width="6.6199999"
       y="16.68"
       x="11.72" />
    <path
       style="opacity:1;fill:none;stroke:#ffffff;stroke-width:0.878745;stroke-linecap:butt;stroke-linejoin:miter;stroke-miterlimit:9"
       transform="translate(4,4)"
       id="179"
       d="m 12.54858,21.20126 -2.35129,4.6459" />
    <path
       style="opacity:1;fill:none;stroke:#ffffff;stroke-width:0.866585;stroke-linecap:butt;stroke-linejoin:miter;stroke-miterlimit:9"
       transform="translate(4,4)"
       id="180"
       d="m 14.15625,21.12463 -1.01647,4.79916" />
    <path
       style="opacity:1;fill:none;stroke:#ffffff;stroke-width:0.878745;stroke-linecap:butt;stroke-linejoin:miter;stroke-miterlimit:9"
       transform="translate(4,4)"
       id="181"
       d="m 17.40598,21.20126 2.35129,4.6459" />
    <path
       style="opacity:1;fill:none;stroke:#ffffff;stroke-width:0.866585;stroke-linecap:butt;stroke-linejoin:miter;stroke-miterlimit:9"
       transform="translate(4,4)"
       id="182"
       d="m 15.79831,21.07344 0.68501,4.90154" />
    <text
       id="183"
       x="4"
       y="39"
       style="font-size:11px;font-family:'Microsoft Sans Serif';opacity:1;fill:#000000;stroke:none"
       clip-path="url(#185_text_clipper)"><tspan
         dy="8.25pt"
         id="187">UCLA</tspan></text>
    <text
       id="189"
       x="4"
       y="51.450001"
       style="font-size:11px;font-family:'Microsoft Sans Serif';opacity:1;fill:#000000;stroke:none"
       clip-path="url(#191_text_clipper)"><tspan
         dy="8.25pt"
         id="193">MiniscopeV4</tspan></text>
  </g>
  <defs
     id="clips_hatches_and_gradients">
    <clipPath
       id="117_text_clipper">
      <rect
         x="324"
         y="39"
         width="62.970001"
         height="13.83"
         id="118" />
    </clipPath>
    <clipPath
       id="128_text_clipper">
      <rect
         x="324"
         y="119"
         width="65.989998"
         height="13.83"
         id="129" />
    </clipPath>
    <clipPath
       id="138_text_clipper">
      <rect
         x="244"
         y="39"
         width="35.150002"
         height="13.83"
         id="139" />
    </clipPath>
    <clipPath
       id="149_text_clipper">
      <rect
         x="244"
         y="119"
         width="53.450001"
         height="13.83"
         id="150" />
    </clipPath>
    <clipPath
       id="160_text_clipper">
      <rect
         x="164"
         y="119"
         width="45.93"
         height="13.83"
         id="161" />
    </clipPath>
    <clipPath
       id="171_text_clipper">
      <rect
         x="84"
         y="119"
         width="59.779999"
         height="13.83"
         id="172" />
    </clipPath>
    <clipPath
       id="185_text_clipper">
      <rect
         x="4"
         y="39"
         width="68.660004"
         height="27.65"
         id="186" />
    </clipPath>
    <clipPath
       id="191_text_clipper">
      <rect
         x="4"
         y="51.450001"
         width="68.660004"
         height="27.65"
         id="192" />
    </clipPath>
  </defs>
  <g
     inkscape:groupmode="layer"
     id="layer1"
     inkscape:label="1">
    <rect
       style="opacity:1;fill:none;fill-opacity:1;stroke:#ff0000;stroke-width:1.00001;stroke-miterlimit:10;stroke-dasharray:none;stroke-opacity:1"
       id="rect7903"
       width="323.99997"
       height="78.999992"
       x="75.5"
       y="80.5"
       ry="0" />
  </g>
</svg>
