<?xml version="1.0" encoding="UTF-8" standalone="no"?>
<svg
   width="500"
   height="66.650002"
   id="SvgGdi_output"
   version="1.1"
   sodipodi:docname="uclaminiscopev4-miniscopedaq-gui_commutate-disable.svg"
   xml:space="preserve"
   inkscape:version="1.3.2 (091e20e, 2023-11-25, custom)"
   xmlns:inkscape="http://www.inkscape.org/namespaces/inkscape"
   xmlns:sodipodi="http://sodipodi.sourceforge.net/DTD/sodipodi-0.dtd"
   xmlns="http://www.w3.org/2000/svg"
   xmlns:svg="http://www.w3.org/2000/svg"><sodipodi:namedview
     id="namedview1"
     pagecolor="#ffffff"
     bordercolor="#000000"
     borderopacity="0.25"
     inkscape:showpageshadow="2"
     inkscape:pageopacity="0.0"
     inkscape:pagecheckerboard="0"
     inkscape:deskcolor="#d1d1d1"
     showgrid="false"
     inkscape:zoom="1.7755157"
     inkscape:cx="196.56261"
     inkscape:cy="76.879073"
     inkscape:window-width="1920"
     inkscape:window-height="1009"
     inkscape:window-x="-8"
     inkscape:window-y="-8"
     inkscape:window-maximized="1"
     inkscape:current-layer="SvgGdi_output" /><g
     style="shape-rendering:auto"
     id="root_group-6"
     inkscape:label="enabled"><line
       y1="19"
       style="opacity:1;fill:none;stroke:#a9a9a9;stroke-width:1;stroke-linecap:butt;stroke-linejoin:miter;stroke-miterlimit:9"
       id="77"
       x2="160"
       y2="19"
       x1="118" /><line
       y1="19"
       style="opacity:1;fill:none;stroke:#a9a9a9;stroke-width:1;stroke-linecap:butt;stroke-linejoin:miter;stroke-miterlimit:9"
       id="78"
       x2="80"
       y2="19"
       x1="38" /><circle
       id="79"
       cy="15"
       cx="15"
       transform="translate(164,4)"
       style="opacity:1;fill:#eec04b;stroke:none"
       r="15" /><path
       style="opacity:1;fill:none;stroke:#a9a9a9;stroke-width:2;stroke-linecap:butt;stroke-linejoin:miter;stroke-miterlimit:9"
       transform="translate(164,4)"
       id="80"
       d="M 1.5363,7.8 C 1.99103,6.9385 2.52798,6.1205 3.1403,5.3587 3.7527,4.5967 4.4403,3.8909 5.1968,3.254 5.95315,2.617 6.7782,2.049 7.665299,1.5627 m -7.2114998,17.937 c -0.31025,-1.0041 -0.51093997,-2.0162 -0.6102499,-3.0228 -0.098748,-1.0068 -0.095194,-2.0085 0.003869,-2.9925 0.09923995,-0.9837 0.29401,-1.9497 0.57773,-2.8851 m 7.4671996,17.8 c -0.86139,-0.4546 -1.6795,-0.9916 -2.4414,-1.6039 -0.76194,-0.6123 -1.4677,-1.3 -2.1046,-2.0564 -0.63679,-0.7564 -1.2048,-1.5815 -1.6912,-2.4686 M 19.49415,29.4993 c -1.0042,0.3103 -2.0163,0.511 -3.0229,0.6103 -1.0068,0.0988 -2.0084,0.0953 -2.9923,-0.0078 -0.98388,-0.099 -1.9498,-0.2939 -2.8853,-0.5776 m 17.87,-7.4249 c -0.45473,0.8613 -0.99165,1.6795 -1.604,2.4414 -0.61227,0.7619 -1.3002,1.4677 -2.0565,2.1046 -0.75635,0.6369 -1.5814,1.2049 -2.4685,1.6912 m 7.211,-17.837 c 0.31029,1.0042 0.51094,2.0162 0.61029,3.0229 0.09887,1.0068 0.0952,2.0086 -0.0039,2.9923 -0.0992,0.9839 -0.29397,1.9499 -0.57769,2.8853 M 22.10769,1.499998 c 0.86139,0.4547 1.67951,0.9917 2.44141,1.6039 0.76194,0.6124 1.4677,1.3002 2.10459,2.0565 0.63683,0.7565 1.2049,1.5815 1.6913,2.4687 m -17.84,-7.2291003 c 1.0042,-0.31029998 2.0161,-0.5109 3.0228,-0.6103 1.0069,-0.0987 2.0084,-0.0952 2.9923,0 0.98392,0.0992 1.9499,0.29400001 2.8854,0.5777" /><path
       style="opacity:1;fill:#ffffff;fill-rule:evenodd;stroke:none"
       transform="translate(164,4)"
       id="81"
       d="m 17.123,5.8594 v 4.3242 c 0,0.51768 0.38271,0.89844 0.90039,0.89844 h 4.1055 z" /><path
       style="opacity:1;fill:#ffffff;fill-rule:evenodd;stroke:none"
       transform="translate(164,4)"
       id="82"
       d="m 12.084,18.254 c 1.1014,0 1.998,0.89472 1.998,1.9961 0,1.1014 -0.89667,1.998 -1.998,1.998 -1.1014,0 -1.998,-0.89667 -1.998,-1.998 0,-1.1014 0.89667,-1.9961 1.998,-1.9961 z m 5.6992,-0.01563 c 1.1014,0 1.998,0.89667 1.998,1.998 0,1.10133 -0.89667,1.998 -1.998,1.998 -1.10133,0 -1.998,-0.89667 -1.998,-1.998 0,-1.10133 0.89667,-1.998 1.998,-1.998 z m -2.8418,-4.55859 c 1.1014,0 1.998,0.89667 1.998,1.998 0,1.10139 -0.89667,1.998 -1.998,1.998 -1.10133,0 -1.998,-0.89667 -1.998,-1.998 0,-1.1014 0.89667,-1.998 1.998,-1.998 z M 10.8828,5.205175 c -1.707301,0 -3.117201,1.4099 -3.117201,3.1172 V 20.56638 c 0,1.7073 1.4099,3.1152 3.117201,3.1152 h 8.7656 c 1.7073,0 3.1172,-1.40801 3.1172,-3.1152 v -7.2676 h -4.7422 c -1.7073,0 -3.1172,-1.408 -3.1172,-3.1152 V 5.205076 Z" /><text
       id="83"
       x="164"
       y="39"
       style="font-size:11px;font-family:'Microsoft Sans Serif';opacity:1;fill:#000000;stroke:none"
       clip-path="url(#85_text_clipper)"><tspan
         dy="8.25pt"
         id="87">Auto</tspan></text><text
       id="89"
       x="164"
       y="51.450001"
       style="font-size:11px;font-family:'Microsoft Sans Serif';opacity:1;fill:#000000;stroke:none"
       clip-path="url(#91_text_clipper)"><tspan
         dy="8.25pt"
         id="93">Commutator</tspan></text><circle
       id="95"
       cy="15"
       cx="15"
       transform="translate(84,4)"
       style="opacity:1;fill:#449adf;stroke:none"
       r="15" /><path
       style="opacity:1;fill:#ffffff;fill-rule:evenodd;stroke:none"
       transform="translate(84,4)"
       id="96"
       d="M 19.156,13.888 V 10.3647 6.841399 l 6.1025,3.523301 -3.0513,1.7617 z" /><path
       style="opacity:1;fill:#ffffff;fill-rule:evenodd;stroke:none"
       transform="translate(84,4)"
       id="97"
       d="m 19.156,22.97 v -3.5233 -3.5233 l 6.1025,3.5233 -3.0513,1.7617 z" /><path
       transform="translate(84,4)"
       id="98"
       style="opacity:1;fill:none;stroke:#ffffff;stroke-width:2;stroke-linecap:butt;stroke-linejoin:miter;stroke-miterlimit:9"
       d="m 5.5001,19.484 h 5.1492 l 5.625,-9.2355 h 3.0985 m -4.6959,6.8996 1.632,2.3347 h 2.9113 M 5.500199,10.2437 H 10.7586 l 1.4066,2.627" /><text
       id="99"
       x="84"
       y="39"
       style="font-size:11px;font-family:'Microsoft Sans Serif';opacity:1;fill:#000000;stroke:none"
       clip-path="url(#101_text_clipper)"><tspan
         dy="8.25pt"
         id="103">Quaternion</tspan></text><path
       style="opacity:1;fill:none;stroke:#a9a9a9;stroke-width:2;stroke-linecap:butt;stroke-linejoin:miter;stroke-miterlimit:9"
       transform="translate(4,4)"
       id="105"
       d="m 31.179,5.2 c 3.8195,5.8918 3.8024,13.482 -0.04348,19.357" /><circle
       id="106"
       cy="15"
       cx="15"
       transform="translate(4,4)"
       style="opacity:1;fill:#5bb27e;stroke:none"
       r="15" /><path
       style="opacity:1;fill:#ffffff;fill-rule:evenodd;stroke:none"
       transform="translate(4,4)"
       id="107"
       d="m 4.4028,13 0.53067,-1.6734 c 1.2229,0.4401 2.1112,0.8211 2.664901,1.1432 C 7.45224,11.0476 7.37533,10.0696 7.36764,9.5352 H 9.040441 C 9.017365,10.3131 8.92891,11.2873 8.775101,12.4581 9.567261,12.0495 10.4748,11.6723 11.4977,11.3266 L 12.02837,13 c -0.97675,0.3302 -1.9343,0.5502 -2.872599,0.6601 0.46914,0.4165 1.130599,1.1589 1.984299,2.2276 l -1.384399,1.0017 c -0.446081,-0.6207 -0.97291,-1.4653 -1.5805,-2.534 -0.56913,1.1079 -1.069,1.9526 -1.4997,2.534 l -1.3613,-1.0017 c 0.89214,-1.1235 1.5305,-1.8661 1.915,-2.2276 C 6.237041,13.4637 5.294871,13.2437 4.402771,13 Z" /><path
       style="opacity:1;fill:#ffffff;fill-rule:evenodd;stroke:none"
       transform="translate(4,4)"
       id="108"
       d="m 11.656,8.2 0.34375,0.5 4.3125,6.0937 -4.6562,6.625 -0.375,0.5 h 3.4688 l 0.09375,-0.1563 3.1562,-4.75 0.46875,0.6876 2.6875,4.0624 0.09375,0.1563 h 3.5 l -0.34375,-0.5 -4.75,-6.75 4.4062,-5.968703 0.34375,-0.5 h -3.4062 l -0.09375,0.125 -2.2188,3.093703 c -0.22474,0.3098 -0.46392,0.6875 -0.71875,1.0625 -0.19804,-0.3265 -0.38173,-0.6388 -0.65625,-1.0625 l -2.0312,-3.062503 -0.09375,-0.1562 h -3.5312 z" /><text
       id="109"
       x="4"
       y="39"
       style="font-size:11px;font-family:'Microsoft Sans Serif';opacity:1;fill:#000000;stroke:none"
       clip-path="url(#111_text_clipper)"><tspan
         dy="8.25pt"
         id="113">DataFrame</tspan></text></g><g
     style="shape-rendering:auto"
     id="root_group"
     inkscape:label="disabled"
     transform="translate(272)"><line
       y1="19"
       style="opacity:1;fill:none;stroke:#a9a9a9;stroke-width:1;stroke-linecap:butt;stroke-linejoin:miter;stroke-miterlimit:9"
       id="117"
       x2="160"
       y2="19"
       x1="118" /><line
       y1="19"
       style="opacity:1;fill:none;stroke:#a9a9a9;stroke-width:1;stroke-linecap:butt;stroke-linejoin:miter;stroke-miterlimit:9"
       id="118"
       x2="80"
       y2="19"
       x1="38" /><circle
       id="119"
       cy="19"
       cx="179"
       style="opacity:1;fill:#a9a9a9;stroke:none"
       r="15" /><path
       transform="translate(164,4)"
       id="120"
       style="opacity:1;fill:none;stroke:#a9a9a9;stroke-width:2;stroke-linecap:butt;stroke-linejoin:miter;stroke-miterlimit:9"
       d="M 1.5363,7.8 C 1.99103,6.9385 2.52798,6.1205 3.1403,5.3587 3.7527,4.5967 4.4403,3.8909 5.1968,3.254 5.95315,2.617 6.7782,2.049 7.665299,1.5627 m -7.2114998,17.937 c -0.31025,-1.0041 -0.51093997,-2.0162 -0.6102499,-3.0228 -0.098748,-1.0068 -0.095194,-2.0085 0.003869,-2.9925 0.09923995,-0.9837 0.29401,-1.9497 0.57773,-2.8851 m 7.4671996,17.8 c -0.86139,-0.4546 -1.6795,-0.9916 -2.4414,-1.6039 -0.76194,-0.6123 -1.4677,-1.3 -2.1046,-2.0564 -0.63679,-0.7564 -1.2048,-1.5815 -1.6912,-2.4686 M 19.49415,29.4993 c -1.0042,0.3103 -2.0163,0.511 -3.0229,0.6103 -1.0068,0.0988 -2.0084,0.0953 -2.9923,-0.0078 -0.98388,-0.099 -1.9498,-0.2939 -2.8853,-0.5776 m 17.87,-7.4249 c -0.45473,0.8613 -0.99165,1.6795 -1.604,2.4414 -0.61227,0.7619 -1.3002,1.4677 -2.0565,2.1046 -0.75635,0.6369 -1.5814,1.2049 -2.4685,1.6912 m 7.211,-17.837 c 0.31029,1.0042 0.51094,2.0162 0.61029,3.0229 0.09887,1.0068 0.0952,2.0086 -0.0039,2.9923 -0.0992,0.9839 -0.29397,1.9499 -0.57769,2.8853 M 22.10769,1.499998 c 0.86139,0.4547 1.67951,0.9917 2.44141,1.6039 0.76194,0.6124 1.4677,1.3002 2.10459,2.0565 0.63683,0.7565 1.2049,1.5815 1.6913,2.4687 m -17.84,-7.2291003 c 1.0042,-0.31029998 2.0161,-0.5109 3.0228,-0.6103 1.0069,-0.0987 2.0084,-0.0952 2.9923,0 0.98392,0.0992 1.9499,0.29400001 2.8854,0.5777" /><path
       style="opacity:1;fill:#ffffff;fill-rule:evenodd;stroke:none"
       transform="translate(164,4)"
       id="121"
       d="m 17.123,5.8594 v 4.3242 c 0,0.51768 0.38271,0.89844 0.90039,0.89844 h 4.1055 z" /><path
       style="opacity:1;fill:#ffffff;fill-rule:evenodd;stroke:none"
       transform="translate(164,4)"
       id="122"
       d="m 12.084,18.254 c 1.1014,0 1.998,0.89472 1.998,1.9961 0,1.1014 -0.89667,1.998 -1.998,1.998 -1.1014,0 -1.998,-0.89667 -1.998,-1.998 0,-1.1014 0.89667,-1.9961 1.998,-1.9961 z m 5.6992,-0.01563 c 1.1014,0 1.998,0.89667 1.998,1.998 0,1.10133 -0.89667,1.998 -1.998,1.998 -1.10133,0 -1.998,-0.89667 -1.998,-1.998 0,-1.10133 0.89667,-1.998 1.998,-1.998 z m -2.8418,-4.55859 c 1.1014,0 1.998,0.89667 1.998,1.998 0,1.10139 -0.89667,1.998 -1.998,1.998 -1.10133,0 -1.998,-0.89667 -1.998,-1.998 0,-1.1014 0.89667,-1.998 1.998,-1.998 z M 10.8828,5.205175 c -1.707301,0 -3.117201,1.4099 -3.117201,3.1172 V 20.56638 c 0,1.7073 1.4099,3.1152 3.117201,3.1152 h 8.7656 c 1.7073,0 3.1172,-1.40801 3.1172,-3.1152 v -7.2676 h -4.7422 c -1.7073,0 -3.1172,-1.408 -3.1172,-3.1152 V 5.205076 Z" /><circle
       id="123"
       cy="19"
       cx="179"
       style="fill:url(#124_HatchBrush)"
       r="15" /><text
       id="127"
       x="164"
       y="39"
       style="font-size:11px;font-family:'Microsoft Sans Serif';opacity:1;fill:#000000;stroke:none"
       clip-path="url(#129_text_clipper)"><tspan
         dy="8.25pt"
         id="131">Auto</tspan></text><text
       id="133"
       x="164"
       y="51.450001"
       style="font-size:11px;font-family:'Microsoft Sans Serif';opacity:1;fill:#000000;stroke:none"
       clip-path="url(#135_text_clipper)"><tspan
         dy="8.25pt"
         id="137">Commutator</tspan></text><circle
       id="139"
       cy="19"
       cx="99"
       style="opacity:1;fill:#a9a9a9;stroke:none"
       r="15" /><path
       style="opacity:1;fill:#ffffff;fill-rule:evenodd;stroke:none"
       transform="translate(84,4)"
       id="140"
       d="M 19.156,13.888 V 10.3647 6.841399 l 6.1025,3.523301 -3.0513,1.7617 z" /><path
       style="opacity:1;fill:#ffffff;fill-rule:evenodd;stroke:none"
       transform="translate(84,4)"
       id="141"
       d="m 19.156,22.97 v -3.5233 -3.5233 l 6.1025,3.5233 -3.0513,1.7617 z" /><path
       transform="translate(84,4)"
       id="142"
       style="opacity:1;fill:none;stroke:#ffffff;stroke-width:2;stroke-linecap:butt;stroke-linejoin:miter;stroke-miterlimit:9"
       d="m 5.5001,19.484 h 5.1492 l 5.625,-9.2355 h 3.0985 m -4.6959,6.8996 1.632,2.3347 h 2.9113 M 5.500199,10.2437 H 10.7586 l 1.4066,2.627" /><circle
       id="143"
       cy="19"
       cx="99"
       style="fill:url(#144_HatchBrush)"
       r="15" /><text
       id="147"
       x="84"
       y="39"
       style="font-size:11px;font-family:'Microsoft Sans Serif';opacity:1;fill:#000000;stroke:none"
       clip-path="url(#149_text_clipper)"><tspan
         dy="8.25pt"
         id="151">Quaternion</tspan></text><circle
       id="153"
       cy="19"
       cx="19"
       style="opacity:1;fill:#a9a9a9;stroke:none"
       r="15" /><path
       style="opacity:1;fill:#ffffff;fill-rule:evenodd;stroke:none"
       transform="translate(4,4)"
       id="154"
       d="m 4.4028,13 0.53067,-1.6734 c 1.2229,0.4401 2.1112,0.8211 2.664901,1.1432 C 7.45224,11.0476 7.37533,10.0696 7.36764,9.5352 H 9.040441 C 9.017365,10.3131 8.92891,11.2873 8.775101,12.4581 9.567261,12.0495 10.4748,11.6723 11.4977,11.3266 L 12.02837,13 c -0.97675,0.3302 -1.9343,0.5502 -2.872599,0.6601 0.46914,0.4165 1.130599,1.1589 1.984299,2.2276 l -1.384399,1.0017 c -0.446081,-0.6207 -0.97291,-1.4653 -1.5805,-2.534 -0.56913,1.1079 -1.069,1.9526 -1.4997,2.534 l -1.3613,-1.0017 c 0.89214,-1.1235 1.5305,-1.8661 1.915,-2.2276 C 6.237041,13.4637 5.294871,13.2437 4.402771,13 Z" /><path
       style="opacity:1;fill:#ffffff;fill-rule:evenodd;stroke:none"
       transform="translate(4,4)"
       id="155"
       d="m 11.656,8.2 0.34375,0.5 4.3125,6.0937 -4.6562,6.625 -0.375,0.5 h 3.4688 l 0.09375,-0.1563 3.1562,-4.75 0.46875,0.6876 2.6875,4.0624 0.09375,0.1563 h 3.5 l -0.34375,-0.5 -4.75,-6.75 4.4062,-5.968703 0.34375,-0.5 h -3.4062 l -0.09375,0.125 -2.2188,3.093703 c -0.22474,0.3098 -0.46392,0.6875 -0.71875,1.0625 -0.19804,-0.3265 -0.38173,-0.6388 -0.65625,-1.0625 l -2.0312,-3.062503 -0.09375,-0.1562 h -3.5312 z" /><circle
       id="156"
       cy="19"
       cx="19"
       style="fill:url(#157_HatchBrush)"
       r="15" /><text
       id="160"
       x="4"
       y="39"
       style="font-size:11px;font-family:'Microsoft Sans Serif';opacity:1;fill:#000000;stroke:none"
       clip-path="url(#162_text_clipper)"><tspan
         dy="8.25pt"
         id="164">DataFrame</tspan></text></g><defs
     id="clips_hatches_and_gradients"><marker
       style="overflow:visible"
       id="ArrowWide"
       refX="0"
       refY="0"
       orient="auto-start-reverse"
       inkscape:stockid="Wide arrow"
       markerWidth="1"
       markerHeight="1"
       viewBox="0 0 1 1"
       inkscape:isstock="true"
       inkscape:collect="always"
       preserveAspectRatio="xMidYMid"><path
         style="fill:none;stroke:context-stroke;stroke-width:1;stroke-linecap:butt"
         d="M 3,-3 0,0 3,3"
         transform="rotate(180,0.125,0)"
         sodipodi:nodetypes="ccc"
         id="path2" /></marker><pattern
       id="124_HatchBrush"
       patternContentUnits="userSpaceOnUse"
       height="8.00"
       style="stroke-linecap:butt;shape-rendering:crispEdges"
       patternUnits="userSpaceOnUse"
       width="8.00"
       y="0.00"
       x="0.00"><rect
         id="125"
         height="8.00"
         style="fill:rgb(255,255,255);"
         width="8.00"
         y="0.00"
         x="0.00" /><line
         y1="0.00"
         style="stroke:rgb(0,0,0);fill:rgb(0,0,0);"
         id="126"
         x2="0.00"
         y2="8.00"
         x1="8.00" /></pattern><clipPath
       id="129_text_clipper"><rect
         x="164"
         y="39"
         width="65.989998"
         height="27.65"
         id="130" /></clipPath><clipPath
       id="135_text_clipper"><rect
         x="164"
         y="51.450001"
         width="65.989998"
         height="27.65"
         id="136" /></clipPath><pattern
       id="144_HatchBrush"
       patternContentUnits="userSpaceOnUse"
       height="8.00"
       style="stroke-linecap:butt;shape-rendering:crispEdges"
       patternUnits="userSpaceOnUse"
       width="8.00"
       y="0.00"
       x="0.00"><rect
         id="145"
         height="8.00"
         style="fill:rgb(255,255,255);"
         width="8.00"
         y="0.00"
         x="0.00" /><line
         y1="0.00"
         style="stroke:rgb(0,0,0);fill:rgb(0,0,0);"
         id="146"
         x2="0.00"
         y2="8.00"
         x1="8.00" /></pattern><clipPath
       id="149_text_clipper"><rect
         x="84"
         y="39"
         width="59.779999"
         height="13.83"
         id="150" /></clipPath><pattern
       id="157_HatchBrush"
       patternContentUnits="userSpaceOnUse"
       height="8.00"
       style="stroke-linecap:butt;shape-rendering:crispEdges"
       patternUnits="userSpaceOnUse"
       width="8.00"
       y="0.00"
       x="0.00"><rect
         id="158"
         height="8.00"
         style="fill:rgb(255,255,255);"
         width="8.00"
         y="0.00"
         x="0.00" /><line
         y1="0.00"
         style="stroke:rgb(0,0,0);fill:rgb(0,0,0);"
         id="159"
         x2="0.00"
         y2="8.00"
         x1="8.00" /></pattern><clipPath
       id="162_text_clipper"><rect
         x="4"
         y="39"
         width="60.330002"
         height="13.83"
         id="163" /></clipPath><clipPath
       id="85_text_clipper"><rect
         x="164"
         y="39"
         width="65.989998"
         height="27.65"
         id="86" /></clipPath><clipPath
       id="91_text_clipper"><rect
         x="164"
         y="51.450001"
         width="65.989998"
         height="27.65"
         id="92" /></clipPath><clipPath
       id="101_text_clipper"><rect
         x="84"
         y="39"
         width="59.779999"
         height="13.83"
         id="102" /></clipPath><clipPath
       id="111_text_clipper"><rect
         x="4"
         y="39"
         width="60.330002"
         height="13.83"
         id="112" /></clipPath></defs><path
     style="fill:none;fill-opacity:1;stroke:#ff0000;stroke-width:2;stroke-dasharray:none;stroke-opacity:1;marker-end:url(#ArrowWide)"
     d="m 212.5,20.707107 h 45"
     id="path1"
     sodipodi:nodetypes="cc"
     inkscape:label="path1" /></svg>
