<?xml version="1.0" encoding="utf-8" standalone="no"?>
<!DOCTYPE svg PUBLIC "-//W3C//DTD SVG 1.1//EN"
  "http://www.w3.org/Graphics/SVG/1.1/DTD/svg11.dtd">
<svg xmlns:xlink="http://www.w3.org/1999/xlink" width="417.645pt" height="215.552772pt" viewBox="0 0 417.645 215.552772" xmlns="http://www.w3.org/2000/svg" version="1.1">
 <metadata>
  <rdf:RDF xmlns:dc="http://purl.org/dc/elements/1.1/" xmlns:cc="http://creativecommons.org/ns#" xmlns:rdf="http://www.w3.org/1999/02/22-rdf-syntax-ns#">
   <cc:Work>
    <dc:type rdf:resource="http://purl.org/dc/dcmitype/StillImage"/>
    <dc:date>2024-04-03T22:55:12.203882</dc:date>
    <dc:format>image/svg+xml</dc:format>
    <dc:creator>
     <cc:Agent>
      <dc:title>Matplotlib v3.8.3, https://matplotlib.org/</dc:title>
     </cc:Agent>
    </dc:creator>
   </cc:Work>
  </rdf:RDF>
 </metadata>
 <defs>
  <style type="text/css">*{stroke-linejoin: round; stroke-linecap: butt}</style>
 </defs>
 <g id="figure_1">
  <g id="patch_1">
   <path d="M 0 215.552772 
L 417.645 215.552772 
L 417.645 -0 
L 0 -0 
z
" style="fill: #ffffff"/>
  </g>
  <g id="axes_1">
   <g id="patch_2">
    <path d="M 43.78125 177.996522 
L 400.90125 177.996522 
L 400.90125 7.2 
L 43.78125 7.2 
z
" style="fill: #ffffff"/>
   </g>
   <g id="PolyCollection_1">
    <defs>
     <path id="m7bb9133b2f" d="M 40.675859 -45.319728 
L 40.675859 -48.875401 
L 41.710989 -48.999617 
L 42.74612 -49.077252 
L 43.78125 -49.154887 
L 44.81638 -49.279102 
L 45.851511 -49.418845 
L 46.886641 -49.651749 
L 47.921772 -49.8536 
L 48.956902 -50.039923 
L 49.992033 -50.2573 
L 51.027163 -50.490205 
L 52.062293 -50.723109 
L 53.097424 -50.97154 
L 54.132554 -51.251026 
L 55.167685 -51.561565 
L 56.202815 -51.949739 
L 57.237946 -52.291332 
L 58.273076 -52.586344 
L 59.308207 -52.927937 
L 60.343337 -53.316111 
L 61.378467 -53.719812 
L 62.413598 -54.154567 
L 63.448728 -54.54274 
L 64.483859 -54.930914 
L 65.518989 -55.489885 
L 66.55412 -56.079909 
L 67.58925 -56.716514 
L 68.62438 -57.3997 
L 69.659511 -58.129467 
L 70.694641 -58.859234 
L 71.729772 -59.589001 
L 72.764902 -60.458511 
L 73.800033 -61.359074 
L 74.835163 -62.166476 
L 75.870293 -62.989405 
L 76.905424 -64.014184 
L 77.940554 -65.070017 
L 78.975685 -66.156904 
L 80.010815 -67.166156 
L 81.045946 -68.144354 
L 82.081076 -69.075972 
L 83.116207 -70.193913 
L 84.151337 -71.932932 
L 85.186467 -73.252723 
L 86.221598 -74.556987 
L 87.256728 -75.92336 
L 88.291859 -77.35184 
L 89.326989 -78.935589 
L 90.36212 -80.705662 
L 91.39725 -82.631005 
L 92.43238 -84.587401 
L 93.467511 -86.590379 
L 94.502641 -88.639937 
L 95.537772 -91.031088 
L 96.572902 -94.074372 
L 97.608033 -97.39714 
L 98.643163 -99.53986 
L 99.678293 -102.303659 
L 100.713424 -104.291109 
L 101.748554 -106.558045 
L 102.783685 -108.840507 
L 103.818815 -111.231659 
L 104.853946 -113.389906 
L 105.889076 -115.9208 
L 106.924207 -119.072772 
L 107.959337 -121.696827 
L 108.994467 -123.482427 
L 110.029598 -126.153064 
L 111.064728 -128.528688 
L 112.099859 -130.2056 
L 113.134989 -131.773822 
L 114.17012 -133.745746 
L 115.20525 -135.640034 
L 116.24038 -137.938024 
L 117.275511 -139.428612 
L 118.310641 -140.903673 
L 119.345772 -142.999812 
L 120.380902 -145.996514 
L 121.416033 -149.862727 
L 122.451163 -154.318963 
L 123.486293 -157.734893 
L 124.521424 -160.421057 
L 125.556554 -163.014059 
L 126.591685 -166.352354 
L 127.626815 -169.504327 
L 128.661946 -172.889203 
L 129.697076 -177.019373 
L 130.732207 -180.481885 
L 131.767337 -183.82018 
L 132.802467 -186.490817 
L 133.837598 -189.999909 
L 134.872728 -193.136354 
L 135.907859 -196.226219 
L 136.942989 -198.77264 
L 137.97812 -200.170066 
L 139.01325 -200.589293 
L 140.04838 -200.340862 
L 141.083511 -199.052125 
L 142.118641 -197.421794 
L 143.153772 -195.434344 
L 144.188902 -191.801036 
L 145.224033 -185.24866 
L 146.259163 -180.714789 
L 147.294293 -172.438921 
L 148.329424 -165.125725 
L 149.364554 -152.812848 
L 150.399685 -146.6797 
L 151.434815 -136.369801 
L 152.469946 -127.814448 
L 153.505076 -116.417662 
L 154.540207 -112.271965 
L 155.575337 -99.415645 
L 156.610467 -95.40969 
L 157.645598 -87.289092 
L 158.680728 -80.721189 
L 159.715859 -75.069377 
L 160.750989 -68.408313 
L 161.78612 -64.837113 
L 162.82125 -60.9709 
L 163.85638 -57.741293 
L 164.891511 -55.722789 
L 165.926641 -53.704285 
L 166.961772 -51.670253 
L 167.996902 -50.133085 
L 169.032033 -48.999617 
L 170.067163 -48.161161 
L 171.102293 -47.415867 
L 172.137424 -47.058747 
L 173.172554 -46.748208 
L 174.207685 -46.530831 
L 175.242815 -46.2824 
L 176.277946 -45.97186 
L 177.313076 -45.77001 
L 178.348207 -45.661321 
L 179.383337 -45.61474 
L 180.418467 -45.61474 
L 181.453598 -45.537106 
L 182.488728 -45.443944 
L 183.523859 -45.443944 
L 184.558989 -45.443944 
L 185.59412 -45.443944 
L 186.62925 -45.443944 
L 187.66438 -45.443944 
L 188.699511 -45.443944 
L 189.734641 -45.443944 
L 190.769772 -45.443944 
L 191.804902 -45.443944 
L 191.804902 -45.319728 
L 191.804902 -45.319728 
L 190.769772 -45.319728 
L 189.734641 -45.319728 
L 188.699511 -45.319728 
L 187.66438 -45.319728 
L 186.62925 -45.319728 
L 185.59412 -45.319728 
L 184.558989 -45.319728 
L 183.523859 -45.319728 
L 182.488728 -45.319728 
L 181.453598 -45.319728 
L 180.418467 -45.319728 
L 179.383337 -45.319728 
L 178.348207 -45.319728 
L 177.313076 -45.319728 
L 176.277946 -45.319728 
L 175.242815 -45.319728 
L 174.207685 -45.319728 
L 173.172554 -45.319728 
L 172.137424 -45.319728 
L 171.102293 -45.319728 
L 170.067163 -45.319728 
L 169.032033 -45.319728 
L 167.996902 -45.319728 
L 166.961772 -45.319728 
L 165.926641 -45.319728 
L 164.891511 -45.319728 
L 163.85638 -45.319728 
L 162.82125 -45.319728 
L 161.78612 -45.319728 
L 160.750989 -45.319728 
L 159.715859 -45.319728 
L 158.680728 -45.319728 
L 157.645598 -45.319728 
L 156.610467 -45.319728 
L 155.575337 -45.319728 
L 154.540207 -45.319728 
L 153.505076 -45.319728 
L 152.469946 -45.319728 
L 151.434815 -45.319728 
L 150.399685 -45.319728 
L 149.364554 -45.319728 
L 148.329424 -45.319728 
L 147.294293 -45.319728 
L 146.259163 -45.319728 
L 145.224033 -45.319728 
L 144.188902 -45.319728 
L 143.153772 -45.319728 
L 142.118641 -45.319728 
L 141.083511 -45.319728 
L 140.04838 -45.319728 
L 139.01325 -45.319728 
L 137.97812 -45.319728 
L 136.942989 -45.319728 
L 135.907859 -45.319728 
L 134.872728 -45.319728 
L 133.837598 -45.319728 
L 132.802467 -45.319728 
L 131.767337 -45.319728 
L 130.732207 -45.319728 
L 129.697076 -45.319728 
L 128.661946 -45.319728 
L 127.626815 -45.319728 
L 126.591685 -45.319728 
L 125.556554 -45.319728 
L 124.521424 -45.319728 
L 123.486293 -45.319728 
L 122.451163 -45.319728 
L 121.416033 -45.319728 
L 120.380902 -45.319728 
L 119.345772 -45.319728 
L 118.310641 -45.319728 
L 117.275511 -45.319728 
L 116.24038 -45.319728 
L 115.20525 -45.319728 
L 114.17012 -45.319728 
L 113.134989 -45.319728 
L 112.099859 -45.319728 
L 111.064728 -45.319728 
L 110.029598 -45.319728 
L 108.994467 -45.319728 
L 107.959337 -45.319728 
L 106.924207 -45.319728 
L 105.889076 -45.319728 
L 104.853946 -45.319728 
L 103.818815 -45.319728 
L 102.783685 -45.319728 
L 101.748554 -45.319728 
L 100.713424 -45.319728 
L 99.678293 -45.319728 
L 98.643163 -45.319728 
L 97.608033 -45.319728 
L 96.572902 -45.319728 
L 95.537772 -45.319728 
L 94.502641 -45.319728 
L 93.467511 -45.319728 
L 92.43238 -45.319728 
L 91.39725 -45.319728 
L 90.36212 -45.319728 
L 89.326989 -45.319728 
L 88.291859 -45.319728 
L 87.256728 -45.319728 
L 86.221598 -45.319728 
L 85.186467 -45.319728 
L 84.151337 -45.319728 
L 83.116207 -45.319728 
L 82.081076 -45.319728 
L 81.045946 -45.319728 
L 80.010815 -45.319728 
L 78.975685 -45.319728 
L 77.940554 -45.319728 
L 76.905424 -45.319728 
L 75.870293 -45.319728 
L 74.835163 -45.319728 
L 73.800033 -45.319728 
L 72.764902 -45.319728 
L 71.729772 -45.319728 
L 70.694641 -45.319728 
L 69.659511 -45.319728 
L 68.62438 -45.319728 
L 67.58925 -45.319728 
L 66.55412 -45.319728 
L 65.518989 -45.319728 
L 64.483859 -45.319728 
L 63.448728 -45.319728 
L 62.413598 -45.319728 
L 61.378467 -45.319728 
L 60.343337 -45.319728 
L 59.308207 -45.319728 
L 58.273076 -45.319728 
L 57.237946 -45.319728 
L 56.202815 -45.319728 
L 55.167685 -45.319728 
L 54.132554 -45.319728 
L 53.097424 -45.319728 
L 52.062293 -45.319728 
L 51.027163 -45.319728 
L 49.992033 -45.319728 
L 48.956902 -45.319728 
L 47.921772 -45.319728 
L 46.886641 -45.319728 
L 45.851511 -45.319728 
L 44.81638 -45.319728 
L 43.78125 -45.319728 
L 42.74612 -45.319728 
L 41.710989 -45.319728 
L 40.675859 -45.319728 
z
" style="stroke: #00ffb3; stroke-opacity: 0.5"/>
    </defs>
    <g clip-path="url(#pfb8e3979da)">
     <use xlink:href="#m7bb9133b2f" x="0" y="215.552772" style="fill: #00ffb3; fill-opacity: 0.5; stroke: #00ffb3; stroke-opacity: 0.5"/>
    </g>
   </g>
   <g id="PolyCollection_2">
    <defs>
     <path id="m3f4ab23381" d="M 110.029598 -45.319728 
L 110.029598 -45.552633 
L 111.064728 -45.506052 
L 112.099859 -45.474998 
L 113.134989 -45.474998 
L 114.17012 -45.443944 
L 115.20525 -45.41289 
L 116.24038 -45.459471 
L 117.275511 -45.537106 
L 118.310641 -45.645794 
L 119.345772 -45.738956 
L 120.380902 -45.863172 
L 121.416033 -46.002914 
L 122.451163 -46.204765 
L 123.486293 -46.437669 
L 124.521424 -46.779262 
L 125.556554 -47.322706 
L 126.591685 -47.959311 
L 127.626815 -48.642497 
L 128.661946 -49.325683 
L 129.697076 -50.319408 
L 130.732207 -51.437349 
L 131.767337 -52.896883 
L 132.802467 -54.604848 
L 133.837598 -56.623353 
L 134.872728 -59.790852 
L 135.907859 -62.244111 
L 136.942989 -65.722149 
L 137.97812 -69.402038 
L 139.01325 -74.308556 
L 140.04838 -78.764793 
L 141.083511 -86.466163 
L 142.118641 -94.617815 
L 143.153772 -100.782017 
L 144.188902 -112.303019 
L 145.224033 -120.904953 
L 146.259163 -131.727241 
L 147.294293 -141.198685 
L 148.329424 -150.949613 
L 149.364554 -160.995554 
L 150.399685 -170.91728 
L 151.434815 -181.366921 
L 152.469946 -190.077544 
L 153.505076 -194.518253 
L 154.540207 -197.809968 
L 155.575337 -199.797419 
L 156.610467 -200.589293 
L 157.645598 -199.222921 
L 158.680728 -196.862824 
L 159.715859 -191.769982 
L 160.750989 -186.226859 
L 161.78612 -179.317363 
L 162.82125 -172.966838 
L 163.85638 -165.172306 
L 164.891511 -159.209954 
L 165.926641 -152.238351 
L 166.961772 -144.863047 
L 167.996902 -139.382031 
L 169.032033 -134.382351 
L 170.067163 -130.422977 
L 171.102293 -125.330135 
L 172.137424 -120.501252 
L 173.172554 -116.153704 
L 174.207685 -113.638337 
L 175.242815 -110.595053 
L 176.277946 -107.769147 
L 177.313076 -105.300361 
L 178.348207 -103.048953 
L 179.383337 -101.309933 
L 180.418467 -99.462226 
L 181.453598 -97.583464 
L 182.488728 -95.937607 
L 183.523859 -94.509127 
L 184.558989 -93.189335 
L 185.59412 -91.962706 
L 186.62925 -90.860292 
L 187.66438 -89.89762 
L 188.699511 -89.1368 
L 189.734641 -88.236236 
L 190.769772 -87.273565 
L 191.804902 -86.419582 
L 192.840033 -85.5656 
L 193.875163 -84.478713 
L 194.910293 -83.360772 
L 195.945424 -82.087561 
L 196.980554 -80.783297 
L 198.015685 -79.479033 
L 199.050815 -78.26793 
L 200.085946 -76.761815 
L 201.121076 -75.131485 
L 202.156207 -73.78064 
L 203.191337 -72.460848 
L 204.226467 -71.12553 
L 205.261598 -69.774685 
L 206.296728 -68.501474 
L 207.331859 -67.150629 
L 208.366989 -65.737676 
L 209.40212 -64.635262 
L 210.43725 -63.62601 
L 211.47238 -62.7565 
L 212.507511 -61.918045 
L 213.542641 -61.095116 
L 214.577772 -60.179026 
L 215.612902 -59.13872 
L 216.648033 -58.377899 
L 217.683163 -57.75682 
L 218.718293 -57.120215 
L 219.753424 -56.48361 
L 220.788554 -55.878059 
L 221.823685 -55.288034 
L 222.858815 -54.791172 
L 223.893946 -54.278782 
L 224.929076 -53.750866 
L 225.964207 -53.285057 
L 226.999337 -52.896883 
L 228.034467 -52.570817 
L 229.069598 -52.275805 
L 230.104728 -51.965266 
L 231.139859 -51.654727 
L 232.174989 -51.375241 
L 233.21012 -51.095756 
L 234.24525 -50.862852 
L 235.28038 -50.61442 
L 236.315511 -50.334935 
L 237.350641 -50.164139 
L 238.385772 -50.05545 
L 239.420902 -49.838073 
L 240.456033 -49.589641 
L 241.491163 -49.418845 
L 242.526293 -49.232521 
L 243.561424 -49.061725 
L 244.596554 -48.875401 
L 245.631685 -48.658024 
L 246.666815 -48.4717 
L 247.701946 -48.347485 
L 248.737076 -48.223269 
L 249.772207 -48.11458 
L 250.807337 -47.990365 
L 251.842467 -47.866149 
L 252.877598 -47.71088 
L 253.912728 -47.55561 
L 254.947859 -47.446921 
L 255.982989 -47.35376 
L 257.01812 -47.260598 
L 258.05325 -47.167436 
L 259.08838 -47.058747 
L 260.123511 -46.887951 
L 261.158641 -46.670573 
L 262.193772 -46.468723 
L 263.228902 -46.360034 
L 264.264033 -46.2824 
L 265.299163 -46.220292 
L 266.334293 -46.158184 
L 267.369424 -46.142657 
L 268.404554 -46.111603 
L 269.439685 -46.018441 
L 270.474815 -45.956333 
L 271.509946 -45.956333 
L 272.545076 -45.909753 
L 273.580207 -45.832118 
L 274.615337 -45.723429 
L 275.650467 -45.583687 
L 276.685598 -45.506052 
L 277.720728 -45.459471 
L 278.755859 -45.459471 
L 279.790989 -45.443944 
L 280.82612 -45.381836 
L 281.86125 -45.350782 
L 281.86125 -45.319728 
L 281.86125 -45.319728 
L 280.82612 -45.319728 
L 279.790989 -45.319728 
L 278.755859 -45.319728 
L 277.720728 -45.319728 
L 276.685598 -45.319728 
L 275.650467 -45.319728 
L 274.615337 -45.319728 
L 273.580207 -45.319728 
L 272.545076 -45.319728 
L 271.509946 -45.319728 
L 270.474815 -45.319728 
L 269.439685 -45.319728 
L 268.404554 -45.319728 
L 267.369424 -45.319728 
L 266.334293 -45.319728 
L 265.299163 -45.319728 
L 264.264033 -45.319728 
L 263.228902 -45.319728 
L 262.193772 -45.319728 
L 261.158641 -45.319728 
L 260.123511 -45.319728 
L 259.08838 -45.319728 
L 258.05325 -45.319728 
L 257.01812 -45.319728 
L 255.982989 -45.319728 
L 254.947859 -45.319728 
L 253.912728 -45.319728 
L 252.877598 -45.319728 
L 251.842467 -45.319728 
L 250.807337 -45.319728 
L 249.772207 -45.319728 
L 248.737076 -45.319728 
L 247.701946 -45.319728 
L 246.666815 -45.319728 
L 245.631685 -45.319728 
L 244.596554 -45.319728 
L 243.561424 -45.319728 
L 242.526293 -45.319728 
L 241.491163 -45.319728 
L 240.456033 -45.319728 
L 239.420902 -45.319728 
L 238.385772 -45.319728 
L 237.350641 -45.319728 
L 236.315511 -45.319728 
L 235.28038 -45.319728 
L 234.24525 -45.319728 
L 233.21012 -45.319728 
L 232.174989 -45.319728 
L 231.139859 -45.319728 
L 230.104728 -45.319728 
L 229.069598 -45.319728 
L 228.034467 -45.319728 
L 226.999337 -45.319728 
L 225.964207 -45.319728 
L 224.929076 -45.319728 
L 223.893946 -45.319728 
L 222.858815 -45.319728 
L 221.823685 -45.319728 
L 220.788554 -45.319728 
L 219.753424 -45.319728 
L 218.718293 -45.319728 
L 217.683163 -45.319728 
L 216.648033 -45.319728 
L 215.612902 -45.319728 
L 214.577772 -45.319728 
L 213.542641 -45.319728 
L 212.507511 -45.319728 
L 211.47238 -45.319728 
L 210.43725 -45.319728 
L 209.40212 -45.319728 
L 208.366989 -45.319728 
L 207.331859 -45.319728 
L 206.296728 -45.319728 
L 205.261598 -45.319728 
L 204.226467 -45.319728 
L 203.191337 -45.319728 
L 202.156207 -45.319728 
L 201.121076 -45.319728 
L 200.085946 -45.319728 
L 199.050815 -45.319728 
L 198.015685 -45.319728 
L 196.980554 -45.319728 
L 195.945424 -45.319728 
L 194.910293 -45.319728 
L 193.875163 -45.319728 
L 192.840033 -45.319728 
L 191.804902 -45.319728 
L 190.769772 -45.319728 
L 189.734641 -45.319728 
L 188.699511 -45.319728 
L 187.66438 -45.319728 
L 186.62925 -45.319728 
L 185.59412 -45.319728 
L 184.558989 -45.319728 
L 183.523859 -45.319728 
L 182.488728 -45.319728 
L 181.453598 -45.319728 
L 180.418467 -45.319728 
L 179.383337 -45.319728 
L 178.348207 -45.319728 
L 177.313076 -45.319728 
L 176.277946 -45.319728 
L 175.242815 -45.319728 
L 174.207685 -45.319728 
L 173.172554 -45.319728 
L 172.137424 -45.319728 
L 171.102293 -45.319728 
L 170.067163 -45.319728 
L 169.032033 -45.319728 
L 167.996902 -45.319728 
L 166.961772 -45.319728 
L 165.926641 -45.319728 
L 164.891511 -45.319728 
L 163.85638 -45.319728 
L 162.82125 -45.319728 
L 161.78612 -45.319728 
L 160.750989 -45.319728 
L 159.715859 -45.319728 
L 158.680728 -45.319728 
L 157.645598 -45.319728 
L 156.610467 -45.319728 
L 155.575337 -45.319728 
L 154.540207 -45.319728 
L 153.505076 -45.319728 
L 152.469946 -45.319728 
L 151.434815 -45.319728 
L 150.399685 -45.319728 
L 149.364554 -45.319728 
L 148.329424 -45.319728 
L 147.294293 -45.319728 
L 146.259163 -45.319728 
L 145.224033 -45.319728 
L 144.188902 -45.319728 
L 143.153772 -45.319728 
L 142.118641 -45.319728 
L 141.083511 -45.319728 
L 140.04838 -45.319728 
L 139.01325 -45.319728 
L 137.97812 -45.319728 
L 136.942989 -45.319728 
L 135.907859 -45.319728 
L 134.872728 -45.319728 
L 133.837598 -45.319728 
L 132.802467 -45.319728 
L 131.767337 -45.319728 
L 130.732207 -45.319728 
L 129.697076 -45.319728 
L 128.661946 -45.319728 
L 127.626815 -45.319728 
L 126.591685 -45.319728 
L 125.556554 -45.319728 
L 124.521424 -45.319728 
L 123.486293 -45.319728 
L 122.451163 -45.319728 
L 121.416033 -45.319728 
L 120.380902 -45.319728 
L 119.345772 -45.319728 
L 118.310641 -45.319728 
L 117.275511 -45.319728 
L 116.24038 -45.319728 
L 115.20525 -45.319728 
L 114.17012 -45.319728 
L 113.134989 -45.319728 
L 112.099859 -45.319728 
L 111.064728 -45.319728 
L 110.029598 -45.319728 
z
" style="stroke: #0fff00; stroke-opacity: 0.5"/>
    </defs>
    <g clip-path="url(#pfb8e3979da)">
     <use xlink:href="#m3f4ab23381" x="0" y="215.552772" style="fill: #0fff00; fill-opacity: 0.5; stroke: #0fff00; stroke-opacity: 0.5"/>
    </g>
   </g>
   <g id="matplotlib.axis_1">
    <g id="xtick_1">
     <g id="line2d_1">
      <path d="M 90.36212 177.996522 
L 90.36212 7.2 
" clip-path="url(#pfb8e3979da)" style="fill: none; stroke: #b0b0b0; stroke-width: 0.8; stroke-linecap: square"/>
     </g>
     <g id="line2d_2">
      <defs>
       <path id="m90d38b328a" d="M 0 0 
L 0 3.5 
" style="stroke: #000000; stroke-width: 0.8"/>
      </defs>
      <g>
       <use xlink:href="#m90d38b328a" x="90.36212" y="177.996522" style="stroke: #000000; stroke-width: 0.8"/>
      </g>
     </g>
     <g id="text_1">
      <!-- 450 -->
      <g transform="translate(80.81837 192.594959) scale(0.1 -0.1)">
       <defs>
        <path id="DejaVuSans-34" d="M 2419 4116 
L 825 1625 
L 2419 1625 
L 2419 4116 
z
M 2253 4666 
L 3047 4666 
L 3047 1625 
L 3713 1625 
L 3713 1100 
L 3047 1100 
L 3047 0 
L 2419 0 
L 2419 1100 
L 313 1100 
L 313 1709 
L 2253 4666 
z
" transform="scale(0.015625)"/>
        <path id="DejaVuSans-35" d="M 691 4666 
L 3169 4666 
L 3169 4134 
L 1269 4134 
L 1269 2991 
Q 1406 3038 1543 3061 
Q 1681 3084 1819 3084 
Q 2600 3084 3056 2656 
Q 3513 2228 3513 1497 
Q 3513 744 3044 326 
Q 2575 -91 1722 -91 
Q 1428 -91 1123 -41 
Q 819 9 494 109 
L 494 744 
Q 775 591 1075 516 
Q 1375 441 1709 441 
Q 2250 441 2565 725 
Q 2881 1009 2881 1497 
Q 2881 1984 2565 2268 
Q 2250 2553 1709 2553 
Q 1456 2553 1204 2497 
Q 953 2441 691 2322 
L 691 4666 
z
" transform="scale(0.015625)"/>
        <path id="DejaVuSans-30" d="M 2034 4250 
Q 1547 4250 1301 3770 
Q 1056 3291 1056 2328 
Q 1056 1369 1301 889 
Q 1547 409 2034 409 
Q 2525 409 2770 889 
Q 3016 1369 3016 2328 
Q 3016 3291 2770 3770 
Q 2525 4250 2034 4250 
z
M 2034 4750 
Q 2819 4750 3233 4129 
Q 3647 3509 3647 2328 
Q 3647 1150 3233 529 
Q 2819 -91 2034 -91 
Q 1250 -91 836 529 
Q 422 1150 422 2328 
Q 422 3509 836 4129 
Q 1250 4750 2034 4750 
z
" transform="scale(0.015625)"/>
       </defs>
       <use xlink:href="#DejaVuSans-34"/>
       <use xlink:href="#DejaVuSans-35" x="63.623047"/>
       <use xlink:href="#DejaVuSans-30" x="127.246094"/>
      </g>
     </g>
    </g>
    <g id="xtick_2">
     <g id="line2d_3">
      <path d="M 142.118641 177.996522 
L 142.118641 7.2 
" clip-path="url(#pfb8e3979da)" style="fill: none; stroke: #b0b0b0; stroke-width: 0.8; stroke-linecap: square"/>
     </g>
     <g id="line2d_4">
      <g>
       <use xlink:href="#m90d38b328a" x="142.118641" y="177.996522" style="stroke: #000000; stroke-width: 0.8"/>
      </g>
     </g>
     <g id="text_2">
      <!-- 500 -->
      <g transform="translate(132.574891 192.594959) scale(0.1 -0.1)">
       <use xlink:href="#DejaVuSans-35"/>
       <use xlink:href="#DejaVuSans-30" x="63.623047"/>
       <use xlink:href="#DejaVuSans-30" x="127.246094"/>
      </g>
     </g>
    </g>
    <g id="xtick_3">
     <g id="line2d_5">
      <path d="M 193.875163 177.996522 
L 193.875163 7.2 
" clip-path="url(#pfb8e3979da)" style="fill: none; stroke: #b0b0b0; stroke-width: 0.8; stroke-linecap: square"/>
     </g>
     <g id="line2d_6">
      <g>
       <use xlink:href="#m90d38b328a" x="193.875163" y="177.996522" style="stroke: #000000; stroke-width: 0.8"/>
      </g>
     </g>
     <g id="text_3">
      <!-- 550 -->
      <g transform="translate(184.331413 192.594959) scale(0.1 -0.1)">
       <use xlink:href="#DejaVuSans-35"/>
       <use xlink:href="#DejaVuSans-35" x="63.623047"/>
       <use xlink:href="#DejaVuSans-30" x="127.246094"/>
      </g>
     </g>
    </g>
    <g id="xtick_4">
     <g id="line2d_7">
      <path d="M 245.631685 177.996522 
L 245.631685 7.2 
" clip-path="url(#pfb8e3979da)" style="fill: none; stroke: #b0b0b0; stroke-width: 0.8; stroke-linecap: square"/>
     </g>
     <g id="line2d_8">
      <g>
       <use xlink:href="#m90d38b328a" x="245.631685" y="177.996522" style="stroke: #000000; stroke-width: 0.8"/>
      </g>
     </g>
     <g id="text_4">
      <!-- 600 -->
      <g transform="translate(236.087935 192.594959) scale(0.1 -0.1)">
       <defs>
        <path id="DejaVuSans-36" d="M 2113 2584 
Q 1688 2584 1439 2293 
Q 1191 2003 1191 1497 
Q 1191 994 1439 701 
Q 1688 409 2113 409 
Q 2538 409 2786 701 
Q 3034 994 3034 1497 
Q 3034 2003 2786 2293 
Q 2538 2584 2113 2584 
z
M 3366 4563 
L 3366 3988 
Q 3128 4100 2886 4159 
Q 2644 4219 2406 4219 
Q 1781 4219 1451 3797 
Q 1122 3375 1075 2522 
Q 1259 2794 1537 2939 
Q 1816 3084 2150 3084 
Q 2853 3084 3261 2657 
Q 3669 2231 3669 1497 
Q 3669 778 3244 343 
Q 2819 -91 2113 -91 
Q 1303 -91 875 529 
Q 447 1150 447 2328 
Q 447 3434 972 4092 
Q 1497 4750 2381 4750 
Q 2619 4750 2861 4703 
Q 3103 4656 3366 4563 
z
" transform="scale(0.015625)"/>
       </defs>
       <use xlink:href="#DejaVuSans-36"/>
       <use xlink:href="#DejaVuSans-30" x="63.623047"/>
       <use xlink:href="#DejaVuSans-30" x="127.246094"/>
      </g>
     </g>
    </g>
    <g id="xtick_5">
     <g id="line2d_9">
      <path d="M 297.388207 177.996522 
L 297.388207 7.2 
" clip-path="url(#pfb8e3979da)" style="fill: none; stroke: #b0b0b0; stroke-width: 0.8; stroke-linecap: square"/>
     </g>
     <g id="line2d_10">
      <g>
       <use xlink:href="#m90d38b328a" x="297.388207" y="177.996522" style="stroke: #000000; stroke-width: 0.8"/>
      </g>
     </g>
     <g id="text_5">
      <!-- 650 -->
      <g transform="translate(287.844457 192.594959) scale(0.1 -0.1)">
       <use xlink:href="#DejaVuSans-36"/>
       <use xlink:href="#DejaVuSans-35" x="63.623047"/>
       <use xlink:href="#DejaVuSans-30" x="127.246094"/>
      </g>
     </g>
    </g>
    <g id="xtick_6">
     <g id="line2d_11">
      <path d="M 349.144728 177.996522 
L 349.144728 7.2 
" clip-path="url(#pfb8e3979da)" style="fill: none; stroke: #b0b0b0; stroke-width: 0.8; stroke-linecap: square"/>
     </g>
     <g id="line2d_12">
      <g>
       <use xlink:href="#m90d38b328a" x="349.144728" y="177.996522" style="stroke: #000000; stroke-width: 0.8"/>
      </g>
     </g>
     <g id="text_6">
      <!-- 700 -->
      <g transform="translate(339.600978 192.594959) scale(0.1 -0.1)">
       <defs>
        <path id="DejaVuSans-37" d="M 525 4666 
L 3525 4666 
L 3525 4397 
L 1831 0 
L 1172 0 
L 2766 4134 
L 525 4134 
L 525 4666 
z
" transform="scale(0.015625)"/>
       </defs>
       <use xlink:href="#DejaVuSans-37"/>
       <use xlink:href="#DejaVuSans-30" x="63.623047"/>
       <use xlink:href="#DejaVuSans-30" x="127.246094"/>
      </g>
     </g>
    </g>
    <g id="xtick_7">
     <g id="line2d_13">
      <path d="M 400.90125 177.996522 
L 400.90125 7.2 
" clip-path="url(#pfb8e3979da)" style="fill: none; stroke: #b0b0b0; stroke-width: 0.8; stroke-linecap: square"/>
     </g>
     <g id="line2d_14">
      <g>
       <use xlink:href="#m90d38b328a" x="400.90125" y="177.996522" style="stroke: #000000; stroke-width: 0.8"/>
      </g>
     </g>
     <g id="text_7">
      <!-- 750 -->
      <g transform="translate(391.3575 192.594959) scale(0.1 -0.1)">
       <use xlink:href="#DejaVuSans-37"/>
       <use xlink:href="#DejaVuSans-35" x="63.623047"/>
       <use xlink:href="#DejaVuSans-30" x="127.246094"/>
      </g>
     </g>
    </g>
    <g id="text_8">
     <!-- wavelength -->
     <g transform="translate(193.214688 206.273084) scale(0.1 -0.1)">
      <defs>
       <path id="DejaVuSans-77" d="M 269 3500 
L 844 3500 
L 1563 769 
L 2278 3500 
L 2956 3500 
L 3675 769 
L 4391 3500 
L 4966 3500 
L 4050 0 
L 3372 0 
L 2619 2869 
L 1863 0 
L 1184 0 
L 269 3500 
z
" transform="scale(0.015625)"/>
       <path id="DejaVuSans-61" d="M 2194 1759 
Q 1497 1759 1228 1600 
Q 959 1441 959 1056 
Q 959 750 1161 570 
Q 1363 391 1709 391 
Q 2188 391 2477 730 
Q 2766 1069 2766 1631 
L 2766 1759 
L 2194 1759 
z
M 3341 1997 
L 3341 0 
L 2766 0 
L 2766 531 
Q 2569 213 2275 61 
Q 1981 -91 1556 -91 
Q 1019 -91 701 211 
Q 384 513 384 1019 
Q 384 1609 779 1909 
Q 1175 2209 1959 2209 
L 2766 2209 
L 2766 2266 
Q 2766 2663 2505 2880 
Q 2244 3097 1772 3097 
Q 1472 3097 1187 3025 
Q 903 2953 641 2809 
L 641 3341 
Q 956 3463 1253 3523 
Q 1550 3584 1831 3584 
Q 2591 3584 2966 3190 
Q 3341 2797 3341 1997 
z
" transform="scale(0.015625)"/>
       <path id="DejaVuSans-76" d="M 191 3500 
L 800 3500 
L 1894 563 
L 2988 3500 
L 3597 3500 
L 2284 0 
L 1503 0 
L 191 3500 
z
" transform="scale(0.015625)"/>
       <path id="DejaVuSans-65" d="M 3597 1894 
L 3597 1613 
L 953 1613 
Q 991 1019 1311 708 
Q 1631 397 2203 397 
Q 2534 397 2845 478 
Q 3156 559 3463 722 
L 3463 178 
Q 3153 47 2828 -22 
Q 2503 -91 2169 -91 
Q 1331 -91 842 396 
Q 353 884 353 1716 
Q 353 2575 817 3079 
Q 1281 3584 2069 3584 
Q 2775 3584 3186 3129 
Q 3597 2675 3597 1894 
z
M 3022 2063 
Q 3016 2534 2758 2815 
Q 2500 3097 2075 3097 
Q 1594 3097 1305 2825 
Q 1016 2553 972 2059 
L 3022 2063 
z
" transform="scale(0.015625)"/>
       <path id="DejaVuSans-6c" d="M 603 4863 
L 1178 4863 
L 1178 0 
L 603 0 
L 603 4863 
z
" transform="scale(0.015625)"/>
       <path id="DejaVuSans-6e" d="M 3513 2113 
L 3513 0 
L 2938 0 
L 2938 2094 
Q 2938 2591 2744 2837 
Q 2550 3084 2163 3084 
Q 1697 3084 1428 2787 
Q 1159 2491 1159 1978 
L 1159 0 
L 581 0 
L 581 3500 
L 1159 3500 
L 1159 2956 
Q 1366 3272 1645 3428 
Q 1925 3584 2291 3584 
Q 2894 3584 3203 3211 
Q 3513 2838 3513 2113 
z
" transform="scale(0.015625)"/>
       <path id="DejaVuSans-67" d="M 2906 1791 
Q 2906 2416 2648 2759 
Q 2391 3103 1925 3103 
Q 1463 3103 1205 2759 
Q 947 2416 947 1791 
Q 947 1169 1205 825 
Q 1463 481 1925 481 
Q 2391 481 2648 825 
Q 2906 1169 2906 1791 
z
M 3481 434 
Q 3481 -459 3084 -895 
Q 2688 -1331 1869 -1331 
Q 1566 -1331 1297 -1286 
Q 1028 -1241 775 -1147 
L 775 -588 
Q 1028 -725 1275 -790 
Q 1522 -856 1778 -856 
Q 2344 -856 2625 -561 
Q 2906 -266 2906 331 
L 2906 616 
Q 2728 306 2450 153 
Q 2172 0 1784 0 
Q 1141 0 747 490 
Q 353 981 353 1791 
Q 353 2603 747 3093 
Q 1141 3584 1784 3584 
Q 2172 3584 2450 3431 
Q 2728 3278 2906 2969 
L 2906 3500 
L 3481 3500 
L 3481 434 
z
" transform="scale(0.015625)"/>
       <path id="DejaVuSans-74" d="M 1172 4494 
L 1172 3500 
L 2356 3500 
L 2356 3053 
L 1172 3053 
L 1172 1153 
Q 1172 725 1289 603 
Q 1406 481 1766 481 
L 2356 481 
L 2356 0 
L 1766 0 
Q 1100 0 847 248 
Q 594 497 594 1153 
L 594 3053 
L 172 3053 
L 172 3500 
L 594 3500 
L 594 4494 
L 1172 4494 
z
" transform="scale(0.015625)"/>
       <path id="DejaVuSans-68" d="M 3513 2113 
L 3513 0 
L 2938 0 
L 2938 2094 
Q 2938 2591 2744 2837 
Q 2550 3084 2163 3084 
Q 1697 3084 1428 2787 
Q 1159 2491 1159 1978 
L 1159 0 
L 581 0 
L 581 4863 
L 1159 4863 
L 1159 2956 
Q 1366 3272 1645 3428 
Q 1925 3584 2291 3584 
Q 2894 3584 3203 3211 
Q 3513 2838 3513 2113 
z
" transform="scale(0.015625)"/>
      </defs>
      <use xlink:href="#DejaVuSans-77"/>
      <use xlink:href="#DejaVuSans-61" x="81.787109"/>
      <use xlink:href="#DejaVuSans-76" x="143.066406"/>
      <use xlink:href="#DejaVuSans-65" x="202.246094"/>
      <use xlink:href="#DejaVuSans-6c" x="263.769531"/>
      <use xlink:href="#DejaVuSans-65" x="291.552734"/>
      <use xlink:href="#DejaVuSans-6e" x="353.076172"/>
      <use xlink:href="#DejaVuSans-67" x="416.455078"/>
      <use xlink:href="#DejaVuSans-74" x="479.931641"/>
      <use xlink:href="#DejaVuSans-68" x="519.140625"/>
     </g>
    </g>
   </g>
   <g id="matplotlib.axis_2">
    <g id="ytick_1">
     <g id="line2d_15">
      <path d="M 43.78125 170.233043 
L 400.90125 170.233043 
" clip-path="url(#pfb8e3979da)" style="fill: none; stroke: #b0b0b0; stroke-width: 0.8; stroke-linecap: square"/>
     </g>
     <g id="line2d_16">
      <defs>
       <path id="mb6cd7508a4" d="M 0 0 
L -3.5 0 
" style="stroke: #000000; stroke-width: 0.8"/>
      </defs>
      <g>
       <use xlink:href="#mb6cd7508a4" x="43.78125" y="170.233043" style="stroke: #000000; stroke-width: 0.8"/>
      </g>
     </g>
     <g id="text_9">
      <!-- 0.0 -->
      <g transform="translate(20.878125 174.032262) scale(0.1 -0.1)">
       <defs>
        <path id="DejaVuSans-2e" d="M 684 794 
L 1344 794 
L 1344 0 
L 684 0 
L 684 794 
z
" transform="scale(0.015625)"/>
       </defs>
       <use xlink:href="#DejaVuSans-30"/>
       <use xlink:href="#DejaVuSans-2e" x="63.623047"/>
       <use xlink:href="#DejaVuSans-30" x="95.410156"/>
      </g>
     </g>
    </g>
    <g id="ytick_2">
     <g id="line2d_17">
      <path d="M 43.78125 139.17913 
L 400.90125 139.17913 
" clip-path="url(#pfb8e3979da)" style="fill: none; stroke: #b0b0b0; stroke-width: 0.8; stroke-linecap: square"/>
     </g>
     <g id="line2d_18">
      <g>
       <use xlink:href="#mb6cd7508a4" x="43.78125" y="139.17913" style="stroke: #000000; stroke-width: 0.8"/>
      </g>
     </g>
     <g id="text_10">
      <!-- 0.2 -->
      <g transform="translate(20.878125 142.978349) scale(0.1 -0.1)">
       <defs>
        <path id="DejaVuSans-32" d="M 1228 531 
L 3431 531 
L 3431 0 
L 469 0 
L 469 531 
Q 828 903 1448 1529 
Q 2069 2156 2228 2338 
Q 2531 2678 2651 2914 
Q 2772 3150 2772 3378 
Q 2772 3750 2511 3984 
Q 2250 4219 1831 4219 
Q 1534 4219 1204 4116 
Q 875 4013 500 3803 
L 500 4441 
Q 881 4594 1212 4672 
Q 1544 4750 1819 4750 
Q 2544 4750 2975 4387 
Q 3406 4025 3406 3419 
Q 3406 3131 3298 2873 
Q 3191 2616 2906 2266 
Q 2828 2175 2409 1742 
Q 1991 1309 1228 531 
z
" transform="scale(0.015625)"/>
       </defs>
       <use xlink:href="#DejaVuSans-30"/>
       <use xlink:href="#DejaVuSans-2e" x="63.623047"/>
       <use xlink:href="#DejaVuSans-32" x="95.410156"/>
      </g>
     </g>
    </g>
    <g id="ytick_3">
     <g id="line2d_19">
      <path d="M 43.78125 108.125217 
L 400.90125 108.125217 
" clip-path="url(#pfb8e3979da)" style="fill: none; stroke: #b0b0b0; stroke-width: 0.8; stroke-linecap: square"/>
     </g>
     <g id="line2d_20">
      <g>
       <use xlink:href="#mb6cd7508a4" x="43.78125" y="108.125217" style="stroke: #000000; stroke-width: 0.8"/>
      </g>
     </g>
     <g id="text_11">
      <!-- 0.4 -->
      <g transform="translate(20.878125 111.924436) scale(0.1 -0.1)">
       <use xlink:href="#DejaVuSans-30"/>
       <use xlink:href="#DejaVuSans-2e" x="63.623047"/>
       <use xlink:href="#DejaVuSans-34" x="95.410156"/>
      </g>
     </g>
    </g>
    <g id="ytick_4">
     <g id="line2d_21">
      <path d="M 43.78125 77.071304 
L 400.90125 77.071304 
" clip-path="url(#pfb8e3979da)" style="fill: none; stroke: #b0b0b0; stroke-width: 0.8; stroke-linecap: square"/>
     </g>
     <g id="line2d_22">
      <g>
       <use xlink:href="#mb6cd7508a4" x="43.78125" y="77.071304" style="stroke: #000000; stroke-width: 0.8"/>
      </g>
     </g>
     <g id="text_12">
      <!-- 0.6 -->
      <g transform="translate(20.878125 80.870523) scale(0.1 -0.1)">
       <use xlink:href="#DejaVuSans-30"/>
       <use xlink:href="#DejaVuSans-2e" x="63.623047"/>
       <use xlink:href="#DejaVuSans-36" x="95.410156"/>
      </g>
     </g>
    </g>
    <g id="ytick_5">
     <g id="line2d_23">
      <path d="M 43.78125 46.017391 
L 400.90125 46.017391 
" clip-path="url(#pfb8e3979da)" style="fill: none; stroke: #b0b0b0; stroke-width: 0.8; stroke-linecap: square"/>
     </g>
     <g id="line2d_24">
      <g>
       <use xlink:href="#mb6cd7508a4" x="43.78125" y="46.017391" style="stroke: #000000; stroke-width: 0.8"/>
      </g>
     </g>
     <g id="text_13">
      <!-- 0.8 -->
      <g transform="translate(20.878125 49.81661) scale(0.1 -0.1)">
       <defs>
        <path id="DejaVuSans-38" d="M 2034 2216 
Q 1584 2216 1326 1975 
Q 1069 1734 1069 1313 
Q 1069 891 1326 650 
Q 1584 409 2034 409 
Q 2484 409 2743 651 
Q 3003 894 3003 1313 
Q 3003 1734 2745 1975 
Q 2488 2216 2034 2216 
z
M 1403 2484 
Q 997 2584 770 2862 
Q 544 3141 544 3541 
Q 544 4100 942 4425 
Q 1341 4750 2034 4750 
Q 2731 4750 3128 4425 
Q 3525 4100 3525 3541 
Q 3525 3141 3298 2862 
Q 3072 2584 2669 2484 
Q 3125 2378 3379 2068 
Q 3634 1759 3634 1313 
Q 3634 634 3220 271 
Q 2806 -91 2034 -91 
Q 1263 -91 848 271 
Q 434 634 434 1313 
Q 434 1759 690 2068 
Q 947 2378 1403 2484 
z
M 1172 3481 
Q 1172 3119 1398 2916 
Q 1625 2713 2034 2713 
Q 2441 2713 2670 2916 
Q 2900 3119 2900 3481 
Q 2900 3844 2670 4047 
Q 2441 4250 2034 4250 
Q 1625 4250 1398 4047 
Q 1172 3844 1172 3481 
z
" transform="scale(0.015625)"/>
       </defs>
       <use xlink:href="#DejaVuSans-30"/>
       <use xlink:href="#DejaVuSans-2e" x="63.623047"/>
       <use xlink:href="#DejaVuSans-38" x="95.410156"/>
      </g>
     </g>
    </g>
    <g id="ytick_6">
     <g id="line2d_25">
      <path d="M 43.78125 14.963478 
L 400.90125 14.963478 
" clip-path="url(#pfb8e3979da)" style="fill: none; stroke: #b0b0b0; stroke-width: 0.8; stroke-linecap: square"/>
     </g>
     <g id="line2d_26">
      <g>
       <use xlink:href="#mb6cd7508a4" x="43.78125" y="14.963478" style="stroke: #000000; stroke-width: 0.8"/>
      </g>
     </g>
     <g id="text_14">
      <!-- 1.0 -->
      <g transform="translate(20.878125 18.762697) scale(0.1 -0.1)">
       <defs>
        <path id="DejaVuSans-31" d="M 794 531 
L 1825 531 
L 1825 4091 
L 703 3866 
L 703 4441 
L 1819 4666 
L 2450 4666 
L 2450 531 
L 3481 531 
L 3481 0 
L 794 0 
L 794 531 
z
" transform="scale(0.015625)"/>
       </defs>
       <use xlink:href="#DejaVuSans-31"/>
       <use xlink:href="#DejaVuSans-2e" x="63.623047"/>
       <use xlink:href="#DejaVuSans-30" x="95.410156"/>
      </g>
     </g>
    </g>
    <g id="text_15">
     <!-- normalized intensity -->
     <g transform="translate(14.798438 143.64748) rotate(-90) scale(0.1 -0.1)">
      <defs>
       <path id="DejaVuSans-6f" d="M 1959 3097 
Q 1497 3097 1228 2736 
Q 959 2375 959 1747 
Q 959 1119 1226 758 
Q 1494 397 1959 397 
Q 2419 397 2687 759 
Q 2956 1122 2956 1747 
Q 2956 2369 2687 2733 
Q 2419 3097 1959 3097 
z
M 1959 3584 
Q 2709 3584 3137 3096 
Q 3566 2609 3566 1747 
Q 3566 888 3137 398 
Q 2709 -91 1959 -91 
Q 1206 -91 779 398 
Q 353 888 353 1747 
Q 353 2609 779 3096 
Q 1206 3584 1959 3584 
z
" transform="scale(0.015625)"/>
       <path id="DejaVuSans-72" d="M 2631 2963 
Q 2534 3019 2420 3045 
Q 2306 3072 2169 3072 
Q 1681 3072 1420 2755 
Q 1159 2438 1159 1844 
L 1159 0 
L 581 0 
L 581 3500 
L 1159 3500 
L 1159 2956 
Q 1341 3275 1631 3429 
Q 1922 3584 2338 3584 
Q 2397 3584 2469 3576 
Q 2541 3569 2628 3553 
L 2631 2963 
z
" transform="scale(0.015625)"/>
       <path id="DejaVuSans-6d" d="M 3328 2828 
Q 3544 3216 3844 3400 
Q 4144 3584 4550 3584 
Q 5097 3584 5394 3201 
Q 5691 2819 5691 2113 
L 5691 0 
L 5113 0 
L 5113 2094 
Q 5113 2597 4934 2840 
Q 4756 3084 4391 3084 
Q 3944 3084 3684 2787 
Q 3425 2491 3425 1978 
L 3425 0 
L 2847 0 
L 2847 2094 
Q 2847 2600 2669 2842 
Q 2491 3084 2119 3084 
Q 1678 3084 1418 2786 
Q 1159 2488 1159 1978 
L 1159 0 
L 581 0 
L 581 3500 
L 1159 3500 
L 1159 2956 
Q 1356 3278 1631 3431 
Q 1906 3584 2284 3584 
Q 2666 3584 2933 3390 
Q 3200 3197 3328 2828 
z
" transform="scale(0.015625)"/>
       <path id="DejaVuSans-69" d="M 603 3500 
L 1178 3500 
L 1178 0 
L 603 0 
L 603 3500 
z
M 603 4863 
L 1178 4863 
L 1178 4134 
L 603 4134 
L 603 4863 
z
" transform="scale(0.015625)"/>
       <path id="DejaVuSans-7a" d="M 353 3500 
L 3084 3500 
L 3084 2975 
L 922 459 
L 3084 459 
L 3084 0 
L 275 0 
L 275 525 
L 2438 3041 
L 353 3041 
L 353 3500 
z
" transform="scale(0.015625)"/>
       <path id="DejaVuSans-64" d="M 2906 2969 
L 2906 4863 
L 3481 4863 
L 3481 0 
L 2906 0 
L 2906 525 
Q 2725 213 2448 61 
Q 2172 -91 1784 -91 
Q 1150 -91 751 415 
Q 353 922 353 1747 
Q 353 2572 751 3078 
Q 1150 3584 1784 3584 
Q 2172 3584 2448 3432 
Q 2725 3281 2906 2969 
z
M 947 1747 
Q 947 1113 1208 752 
Q 1469 391 1925 391 
Q 2381 391 2643 752 
Q 2906 1113 2906 1747 
Q 2906 2381 2643 2742 
Q 2381 3103 1925 3103 
Q 1469 3103 1208 2742 
Q 947 2381 947 1747 
z
" transform="scale(0.015625)"/>
       <path id="DejaVuSans-20" transform="scale(0.015625)"/>
       <path id="DejaVuSans-73" d="M 2834 3397 
L 2834 2853 
Q 2591 2978 2328 3040 
Q 2066 3103 1784 3103 
Q 1356 3103 1142 2972 
Q 928 2841 928 2578 
Q 928 2378 1081 2264 
Q 1234 2150 1697 2047 
L 1894 2003 
Q 2506 1872 2764 1633 
Q 3022 1394 3022 966 
Q 3022 478 2636 193 
Q 2250 -91 1575 -91 
Q 1294 -91 989 -36 
Q 684 19 347 128 
L 347 722 
Q 666 556 975 473 
Q 1284 391 1588 391 
Q 1994 391 2212 530 
Q 2431 669 2431 922 
Q 2431 1156 2273 1281 
Q 2116 1406 1581 1522 
L 1381 1569 
Q 847 1681 609 1914 
Q 372 2147 372 2553 
Q 372 3047 722 3315 
Q 1072 3584 1716 3584 
Q 2034 3584 2315 3537 
Q 2597 3491 2834 3397 
z
" transform="scale(0.015625)"/>
       <path id="DejaVuSans-79" d="M 2059 -325 
Q 1816 -950 1584 -1140 
Q 1353 -1331 966 -1331 
L 506 -1331 
L 506 -850 
L 844 -850 
Q 1081 -850 1212 -737 
Q 1344 -625 1503 -206 
L 1606 56 
L 191 3500 
L 800 3500 
L 1894 763 
L 2988 3500 
L 3597 3500 
L 2059 -325 
z
" transform="scale(0.015625)"/>
      </defs>
      <use xlink:href="#DejaVuSans-6e"/>
      <use xlink:href="#DejaVuSans-6f" x="63.378906"/>
      <use xlink:href="#DejaVuSans-72" x="124.560547"/>
      <use xlink:href="#DejaVuSans-6d" x="163.923828"/>
      <use xlink:href="#DejaVuSans-61" x="261.335938"/>
      <use xlink:href="#DejaVuSans-6c" x="322.615234"/>
      <use xlink:href="#DejaVuSans-69" x="350.398438"/>
      <use xlink:href="#DejaVuSans-7a" x="378.181641"/>
      <use xlink:href="#DejaVuSans-65" x="430.671875"/>
      <use xlink:href="#DejaVuSans-64" x="492.195312"/>
      <use xlink:href="#DejaVuSans-20" x="555.671875"/>
      <use xlink:href="#DejaVuSans-69" x="587.458984"/>
      <use xlink:href="#DejaVuSans-6e" x="615.242188"/>
      <use xlink:href="#DejaVuSans-74" x="678.621094"/>
      <use xlink:href="#DejaVuSans-65" x="717.830078"/>
      <use xlink:href="#DejaVuSans-6e" x="779.353516"/>
      <use xlink:href="#DejaVuSans-73" x="842.732422"/>
      <use xlink:href="#DejaVuSans-69" x="894.832031"/>
      <use xlink:href="#DejaVuSans-74" x="922.615234"/>
      <use xlink:href="#DejaVuSans-79" x="961.824219"/>
     </g>
    </g>
   </g>
   <g id="line2d_27">
    <path d="M 40.675859 166.67737 
L 47.921772 165.699172 
L 51.027163 165.062567 
L 54.132554 164.301746 
L 58.273076 162.966428 
L 61.378467 161.83296 
L 65.518989 160.062887 
L 67.58925 158.836257 
L 70.694641 156.693537 
L 71.729772 155.96377 
L 76.905424 151.538588 
L 81.045946 147.408417 
L 82.081076 146.4768 
L 83.116207 145.358859 
L 84.151337 143.61984 
L 88.291859 138.200932 
L 90.36212 134.84711 
L 94.502641 126.912835 
L 95.537772 124.521683 
L 97.608033 118.155631 
L 98.643163 116.012911 
L 99.678293 113.249113 
L 100.713424 111.261663 
L 104.853946 102.162866 
L 105.889076 99.631972 
L 106.924207 96.48 
L 107.959337 93.855944 
L 108.994467 92.070344 
L 111.064728 87.024083 
L 114.17012 81.807026 
L 115.20525 79.912737 
L 116.24038 77.614748 
L 118.310641 74.649099 
L 119.345772 72.55296 
L 120.380902 69.556257 
L 121.416033 65.690045 
L 122.451163 61.233809 
L 123.486293 57.817878 
L 125.556554 52.538713 
L 128.661946 42.663569 
L 129.697076 38.533398 
L 131.767337 31.732591 
L 132.802467 29.061955 
L 134.872728 22.416417 
L 135.907859 19.326553 
L 136.942989 16.780132 
L 137.97812 15.382706 
L 139.01325 14.963478 
L 140.04838 15.21191 
L 141.083511 16.500647 
L 142.118641 18.130977 
L 143.153772 20.118428 
L 144.188902 23.751736 
L 145.224033 30.304111 
L 146.259163 34.837983 
L 147.294293 43.11385 
L 148.329424 50.427047 
L 149.364554 62.739923 
L 150.399685 68.873071 
L 151.434815 79.18297 
L 152.469946 87.738323 
L 153.505076 99.13511 
L 154.540207 103.280807 
L 155.575337 116.137127 
L 156.610467 120.143082 
L 157.645598 128.26368 
L 158.680728 134.831583 
L 159.715859 140.483395 
L 160.750989 147.144459 
L 163.85638 157.811478 
L 166.961772 163.882518 
L 167.996902 165.419687 
L 169.032033 166.553155 
L 171.102293 168.136904 
L 173.172554 168.804563 
L 175.242815 169.270372 
L 177.313076 169.782762 
L 179.383337 169.938031 
L 181.453598 170.015666 
L 183.523859 170.108828 
L 191.804902 170.108828 
L 191.804902 170.108828 
" clip-path="url(#pfb8e3979da)" style="fill: none; stroke: #00ffb3; stroke-opacity: 0.9; stroke-width: 1.5; stroke-linecap: square"/>
   </g>
   <g id="line2d_28">
    <path d="M 110.029598 170.000139 
L 115.20525 170.139882 
L 118.310641 169.906977 
L 121.416033 169.549857 
L 123.486293 169.115103 
L 124.521424 168.77351 
L 126.591685 167.593461 
L 128.661946 166.227089 
L 130.732207 164.115423 
L 131.767337 162.655889 
L 132.802467 160.947923 
L 133.837598 158.929419 
L 134.872728 155.76192 
L 135.907859 153.308661 
L 137.97812 146.150734 
L 140.04838 136.787979 
L 142.118641 120.934957 
L 143.153772 114.770755 
L 144.188902 103.249753 
L 145.224033 94.647819 
L 146.259163 83.82553 
L 149.364554 54.557217 
L 152.469946 25.475228 
L 153.505076 21.034518 
L 154.540207 17.742803 
L 155.575337 15.755353 
L 156.610467 14.963478 
L 157.645598 16.32985 
L 158.680728 18.689948 
L 160.750989 29.325913 
L 166.961772 70.689725 
L 169.032033 81.170421 
L 170.067163 85.129795 
L 172.137424 95.05152 
L 173.172554 99.399068 
L 174.207685 101.914435 
L 176.277946 107.783624 
L 178.348207 112.503819 
L 180.418467 116.090546 
L 181.453598 117.969308 
L 182.488728 119.615165 
L 184.558989 122.363437 
L 186.62925 124.69248 
L 187.66438 125.655151 
L 188.699511 126.415972 
L 192.840033 129.987172 
L 194.910293 132.192 
L 199.050815 137.284842 
L 202.156207 141.772132 
L 209.40212 150.91751 
L 211.47238 152.796271 
L 214.577772 155.373746 
L 215.612902 156.414052 
L 216.648033 157.174873 
L 221.823685 160.264737 
L 226.999337 162.655889 
L 232.174989 164.17753 
L 236.315511 165.217837 
L 244.596554 166.67737 
L 246.666815 167.081071 
L 261.158641 168.882198 
L 263.228902 169.192737 
L 267.369424 169.410115 
L 272.545076 169.643019 
L 280.82612 170.170936 
L 281.86125 170.20199 
L 281.86125 170.20199 
" clip-path="url(#pfb8e3979da)" style="fill: none; stroke: #0fff00; stroke-opacity: 0.9; stroke-width: 1.5; stroke-linecap: square"/>
   </g>
   <g id="patch_3">
    <path d="M 43.78125 177.996522 
L 43.78125 7.2 
" style="fill: none; stroke: #000000; stroke-width: 0.8; stroke-linejoin: miter; stroke-linecap: square"/>
   </g>
   <g id="patch_4">
    <path d="M 400.90125 177.996522 
L 400.90125 7.2 
" style="fill: none; stroke: #000000; stroke-width: 0.8; stroke-linejoin: miter; stroke-linecap: square"/>
   </g>
   <g id="patch_5">
    <path d="M 43.78125 177.996522 
L 400.90125 177.996522 
" style="fill: none; stroke: #000000; stroke-width: 0.8; stroke-linejoin: miter; stroke-linecap: square"/>
   </g>
   <g id="patch_6">
    <path d="M 43.78125 7.2 
L 400.90125 7.2 
" style="fill: none; stroke: #000000; stroke-width: 0.8; stroke-linejoin: miter; stroke-linecap: square"/>
   </g>
   <g id="legend_1">
    <g id="patch_7">
     <path d="M 297.429375 44.55625 
L 393.90125 44.55625 
Q 395.90125 44.55625 395.90125 42.55625 
L 395.90125 14.2 
Q 395.90125 12.2 393.90125 12.2 
L 297.429375 12.2 
Q 295.429375 12.2 295.429375 14.2 
L 295.429375 42.55625 
Q 295.429375 44.55625 297.429375 44.55625 
z
" style="fill: #ffffff; opacity: 0.8; stroke: #cccccc; stroke-linejoin: miter"/>
    </g>
    <g id="line2d_29">
     <path d="M 299.429375 20.298437 
L 309.429375 20.298437 
L 319.429375 20.298437 
" style="fill: none; stroke: #00ffb3; stroke-opacity: 0.9; stroke-width: 1.5; stroke-linecap: square"/>
    </g>
    <g id="text_16">
     <!-- GCaMP6f ex -->
     <g transform="translate(327.429375 23.798437) scale(0.1 -0.1)">
      <defs>
       <path id="DejaVuSans-47" d="M 3809 666 
L 3809 1919 
L 2778 1919 
L 2778 2438 
L 4434 2438 
L 4434 434 
Q 4069 175 3628 42 
Q 3188 -91 2688 -91 
Q 1594 -91 976 548 
Q 359 1188 359 2328 
Q 359 3472 976 4111 
Q 1594 4750 2688 4750 
Q 3144 4750 3555 4637 
Q 3966 4525 4313 4306 
L 4313 3634 
Q 3963 3931 3569 4081 
Q 3175 4231 2741 4231 
Q 1884 4231 1454 3753 
Q 1025 3275 1025 2328 
Q 1025 1384 1454 906 
Q 1884 428 2741 428 
Q 3075 428 3337 486 
Q 3600 544 3809 666 
z
" transform="scale(0.015625)"/>
       <path id="DejaVuSans-43" d="M 4122 4306 
L 4122 3641 
Q 3803 3938 3442 4084 
Q 3081 4231 2675 4231 
Q 1875 4231 1450 3742 
Q 1025 3253 1025 2328 
Q 1025 1406 1450 917 
Q 1875 428 2675 428 
Q 3081 428 3442 575 
Q 3803 722 4122 1019 
L 4122 359 
Q 3791 134 3420 21 
Q 3050 -91 2638 -91 
Q 1578 -91 968 557 
Q 359 1206 359 2328 
Q 359 3453 968 4101 
Q 1578 4750 2638 4750 
Q 3056 4750 3426 4639 
Q 3797 4528 4122 4306 
z
" transform="scale(0.015625)"/>
       <path id="DejaVuSans-4d" d="M 628 4666 
L 1569 4666 
L 2759 1491 
L 3956 4666 
L 4897 4666 
L 4897 0 
L 4281 0 
L 4281 4097 
L 3078 897 
L 2444 897 
L 1241 4097 
L 1241 0 
L 628 0 
L 628 4666 
z
" transform="scale(0.015625)"/>
       <path id="DejaVuSans-50" d="M 1259 4147 
L 1259 2394 
L 2053 2394 
Q 2494 2394 2734 2622 
Q 2975 2850 2975 3272 
Q 2975 3691 2734 3919 
Q 2494 4147 2053 4147 
L 1259 4147 
z
M 628 4666 
L 2053 4666 
Q 2838 4666 3239 4311 
Q 3641 3956 3641 3272 
Q 3641 2581 3239 2228 
Q 2838 1875 2053 1875 
L 1259 1875 
L 1259 0 
L 628 0 
L 628 4666 
z
" transform="scale(0.015625)"/>
       <path id="DejaVuSans-66" d="M 2375 4863 
L 2375 4384 
L 1825 4384 
Q 1516 4384 1395 4259 
Q 1275 4134 1275 3809 
L 1275 3500 
L 2222 3500 
L 2222 3053 
L 1275 3053 
L 1275 0 
L 697 0 
L 697 3053 
L 147 3053 
L 147 3500 
L 697 3500 
L 697 3744 
Q 697 4328 969 4595 
Q 1241 4863 1831 4863 
L 2375 4863 
z
" transform="scale(0.015625)"/>
       <path id="DejaVuSans-78" d="M 3513 3500 
L 2247 1797 
L 3578 0 
L 2900 0 
L 1881 1375 
L 863 0 
L 184 0 
L 1544 1831 
L 300 3500 
L 978 3500 
L 1906 2253 
L 2834 3500 
L 3513 3500 
z
" transform="scale(0.015625)"/>
      </defs>
      <use xlink:href="#DejaVuSans-47"/>
      <use xlink:href="#DejaVuSans-43" x="77.490234"/>
      <use xlink:href="#DejaVuSans-61" x="147.314453"/>
      <use xlink:href="#DejaVuSans-4d" x="208.59375"/>
      <use xlink:href="#DejaVuSans-50" x="294.873047"/>
      <use xlink:href="#DejaVuSans-36" x="355.175781"/>
      <use xlink:href="#DejaVuSans-66" x="418.798828"/>
      <use xlink:href="#DejaVuSans-20" x="454.003906"/>
      <use xlink:href="#DejaVuSans-65" x="485.791016"/>
      <use xlink:href="#DejaVuSans-78" x="545.564453"/>
     </g>
    </g>
    <g id="line2d_30">
     <path d="M 299.429375 34.976562 
L 309.429375 34.976562 
L 319.429375 34.976562 
" style="fill: none; stroke: #0fff00; stroke-opacity: 0.9; stroke-width: 1.5; stroke-linecap: square"/>
    </g>
    <g id="text_17">
     <!-- GCaMP6f em -->
     <g transform="translate(327.429375 38.476562) scale(0.1 -0.1)">
      <use xlink:href="#DejaVuSans-47"/>
      <use xlink:href="#DejaVuSans-43" x="77.490234"/>
      <use xlink:href="#DejaVuSans-61" x="147.314453"/>
      <use xlink:href="#DejaVuSans-4d" x="208.59375"/>
      <use xlink:href="#DejaVuSans-50" x="294.873047"/>
      <use xlink:href="#DejaVuSans-36" x="355.175781"/>
      <use xlink:href="#DejaVuSans-66" x="418.798828"/>
      <use xlink:href="#DejaVuSans-20" x="454.003906"/>
      <use xlink:href="#DejaVuSans-65" x="485.791016"/>
      <use xlink:href="#DejaVuSans-6d" x="547.314453"/>
     </g>
    </g>
   </g>
  </g>
 </g>
 <defs>
  <clipPath id="pfb8e3979da">
   <rect x="43.78125" y="7.2" width="357.12" height="170.796522"/>
  </clipPath>
 </defs>
</svg>
