<?xml version="1.0" encoding="UTF-8" standalone="no"?>
<svg
   width="720"
   height="320"
   id="SvgGdi_output"
   version="1.1"
   sodipodi:docname="uclaminiscopev4-miniscopedaq-commutate_commandl.svg"
   inkscape:version="1.2.2 (732a01da63, 2022-12-09)"
   xmlns:inkscape="http://www.inkscape.org/namespaces/inkscape"
   xmlns:sodipodi="http://sodipodi.sourceforge.net/DTD/sodipodi-0.dtd"
   xmlns="http://www.w3.org/2000/svg"
   xmlns:svg="http://www.w3.org/2000/svg">
  <sodipodi:namedview
     id="namedview21907"
     pagecolor="#ffffff"
     bordercolor="#999999"
     borderopacity="1"
     inkscape:showpageshadow="0"
     inkscape:pageopacity="0"
     inkscape:pagecheckerboard="0"
     inkscape:deskcolor="#d1d1d1"
     showgrid="false"
     inkscape:zoom="2.4610611"
     inkscape:cx="481.49963"
     inkscape:cy="127.99357"
     inkscape:window-width="1920"
     inkscape:window-height="1057"
     inkscape:window-x="-8"
     inkscape:window-y="-8"
     inkscape:window-maximized="1"
     inkscape:current-layer="SvgGdi_output" />
  <rect
     id="background"
     height="100%"
     style="fill:#ffffff"
     width="100%"
     y="0"
     x="0" />
  <g
     style="shape-rendering:auto"
     id="root_group">
    <line
       y1="19"
       style="opacity:1;fill:none;stroke:#a9a9a9;stroke-width:1;stroke-linecap:butt;stroke-linejoin:miter;stroke-miterlimit:9"
       id="145"
       x2="640"
       y2="19"
       x1="598" />
    <line
       y1="19"
       style="opacity:1;fill:none;stroke:#a9a9a9;stroke-width:1;stroke-linecap:butt;stroke-linejoin:miter;stroke-miterlimit:9"
       id="146"
       x2="560"
       y2="19"
       x1="518" />
    <line
       y1="99"
       id="147"
       x2="560"
       y2="19"
       x1="518"
       style="opacity:1;fill:none;stroke:#a9a9a9;stroke-width:1;stroke-linecap:butt;stroke-linejoin:miter;stroke-miterlimit:9;stroke-dasharray:4, 2" />
    <line
       y1="19"
       style="opacity:1;fill:none;stroke:#a9a9a9;stroke-width:1;stroke-linecap:butt;stroke-linejoin:miter;stroke-miterlimit:9"
       id="148"
       x2="480"
       y2="19"
       x1="438" />
    <line
       y1="99"
       style="opacity:1;fill:none;stroke:#a9a9a9;stroke-width:1;stroke-linecap:butt;stroke-linejoin:miter;stroke-miterlimit:9"
       id="149"
       x2="480"
       y2="19"
       x1="438" />
    <line
       y1="179"
       style="opacity:1;fill:none;stroke:#a9a9a9;stroke-width:1;stroke-linecap:butt;stroke-linejoin:miter;stroke-miterlimit:9"
       id="150"
       x2="480"
       y2="19"
       x1="438" />
    <line
       y1="19"
       style="opacity:1;fill:none;stroke:#a9a9a9;stroke-width:1;stroke-linecap:butt;stroke-linejoin:miter;stroke-miterlimit:9"
       id="151"
       x2="400"
       y2="19"
       x1="358" />
    <line
       y1="99"
       style="opacity:1;fill:none;stroke:#a9a9a9;stroke-width:1;stroke-linecap:butt;stroke-linejoin:miter;stroke-miterlimit:9"
       id="152"
       x2="400"
       y2="99"
       x1="358" />
    <line
       y1="179"
       style="opacity:1;fill:none;stroke:#a9a9a9;stroke-width:1;stroke-linecap:butt;stroke-linejoin:miter;stroke-miterlimit:9"
       id="153"
       x2="400"
       y2="179"
       x1="358" />
    <line
       y1="179"
       style="opacity:1;fill:none;stroke:#a9a9a9;stroke-width:1;stroke-linecap:butt;stroke-linejoin:miter;stroke-miterlimit:9"
       id="154"
       x2="320"
       y2="179"
       x1="278" />
    <line
       y1="259"
       style="opacity:1;fill:none;stroke:#a9a9a9;stroke-width:1;stroke-linecap:butt;stroke-linejoin:miter;stroke-miterlimit:9"
       id="155"
       x2="320"
       y2="179"
       x1="278" />
    <line
       y1="179"
       style="opacity:1;fill:none;stroke:#a9a9a9;stroke-width:1;stroke-linecap:butt;stroke-linejoin:miter;stroke-miterlimit:9"
       id="156"
       x2="240"
       y2="259"
       x1="198" />
    <line
       y1="179"
       style="opacity:1;fill:none;stroke:#a9a9a9;stroke-width:1;stroke-linecap:butt;stroke-linejoin:miter;stroke-miterlimit:9"
       id="157"
       x2="240"
       y2="179"
       x1="198" />
    <line
       y1="179"
       style="opacity:1;fill:none;stroke:#a9a9a9;stroke-width:1;stroke-linecap:butt;stroke-linejoin:miter;stroke-miterlimit:9"
       id="158"
       x2="160"
       y2="179"
       x1="118" />
    <line
       y1="179"
       style="opacity:1;fill:none;stroke:#a9a9a9;stroke-width:1;stroke-linecap:butt;stroke-linejoin:miter;stroke-miterlimit:9"
       id="159"
       x2="80"
       y2="179"
       x1="38" />
    <line
       y1="259"
       style="opacity:1;fill:none;stroke:#a9a9a9;stroke-width:1;stroke-linecap:butt;stroke-linejoin:miter;stroke-miterlimit:9"
       id="160"
       x2="80"
       y2="179"
       x1="38" />
    <path
       d="M 10.158,33.2 C 3.4054,31.7591 -1.861,26.4692 -3.271,19.71"
       style="opacity:1;fill:none;stroke:#a9a9a9;stroke-width:2;stroke-linecap:butt;stroke-linejoin:miter;stroke-miterlimit:9"
       transform="translate(644,4)"
       id="161" />
    <circle
       id="162"
       cy="15"
       cx="15"
       transform="translate(644,4)"
       style="opacity:1;fill:#9b5bb3;stroke:none"
       r="15" />
    <circle
       id="163"
       cy="9.0600004"
       cx="15.01"
       transform="translate(644,4)"
       style="opacity:1;fill:#ffffff;stroke:none"
       r="3.5" />
    <circle
       id="164"
       cy="18.49"
       cx="9.1199999"
       transform="translate(644,4)"
       style="opacity:1;fill:#ffffff;stroke:none"
       r="3.5" />
    <circle
       id="165"
       cy="18.459999"
       cx="20.879999"
       transform="translate(644,4)"
       style="opacity:1;fill:#ffffff;stroke:none"
       r="3.5" />
    <text
       id="166"
       x="644"
       y="39"
       style="font-size:11px;font-family:'Microsoft Sans Serif';opacity:1;fill:#000000;stroke:none"
       clip-path="url(#168_text_clipper)"><tspan
         dy="8.25pt"
         id="170">Workflow</tspan></text>
    <text
       id="172"
       x="644"
       y="51.450001"
       style="font-size:11px;font-family:'Microsoft Sans Serif';opacity:1;fill:#000000;stroke:none"
       clip-path="url(#174_text_clipper)"><tspan
         dy="8.25pt"
         id="176">Output</tspan></text>
    <path
       d="M 10.158,33.2 C 3.4054,31.7591 -1.861,26.4692 -3.271,19.71"
       style="opacity:1;fill:none;stroke:#a9a9a9;stroke-width:2;stroke-linecap:butt;stroke-linejoin:miter;stroke-miterlimit:9"
       transform="translate(564,4)"
       id="178" />
    <circle
       id="179"
       cy="15"
       cx="15"
       transform="translate(564,4)"
       style="opacity:1;fill:#9b5bb3;stroke:none"
       r="15" />
    <path
       style="opacity:1;fill:none;stroke:#ffffff;stroke-width:2;stroke-linecap:butt;stroke-linejoin:miter;stroke-miterlimit:9"
       transform="translate(564,4)"
       id="180"
       d="M 7.3965,19.566 V 10.8433" />
    <path
       style="opacity:1;fill:none;stroke:#ffffff;stroke-width:2;stroke-linecap:butt;stroke-linejoin:miter;stroke-miterlimit:9"
       transform="translate(564,4)"
       id="181"
       d="M 11.085,22.137 14.2178,8.273999" />
    <circle
       id="182"
       cy="15.15"
       cx="20.49"
       transform="translate(564,4)"
       style="opacity:1;fill:none;stroke:#ffffff;stroke-width:2;stroke-linecap:butt;stroke-linejoin:miter;stroke-miterlimit:9"
       r="4.1799998" />
    <text
       id="183"
       x="564"
       y="39"
       style="font-size:11px;font-family:'Microsoft Sans Serif';opacity:1;fill:#000000;stroke:none"
       clip-path="url(#185_text_clipper)"><tspan
         dy="8.25pt"
         id="187">SerialWrite</tspan></text>
    <text
       id="189"
       x="564"
       y="51.450001"
       style="font-size:11px;font-family:'Microsoft Sans Serif';opacity:1;fill:#000000;stroke:none"
       clip-path="url(#191_text_clipper)"><tspan
         dy="8.25pt"
         id="193">Line</tspan></text>
    <circle
       id="195"
       cy="15"
       cx="15"
       transform="translate(484,4)"
       style="opacity:1;fill:#eec04b;stroke:none"
       r="15" />
    <path
       d="m 12.246,6.0137 v 0.00586 c -0.18794,7e-4 -0.35129,0.020875 -0.47852,0.046875 -0.89879,0.286301 -0.87117,0.86794 -1.8906,1.6191 -1.013501,0.578801 -1.5235,0.13438 -2.2617,0.73438 -0.73673,0.5956 -0.22226,1.962596 -0.53125,2.228496 -0.30671,0.5316 -1.2584,1.0063 -1.4316,1.6777 -0.14317,0.8587 0.38958,1.4709 0.36914,2.207 0.0614,0.6133 -0.6102,0.96178 -0.51367,1.459 0.28922,0.8121 0.84658,1.3001 1.1094,1.5254 0.046151,0.032 0.082828,0.08099 0.097656,0.08399 0.075857,0.1905 0.14373,0.38495 0.24023,0.56445 -0.00548,-0.026 -0.00651,-0.05213 -0.011719,-0.07813 0.054861,0.2176 0.11171,0.43619 0.189449,0.65039 1.5503,3.3608 5.681304,5.9479 10.209004,5.3789 2.1992,-0.2694 5.4826,-1.7854 6.8242,-5.3789 -0.94558,0.8485 -2.6345,1.586 -3.3887,1.6426 2.5527,-1.2757 3.9298,-3.4434 3.54299,-6.4062 -0.52877,1.2588 -1.2269,2.2267 -2.0996,2.8906 1.8538,-2.8897 1.5362,-4.3839 0.16407,-6.0254 0.98137,2.699 -0.28759,5.6945 -3.0527,7.8242 1.1203,0.1214 2.18449,-0.14787 3.1699,-0.95117 -1.4888,1.6607 -3.3523,2.4955 -5.4883,2.7227 1.0199,0.867 2.0045,1.259 2.9453,1.0918 -2.6144,0.7215 -4.8042,-0.07306 -7.4688,-2.7266 -0.13948,0.7143 0.61496,1.8268 1.3926,2.5371 -4.509502,-1.955 -4.906603,-8.042 0.58594,-9.5449 0.0033,0 0.0065,9e-4 0.0098,0 3.2713,1.9138 7.3868,1.7879 7.5723,0.55078 0.45807,-1.4829 -2.0857,-4.538497 -5.8887,-5.335897 -0.70028,-0.1367 -1.3698,-0.190479 -2.0078,-0.17188 0.01278,0 0.0243,2.39e-4 0.03711,-0.00977 -0.6074,-0.6489 -1.3815,-0.8145 -1.9453,-0.8125 z m 4.93169,3.033178 c 0.54604,0 1.0449,0.49697 1.0449,1.043002 0,0.5461 -0.49888,1.043 -1.0449,1.043 -0.54604,0 -1.043,-0.49687 -1.043,-1.043 5e-5,-0.546001 0.49693,-1.043102 1.043,-1.043002 z"
       style="opacity:1;fill:#ffffff;fill-rule:evenodd;stroke:none"
       transform="translate(484,4)"
       id="196" />
    <circle
       id="197"
       cy="19"
       cx="484"
       style="opacity:1;fill:none;stroke:#a9a9a9;stroke-width:2;stroke-linecap:butt;stroke-linejoin:miter;stroke-miterlimit:9"
       r="3" />
    <circle
       id="198"
       cy="19"
       cx="484"
       style="opacity:1;fill:#ffffff;stroke:none"
       r="3" />
    <text
       id="199"
       x="484"
       y="39"
       style="font-size:11px;font-family:'Microsoft Sans Serif';opacity:1;fill:#000000;stroke:none"
       clip-path="url(#201_text_clipper)"><tspan
         dy="8.25pt"
         id="203">Merge</tspan></text>
    <path
       transform="translate(484,84)"
       id="205"
       style="opacity:1;fill:#808080;fill-rule:evenodd;stroke:none"
       d="m 15,0 c 0.40124,0 0.79355,0 1.1868,0.032679 l 1.2896,1.6386 c 0.71861,0.13268 1.4016,0.3056 2.0757,0.54645 l 1.8765,-0.73431 c 0.71108,0.33986 1.4003,0.74348 2.044,1.1868 l 0.3767,1.951 c 0.54531,0.46538 1.064,0.98425 1.5295,1.5295 l 1.951,0.34366 c 0.44282,0.6433 0.84727,1.3664 1.1868,2.076901 l -0.77076,1.8766 c 0.2409,0.67416 0.45017,1.3572 0.58268,2.0756 l 1.6386,1.2896 c 0.03095,0.39312 0.03297,0.7858 0.03297,1.1868 0,0.39236 -0.0034,0.7692 -0.03297,1.154 l -1.6386,1.2861 c -0.1302,0.70635 -0.31131,1.4125 -0.54626,2.0756 l 0.73431,1.9131 c -0.34064,0.71423 -0.74196,1.3978 -1.1868,2.044 l -1.951,0.34034 c -0.46556,0.54527 -0.98422,1.0638 -1.5295,1.5294 l -0.3767,1.9875 c -0.6441,0.44379 -1.3325,0.84677 -2.044,1.1867 l -1.9129,-0.77065 c -0.66446,0.23565 -1.3319,0.45212 -2.0394,0.58279 l -1.2895,1.6056 c -0.39329,0.03064 -0.7856,0.06546 -1.1868,0.06546 -0.40124,0 -0.82652,-0.03375 -1.2198,-0.06546 l -1.2202,-1.6056 c -0.69825,-0.12877 -1.4193,-0.35176 -2.0757,-0.58279 l -1.912898,0.77065 c -0.71513,-0.34104 -1.3969,-0.74112 -2.044,-1.1867 l -0.37671,-2.0237 c -0.53343,-0.45828 -1.0365,-0.95833 -1.4931,-1.4932 l -1.9874,-0.34034 c -0.44488,-0.64619 -0.8462,-1.3298 -1.1868,-2.044 l 0.77076,-1.9131 c -0.23121,-0.6564 -0.45393,-1.3772 -0.58268,-2.0756 L 0.06584227,16.18678 C 0.03489427,15.79366 -9.272993e-5,15.4013 -9.272993e-5,14.99998 c 0,-0.40104 0.03498799993,-0.79373 0.06593499993,-1.1868 L 1.671442,12.52358 c 0.13045,-0.70742 0.3471,-1.3747 0.58268,-2.0392 L 1.483362,8.571277 c 0.33956,-0.71048 0.74403,-1.4336 1.1868,-2.0769 l 1.9874,-0.34366 c 0.45663,-0.53497 0.95968,-1.0349 1.4931,-1.4932 l 0.37671,-1.9874 c 0.64673,-0.4454 1.3293,-0.84591 2.044,-1.1868 l 1.912898,0.73431 c 0.6633,-0.23494 1.3696,-0.41602 2.0757,-0.54645 l 1.2861,-1.6386002 c 0.38475,-0.029572 0.76154,-0.0326789996 1.1538,-0.0326789996 z" />
    <path
       d="m 16.849,10.062 h 6.5537 m -6.7989,9.5464 h 6.7467 m -11.043,-2.4469 -4.7356,4.7356 m 0.00543,-4.7451 4.739705,4.7397 M 6.564136,10.0047 H 13.30904 M 9.936636,6.6288 v 6.7518"
       style="opacity:1;fill:none;stroke:#ffffff;stroke-width:2;stroke-linecap:butt;stroke-linejoin:miter;stroke-miterlimit:9"
       transform="translate(484,84)"
       id="206" />
    <circle
       id="207"
       cy="16.33"
       cx="19.93"
       transform="translate(484,84)"
       style="opacity:1;fill:#ffffff;stroke:none"
       r="1.3" />
    <circle
       id="208"
       cy="22.83"
       cx="19.93"
       transform="translate(484,84)"
       style="opacity:1;fill:#ffffff;stroke:none"
       r="1.3" />
    <text
       id="209"
       x="484"
       y="119"
       style="font-size:11px;font-family:'Microsoft Sans Serif';opacity:1;fill:#000000;stroke:none"
       clip-path="url(#211_text_clipper)"><tspan
         dy="8.25pt"
         id="213">PortName</tspan></text>
    <path
       d="m 31.179,5.2 c 3.8195,5.8918 3.8024,13.482 -0.04348,19.357"
       style="opacity:1;fill:none;stroke:#a9a9a9;stroke-width:2;stroke-linecap:butt;stroke-linejoin:miter;stroke-miterlimit:9"
       transform="translate(404,4)"
       id="215" />
    <circle
       id="216"
       cy="15"
       cx="15"
       transform="translate(404,4)"
       style="opacity:1;fill:#5bb27e;stroke:none"
       r="15" />
    <path
       d="m 16.849,10.062 h 6.5537 m -6.7989,9.5464 h 6.7467 m -11.043,-2.4469 -4.7356,4.7356 m 0.00543,-4.7451 4.739705,4.7397 M 6.564136,10.0047 H 13.30904 M 9.936636,6.6288 v 6.7518"
       style="opacity:1;fill:none;stroke:#ffffff;stroke-width:2;stroke-linecap:butt;stroke-linejoin:miter;stroke-miterlimit:9"
       transform="translate(404,4)"
       id="217" />
    <circle
       id="218"
       cy="16.33"
       cx="19.93"
       transform="translate(404,4)"
       style="opacity:1;fill:#ffffff;stroke:none"
       r="1.3" />
    <circle
       id="219"
       cy="22.83"
       cx="19.93"
       transform="translate(404,4)"
       style="opacity:1;fill:#ffffff;stroke:none"
       r="1.3" />
    <text
       id="220"
       x="404"
       y="39"
       style="font-size:11px;font-family:'Microsoft Sans Serif';opacity:1;fill:#000000;stroke:none"
       clip-path="url(#222_text_clipper)"><tspan
         dy="8.25pt"
         id="224">String</tspan></text>
    <path
       d="m 31.179,5.2 c 3.8195,5.8918 3.8024,13.482 -0.04348,19.357"
       style="opacity:1;fill:none;stroke:#a9a9a9;stroke-width:2;stroke-linecap:butt;stroke-linejoin:miter;stroke-miterlimit:9"
       transform="translate(404,84)"
       id="226" />
    <circle
       id="227"
       cy="15"
       cx="15"
       transform="translate(404,84)"
       style="opacity:1;fill:#5bb27e;stroke:none"
       r="15" />
    <path
       d="m 16.849,10.062 h 6.5537 m -6.7989,9.5464 h 6.7467 m -11.043,-2.4469 -4.7356,4.7356 m 0.00543,-4.7451 4.739705,4.7397 M 6.564136,10.0047 H 13.30904 M 9.936636,6.6288 v 6.7518"
       style="opacity:1;fill:none;stroke:#ffffff;stroke-width:2;stroke-linecap:butt;stroke-linejoin:miter;stroke-miterlimit:9"
       transform="translate(404,84)"
       id="228" />
    <circle
       id="229"
       cy="16.33"
       cx="19.93"
       transform="translate(404,84)"
       style="opacity:1;fill:#ffffff;stroke:none"
       r="1.3" />
    <circle
       id="230"
       cy="22.83"
       cx="19.93"
       transform="translate(404,84)"
       style="opacity:1;fill:#ffffff;stroke:none"
       r="1.3" />
    <text
       id="231"
       x="404"
       y="119"
       style="font-size:11px;font-family:'Microsoft Sans Serif';opacity:1;fill:#000000;stroke:none"
       clip-path="url(#233_text_clipper)"><tspan
         dy="8.25pt"
         id="235">String</tspan></text>
    <circle
       id="237"
       cy="15"
       cx="15"
       transform="translate(404,164)"
       style="opacity:1;fill:#449adf;stroke:none"
       r="15" />
    <path
       d="m 10.824,9.4752 -7.2627,5.5836 7.2627,5.5519 -0.0088,-2.286 -4.296199,-3.298 4.304899,-3.2845 z"
       style="opacity:1;fill:#ffffff;fill-rule:evenodd;stroke:none"
       transform="translate(404,164)"
       id="238" />
    <path
       d="m 15.365,7.2336 c -0.01853,0.10187 -0.04375,0.2035 -0.05078,0.3039 -0.90345,5.1066 -1.8173,10.212 -2.7148,15.32 -0.0043,0.02885 0.0024,0.05473 0,0.08312 h 2.0293 c 0.07476,-0.40738 0.10807,-0.83802 0.20898,-1.226 0.84434,-4.7736 1.6988,-9.5445 2.5371,-14.320001 0.0068,-0.054184 0.0039,-0.10738 0.0039,-0.16104 z"
       style="opacity:1;fill:#ffffff;fill-rule:evenodd;stroke:none"
       transform="translate(404,164)"
       id="239" />
    <path
       d="m 19.044,9.4746 7.2627,5.5836 -7.2627,5.5519 0.0088,-2.286 4.2962,-3.298 -4.3049,-3.2845 z"
       style="opacity:1;fill:#ffffff;fill-rule:evenodd;stroke:none"
       transform="translate(404,164)"
       id="240" />
    <text
       id="241"
       x="404"
       y="199"
       style="font-size:11px;font-family:'Microsoft Sans Serif';opacity:1;fill:#000000;stroke:none"
       clip-path="url(#243_text_clipper)"><tspan
         dy="8.25pt"
         id="245">Automated</tspan></text>
    <text
       id="247"
       x="404"
       y="211.45"
       style="font-size:11px;font-family:'Microsoft Sans Serif';opacity:1;fill:#000000;stroke:none"
       clip-path="url(#249_text_clipper)"><tspan
         dy="8.25pt"
         id="251">Commutator</tspan></text>
    <text
       id="253"
       x="404"
       y="223.89999"
       style="font-size:11px;font-family:'Microsoft Sans Serif';opacity:1;fill:#000000;stroke:none"
       clip-path="url(#255_text_clipper)"><tspan
         dy="8.25pt"
         id="257">Command</tspan></text>
    <path
       d="m 31.179,5.2 c 3.8195,5.8918 3.8024,13.482 -0.04348,19.357"
       style="opacity:1;fill:none;stroke:#a9a9a9;stroke-width:2;stroke-linecap:butt;stroke-linejoin:miter;stroke-miterlimit:9"
       transform="translate(324,4)"
       id="259" />
    <circle
       id="260"
       cy="15"
       cx="15"
       transform="translate(324,4)"
       style="opacity:1;fill:#5bb27e;stroke:none"
       r="15" />
    <path
       d="M 8.5404,18.526 C 8.154759,18.14036 8.426559,17.3734 8.7512,17.0487 9.0693,16.7306 9.8857,16.65478 10.3397,17.03595 l 2.1904,1.7693 0.29084,-9.141104 c 0,-0.358289 0.60377,-0.924269 1.2316,-0.924269 0.74617,0 1.3151,0.576219 1.3151,0.95549 l 0.19096,5.347903 4.5059,1.703 c 0.18583,0.06373 0.43094,0.24909 0.43068,0.47598 l 0.0029,3.8276 -1.3849,2.3297 v 1.138 h -5.881 v -1.138 z"
       style="opacity:1;fill:#ffffff;fill-rule:evenodd;stroke:none"
       transform="translate(324,4)"
       id="261" />
    <path
       d="m 10.482,12.156 c -1.418399,-2.2682 0.09104,-5.5872 2.7329,-6.0086 2.6015,-0.62394 5.2683,1.8624 4.8283,4.5011 l -0.06627,0.37741"
       style="opacity:1;fill:none;stroke:#ffffff;stroke-width:2;stroke-linecap:butt;stroke-linejoin:miter;stroke-miterlimit:9"
       transform="translate(324,4)"
       id="262" />
    <text
       id="263"
       x="324"
       y="39"
       style="font-size:11px;font-family:'Microsoft Sans Serif';opacity:1;fill:#000000;stroke:none"
       clip-path="url(#265_text_clipper)"><tspan
         dy="8.25pt"
         id="267">KeyDown</tspan></text>
    <path
       d="m 31.179,5.2 c 3.8195,5.8918 3.8024,13.482 -0.04348,19.357"
       style="opacity:1;fill:none;stroke:#a9a9a9;stroke-width:2;stroke-linecap:butt;stroke-linejoin:miter;stroke-miterlimit:9"
       transform="translate(324,84)"
       id="269" />
    <circle
       id="270"
       cy="15"
       cx="15"
       transform="translate(324,84)"
       style="opacity:1;fill:#5bb27e;stroke:none"
       r="15" />
    <path
       d="M 8.5404,18.526 C 8.154759,18.14036 8.426559,17.3734 8.7512,17.0487 9.0693,16.7306 9.8857,16.65478 10.3397,17.03595 l 2.1904,1.7693 0.29084,-9.141104 c 0,-0.358289 0.60377,-0.924269 1.2316,-0.924269 0.74617,0 1.3151,0.576219 1.3151,0.95549 l 0.19096,5.347903 4.5059,1.703 c 0.18583,0.06373 0.43094,0.24909 0.43068,0.47598 l 0.0029,3.8276 -1.3849,2.3297 v 1.138 h -5.881 v -1.138 z"
       style="opacity:1;fill:#ffffff;fill-rule:evenodd;stroke:none"
       transform="translate(324,84)"
       id="271" />
    <path
       d="m 10.482,12.156 c -1.418399,-2.2682 0.09104,-5.5872 2.7329,-6.0086 2.6015,-0.62394 5.2683,1.8624 4.8283,4.5011 l -0.06627,0.37741"
       style="opacity:1;fill:none;stroke:#ffffff;stroke-width:2;stroke-linecap:butt;stroke-linejoin:miter;stroke-miterlimit:9"
       transform="translate(324,84)"
       id="272" />
    <text
       id="273"
       x="324"
       y="119"
       style="font-size:11px;font-family:'Microsoft Sans Serif';opacity:1;fill:#000000;stroke:none"
       clip-path="url(#275_text_clipper)"><tspan
         dy="8.25pt"
         id="277">KeyDown</tspan></text>
    <circle
       id="279"
       cy="15"
       cx="15"
       transform="translate(324,164)"
       style="opacity:1;fill:#eec04b;stroke:none"
       r="15" />
    <path
       d="m 12.246,6.0137 v 0.00586 c -0.18794,7e-4 -0.35129,0.020875 -0.47852,0.046875 -0.89879,0.286301 -0.87117,0.86794 -1.8906,1.6191 -1.013501,0.578801 -1.5235,0.13438 -2.2617,0.73438 -0.73673,0.5956 -0.22226,1.962596 -0.53125,2.228496 -0.30671,0.5316 -1.2584,1.0063 -1.4316,1.6777 -0.14317,0.8587 0.38958,1.4709 0.36914,2.207 0.0614,0.6133 -0.6102,0.96178 -0.51367,1.459 0.28922,0.8121 0.84658,1.3001 1.1094,1.5254 0.046151,0.032 0.082828,0.08099 0.097656,0.08399 0.075857,0.1905 0.14373,0.38495 0.24023,0.56445 -0.00548,-0.026 -0.00651,-0.05213 -0.011719,-0.07813 0.054861,0.2176 0.11171,0.43619 0.189449,0.65039 1.5503,3.3608 5.681304,5.9479 10.209004,5.3789 2.1992,-0.2694 5.4826,-1.7854 6.8242,-5.3789 -0.94558,0.8485 -2.6345,1.586 -3.3887,1.6426 2.5527,-1.2757 3.9298,-3.4434 3.54299,-6.4062 -0.52877,1.2588 -1.2269,2.2267 -2.0996,2.8906 1.8538,-2.8897 1.5362,-4.3839 0.16407,-6.0254 0.98137,2.699 -0.28759,5.6945 -3.0527,7.8242 1.1203,0.1214 2.18449,-0.14787 3.1699,-0.95117 -1.4888,1.6607 -3.3523,2.4955 -5.4883,2.7227 1.0199,0.867 2.0045,1.259 2.9453,1.0918 -2.6144,0.7215 -4.8042,-0.07306 -7.4688,-2.7266 -0.13948,0.7143 0.61496,1.8268 1.3926,2.5371 -4.509502,-1.955 -4.906603,-8.042 0.58594,-9.5449 0.0033,0 0.0065,9e-4 0.0098,0 3.2713,1.9138 7.3868,1.7879 7.5723,0.55078 0.45807,-1.4829 -2.0857,-4.538497 -5.8887,-5.335897 -0.70028,-0.1367 -1.3698,-0.190479 -2.0078,-0.17188 0.01278,0 0.0243,2.39e-4 0.03711,-0.00977 -0.6074,-0.6489 -1.3815,-0.8145 -1.9453,-0.8125 z m 4.93169,3.033178 c 0.54604,0 1.0449,0.49697 1.0449,1.043002 0,0.5461 -0.49888,1.043 -1.0449,1.043 -0.54604,0 -1.043,-0.49687 -1.043,-1.043 5e-5,-0.546001 0.49693,-1.043102 1.043,-1.043002 z"
       style="opacity:1;fill:#ffffff;fill-rule:evenodd;stroke:none"
       transform="translate(324,164)"
       id="280" />
    <circle
       id="281"
       cy="179"
       cx="324"
       style="opacity:1;fill:none;stroke:#a9a9a9;stroke-width:2;stroke-linecap:butt;stroke-linejoin:miter;stroke-miterlimit:9"
       r="3" />
    <circle
       id="282"
       cy="179"
       cx="324"
       style="opacity:1;fill:#ffffff;stroke:none"
       r="3" />
    <text
       id="283"
       x="324"
       y="199"
       style="font-size:11px;font-family:'Microsoft Sans Serif';opacity:1;fill:#000000;stroke:none"
       clip-path="url(#285_text_clipper)"><tspan
         dy="8.25pt"
         id="287">Zip</tspan></text>
    <line
       y1="179"
       style="opacity:1;fill:none;stroke:#a9a9a9;stroke-width:1;stroke-linecap:butt;stroke-linejoin:miter;stroke-miterlimit:9"
       id="289"
       x2="278"
       y2="179"
       x1="240" />
    <circle
       id="290"
       cy="15"
       cx="15"
       transform="translate(244,244)"
       style="opacity:1;fill:#eec04b;stroke:none"
       r="15" />
    <path
       d="m 12.246,6.0137 v 0.00586 c -0.18794,7e-4 -0.35129,0.020875 -0.47852,0.046875 -0.89879,0.286301 -0.87117,0.86794 -1.8906,1.6191 -1.013501,0.578801 -1.5235,0.13438 -2.2617,0.73438 -0.73673,0.5956 -0.22226,1.962596 -0.53125,2.228496 -0.30671,0.5316 -1.2584,1.0063 -1.4316,1.6777 -0.14317,0.8587 0.38958,1.4709 0.36914,2.207 0.0614,0.6133 -0.6102,0.96178 -0.51367,1.459 0.28922,0.8121 0.84658,1.3001 1.1094,1.5254 0.046151,0.032 0.082828,0.08099 0.097656,0.08399 0.075857,0.1905 0.14373,0.38495 0.24023,0.56445 -0.00548,-0.026 -0.00651,-0.05213 -0.011719,-0.07813 0.054861,0.2176 0.11171,0.43619 0.189449,0.65039 1.5503,3.3608 5.681304,5.9479 10.209004,5.3789 2.1992,-0.2694 5.4826,-1.7854 6.8242,-5.3789 -0.94558,0.8485 -2.6345,1.586 -3.3887,1.6426 2.5527,-1.2757 3.9298,-3.4434 3.54299,-6.4062 -0.52877,1.2588 -1.2269,2.2267 -2.0996,2.8906 1.8538,-2.8897 1.5362,-4.3839 0.16407,-6.0254 0.98137,2.699 -0.28759,5.6945 -3.0527,7.8242 1.1203,0.1214 2.18449,-0.14787 3.1699,-0.95117 -1.4888,1.6607 -3.3523,2.4955 -5.4883,2.7227 1.0199,0.867 2.0045,1.259 2.9453,1.0918 -2.6144,0.7215 -4.8042,-0.07306 -7.4688,-2.7266 -0.13948,0.7143 0.61496,1.8268 1.3926,2.5371 -4.509502,-1.955 -4.906603,-8.042 0.58594,-9.5449 0.0033,0 0.0065,9e-4 0.0098,0 3.2713,1.9138 7.3868,1.7879 7.5723,0.55078 0.45807,-1.4829 -2.0857,-4.538497 -5.8887,-5.335897 -0.70028,-0.1367 -1.3698,-0.190479 -2.0078,-0.17188 0.01278,0 0.0243,2.39e-4 0.03711,-0.00977 -0.6074,-0.6489 -1.3815,-0.8145 -1.9453,-0.8125 z m 4.93169,3.033178 c 0.54604,0 1.0449,0.49697 1.0449,1.043002 0,0.5461 -0.49888,1.043 -1.0449,1.043 -0.54604,0 -1.043,-0.49687 -1.043,-1.043 5e-5,-0.546001 0.49693,-1.043102 1.043,-1.043002 z"
       style="opacity:1;fill:#ffffff;fill-rule:evenodd;stroke:none"
       transform="translate(244,244)"
       id="291" />
    <text
       id="292"
       x="244"
       y="279"
       style="font-size:11px;font-family:'Microsoft Sans Serif';opacity:1;fill:#000000;stroke:none"
       clip-path="url(#294_text_clipper)"><tspan
         dy="8.25pt"
         id="296">Skip</tspan></text>
    <circle
       id="298"
       cy="15"
       cx="15"
       transform="translate(164,164)"
       style="opacity:1;fill:#449adf;stroke:none"
       r="15" />
    <path
       d="m 10.824,9.4752 -7.2627,5.5836 7.2627,5.5519 -0.0088,-2.286 -4.296199,-3.298 4.304899,-3.2845 z"
       style="opacity:1;fill:#ffffff;fill-rule:evenodd;stroke:none"
       transform="translate(164,164)"
       id="299" />
    <path
       d="m 15.365,7.2336 c -0.01853,0.10187 -0.04375,0.2035 -0.05078,0.3039 -0.90345,5.1066 -1.8173,10.212 -2.7148,15.32 -0.0043,0.02885 0.0024,0.05473 0,0.08312 h 2.0293 c 0.07476,-0.40738 0.10807,-0.83802 0.20898,-1.226 0.84434,-4.7736 1.6988,-9.5445 2.5371,-14.320001 0.0068,-0.054184 0.0039,-0.10738 0.0039,-0.16104 z"
       style="opacity:1;fill:#ffffff;fill-rule:evenodd;stroke:none"
       transform="translate(164,164)"
       id="300" />
    <path
       d="m 19.044,9.4746 7.2627,5.5836 -7.2627,5.5519 0.0088,-2.286 4.2962,-3.298 -4.3049,-3.2845 z"
       style="opacity:1;fill:#ffffff;fill-rule:evenodd;stroke:none"
       transform="translate(164,164)"
       id="301" />
    <text
       id="302"
       x="164"
       y="199"
       style="font-size:11px;font-family:'Microsoft Sans Serif';opacity:1;fill:#000000;stroke:none"
       clip-path="url(#304_text_clipper)"><tspan
         dy="8.25pt"
         id="306">Heading</tspan></text>
    <circle
       id="308"
       cy="15"
       cx="15"
       transform="translate(84,164)"
       style="opacity:1;fill:#eec04b;stroke:none"
       r="15" />
    <path
       d="m 12.246,6.0137 v 0.00586 c -0.18794,7e-4 -0.35129,0.020875 -0.47852,0.046875 -0.89879,0.286301 -0.87117,0.86794 -1.8906,1.6191 -1.013501,0.578801 -1.5235,0.13438 -2.2617,0.73438 -0.73673,0.5956 -0.22226,1.962596 -0.53125,2.228496 -0.30671,0.5316 -1.2584,1.0063 -1.4316,1.6777 -0.14317,0.8587 0.38958,1.4709 0.36914,2.207 0.0614,0.6133 -0.6102,0.96178 -0.51367,1.459 0.28922,0.8121 0.84658,1.3001 1.1094,1.5254 0.046151,0.032 0.082828,0.08099 0.097656,0.08399 0.075857,0.1905 0.14373,0.38495 0.24023,0.56445 -0.00548,-0.026 -0.00651,-0.05213 -0.011719,-0.07813 0.054861,0.2176 0.11171,0.43619 0.189449,0.65039 1.5503,3.3608 5.681304,5.9479 10.209004,5.3789 2.1992,-0.2694 5.4826,-1.7854 6.8242,-5.3789 -0.94558,0.8485 -2.6345,1.586 -3.3887,1.6426 2.5527,-1.2757 3.9298,-3.4434 3.54299,-6.4062 -0.52877,1.2588 -1.2269,2.2267 -2.0996,2.8906 1.8538,-2.8897 1.5362,-4.3839 0.16407,-6.0254 0.98137,2.699 -0.28759,5.6945 -3.0527,7.8242 1.1203,0.1214 2.18449,-0.14787 3.1699,-0.95117 -1.4888,1.6607 -3.3523,2.4955 -5.4883,2.7227 1.0199,0.867 2.0045,1.259 2.9453,1.0918 -2.6144,0.7215 -4.8042,-0.07306 -7.4688,-2.7266 -0.13948,0.7143 0.61496,1.8268 1.3926,2.5371 -4.509502,-1.955 -4.906603,-8.042 0.58594,-9.5449 0.0033,0 0.0065,9e-4 0.0098,0 3.2713,1.9138 7.3868,1.7879 7.5723,0.55078 0.45807,-1.4829 -2.0857,-4.538497 -5.8887,-5.335897 -0.70028,-0.1367 -1.3698,-0.190479 -2.0078,-0.17188 0.01278,0 0.0243,2.39e-4 0.03711,-0.00977 -0.6074,-0.6489 -1.3815,-0.8145 -1.9453,-0.8125 z m 4.93169,3.033178 c 0.54604,0 1.0449,0.49697 1.0449,1.043002 0,0.5461 -0.49888,1.043 -1.0449,1.043 -0.54604,0 -1.043,-0.49687 -1.043,-1.043 5e-5,-0.546001 0.49693,-1.043102 1.043,-1.043002 z"
       style="opacity:1;fill:#ffffff;fill-rule:evenodd;stroke:none"
       transform="translate(84,164)"
       id="309" />
    <text
       id="310"
       x="84"
       y="199"
       style="font-size:11px;font-family:'Microsoft Sans Serif';opacity:1;fill:#000000;stroke:none"
       clip-path="url(#312_text_clipper)"><tspan
         dy="8.25pt"
         id="314">Sample</tspan></text>
    <path
       d="m 31.179,5.2 c 3.8195,5.8918 3.8024,13.482 -0.04348,19.357"
       style="opacity:1;fill:none;stroke:#a9a9a9;stroke-width:2;stroke-linecap:butt;stroke-linejoin:miter;stroke-miterlimit:9"
       transform="translate(4,164)"
       id="316" />
    <circle
       id="317"
       cy="15"
       cx="15"
       transform="translate(4,164)"
       style="opacity:1;fill:#5bb27e;stroke:none"
       r="15" />
    <circle
       id="318"
       cy="9.0600004"
       cx="15.01"
       transform="translate(4,164)"
       style="opacity:1;fill:#ffffff;stroke:none"
       r="3.5" />
    <circle
       id="319"
       cy="18.49"
       cx="9.1199999"
       transform="translate(4,164)"
       style="opacity:1;fill:#ffffff;stroke:none"
       r="3.5" />
    <circle
       id="320"
       cy="18.459999"
       cx="20.879999"
       transform="translate(4,164)"
       style="opacity:1;fill:#ffffff;stroke:none"
       r="3.5" />
    <text
       id="321"
       x="4"
       y="199"
       style="font-size:11px;font-family:'Microsoft Sans Serif';opacity:1;fill:#000000;stroke:none"
       clip-path="url(#323_text_clipper)"><tspan
         dy="8.25pt"
         id="325">Source1</tspan></text>
    <path
       d="m 31.179,5.2 c 3.8195,5.8918 3.8024,13.482 -0.04348,19.357"
       style="opacity:1;fill:none;stroke:#a9a9a9;stroke-width:2;stroke-linecap:butt;stroke-linejoin:miter;stroke-miterlimit:9"
       transform="translate(4,244)"
       id="327" />
    <circle
       id="328"
       cy="15"
       cx="15"
       transform="translate(4,244)"
       style="opacity:1;fill:#5bb27e;stroke:none"
       r="15" />
    <path
       d="m 12.246,6.0137 v 0.00586 c -0.18794,7e-4 -0.35129,0.020875 -0.47852,0.046875 -0.89879,0.286301 -0.87117,0.86794 -1.8906,1.6191 -1.013501,0.578801 -1.5235,0.13438 -2.2617,0.73438 -0.73673,0.5956 -0.22226,1.962596 -0.53125,2.228496 -0.30671,0.5316 -1.2584,1.0063 -1.4316,1.6777 -0.14317,0.8587 0.38958,1.4709 0.36914,2.207 0.0614,0.6133 -0.6102,0.96178 -0.51367,1.459 0.28922,0.8121 0.84658,1.3001 1.1094,1.5254 0.046151,0.032 0.082828,0.08099 0.097656,0.08399 0.075857,0.1905 0.14373,0.38495 0.24023,0.56445 -0.00548,-0.026 -0.00651,-0.05213 -0.011719,-0.07813 0.054861,0.2176 0.11171,0.43619 0.189449,0.65039 1.5503,3.3608 5.681304,5.9479 10.209004,5.3789 2.1992,-0.2694 5.4826,-1.7854 6.8242,-5.3789 -0.94558,0.8485 -2.6345,1.586 -3.3887,1.6426 2.5527,-1.2757 3.9298,-3.4434 3.54299,-6.4062 -0.52877,1.2588 -1.2269,2.2267 -2.0996,2.8906 1.8538,-2.8897 1.5362,-4.3839 0.16407,-6.0254 0.98137,2.699 -0.28759,5.6945 -3.0527,7.8242 1.1203,0.1214 2.18449,-0.14787 3.1699,-0.95117 -1.4888,1.6607 -3.3523,2.4955 -5.4883,2.7227 1.0199,0.867 2.0045,1.259 2.9453,1.0918 -2.6144,0.7215 -4.8042,-0.07306 -7.4688,-2.7266 -0.13948,0.7143 0.61496,1.8268 1.3926,2.5371 -4.509502,-1.955 -4.906603,-8.042 0.58594,-9.5449 0.0033,0 0.0065,9e-4 0.0098,0 3.2713,1.9138 7.3868,1.7879 7.5723,0.55078 0.45807,-1.4829 -2.0857,-4.538497 -5.8887,-5.335897 -0.70028,-0.1367 -1.3698,-0.190479 -2.0078,-0.17188 0.01278,0 0.0243,2.39e-4 0.03711,-0.00977 -0.6074,-0.6489 -1.3815,-0.8145 -1.9453,-0.8125 z m 4.93169,3.033178 c 0.54604,0 1.0449,0.49697 1.0449,1.043002 0,0.5461 -0.49888,1.043 -1.0449,1.043 -0.54604,0 -1.043,-0.49687 -1.043,-1.043 5e-5,-0.546001 0.49693,-1.043102 1.043,-1.043002 z"
       style="opacity:1;fill:#ffffff;fill-rule:evenodd;stroke:none"
       transform="translate(4,244)"
       id="329" />
    <text
       id="330"
       x="4"
       y="279"
       style="font-size:11px;font-family:'Microsoft Sans Serif';opacity:1;fill:#000000;stroke:none"
       clip-path="url(#332_text_clipper)"><tspan
         dy="8.25pt"
         id="334">Timer</tspan></text>
  </g>
  <defs
     id="clips_hatches_and_gradients">
    <clipPath
       id="168_text_clipper">
      <rect
         x="644"
         y="39"
         width="50.310001"
         height="27.65"
         id="169" />
    </clipPath>
    <clipPath
       id="174_text_clipper">
      <rect
         x="644"
         y="51.450001"
         width="50.310001"
         height="27.65"
         id="175" />
    </clipPath>
    <clipPath
       id="185_text_clipper">
      <rect
         x="564"
         y="39"
         width="59.259998"
         height="27.65"
         id="186" />
    </clipPath>
    <clipPath
       id="191_text_clipper">
      <rect
         x="564"
         y="51.450001"
         width="59.259998"
         height="27.65"
         id="192" />
    </clipPath>
    <clipPath
       id="201_text_clipper">
      <rect
         x="484"
         y="39"
         width="35.779999"
         height="13.83"
         id="202" />
    </clipPath>
    <clipPath
       id="211_text_clipper">
      <rect
         x="484"
         y="119"
         width="54.66"
         height="13.83"
         id="212" />
    </clipPath>
    <clipPath
       id="222_text_clipper">
      <rect
         x="404"
         y="39"
         width="33.330002"
         height="13.83"
         id="223" />
    </clipPath>
    <clipPath
       id="233_text_clipper">
      <rect
         x="404"
         y="119"
         width="33.330002"
         height="13.83"
         id="234" />
    </clipPath>
    <clipPath
       id="243_text_clipper">
      <rect
         x="404"
         y="199"
         width="65.989998"
         height="41.48"
         id="244" />
    </clipPath>
    <clipPath
       id="249_text_clipper">
      <rect
         x="404"
         y="211.45"
         width="65.989998"
         height="41.48"
         id="250" />
    </clipPath>
    <clipPath
       id="255_text_clipper">
      <rect
         x="404"
         y="223.89999"
         width="65.989998"
         height="41.48"
         id="256" />
    </clipPath>
    <clipPath
       id="265_text_clipper">
      <rect
         x="324"
         y="39"
         width="52.150002"
         height="13.83"
         id="266" />
    </clipPath>
    <clipPath
       id="275_text_clipper">
      <rect
         x="324"
         y="119"
         width="52.150002"
         height="13.83"
         id="276" />
    </clipPath>
    <clipPath
       id="285_text_clipper">
      <rect
         x="324"
         y="199"
         width="19.469999"
         height="13.83"
         id="286" />
    </clipPath>
    <clipPath
       id="294_text_clipper">
      <rect
         x="244"
         y="279"
         width="25.77"
         height="13.83"
         id="295" />
    </clipPath>
    <clipPath
       id="304_text_clipper">
      <rect
         x="164"
         y="199"
         width="45.93"
         height="13.83"
         id="305" />
    </clipPath>
    <clipPath
       id="312_text_clipper">
      <rect
         x="84"
         y="199"
         width="42.150002"
         height="13.83"
         id="313" />
    </clipPath>
    <clipPath
       id="323_text_clipper">
      <rect
         x="4"
         y="199"
         width="45.860001"
         height="13.83"
         id="324" />
    </clipPath>
    <clipPath
       id="332_text_clipper">
      <rect
         x="4"
         y="279"
         width="32.68"
         height="13.83"
         id="333" />
    </clipPath>
  </defs>
  <rect
     style="fill:none;stroke:#ff0000;stroke-width:0.999996;stroke-miterlimit:10"
     id="rect22067"
     width="239"
     height="159"
     x="480.5"
     y="0.4999975" />
</svg>
