<?xml version="1.0" encoding="UTF-8" standalone="no"?>
<svg
   xmlns:dc="http://purl.org/dc/elements/1.1/"
   xmlns:cc="http://creativecommons.org/ns#"
   xmlns:rdf="http://www.w3.org/1999/02/22-rdf-syntax-ns#"
   xmlns:svg="http://www.w3.org/2000/svg"
   xmlns="http://www.w3.org/2000/svg"
   xmlns:sodipodi="http://sodipodi.sourceforge.net/DTD/sodipodi-0.dtd"
   xmlns:inkscape="http://www.inkscape.org/namespaces/inkscape"
   inkscape:version="0.92.3 (2405546, 2018-03-11)"
   sodipodi:docname="noun_pcb.svg"
   id="svg862"
   xml:space="preserve"
   style="enable-background:new 0 0 100 100;"
   viewBox="0 0 100 100"
   y="0px"
   x="0px"
   version="1.1"><metadata
   id="metadata868"><rdf:RDF><cc:Work
       rdf:about=""><dc:format>image/svg+xml</dc:format><dc:type
         rdf:resource="http://purl.org/dc/dcmitype/StillImage" /><dc:title></dc:title></cc:Work></rdf:RDF></metadata><defs
   id="defs866">
	

	
	
	
	
	

	
	
	
	
	
</defs><sodipodi:namedview
   inkscape:guide-bbox="true"
   showguides="true"
   inkscape:current-layer="svg862"
   inkscape:window-maximized="0"
   inkscape:window-y="24"
   inkscape:window-x="0"
   inkscape:cy="17.857871"
   inkscape:cx="33.379453"
   inkscape:zoom="4.1350001"
   showgrid="false"
   id="namedview864"
   inkscape:window-height="1412"
   inkscape:window-width="2556"
   inkscape:pageshadow="2"
   inkscape:pageopacity="0"
   guidetolerance="10"
   gridtolerance="10"
   objecttolerance="10"
   borderopacity="1"
   bordercolor="#666666"
   pagecolor="#ffffff" />
<style
   id="style833"
   type="text/css">
	.st0{display:none;}
	.st1{display:inline;fill-rule:evenodd;clip-rule:evenodd;fill:#B5B5B6;stroke:#000000;stroke-miterlimit:10;}
	.st2{display:inline;fill:none;stroke:#FFFFFF;stroke-miterlimit:10;}
	.st3{display:inline;}
	.st4{fill-rule:evenodd;clip-rule:evenodd;fill:none;stroke:#AF61B5;stroke-miterlimit:10;}
	
		.st5{fill-rule:evenodd;clip-rule:evenodd;fill:#CEACCA;stroke:#000000;stroke-width:0.957;stroke-linejoin:round;stroke-miterlimit:10;}
	.st6{fill-rule:evenodd;clip-rule:evenodd;fill:#FFFFFF;stroke:#000000;stroke-width:0.957;stroke-miterlimit:10;}
	
		.st7{fill-rule:evenodd;clip-rule:evenodd;fill:#DA714A;stroke:#000000;stroke-width:0.957;stroke-linejoin:round;stroke-miterlimit:10;}
	
		.st8{fill-rule:evenodd;clip-rule:evenodd;fill:#0E99C9;stroke:#000000;stroke-width:0.957;stroke-linejoin:round;stroke-miterlimit:10;}
	
		.st9{fill-rule:evenodd;clip-rule:evenodd;fill:#F4D050;stroke:#000000;stroke-width:0.957;stroke-linejoin:round;stroke-miterlimit:10;}
</style>
<g
   class="st0"
   id="Layer_2">
	<polygon
   id="polygon835"
   points="48.2,6.8 37.3,18.2 53.9,37.3 73.8,21.2 63.9,11.9  "
   class="st1" />
</g>
<g
   class="st0"
   id="Layer_1">
	<line
   id="line838"
   y2="50"
   x2="99.7"
   y1="50"
   x1="-0.3"
   class="st2" />
	<g
   id="g842"
   class="st3">
		<path
   id="path840"
   d="M50.8,0l37.7,24v15.6l-1.3,0.8L96,46v15.6l-10.8,6.2V77l-39.9,23L10.2,77.3c-6.9-4.4-8.8-13.4-1.7-17.4    l7.2-4.1c-1.8-4.1-0.9-8.7,3.6-11.3l0.6-0.4l-6.4-4.1c-6.9-4.4-8.8-13.4-1.7-17.4L50.8,0L50.8,0z M53.7,10.4l14.5,9.9L59.1,26    l-14.5-9.9L53.7,10.4L53.7,10.4z M81.6,69.8L56,84.5l-4.3-2.7l-6.3,3.4l-34-20.5c-4-2.4-4.3,6.3-0.4,8.8l34.4,22l36.1-20.7    L81.6,69.8L81.6,69.8z M56.3,71.1l36.1-20.5v8.6L56.2,80L21.8,58c-3.9-2.5-3.6-11.2,0.4-8.8L56.3,71.1L56.3,71.1z M50.7,49.7    l34.2-20.7v8.4l-34.2,21L14.3,36.1c-3.9-2.4-3.6-11.2,0.4-8.8L50.7,49.7L50.7,49.7z"
   class="st4" />
	</g>
</g>

<path
   id="path952"
   d="M 13.44443,14.457946 21.03296,6.8694115 H 89.519927 V 91.095856 H 13.44443 Z"
   style="fill:#c5d2b5;fill-opacity:1;stroke:#000000;stroke-width:1;stroke-linecap:butt;stroke-linejoin:round;stroke-miterlimit:4;stroke-dasharray:none;stroke-opacity:1" /><circle
   r="4.3530846"
   cy="81.003571"
   cx="24.833834"
   id="path966"
   style="fill:#f4d050;fill-opacity:1;stroke:#000000;stroke-width:1;stroke-linecap:round;stroke-linejoin:round;stroke-miterlimit:4;stroke-dasharray:none;stroke-opacity:1" /><circle
   style="fill:#f4d050;fill-opacity:1;stroke:#000000;stroke-width:1;stroke-linecap:round;stroke-linejoin:round;stroke-miterlimit:4;stroke-dasharray:none;stroke-opacity:1"
   id="path966-7"
   cx="36.907509"
   cy="81.003571"
   r="4.3530846" /><path
   style="stroke-width:1.35849"
   d="m 56.91614,82.94491 h 19.018875 v -2.716981 h 2.716982 v -2.716983 h -2.716982 v -2.716981 h 2.716982 v -2.716983 h -2.716982 v -2.716981 h 2.716982 v -2.716983 h -2.716982 v -2.716981 h 2.716982 v -2.716982 h -2.716982 v -2.716983 h 2.716982 v -2.716981 h -2.716982 v -2.716983 h 2.716982 v -2.716981 h -2.716982 v -2.716983 h 2.716982 v -2.716981 h -2.716982 v -2.716982 h 2.716982 v -2.716982 h -2.716982 v -2.716982 h 2.716982 v -2.716983 h -2.716982 v -2.716981 h 2.716982 v -2.716982 h -2.716982 v -2.716982 h 2.716982 v -2.716982 h -2.716982 v -2.716982 h 2.716982 V 17.737343 H 75.935015 V 15.020362 H 56.91614 v 2.716981 h -2.71698 v 2.716982 h 2.71698 v 2.716982 h -2.71698 v 2.716982 h 2.71698 v 2.716982 h -2.71698 v 2.716982 h 2.71698 v 2.716981 h -2.71698 v 2.716983 h 2.71698 v 2.716982 h -2.71698 v 2.716982 h 2.71698 v 2.716982 h -2.71698 v 2.716981 h 2.71698 v 2.716983 h -2.71698 v 2.716981 h 2.71698 v 2.716983 h -2.71698 v 2.716981 h 2.71698 v 2.716983 h -2.71698 v 2.716982 h 2.71698 v 2.716981 h -2.71698 v 2.716983 h 2.71698 v 2.716981 h -2.71698 v 2.716983 h 2.71698 v 2.716981 h -2.71698 v 2.716983 h 2.71698 z M 59.63312,17.737343 H 73.218032 V 80.227929 H 59.63312 Z"
   id="path872" /><path
   style="stroke-width:1.35849"
   d="M 48.76519,17.737343 H 37.89728 v 8.150946 h 10.86791 z m -2.71697,5.433964 h -5.43396 v -2.716982 h 5.43396 z"
   id="path876" /><path
   style="stroke-width:1.35849"
   d="M 48.76519,31.322253 H 37.89728 v 8.150946 h 10.86791 z m -2.71697,5.433964 h -5.43396 v -2.716983 h 5.43396 z"
   id="path878" /><path
   style="stroke-width:1.35849"
   d="m 29.74633,43.548672 v 2.716981 h -2.71698 v -2.716981 h -2.71699 v 2.716981 H 21.59538 V 54.4166 h 2.71698 v 2.716982 h 2.71699 V 54.4166 h 2.71698 v 2.716982 h 2.71698 V 54.4166 h 2.71698 v 2.716982 h 2.71699 V 54.4166 h 2.71698 v -8.150947 h -2.71698 v -2.716981 h -2.71699 v 2.716981 h -2.71698 v -2.716981 z m 8.15095,8.150946 H 24.31236 v -2.716982 h 13.58492 z"
   id="path880" /><rect
   style="stroke-width:1.35849"
   x="35.180252"
   y="63.926029"
   width="2.7169819"
   height="5.4339638"
   id="rect886" /><rect
   style="stroke-width:1.35849"
   x="40.614212"
   y="63.926029"
   width="2.7169819"
   height="5.4339638"
   id="rect888" /><rect
   style="stroke-width:1.35849"
   x="46.048195"
   y="63.926029"
   width="2.7169819"
   height="5.4339638"
   id="rect890" /><path
   id="path954"
   d="M 5.2934902,20.454325 V 39.473199 H 27.02935 V 20.454325 Z"
   style="fill:#b5b5b6;fill-opacity:1;stroke:#000000;stroke-width:1;stroke-linecap:butt;stroke-linejoin:round;stroke-miterlimit:4;stroke-dasharray:none;stroke-opacity:1" /><path
   id="path956"
   d="M 5.2934902,61.209055 V 72.076982 H 27.02935 V 61.209055 Z"
   style="fill:#b5b5b6;fill-opacity:1;stroke:#000000;stroke-width:1;stroke-linecap:butt;stroke-linejoin:miter;stroke-miterlimit:4;stroke-dasharray:none;stroke-opacity:1" /><rect
   y="17.737347"
   x="37.897255"
   height="8.1509457"
   width="10.867928"
   id="rect958"
   style="fill:#da714a;fill-opacity:1;stroke:#000000;stroke-width:1;stroke-linecap:round;stroke-linejoin:round;stroke-miterlimit:4;stroke-dasharray:none;stroke-opacity:1" /><rect
   y="31.322254"
   x="37.897255"
   height="8.1509457"
   width="10.867928"
   id="rect960"
   style="fill:#da714a;fill-opacity:1;stroke:#000000;stroke-width:1;stroke-linecap:round;stroke-linejoin:round;stroke-miterlimit:4;stroke-dasharray:none;stroke-opacity:1" /><rect
   y="15.020359"
   x="56.916138"
   height="67.924545"
   width="19.018875"
   id="rect962"
   style="fill:#b5b5b6;fill-opacity:1;stroke:#000000;stroke-width:1;stroke-linecap:round;stroke-linejoin:round;stroke-miterlimit:4;stroke-dasharray:none;stroke-opacity:1" /><rect
   y="46.265656"
   x="21.595369"
   height="8.1509457"
   width="19.018875"
   id="rect964"
   style="fill:#b5b5b6;fill-opacity:1;stroke:#000000;stroke-width:1;stroke-linecap:round;stroke-linejoin:round;stroke-miterlimit:4;stroke-dasharray:none;stroke-opacity:1" /><style
   type="text/css"
   id="style983">
	.st0{fill:none;stroke:#FFFFFF;stroke-miterlimit:10;}
	.st1{fill:#B5B5B6;}
	.st2{fill:#5FB5DC;}
	.st3{fill:#F4D050;}
	.st4{fill:#818082;}
</style><line
   class="st0"
   x1="56.299809"
   y1="170.45657"
   x2="156.2998"
   y2="170.45657"
   id="line985" /><style
   type="text/css"
   id="style1422">
	.st0{fill:none;stroke:#7654A2;stroke-width:1.8;stroke-linecap:round;stroke-linejoin:round;stroke-miterlimit:10;}
	.st1{fill:none;stroke:#00ABE1;stroke-width:1.8;stroke-linecap:round;stroke-linejoin:round;stroke-miterlimit:10;}
	.st2{fill:none;stroke:#F79929;stroke-width:1.8;stroke-linecap:round;stroke-linejoin:round;stroke-miterlimit:10;}
	.st3{fill:none;stroke:#F06022;stroke-width:1.8;stroke-linecap:round;stroke-linejoin:round;stroke-miterlimit:10;}
	.st4{fill:none;stroke:#527C60;stroke-width:1.8;stroke-linecap:round;stroke-linejoin:round;stroke-miterlimit:10;}
	.st5{fill:none;stroke:#6CB845;stroke-width:1.8;stroke-linecap:round;stroke-linejoin:round;stroke-miterlimit:10;}
	.st6{fill:none;stroke:#3387C8;stroke-width:1.8;stroke-linecap:round;stroke-linejoin:round;stroke-miterlimit:10;}
	.st7{fill:none;stroke:#0C649B;stroke-width:1.8;stroke-linecap:round;stroke-linejoin:round;stroke-miterlimit:10;}
	.st8{fill:none;stroke:#9D7CB7;stroke-width:1.8;stroke-linecap:round;stroke-linejoin:round;stroke-miterlimit:10;}
	.st9{fill:none;stroke:#6D2772;stroke-width:1.8;stroke-linecap:round;stroke-linejoin:round;stroke-miterlimit:10;}
</style></svg>