<?xml version="1.0" standalone="yes"?><!DOCTYPE svg PUBLIC "-//W3C//DTD SVG 1.1//EN" "http://www.w3.org/Graphics/SVG/1.1/DTD/svg11.dtd"[
<!ENTITY E17 'stroke:none;opacity:1;fill:rgb(68,154,223);'><!ENTITY E11 'matrix(1.00 0.00 0.00 1.00 244.00 84.00 ) '><!ENTITY E10 'matrix(1.00 0.00 0.00 1.00 0.00 0.00 ) '><!ENTITY E3 'stroke:rgb(169,169,169);fill:none;stroke-linecap:butt;stroke-miterlimit:9;opacity:1;stroke-width:2;stroke-linejoin:miter;'><!ENTITY E20 'M 5.5001 19.484 10.6493 19.484 16.2743 10.2485 19.3728 10.2485 M 14.6769 17.1481 16.3089 19.4828 19.2202 19.4828 M 5.500199 10.2437 10.7586 10.2437 12.1652 12.8707 '><!ENTITY E18 'M 19.156 13.888 19.156 10.3647 19.156 6.841399 25.2585 10.3647 22.2072 12.1264 z '><!ENTITY E16 'matrix(1.00 0.00 0.00 1.00 164.00 4.00 ) '><!ENTITY E19 'M 19.156 22.97 19.156 19.4467 19.156 15.9234 25.2585 19.4467 22.2072 21.2084 z '><!ENTITY E13 'stroke:rgb(255,255,255);fill:none;stroke-linecap:butt;stroke-miterlimit:9;opacity:1;stroke-width:2;stroke-linejoin:miter;'><!ENTITY E1 'stroke:rgb(169,169,169);fill:none;stroke-linecap:butt;stroke-miterlimit:9;opacity:1;stroke-width:1;stroke-linejoin:miter;'><!ENTITY E31 'matrix(1.00 0.00 0.00 1.00 4.00 4.00 ) '><!ENTITY E33 'stroke:none;opacity:1;fill:rgb(255,255,255);'><!ENTITY E26 'matrix(1.00 0.00 0.00 1.00 84.00 84.00 ) '><!ENTITY E4 'matrix(1.00 0.00 0.00 1.00 244.00 4.00 ) '><!ENTITY E5 'stroke:none;opacity:1;fill:rgb(155,91,179);'><!ENTITY E22 'matrix(1.00 0.00 0.00 1.00 164.00 84.00 ) '><!ENTITY E37 'stroke:rgb(255,255,255);fill:none;stroke-linecap:butt;stroke-miterlimit:9;opacity:1;stroke-width:0.866585;stroke-linejoin:miter;'><!ENTITY E2 'M 10.158 33.2 C 3.4054 31.7591 -1.861 26.4692 -3.271 19.71 '><!ENTITY E35 'stroke:rgb(255,255,255);fill:none;stroke-linecap:butt;stroke-miterlimit:9;opacity:1;stroke-width:0.878745;stroke-linejoin:miter;'><!ENTITY E7 'stroke:none;fill-rule:evenodd;opacity:1;fill:rgb(255,255,255);'>
]><svg width="307.9743" height="160.4756" id="SvgGdi_output" xmlns="http://www.w3.org/2000/svg" xmlns:xlink="http://www.w3.org/1999/xlink"><rect id="background" height="100.00%" style="fill:rgb(255,255,255);" width="100.00%" y="0.00" x="0.00" /><g style="shape-rendering:auto;" id="root_group"><line y1="19.00" style="&E1;" id="72" x2="240.00" y2="19.00" x1="198.00" /><line y1="99.00" style="&E1;" id="73" x2="240.00" y2="99.00" x1="198.00" /><line y1="19.00" style="&E1;" id="74" x2="160.00" y2="19.00" x1="118.00" /><line y1="99.00" style="&E1;" id="75" x2="160.00" y2="99.00" x1="118.00" /><line y1="19.00" style="&E1;" id="76" x2="80.00" y2="19.00" x1="38.00" /><line y1="19.00" style="&E1;" id="77" x2="80.00" y2="99.00" x1="38.00" /><path d="&E2;" style="&E3;" transform="&E4;" id="78" /><ellipse id="79" cy="15.00" cx="15.00" transform="&E4;" rx="15.00" ry="15.00" style="&E5;" /><path style="&E7;" transform="&E4;" id="80" d="M 23.75 9.1 19.5587 11.5211 19.5587 18.3937 23.75 20.8147 z " /><path style="&E7;" transform="&E4;" id="81" d="M 8.6927 9.2 15.7194 9.2 C 17.19 9.2 18.3739 10.4337 18.3739 11.9661 L 18.3739 17.8234 C 18.3739 19.3558 17.19 20.5893 15.7194 20.5893 L 8.692701 20.5893 C 7.222101 20.5893 6.038201 19.3558 6.038201 17.8234 L 6.038201 11.9661 C 6.038201 10.4337 7.222101 9.199999 8.692701 9.199999 z " /><text id="82" transform="&E10;" x="244.00px" y="39.00px" style="stroke:none;clip-path:url(#84_text_clipper);font-family:Microsoft Sans Serif;fill:rgb(0,0,0);font-size:8.25pt;opacity:1;"><tspan dy="8.25pt" id="86">VideoWriter</tspan></text><path d="&E2;" style="&E3;" transform="&E11;" id="88" /><ellipse id="89" cy="15.00" cx="15.00" transform="&E11;" rx="15.00" ry="15.00" style="&E5;" /><path style="&E13;" transform="&E11;" id="90" d="M 7.3965 19.566 7.3965 10.8433 " /><path style="&E13;" transform="&E11;" id="91" d="M 11.085 22.137 14.2178 8.273999 " /><ellipse id="92" cy="15.15" cx="20.49" transform="&E11;" rx="4.18" ry="4.18" style="&E13;" /><text id="93" transform="&E10;" x="244.00px" y="119.00px" style="stroke:none;clip-path:url(#95_text_clipper);font-family:Microsoft Sans Serif;fill:rgb(0,0,0);font-size:8.25pt;opacity:1;"><tspan dy="8.25pt" id="97">CsvWriter</tspan></text><ellipse id="99" cy="15.00" cx="15.00" transform="&E16;" rx="15.00" ry="15.00" style="&E17;" /><path d="&E18;" style="&E7;" transform="&E16;" id="100" /><path d="&E19;" style="&E7;" transform="&E16;" id="101" /><path d="&E20;" style="&E13;" transform="&E16;" id="102" /><text id="103" transform="&E10;" x="164.00px" y="39.00px" style="stroke:none;clip-path:url(#105_text_clipper);font-family:Microsoft Sans Serif;fill:rgb(0,0,0);font-size:8.25pt;opacity:1;"><tspan dy="8.25pt" id="107">Image</tspan></text><ellipse id="109" cy="15.00" cx="15.00" transform="&E22;" rx="15.00" ry="15.00" style="stroke:none;opacity:1;fill:rgb(238,192,75);" /><path style="&E7;" transform="&E22;" id="110" d="M 12.246 6.0137 12.246 6.019559 C 12.05806 6.020259 11.89471 6.040434 11.76748 6.066434 10.86869 6.352735 10.89631 6.934374 9.87688 7.685534 8.863379 8.264335 8.35338 7.819914 7.61518 8.419914 6.87845 9.015514 7.39292 10.38251 7.08393 10.64841 6.77722 11.18001 5.82553 11.65471 5.65233 12.32611 5.50916 13.18481 6.04191 13.79701 6.02147 14.53311 6.08287 15.14641 5.41127 15.49489 5.5078 15.99211 5.79702 16.80421 6.35438 17.29221 6.6172 17.51751 6.663351 17.54951 6.700028 17.5985 6.714856 17.6015 6.790713 17.792 6.858586 17.98645 6.955086 18.16595 6.949606 18.13995 6.948576 18.11382 6.943367 18.08782 6.998228 18.30542 7.055077 18.52401 7.132816 18.73821 8.683116 22.09901 12.81412 24.68611 17.34182 24.11711 19.54102 23.84771 22.82442 22.33171 24.16602 18.73821 23.22044 19.58671 21.53152 20.32421 20.77732 20.38081 23.33002 19.10511 24.70712 16.93741 24.32031 13.97461 23.79154 15.23341 23.09341 16.20131 22.22071 16.86521 24.07451 13.97551 23.75691 12.48131 22.38478 10.83981 23.36615 13.53881 22.09719 16.53431 19.33208 18.66401 20.45238 18.78541 21.51657 18.51614 22.50198 17.71284 21.01318 19.37354 19.14968 20.20834 17.01368 20.43554 18.03358 21.30254 19.01818 21.69454 19.95898 21.52734 17.34458 22.24884 15.15478 21.45428 12.49018 18.80074 12.3507 19.51504 13.10514 20.62754 13.88278 21.33784 9.373278 19.38284 8.976177 13.29584 14.46872 11.79294 14.47202 11.79294 14.47518 11.79384 14.47848 11.79294 17.74978 13.70674 21.86528 13.58084 22.05078 12.34372 22.50885 10.86082 19.96508 7.805223 16.16208 7.007823 15.4618 6.871123 14.79228 6.817344 14.15428 6.835943 14.16706 6.835943 14.17858 6.836182 14.19139 6.826178 13.58399 6.177278 12.80989 6.011678 12.24609 6.013678 z M 17.17769 9.046878 C 17.72373 9.046878 18.22259 9.543848 18.22259 10.08988 18.22259 10.63598 17.72371 11.13288 17.17769 11.13288 16.63165 11.13288 16.13469 10.63601 16.13469 10.08988 16.13474 9.543879 16.63162 9.046778 17.17769 9.046878 z " /><text id="111" transform="&E10;" x="164.00px" y="119.00px" style="stroke:none;clip-path:url(#113_text_clipper);font-family:Microsoft Sans Serif;fill:rgb(0,0,0);font-size:8.25pt;opacity:1;"><tspan dy="8.25pt" id="115">Timestamp</tspan></text><line y1="19.00" style="&E1;" id="117" x2="118.00" y2="19.00" x1="80.00" /><ellipse id="118" cy="15.00" cx="15.00" transform="&E26;" rx="15.00" ry="15.00" style="&E17;" /><path d="&E18;" style="&E7;" transform="&E26;" id="119" /><path d="&E19;" style="&E7;" transform="&E26;" id="120" /><path d="&E20;" style="&E13;" transform="&E26;" id="121" /><text id="122" transform="&E10;" x="84.00px" y="119.00px" style="stroke:none;clip-path:url(#124_text_clipper);font-family:Microsoft Sans Serif;fill:rgb(0,0,0);font-size:8.25pt;opacity:1;"><tspan dy="8.25pt" id="126">Frame</tspan></text><text id="128" transform="&E10;" x="84.00px" y="131.45px" style="stroke:none;clip-path:url(#130_text_clipper);font-family:Microsoft Sans Serif;fill:rgb(0,0,0);font-size:8.25pt;opacity:1;"><tspan dy="8.25pt" id="132">Number,</tspan></text><text id="134" transform="&E10;" x="84.00px" y="143.90px" style="stroke:none;clip-path:url(#136_text_clipper);font-family:Microsoft Sans Serif;fill:rgb(0,0,0);font-size:8.25pt;opacity:1;"><tspan dy="8.25pt" id="138">Quaternion</tspan></text><path style="&E3;" transform="&E31;" id="140" d="M 31.179 5.2 C 34.9985 11.0918 34.9814 18.682 31.13552 24.557 " /><ellipse id="141" cy="15.00" cx="15.00" transform="&E31;" rx="15.00" ry="15.00" style="stroke:none;opacity:1;fill:rgb(91,178,126);" /><rect id="142" height="13.14" style="&E33;" transform="&E31;" width="10.75" y="4.57" x="9.66" /><rect id="143" height="3.64" style="&E33;" transform="&E31;" width="6.62" y="16.68" x="11.72" /><path style="&E35;" transform="&E31;" id="144" d="M 12.54858 21.20126 10.19729 25.84716 " /><path style="&E37;" transform="&E31;" id="145" d="M 14.15625 21.12463 13.13978 25.92379 " /><path style="&E35;" transform="&E31;" id="146" d="M 17.40598 21.20126 19.75727 25.84716 " /><path style="&E37;" transform="&E31;" id="147" d="M 15.79831 21.07344 16.48332 25.97498 " /><text id="148" transform="&E10;" x="4.00px" y="39.00px" style="stroke:none;clip-path:url(#150_text_clipper);font-family:Microsoft Sans Serif;fill:rgb(0,0,0);font-size:8.25pt;opacity:1;"><tspan dy="8.25pt" id="152">Ucla</tspan></text><text id="154" transform="&E10;" x="4.00px" y="51.45px" style="stroke:none;clip-path:url(#156_text_clipper);font-family:Microsoft Sans Serif;fill:rgb(0,0,0);font-size:8.25pt;opacity:1;"><tspan dy="8.25pt" id="158">MiniscopeV4</tspan></text></g><defs id="clips_hatches_and_gradients"><clipPath id="84_text_clipper"><rect x="244.00" y="39.00" width="62.97" height="13.83" id="85" /></clipPath><clipPath id="95_text_clipper"><rect x="244.00" y="119.00" width="53.45" height="13.83" id="96" /></clipPath><clipPath id="105_text_clipper"><rect x="164.00" y="39.00" width="35.15" height="13.83" id="106" /></clipPath><clipPath id="113_text_clipper"><rect x="164.00" y="119.00" width="59.76" height="13.83" id="114" /></clipPath><clipPath id="124_text_clipper"><rect x="84.00" y="119.00" width="59.78" height="41.48" id="125" /></clipPath><clipPath id="130_text_clipper"><rect x="84.00" y="131.45" width="59.78" height="41.48" id="131" /></clipPath><clipPath id="136_text_clipper"><rect x="84.00" y="143.90" width="59.78" height="41.48" id="137" /></clipPath><clipPath id="150_text_clipper"><rect x="4.00" y="39.00" width="68.66" height="27.65" id="151" /></clipPath><clipPath id="156_text_clipper"><rect x="4.00" y="51.45" width="68.66" height="27.65" id="157" /></clipPath></defs></svg>