<?xml version="1.0" standalone="yes"?><!DOCTYPE svg PUBLIC "-//W3C//DTD SVG 1.1//EN" "http://www.w3.org/Graphics/SVG/1.1/DTD/svg11.dtd"[
<!ENTITY E11 'matrix(1.00 0.00 0.00 1.00 84.00 4.00 ) '><!ENTITY E10 'matrix(1.00 0.00 0.00 1.00 0.00 0.00 ) '><!ENTITY E5 'stroke:none;fill-rule:evenodd;opacity:1;fill:rgb(255,255,255);'><!ENTITY E13 'stroke:rgb(169,169,169);fill:none;stroke-linecap:butt;stroke-miterlimit:9;opacity:1;stroke-width:2;stroke-linejoin:miter;'><!ENTITY E1 'stroke:rgb(169,169,169);fill:none;stroke-linecap:butt;stroke-miterlimit:9;opacity:1;stroke-width:1;stroke-linejoin:miter;'><!ENTITY E19 'matrix(1.00 0.00 0.00 1.00 4.00 4.00 ) '><!ENTITY E16 'stroke:none;opacity:1;fill:rgb(255,255,255);'><!ENTITY E2 'matrix(1.00 0.00 0.00 1.00 164.00 4.00 ) '><!ENTITY E22 'stroke:rgb(255,255,255);fill:none;stroke-linecap:butt;stroke-miterlimit:9;opacity:1;stroke-width:0.878745;stroke-linejoin:miter;'><!ENTITY E24 'stroke:rgb(255,255,255);fill:none;stroke-linecap:butt;stroke-miterlimit:9;opacity:1;stroke-width:0.866585;stroke-linejoin:miter;'>
]><svg width="200.152" height="66.65038" id="SvgGdi_output" xmlns="http://www.w3.org/2000/svg" xmlns:xlink="http://www.w3.org/1999/xlink"><rect id="background" height="100.00%" style="fill:rgb(255,255,255);" width="100.00%" y="0.00" x="0.00" /><g style="shape-rendering:auto;" id="root_group"><line y1="19.00" style="&E1;" id="163" x2="160.00" y2="19.00" x1="118.00" /><line y1="19.00" style="&E1;" id="164" x2="80.00" y2="19.00" x1="38.00" /><ellipse id="165" cy="15.00" cx="15.00" transform="&E2;" rx="15.00" ry="15.00" style="stroke:none;opacity:1;fill:rgb(68,154,223);" /><path style="&E5;" transform="&E2;" id="166" d="M 19.156 13.888 19.156 10.3647 19.156 6.841399 25.2585 10.3647 22.2072 12.1264 z " /><path style="&E5;" transform="&E2;" id="167" d="M 19.156 22.97 19.156 19.4467 19.156 15.9234 25.2585 19.4467 22.2072 21.2084 z " /><path transform="&E2;" id="168" d="M 5.5001 19.484 10.6493 19.484 16.2743 10.2485 19.3728 10.2485 M 14.6769 17.1481 16.3089 19.4828 19.2202 19.4828 M 5.500199 10.2437 10.7586 10.2437 12.1652 12.8707 " style="stroke:rgb(255,255,255);fill:none;stroke-linecap:butt;stroke-miterlimit:9;opacity:1;stroke-width:2;stroke-linejoin:miter;" /><text id="169" transform="&E10;" x="164.00px" y="39.00px" style="stroke:none;clip-path:url(#171_text_clipper);font-family:Microsoft Sans Serif;fill:rgb(0,0,0);font-size:8.25pt;opacity:1;"><tspan dy="8.25pt" id="173">Image</tspan></text><ellipse id="175" cy="15.00" cx="15.00" transform="&E11;" rx="15.00" ry="15.00" style="stroke:none;opacity:1;fill:rgb(238,192,75);" /><ellipse id="176" cy="15.00" cx="15.00" transform="&E11;" rx="15.00" ry="15.00" style="&E13;" /><path transform="&E11;" id="177" d="M 11.061 10.763 C 11.061 9.349799 12.2452 7.7226 13.7798 7.4008 15.4144 6.98898 17.2874 7.88198 17.9084 9.4683 18.47393 10.8026 17.97233 12.4332 16.8453 13.3125 16.16579 13.95364 15.1393 14.28144 14.7641 15.2029 14.48171 16.1142 14.56073 17.1532 14.56319 18.0326 " style="stroke:rgb(255,255,255);fill:none;stroke-linecap:butt;stroke-miterlimit:9;opacity:1;stroke-width:2.5;stroke-linejoin:miter;" /><ellipse id="178" cy="21.60" cx="14.68" transform="&E11;" rx="1.81" ry="1.81" style="&E16;" /><text id="179" transform="&E10;" x="84.00px" y="39.00px" style="stroke:none;clip-path:url(#181_text_clipper);font-family:Microsoft Sans Serif;fill:rgb(0,0,0);font-size:8.25pt;opacity:1;"><tspan dy="8.25pt" id="183">Trigger</tspan></text><path style="&E13;" transform="&E19;" id="185" d="M 31.179 5.2 C 34.9985 11.0918 34.9814 18.682 31.13552 24.557 " /><ellipse id="186" cy="15.00" cx="15.00" transform="&E19;" rx="15.00" ry="15.00" style="stroke:none;opacity:1;fill:rgb(91,178,126);" /><rect id="187" height="13.14" style="&E16;" transform="&E19;" width="10.75" y="4.57" x="9.66" /><rect id="188" height="3.64" style="&E16;" transform="&E19;" width="6.62" y="16.68" x="11.72" /><path style="&E22;" transform="&E19;" id="189" d="M 12.54858 21.20126 10.19729 25.84716 " /><path style="&E24;" transform="&E19;" id="190" d="M 14.15625 21.12463 13.13978 25.92379 " /><path style="&E22;" transform="&E19;" id="191" d="M 17.40598 21.20126 19.75727 25.84716 " /><path style="&E24;" transform="&E19;" id="192" d="M 15.79831 21.07344 16.48332 25.97498 " /><text id="193" transform="&E10;" x="4.00px" y="39.00px" style="stroke:none;clip-path:url(#195_text_clipper);font-family:Microsoft Sans Serif;fill:rgb(0,0,0);font-size:8.25pt;opacity:1;"><tspan dy="8.25pt" id="197">Ucla</tspan></text><text id="199" transform="&E10;" x="4.00px" y="51.45px" style="stroke:none;clip-path:url(#201_text_clipper);font-family:Microsoft Sans Serif;fill:rgb(0,0,0);font-size:8.25pt;opacity:1;"><tspan dy="8.25pt" id="203">MiniscopeV4</tspan></text></g><defs id="clips_hatches_and_gradients"><clipPath id="171_text_clipper"><rect x="164.00" y="39.00" width="35.15" height="13.83" id="172" /></clipPath><clipPath id="181_text_clipper"><rect x="84.00" y="39.00" width="39.62" height="13.83" id="182" /></clipPath><clipPath id="195_text_clipper"><rect x="4.00" y="39.00" width="68.66" height="27.65" id="196" /></clipPath><clipPath id="201_text_clipper"><rect x="4.00" y="51.45" width="68.66" height="27.65" id="202" /></clipPath></defs></svg>