<?xml version="1.0" encoding="UTF-8"?><svg xmlns="http://www.w3.org/2000/svg" viewBox="0 0 302.87 76.1"><defs><style>.cls-1{isolation:isolate;}.cls-1,.cls-2,.cls-3,.cls-4,.cls-5,.cls-6{fill:none;}.cls-7{fill:#fff;}.cls-2{stroke:#ea6a3f;}.cls-2,.cls-3,.cls-4,.cls-5,.cls-6{mix-blend-mode:multiply;stroke-linecap:round;stroke-miterlimit:10;stroke-width:3.59px;}.cls-3{stroke:#fbd026;}.cls-4{stroke:#d6aacd;}.cls-5{stroke:#2fb6df;}.cls-6{stroke:#b5b5b6;}</style></defs><g class="cls-1"><g id="Template"><path class="cls-7" d="m96.32,51.66c-.21,0-.32-.13-.32-.41v-26.23h-4.72c-.24,0-.36-.13-.36-.4v-2.02c0-.27.12-.41.36-.41h12.38c.21,0,.32.14.32.41v2.02c0,.27-.11.4-.32.4h-4.72v26.23c0,.27-.12.41-.36.41h-2.25Z"/><path class="cls-7" d="m109.82,51.93c-2.01,0-3.5-.63-4.46-1.89-.96-1.26-1.44-3.21-1.44-5.85v-7.51c0-2.49.48-4.3,1.44-5.45.96-1.14,2.38-1.71,4.27-1.71s3.28.59,4.25,1.78c.97,1.19,1.46,2.95,1.46,5.29v4.45c0,.24-.11.36-.31.36h-8.19v2.75c0,1.74.23,3,.7,3.78.46.78,1.22,1.17,2.27,1.17.9,0,1.56-.25,1.98-.74.42-.5.6-1.24.54-2.23-.06-.3.03-.45.27-.45h2.16c.21,0,.32.12.32.36.06,1.89-.37,3.35-1.28,4.37-.92,1.02-2.24,1.53-3.98,1.53Zm-2.97-13.27h5.58v-2.02c0-1.53-.22-2.63-.65-3.31-.44-.68-1.15-1.01-2.14-1.01s-1.67.35-2.12,1.04c-.45.69-.67,1.79-.67,3.29v2.02Z"/><path class="cls-7" d="m119.31,51.66c-.21,0-.31-.13-.31-.41v-16.06c0-1.26,0-2.29-.02-3.08-.02-.79-.05-1.4-.11-1.82-.03-.33.06-.5.27-.5h2.07c.15,0,.24.14.27.41.06.39.1.76.11,1.12.01.36.04.74.07,1.12.78-.93,1.55-1.65,2.32-2.16.76-.51,1.61-.77,2.54-.77.81,0,1.5.24,2.07.72.57.48.96,1.2,1.17,2.16.75-.9,1.51-1.6,2.27-2.12.76-.51,1.61-.77,2.54-.77,1.08,0,1.93.42,2.54,1.26.61.84.92,2.06.92,3.65v16.83c0,.27-.11.41-.32.41h-2.29c-.21,0-.32-.13-.32-.41v-16.42c0-.87-.13-1.51-.4-1.91-.27-.4-.69-.61-1.26-.61-.54,0-1.09.22-1.67.65-.57.44-1.17,1.06-1.8,1.87v16.42c0,.27-.11.41-.31.41h-2.29c-.21,0-.32-.13-.32-.41v-16.42c0-.87-.13-1.51-.41-1.91-.27-.4-.69-.61-1.26-.61-.54,0-1.1.22-1.67.65-.57.44-1.17,1.06-1.8,1.87v16.42c0,.27-.11.41-.32.41h-2.29Z"/><path class="cls-7" d="m142.49,59.98c-.21,0-.31-.13-.31-.41v-24.75c0-1.08,0-1.99-.02-2.72-.02-.73-.05-1.36-.11-1.87-.03-.3.06-.45.27-.45h1.93c.24,0,.38.14.41.41.06.3.1.73.13,1.28.03.56.06,1.12.09,1.69l.23,1.08v25.33c0,.27-.11.41-.32.41h-2.29Zm6.44-8.06c-.75,0-1.5-.12-2.25-.36-.75-.24-1.41-.52-1.98-.86l-.04-2.75c.51.27,1.06.53,1.64.77s1.21.36,1.87.36c.78,0,1.37-.35,1.75-1.06s.58-1.85.58-3.44v-9.4c0-1.05-.14-1.79-.43-2.23-.29-.43-.73-.65-1.33-.65-.72,0-1.43.3-2.14.9-.71.6-1.4,1.38-2.09,2.34l-.23-2.61c.84-1.08,1.69-1.92,2.54-2.52.85-.6,1.79-.9,2.81-.9,1.26,0,2.21.43,2.83,1.28s.95,2.23.95,4.12v9.77c0,2.43-.38,4.25-1.15,5.44-.77,1.2-1.88,1.8-3.35,1.8Z"/><path class="cls-7" d="m157.61,51.66c-.21,0-.31-.13-.31-.41v-29.92c0-.27.1-.4.31-.4h2.29c.21,0,.32.13.32.4v29.92c0,.27-.11.41-.32.41h-2.29Z"/><path class="cls-7" d="m167.46,51.93c-1.17,0-2.08-.51-2.72-1.53s-.97-2.45-.97-4.28c0-2.04.45-3.68,1.35-4.93.9-1.24,2.37-1.97,4.41-2.18l2.34-.27v2.38l-2.03.27c-1.05.12-1.84.56-2.36,1.3-.53.75-.79,1.82-.79,3.2,0,.99.15,1.77.45,2.34.3.57.7.85,1.21.85s1.03-.2,1.55-.61c.52-.4,1.21-1.16,2.05-2.27l.13,2.61c-.9,1.11-1.68,1.91-2.34,2.38s-1.42.72-2.29.72Zm4.82-.27c-.18,0-.29-.13-.32-.41-.06-.54-.12-1.22-.18-2.05-.06-.83-.09-1.52-.09-2.09l-.18-.22v-11.34c0-1.23-.14-2.08-.43-2.54-.29-.46-.86-.7-1.73-.7s-1.43.23-1.76.7c-.33.47-.45,1.22-.36,2.27,0,.27-.12.4-.36.4h-1.98c-.3,0-.47-.18-.5-.54-.15-1.77.2-3.15,1.06-4.14.85-.99,2.17-1.49,3.94-1.49s3.13.44,3.89,1.31c.76.87,1.15,2.42,1.15,4.63v10.8c0,1.2.01,2.22.04,3.06.03.84.06,1.47.09,1.89.03.3-.04.45-.23.45h-2.07Z"/><path class="cls-7" d="m183.84,51.93c-1.53,0-2.62-.46-3.29-1.39-.66-.93-.99-2.49-.99-4.68v-13.27h-1.93c-.24,0-.36-.12-.36-.36v-2.02c0-.27.12-.41.36-.41h2.03l.36-5.49c.03-.24.15-.36.36-.36h1.84c.18,0,.27.12.27.36v5.49h4.05c.24,0,.36.14.36.41v2.02c0,.24-.12.36-.36.36h-4.05v13.19c0,1.23.15,2.1.45,2.61.3.51.81.77,1.53.77.39,0,.77-.05,1.12-.14.36-.09.69-.19.99-.31.24-.09.36-.01.36.22v2.07c0,.27-.11.43-.32.5-.39.12-.83.22-1.3.31-.48.09-.98.13-1.49.13Z"/><path class="cls-7" d="m195.23,51.93c-2.01,0-3.5-.63-4.46-1.89-.96-1.26-1.44-3.21-1.44-5.85v-7.51c0-2.49.48-4.3,1.44-5.45.96-1.14,2.38-1.71,4.27-1.71s3.28.59,4.25,1.78c.97,1.19,1.46,2.95,1.46,5.29v4.45c0,.24-.11.36-.31.36h-8.19v2.75c0,1.74.23,3,.7,3.78.46.78,1.22,1.17,2.27,1.17.9,0,1.56-.25,1.98-.74.42-.5.6-1.24.54-2.23-.06-.3.03-.45.27-.45h2.16c.21,0,.32.12.32.36.06,1.89-.37,3.35-1.28,4.37-.92,1.02-2.24,1.53-3.98,1.53Zm-2.97-13.27h5.58v-2.02c0-1.53-.22-2.63-.65-3.31-.44-.68-1.15-1.01-2.14-1.01s-1.67.35-2.12,1.04c-.45.69-.67,1.79-.67,3.29v2.02Z"/></g><g id="Circle"><circle class="cls-7" cx="38" cy="38" r="33.8"/></g><g id="Logo"><line class="cls-5" x1="48.8" y1="10" x2="57.1" y2="59.7"/><line class="cls-5" x1="28.2" y1="21" x2="57.1" y2="59.7"/><line class="cls-4" x1="9.1" y1="40.5" x2="28.2" y2="21"/><line class="cls-6" x1="9.1" y1="40.5" x2="57.1" y2="59.7"/><line class="cls-5" x1="57.1" y1="59.7" x2="62.4" y2="44.9"/><line class="cls-2" x1="28.2" y1="21" x2="62.4" y2="44.9"/><line class="cls-6" x1="9.1" y1="40.5" x2="62.4" y2="44.9"/><line class="cls-3" x1="48.8" y1="10" x2="62.4" y2="44.9"/></g></g></svg>